<svg width="59" height="59" viewBox="0 0 59 59" fill="none" xmlns="http://www.w3.org/2000/svg">
<path d="M56.6799 27.7552C55.1097 27.8152 53.5364 27.7706 52.0445 27.7706C50.1239 15.7933 43.2375 8.90026 31.2285 6.9438V5.87091C31.2285 4.52709 31.2347 3.18328 31.2254 1.83947C31.2193 0.769652 30.4864 0 29.5 0C28.5136 0 27.7792 0.771191 27.7746 1.83947C27.7653 3.56657 27.7715 5.29213 27.7715 6.95458C15.8086 8.86331 8.91146 15.7455 6.94786 27.7706H6.23648C4.93203 27.7706 3.62451 27.8168 2.32159 27.7567C1.2476 27.7059 0.459401 28.0415 0 29.039V29.961C0.460938 30.9554 1.2476 31.2833 2.32005 31.2433C3.88878 31.1832 5.46211 31.2279 6.9494 31.2279C8.87458 43.199 15.7564 50.089 27.7715 52.0454V52.7089C27.7715 54.0327 27.8176 55.3595 27.7577 56.6803C27.7085 57.7532 28.0419 58.5413 29.0391 59H29.9609C30.955 58.5397 31.2838 57.7532 31.2439 56.6803C31.184 55.1102 31.2285 53.5385 31.2285 51.9177C36.726 51.4128 41.4598 49.2778 45.3516 45.3926C49.2466 41.5058 51.3945 36.7786 51.9154 31.2279H52.7082C54.0326 31.2279 55.3586 31.1832 56.6799 31.2417C57.7524 31.291 58.5421 30.9585 59 29.961V29.039C58.5421 28.0384 57.7524 27.7152 56.6799 27.7552ZM28.9377 17.408C34.3091 17.2233 39.089 20.4173 40.8805 25.3862C42.6552 30.3027 40.9266 35.347 37.9812 38.0454C36.8689 34.1264 34.3291 31.8605 30.2529 31.2186C33.3365 30.3382 35.0451 28.0277 34.6456 25.4016C34.2338 22.7017 32.0597 20.8191 29.3986 20.8591C26.8173 20.8976 24.6494 22.8648 24.3452 25.4878C24.0855 27.7167 25.3792 30.469 28.8024 31.2063C24.6724 31.8698 22.1158 34.1295 21.0234 38.0208C18.3499 35.7057 16.4616 30.8815 17.8921 26.0697C19.3532 21.1531 23.9011 17.5819 28.9377 17.408ZM29.4892 27.7691C28.5597 27.7629 27.7761 26.9778 27.773 26.0466C27.7715 25.1138 28.5489 24.3256 29.4816 24.3149C30.4127 24.3056 31.207 25.0768 31.2254 26.0081C31.2454 26.9625 30.4434 27.7737 29.4892 27.7691ZM27.7254 10.6058V13.9615C20.0201 15.3915 15.4383 19.9525 13.9572 27.7475H10.6692C10.8981 20.0602 17.8475 11.3785 27.7254 10.6058ZM27.7377 48.348C19.6421 47.9817 11.3068 40.8054 10.6108 31.2494H13.9587C15.4045 38.9967 19.9724 43.57 27.7377 45.037V48.348ZM29.4862 41.6028C27.8376 41.5858 26.255 41.2611 24.7339 40.6207C24.4297 40.4929 24.3052 40.3421 24.3052 39.9927C24.2976 37.0434 26.6068 34.6805 29.5138 34.6867C32.4177 34.6928 34.7224 37.0772 34.6948 40.0219C34.6917 40.3498 34.5749 40.4914 34.2937 40.6115C32.7558 41.2641 31.1548 41.5905 29.4862 41.6028ZM31.2577 48.3665V45.04C39.0153 43.5839 43.5816 39.0091 45.0413 31.2571H48.3692C47.8253 40.2159 39.9464 47.8693 31.2577 48.3665ZM44.9721 27.7367C44.0779 20.6205 38.6266 14.962 31.2285 14.0092V10.6428C39.4409 11.0276 47.727 18.29 48.3815 27.7367H44.9721Z" fill="black"/>
</svg>
