<svg width="80" height="81" viewBox="0 0 80 81" fill="none" xmlns="http://www.w3.org/2000/svg">
<mask id="mask0_15_3071" style="mask-type:alpha" maskUnits="userSpaceOnUse" x="0" y="0" width="80" height="81">
<rect width="80" height="80.5689" fill="#D9D9D9"/>
</mask>
<g mask="url(#mask0_15_3071)">
<path d="M26.6663 46.9977H33.333V40.2837C33.333 39.3325 33.653 38.5346 34.293 37.8901C34.9308 37.2478 35.7219 36.9266 36.6663 36.9266H43.333V43.6407L53.333 33.5696L43.333 23.4985V30.2125H36.6663C33.8886 30.2125 31.5275 31.1917 29.583 33.15C27.6386 35.1082 26.6663 37.4861 26.6663 40.2837V46.9977ZM6.66634 70.497C5.7219 70.497 4.93079 70.1747 4.29301 69.5302C3.65301 68.8879 3.33301 68.0911 3.33301 67.14C3.33301 66.1888 3.65301 65.3921 4.29301 64.7498C4.93079 64.1052 5.7219 63.7829 6.66634 63.7829H73.333C74.2775 63.7829 75.0686 64.1052 75.7063 64.7498C76.3463 65.3921 76.6663 66.1888 76.6663 67.14C76.6663 68.0911 76.3463 68.8879 75.7063 69.5302C75.0686 70.1747 74.2775 70.497 73.333 70.497H6.66634ZM13.333 60.4259C11.4997 60.4259 9.93079 59.769 8.62634 58.4553C7.31967 57.1394 6.66634 55.5582 6.66634 53.7118V16.7844C6.66634 14.938 7.31967 13.3569 8.62634 12.0409C9.93079 10.7272 11.4997 10.0703 13.333 10.0703H66.6663C68.4997 10.0703 70.0697 10.7272 71.3763 12.0409C72.6808 13.3569 73.333 14.938 73.333 16.7844V53.7118C73.333 55.5582 72.6808 57.1394 71.3763 58.4553C70.0697 59.769 68.4997 60.4259 66.6663 60.4259H13.333ZM13.333 53.7118H66.6663V16.7844H13.333V53.7118Z" fill="#545353"/>
</g>
</svg>
