<svg width="63" height="63" viewBox="0 0 63 63" fill="none" xmlns="http://www.w3.org/2000/svg">
<mask id="mask0_15_3065" style="mask-type:alpha" maskUnits="userSpaceOnUse" x="0" y="0" width="63" height="63">
<rect width="62.7793" height="62.7793" fill="#D9D9D9"/>
</mask>
<g mask="url(#mask0_15_3065)">
<path d="M28.1197 24.1953L24.4576 20.4678L29.2314 15.6939H20.4685C20.0761 16.8274 19.4658 17.8083 18.6374 18.6367C17.8091 19.465 16.8282 20.0754 15.6947 20.4678V42.3097C17.2205 42.8765 18.4744 43.8243 19.4562 45.1531C20.4362 46.4837 20.9263 47.9991 20.9263 49.6994C20.9263 51.8792 20.1633 53.7321 18.6374 55.2579C17.1116 56.7838 15.2587 57.5468 13.0789 57.5468C10.899 57.5468 9.04616 56.7838 7.52027 55.2579C5.99439 53.7321 5.23145 51.8792 5.23145 49.6994C5.23145 47.9991 5.72147 46.4837 6.70153 45.1531C7.68333 43.8243 8.93717 42.8765 10.4631 42.3097V20.4678C8.93717 19.901 7.68333 18.9523 6.70153 17.6218C5.72147 16.2929 5.23145 14.7784 5.23145 13.0781C5.23145 10.8983 5.99439 9.04541 7.52027 7.51952C9.04616 5.99364 10.899 5.23069 13.0789 5.23069C14.7791 5.23069 16.2946 5.72072 17.6251 6.70077C18.954 7.68257 19.9017 8.93641 20.4685 10.4623H29.2314L24.4576 5.68846L28.1197 1.96094L39.2369 13.0781L28.1197 24.1953ZM49.7001 5.23069C51.88 5.23069 53.7328 5.99364 55.2587 7.51952C56.7846 9.04541 57.5475 10.8983 57.5475 13.0781C57.5475 15.2579 56.7846 17.1108 55.2587 18.6367C53.7328 20.1626 51.88 20.9255 49.7001 20.9255C47.5203 20.9255 45.6674 20.1626 44.1415 18.6367C42.6156 17.1108 41.8527 15.2579 41.8527 13.0781C41.8527 10.8983 42.6156 9.04541 44.1415 7.51952C45.6674 5.99364 47.5203 5.23069 49.7001 5.23069ZM13.0789 52.3152C13.82 52.3152 14.4417 52.064 14.9439 51.5618C15.4444 51.0613 15.6947 50.4405 15.6947 49.6994C15.6947 48.9582 15.4444 48.3374 14.9439 47.8369C14.4417 47.3347 13.82 47.0836 13.0789 47.0836C12.3377 47.0836 11.716 47.3347 11.2138 47.8369C10.7133 48.3374 10.4631 48.9582 10.4631 49.6994C10.4631 50.4405 10.7133 51.0613 11.2138 51.5618C11.716 52.064 12.3377 52.3152 13.0789 52.3152ZM13.0789 15.6939C13.82 15.6939 14.4417 15.4437 14.9439 14.9432C15.4444 14.4409 15.6947 13.8192 15.6947 13.0781C15.6947 12.337 15.4444 11.7153 14.9439 11.213C14.4417 10.7125 13.82 10.4623 13.0789 10.4623C12.3377 10.4623 11.716 10.7125 11.2138 11.213C10.7133 11.7153 10.4631 12.337 10.4631 13.0781C10.4631 13.8192 10.7133 14.4409 11.2138 14.9432C11.716 15.4437 12.3377 15.6939 13.0789 15.6939ZM49.7001 15.6939C50.4413 15.6939 51.0621 15.4437 51.5626 14.9432C52.0648 14.4409 52.3159 13.8192 52.3159 13.0781C52.3159 12.337 52.0648 11.7153 51.5626 11.213C51.0621 10.7125 50.4413 10.4623 49.7001 10.4623C48.959 10.4623 48.3382 10.7125 47.8377 11.213C47.3354 11.7153 47.0843 12.337 47.0843 13.0781C47.0843 13.8192 47.3354 14.4409 47.8377 14.9432C48.3382 15.4437 48.959 15.6939 49.7001 15.6939ZM40.6756 31.9119L44.4031 35.574L31.3895 48.5876V52.3152H35.0516L48.1306 39.2361L51.8582 42.8983L37.275 57.5468H26.1579V46.4296L40.6756 31.9119ZM51.8582 42.8983L40.6756 31.9119L44.9263 27.6612C45.9726 26.6149 47.2264 26.0917 48.6878 26.0917C50.1474 26.0917 51.3786 26.6149 52.3813 27.6612L56.0434 31.3887C57.0462 32.3915 57.5475 33.6122 57.5475 35.0509C57.5475 36.4895 57.0462 37.7103 56.0434 38.713L51.8582 42.8983Z" fill="#545353"/>
</g>
</svg>
