<svg width="87" height="87" viewBox="0 0 87 87" fill="none" xmlns="http://www.w3.org/2000/svg">
<mask id="mask0_15_3053" style="mask-type:alpha" maskUnits="userSpaceOnUse" x="0" y="0" width="87" height="87">
<rect width="86.0059" height="86.0059" fill="#D9D9D9"/>
</mask>
<g mask="url(#mask0_15_3053)">
<path d="M14.3343 48.4684L23.3828 39.4198L14.3343 30.3713L5.28578 39.4198L14.3343 48.4684ZM43.0029 43.0034C40.0166 43.0034 37.4782 41.9582 35.3878 39.8678C33.2974 37.7774 32.2522 35.239 32.2522 32.2527C32.2522 29.2066 33.2974 26.6527 35.3878 24.591C37.4782 22.5316 40.0166 21.502 43.0029 21.502C46.049 21.502 48.6017 22.5316 50.661 24.591C52.7228 26.6527 53.7537 29.2066 53.7537 32.2527C53.7537 35.239 52.7228 37.7774 50.661 39.8678C48.6017 41.9582 46.049 43.0034 43.0029 43.0034ZM43.0029 28.6691C41.9876 28.6691 41.1371 29.0119 40.4514 29.6976C39.7634 30.3856 39.4193 31.2373 39.4193 32.2527C39.4193 33.268 39.7634 34.1185 40.4514 34.8042C41.1371 35.4922 41.9876 35.8363 43.0029 35.8363C44.0183 35.8363 44.87 35.4922 45.558 34.8042C46.2437 34.1185 46.5865 33.268 46.5865 32.2527C46.5865 31.2373 46.2437 30.3856 45.558 29.6976C44.87 29.0119 44.0183 28.6691 43.0029 28.6691ZM0 64.5049V58.8607C0 56.2328 1.32951 54.1268 3.98852 52.5429C6.64515 50.9613 10.0937 50.1706 14.3343 50.1706C15.1108 50.1706 15.8573 50.1849 16.574 50.2136C17.2908 50.2446 17.9776 50.3199 18.6346 50.4393C17.7984 51.6339 17.1713 52.918 16.7532 54.2917C16.3351 55.6654 16.1261 57.1287 16.1261 58.6816V64.5049H0ZM21.5015 64.5049V58.6816C21.5015 54.7994 23.488 51.6637 27.461 49.2747C31.4316 46.8856 36.6122 45.6911 43.0029 45.6911C49.4534 45.6911 54.6496 46.8856 58.5915 49.2747C62.5334 51.6637 64.5044 54.7994 64.5044 58.6816V64.5049H21.5015ZM71.6715 50.1706C75.9718 50.1706 79.436 50.9613 82.0639 52.5429C84.6919 54.1268 86.0059 56.2328 86.0059 58.8607V64.5049H69.8798V58.6816C69.8798 57.1287 69.6851 55.6654 69.2956 54.2917C68.9086 52.918 68.3269 51.6339 67.5504 50.4393C68.2074 50.3199 68.8799 50.2446 69.568 50.2136C70.2536 50.1849 70.9548 50.1706 71.6715 50.1706ZM43.0029 52.8583C39.5985 52.8583 36.5525 53.3062 33.8648 54.2021C31.1771 55.098 29.5944 56.1432 29.1166 57.3377H56.9789C56.4413 56.1432 54.8431 55.098 52.1841 54.2021C49.5274 53.3062 46.4671 52.8583 43.0029 52.8583Z" fill="#545353"/>
<circle cx="14" cy="39" r="10" fill="#545353"/>
<circle cx="73" cy="39" r="10" fill="#545353"/>
</g>
</svg>
