<svg width="1792" height="544" viewBox="0 0 1792 544" fill="none" xmlns="http://www.w3.org/2000/svg">
<path d="M461 146C490.271 146 514 121.376 514 91C514 60.6243 490.271 36 461 36C431.729 36 408 60.6243 408 91C408 121.376 431.729 146 461 146Z" fill="#F2F2F2"/>
<path d="M461 50.5291C462.657 50.5291 464 49.1353 464 47.4159C464 45.6966 462.657 44.3027 461 44.3027C459.343 44.3027 458 45.6966 458 47.4159C458 49.1353 459.343 50.5291 461 50.5291Z" fill="black" fill-opacity="0.1"/>
<path d="M419 94.1131C420.657 94.1131 422 92.7193 422 90.9999C422 89.2805 420.657 87.8867 419 87.8867C417.343 87.8867 416 89.2805 416 90.9999C416 92.7193 417.343 94.1131 419 94.1131Z" fill="black" fill-opacity="0.1"/>
<path d="M503 94.1131C504.657 94.1131 506 92.7193 506 90.9999C506 89.2805 504.657 87.8867 503 87.8867C501.343 87.8867 500 89.2805 500 90.9999C500 92.7193 501.343 94.1131 503 94.1131Z" fill="black" fill-opacity="0.1"/>
<path d="M461 137.699C462.657 137.699 464 136.305 464 134.586C464 132.866 462.657 131.473 461 131.473C459.343 131.473 458 132.866 458 134.586C458 136.305 459.343 137.699 461 137.699Z" fill="black" fill-opacity="0.1"/>
<path fill-rule="evenodd" clip-rule="evenodd" d="M461 53.6406L463 89.9614H459L461 53.6406Z" fill="#AFB9C5"/>
<path fill-rule="evenodd" clip-rule="evenodd" d="M478.698 109.366L460.313 93.2226L463.142 90.2875L478.698 109.366Z" fill="#AFB9C5"/>
<path d="M461 95.1515C463.209 95.1515 465 93.2931 465 91.0006C465 88.708 463.209 86.8496 461 86.8496C458.791 86.8496 457 88.708 457 91.0006C457 93.2931 458.791 95.1515 461 95.1515Z" fill="#C5CFD6"/>
<path d="M133 382H99C97.8954 382 97 382.895 97 384V389C97 390.105 97.8954 391 99 391H133C134.105 391 135 390.105 135 389V384C135 382.895 134.105 382 133 382Z" fill="#AFB9C5"/>
<path fill-rule="evenodd" clip-rule="evenodd" d="M107 353C111.293 339.085 113.699 324.419 114.217 309H117H118.783C119.301 324.419 121.707 339.085 126 353H132.5C141.06 353 148 359.94 148 368.5C148 377.06 141.06 384 132.5 384H99.5C90.9396 384 84 377.06 84 368.5C84 359.94 90.9396 353 99.5 353H107Z" fill="#DDE3E9"/>
<path fill-rule="evenodd" clip-rule="evenodd" d="M80.6222 239.679C92.0815 238.56 103.541 238 115 238C126.459 238 137.919 238.56 149.378 239.679L154 319.133C141 320.378 128 321 115 321C102 321 89 320.378 76 319.133L80.6222 239.679Z" fill="#C5CFD6"/>
<path fill-rule="evenodd" clip-rule="evenodd" d="M74 391H157H178V495H157V413H74V495H53V391H74Z" fill="#F2F2F2"/>
<path fill-rule="evenodd" clip-rule="evenodd" d="M261.284 112.081C254.959 107.814 249.854 101.883 248.336 94.1241C243.96 71.7693 276.438 68.3395 285.503 77.8063C294.567 87.273 301.46 115.551 294.16 119.605C291.249 121.222 284.068 121.052 276.208 118.846L288.451 147.198L263.34 153.849L261.284 112.081Z" fill="#B28B67"/>
<path fill-rule="evenodd" clip-rule="evenodd" d="M270.001 90.9815C274.519 103.846 278.839 109.732 282.964 108.639C289.15 107.001 293.356 101.762 296.071 101.043C298.049 100.519 298.265 103.063 297.441 105.209C296.761 106.98 291.879 109.806 292.503 112.107C293.126 114.408 296.808 111.525 297.178 112.889C297.789 115.147 299.672 119.197 295.673 120.256C291.626 121.328 279.632 122.956 276.049 117.598C273.736 114.141 270.773 106.491 267.16 94.6493C266.907 94.6857 266.653 94.7372 266.4 94.8043C262.933 95.7227 260.869 99.221 261.789 102.618C262.257 104.343 263.404 105.709 264.873 106.517C263.965 108.911 262.906 111.441 261.628 114.1C253.503 111.837 245.033 101.155 248.745 87.7551C249.1 81.5783 252.566 77.4113 257.248 74.6626C260.894 71.8952 265.1 70.5778 268.968 70.6336C276.174 69.3595 283.036 69.798 285.158 70.5758C286.93 77.1113 286.163 79.3927 275.077 82.1459C272.745 84.2681 271.314 87.2374 270.001 90.9815Z" fill="#191847"/>
<path fill-rule="evenodd" clip-rule="evenodd" d="M275.566 240.285L328.733 372.792L364.392 484.815H378.473L323.958 240.285L275.566 240.285Z" fill="#997659"/>
<path fill-rule="evenodd" clip-rule="evenodd" d="M264.861 240.285C264.295 286.849 256.038 349.539 254.719 352.442C253.84 354.377 223.481 378.984 163.644 426.264L173.342 436.483C243.945 395.947 280.88 372.976 284.147 367.569C289.048 359.459 305.003 284.832 317.812 240.285H264.861Z" fill="#B28B67"/>
<path fill-rule="evenodd" clip-rule="evenodd" d="M162.282 422.832C159.025 423.97 156.781 425.049 155.551 426.069C154.054 427.31 152.08 429.368 149.628 432.242C151.084 433.958 164.175 449.38 188.899 478.507C193.941 476.374 195.522 473.879 193.644 471.023C191.766 468.167 190.229 465.775 189.033 463.847L180.477 434.3C180.313 433.732 179.713 433.403 179.138 433.566C179.128 433.568 179.118 433.571 179.109 433.574L174.543 435.005C171.376 433.546 169.156 432.067 167.884 430.568C166.85 429.35 165.919 427.255 165.093 424.283L165.093 424.283C164.776 423.143 163.583 422.472 162.43 422.786C162.38 422.799 162.331 422.815 162.282 422.832Z" fill="#E4E4E4"/>
<path fill-rule="evenodd" clip-rule="evenodd" d="M358.626 479.748C357.415 482.946 356.809 485.338 356.809 486.926C356.809 488.857 357.134 491.675 357.785 495.379C360.051 495.379 380.416 495.379 418.881 495.379C420.468 490.191 419.552 487.389 416.131 486.976C412.711 486.562 409.869 486.189 407.606 485.855L379.21 473.341C378.663 473.1 378.023 473.343 377.779 473.883C377.775 473.892 377.771 473.902 377.767 473.911L375.942 478.288C372.775 479.748 370.202 480.479 368.222 480.479C366.614 480.479 364.392 479.836 361.558 478.552L361.558 478.552C360.47 478.059 359.184 478.531 358.686 479.606C358.664 479.653 358.644 479.7 358.626 479.748Z" fill="#E4E4E4"/>
<path fill-rule="evenodd" clip-rule="evenodd" d="M311.313 473.277L378.261 466.122L328.645 240.285H268.682L311.313 473.277Z" fill="#69A1AC"/>
<path fill-rule="evenodd" clip-rule="evenodd" d="M177.491 409.776L221.405 460.96C267.659 411.216 294.625 378.758 302.303 363.586C309.981 348.414 316.884 307.313 323.01 240.285H255.503C252.156 299.254 249.901 330.11 248.735 332.854C247.57 335.598 223.822 361.239 177.491 409.776Z" fill="#89C5CC"/>
<path fill-rule="evenodd" clip-rule="evenodd" d="M358.487 215.716L396.899 234.364C406.565 235.205 414.819 236.909 421.662 239.475C423.358 240.531 425.6 242.878 419.452 243.477C413.304 244.075 406.864 244.977 406.39 247.158C405.916 249.339 410.021 251.133 408.819 254.174C408.017 256.201 401.87 252.54 390.375 243.189L354.227 235.318L358.487 215.716ZM227.987 239.337L250.295 235.538C244.327 281.645 241.033 306.132 240.413 308.997C239.018 315.445 245.876 323.699 248.988 328.234C242.284 332.705 240.944 320.71 232.515 326.51C224.822 331.803 219.689 339.86 208.963 335.673C207.644 335.158 205.855 332.666 208.626 329.992C215.531 323.33 225.189 312.093 226.174 308.777C227.516 304.255 228.12 281.108 227.987 239.337Z" fill="#B28B67"/>
<path fill-rule="evenodd" clip-rule="evenodd" d="M274.927 136.282L283.874 133.118C323.287 156.235 347.31 209.656 394.542 231.94L386.64 246.012C312.28 249.834 282.085 184.829 274.927 136.282Z" fill="#E87613"/>
<path fill-rule="evenodd" clip-rule="evenodd" d="M255.055 257.32C292.041 250.873 319.248 246.131 336.674 243.093C340.404 242.443 338.756 237.268 337.74 234.689C326.015 204.923 295.794 175.902 287.96 131.987L263.77 132.459C249.792 166.66 249.823 205.762 255.055 257.32Z" fill="#DDE3E9"/>
<path fill-rule="evenodd" clip-rule="evenodd" d="M239.774 167.864C236.182 167.493 233.072 165.71 230.444 162.515C219.115 148.742 220.723 139.791 229.426 135.424C238.129 131.057 247.345 135.321 261.997 132.768C262.794 132.629 263.532 132.551 264.213 132.533L271.657 131.662C305.377 198.47 319.598 244.486 314.321 269.71L250.08 280.907C247.831 290.301 245.499 298.281 243.083 304.848L225.579 307.899C214.585 255.79 219.317 209.112 239.774 167.864Z" fill="#FF9B21"/>
<path fill-rule="evenodd" clip-rule="evenodd" d="M257.611 242.265C262.597 258.541 268.034 270.036 273.92 276.752L250.08 280.907C252.703 269.95 255.214 257.069 257.611 242.265V242.265Z" fill="black" fill-opacity="0.1"/>
<path d="M1483.5 209.674C1506.97 209.674 1526 199.6 1526 187.174C1526 174.747 1506.97 164.674 1483.5 164.674C1460.03 164.674 1441 174.747 1441 187.174C1441 199.6 1460.03 209.674 1483.5 209.674Z" fill="#F2F2F2"/>
<path fill-rule="evenodd" clip-rule="evenodd" d="M1533 202.674C1533 175.06 1510.84 152.674 1483.5 152.674C1456.16 152.674 1434 175.06 1434 202.674" fill="#DDE3E9"/>
<path d="M1486 0H1481V160H1486V0Z" fill="#DDE3E9"/>
</svg>
