<svg width="430" height="236" viewBox="0 0 430 236" fill="none" xmlns="http://www.w3.org/2000/svg">
<g clip-path="url(#clip0_2003_10)">
<path d="M48.6982 138.533C49.7948 138.903 50.9573 139.035 52.1089 138.922C52.4987 138.87 52.8935 138.87 53.2833 138.922L47.922 155.022C47.8276 155.302 47.7894 155.599 47.8097 155.895C47.8299 156.191 47.9083 156.48 48.0401 156.745C48.172 157.01 48.3548 157.247 48.5782 157.441C48.8015 157.635 49.0609 157.784 49.3415 157.877L66.0585 163.476L66.6917 161.572C66.8358 161.134 66.8947 160.672 66.8653 160.211C66.8116 159.255 66.9363 158.297 67.2329 157.386C67.9215 155.643 69.2361 154.222 70.9178 153.402C72.5996 152.582 74.5267 152.422 76.3198 152.955C78.113 153.488 79.6422 154.674 80.6064 156.28C81.5706 157.886 81.9 159.796 81.5297 161.634C81.2176 162.868 80.5913 164 79.712 164.919C79.3314 165.312 79.0419 165.783 78.8644 166.301L78.4253 167.631L95.3363 173.363C96.0352 173.594 96.7965 173.538 97.4546 173.208C98.1126 172.878 98.6139 172.301 98.8493 171.603L103.843 156.68L104.997 157.069L105.385 157.212C106.336 158.551 107.63 159.607 109.131 160.271C110.631 160.934 112.282 161.18 113.91 160.982C115.538 160.784 117.082 160.15 118.381 159.146C119.679 158.142 120.684 156.806 121.289 155.279C121.893 153.751 122.076 152.088 121.817 150.465C121.558 148.842 120.867 147.319 119.817 146.057C118.768 144.794 117.397 143.839 115.851 143.291C114.305 142.743 112.64 142.623 111.032 142.944C110.787 142.914 110.544 142.862 110.307 142.79L108.826 142.289L114.382 125.626C114.615 124.926 114.56 124.161 114.231 123.501C113.901 122.841 113.324 122.339 112.625 122.105L66.3751 106.619C65.8077 106.431 65.1891 106.477 64.655 106.745C64.1208 107.014 63.7148 107.484 63.5259 108.052L57.8685 125.022C57.6075 124.853 57.3645 124.658 57.1434 124.439C55.897 123.213 54.2956 122.414 52.5685 122.156C50.4527 121.771 48.2699 122.212 46.4685 123.389C44.6671 124.566 43.3837 126.39 42.8818 128.486C42.3799 130.582 42.6977 132.791 43.7699 134.659C44.842 136.527 46.5873 137.913 48.6471 138.533H48.6982Z" fill="#EBEBEB"/>
</g>
<g clip-path="url(#clip1_2003_10)">
<path d="M401.86 41.8487C400.504 42.2515 399.247 42.9373 398.174 43.8605C397.819 44.1856 397.424 44.4633 396.998 44.6864L391.115 24.9005C391.013 24.5546 390.844 24.2325 390.617 23.9526C390.39 23.6726 390.11 23.4405 389.792 23.2693C389.475 23.0982 389.126 22.9914 388.767 22.9551C388.408 22.9189 388.044 22.9539 387.698 23.0581L367.05 29.2457L367.746 31.5847C367.908 32.1222 368.172 32.6234 368.524 33.061C369.246 33.9745 369.79 35.0151 370.13 36.1295C370.658 38.3475 370.336 40.6859 369.225 42.6844C368.114 44.6829 366.296 46.1967 364.129 46.9278C361.962 47.6589 359.602 47.5545 357.514 46.6349C355.426 45.7152 353.762 44.0471 352.849 41.959C352.299 40.5116 352.134 38.945 352.373 37.4123C352.479 36.7543 352.439 36.0814 352.256 35.4418L351.765 33.8094L330.83 40.001C329.969 40.2632 329.246 40.8541 328.817 41.6449C328.389 42.4357 328.291 43.3624 328.543 44.2228L333.972 62.5794L332.545 63.0041L332.056 63.1344C330.168 62.4721 328.135 62.331 326.169 62.7262C324.203 63.1213 322.379 64.038 320.887 65.3798C319.396 66.7215 318.293 68.4386 317.694 70.3503C317.096 72.2619 317.024 74.2974 317.486 76.2424C317.948 78.1873 318.927 79.9698 320.321 81.4022C321.714 82.8345 323.47 83.8636 325.403 84.3812C327.336 84.8988 329.376 84.8857 331.306 84.3433C333.237 83.8009 334.987 82.7492 336.373 81.299C336.641 81.1566 336.919 81.0371 337.207 80.9418L339.039 80.3993L345.122 100.882C345.378 101.742 345.967 102.464 346.758 102.89C347.549 103.315 348.478 103.408 349.341 103.149L406.465 86.0265C407.164 85.8143 407.752 85.3341 408.099 84.6913C408.446 84.0484 408.524 83.2953 408.316 82.5972L402.121 61.7376C402.5 61.7221 402.88 61.7457 403.254 61.808C405.359 62.1507 407.52 61.8192 409.429 60.861C411.817 59.7562 413.694 57.7823 414.675 55.3444C415.655 52.9065 415.666 50.1898 414.704 47.752C413.742 45.3142 411.88 43.3403 409.501 42.2358C407.122 41.1313 404.406 40.98 401.911 41.8128L401.86 41.8487Z" fill="#EBEBEB"/>
</g>
<g clip-path="url(#clip2_2003_10)">
<path d="M358.65 199.936C358.411 198.975 357.972 198.075 357.36 197.296C357.144 197.038 356.963 196.752 356.82 196.448L370.838 192.963C371.083 192.902 371.313 192.794 371.516 192.645C371.719 192.495 371.89 192.306 372.02 192.09C372.15 191.873 372.235 191.633 372.272 191.383C372.309 191.133 372.296 190.878 372.234 190.633L368.564 176.003L366.907 176.416C366.526 176.512 366.167 176.68 365.85 176.912C365.188 177.388 364.444 177.736 363.654 177.938C362.087 178.237 360.463 177.937 359.101 177.097C357.739 176.257 356.739 174.939 356.296 173.4C355.854 171.862 356.002 170.216 356.711 168.786C357.42 167.355 358.639 166.245 360.127 165.673C361.156 165.334 362.257 165.269 363.321 165.484C363.777 165.58 364.249 165.573 364.702 165.465L365.858 165.174L362.194 150.343C362.038 149.733 361.648 149.209 361.109 148.884C360.57 148.56 359.925 148.462 359.316 148.611L346.312 151.824L346.06 150.813L345.985 150.467C346.508 149.168 346.671 147.751 346.457 146.364C346.243 144.978 345.66 143.673 344.769 142.588C343.879 141.503 342.714 140.678 341.396 140.199C340.079 139.72 338.658 139.605 337.284 139.866C335.91 140.127 334.633 140.756 333.587 141.684C332.542 142.613 331.767 143.807 331.344 145.142C330.921 146.477 330.865 147.903 331.183 149.27C331.501 150.637 332.181 151.894 333.15 152.908C333.241 153.1 333.316 153.298 333.374 153.502L333.695 154.801L319.184 158.403C318.575 158.555 318.051 158.943 317.729 159.483C317.407 160.022 317.312 160.669 317.466 161.28L327.623 201.754C327.749 202.249 328.066 202.675 328.504 202.938C328.943 203.201 329.466 203.28 329.961 203.156L344.739 199.488C344.738 199.753 344.709 200.018 344.654 200.278C344.347 201.738 344.511 203.259 345.12 204.624C345.816 206.328 347.137 207.703 348.81 208.466C350.483 209.229 352.381 209.322 354.116 208.727C355.851 208.132 357.289 206.893 358.137 205.265C358.984 203.637 359.176 201.743 358.673 199.973L358.65 199.936Z" fill="#EBEBEB"/>
</g>
<g clip-path="url(#clip3_2003_10)">
<path d="M5.93231 110.593C5.76412 109.915 5.45433 109.281 5.02342 108.731C4.87115 108.549 4.74316 108.348 4.64274 108.134L14.5235 105.677C14.6962 105.635 14.8587 105.558 15.0017 105.453C15.1447 105.347 15.2654 105.214 15.3568 105.062C15.4483 104.909 15.5087 104.74 15.5346 104.564C15.5605 104.387 15.5513 104.208 15.5077 104.035L12.9205 93.7222L11.7524 94.0131C11.4839 94.0809 11.2311 94.1998 11.0077 94.3632C10.5414 94.6985 10.0164 94.9436 9.45975 95.0859C8.35508 95.2967 7.21006 95.0854 6.25016 94.4935C5.29026 93.9015 4.58501 92.9719 4.27322 91.8876C3.96142 90.8033 4.06565 89.6428 4.56546 88.6347C5.06526 87.6266 5.92441 86.8438 6.97373 86.4405C7.6992 86.2018 8.47479 86.156 9.22467 86.3075C9.54652 86.3749 9.87896 86.3703 10.1983 86.2939L11.0136 86.0889L8.4308 75.6348C8.32085 75.2048 8.04586 74.8352 7.66577 74.6065C7.28568 74.3778 6.8313 74.3085 6.40167 74.4137L-2.76464 76.6783L-2.94201 75.9657L-2.99532 75.722C-2.62675 74.8065 -2.51175 73.8075 -2.66251 72.8302C-2.81328 71.8528 -3.22418 70.9333 -3.85195 70.1684C-4.47972 69.4035 -5.30115 68.8216 -6.22971 68.4839C-7.15827 68.1462 -8.1596 68.0652 -9.12829 68.2494C-10.097 68.4337 -10.9972 68.8764 -11.7341 69.5309C-12.471 70.1855 -13.0174 71.0276 -13.3156 71.9686C-13.6139 72.9097 -13.653 73.9148 -13.4289 74.8782C-13.2048 75.8416 -12.7257 76.7277 -12.0422 77.443C-11.978 77.5778 -11.9253 77.7178 -11.8848 77.8615L-11.6585 78.7767L-21.8869 81.3159C-22.3166 81.423 -22.6856 81.6968 -22.9128 82.0771C-23.1399 82.4575 -23.2067 82.9132 -23.0983 83.344L-15.9386 111.874C-15.8497 112.223 -15.6263 112.523 -15.3173 112.709C-15.0083 112.894 -14.6389 112.949 -14.2903 112.863L-3.87351 110.276C-3.87437 110.464 -3.89446 110.65 -3.93352 110.833C-4.14945 111.863 -4.03446 112.935 -3.60497 113.897C-3.11401 115.098 -2.18332 116.067 -1.00402 116.605C0.175281 117.143 1.51369 117.209 2.73639 116.789C3.95909 116.37 4.97329 115.496 5.57071 114.349C6.16814 113.201 6.30343 111.867 5.94886 110.619L5.93231 110.593Z" fill="#EBEBEB"/>
</g>
<g clip-path="url(#clip4_2003_10)">
<path d="M61.5568 31.9773C62.0522 32.469 62.6464 32.8505 63.2999 33.0964C63.5245 33.1728 63.7382 33.2782 63.9356 33.4097L56.7658 40.6388C56.6402 40.7646 56.5408 40.9141 56.4734 41.0786C56.406 41.243 56.3719 41.4192 56.3729 41.5971C56.374 41.775 56.4102 41.951 56.4796 42.1151C56.549 42.2792 56.6501 42.4282 56.7772 42.5534L64.3419 50.0243L65.1893 49.1693C65.3835 48.9719 65.5379 48.7391 65.6441 48.4834C65.8686 47.9547 66.19 47.4728 66.5919 47.0622C67.4266 46.3085 68.515 45.8947 69.6427 45.9023C70.7704 45.9099 71.8557 46.3384 72.6851 47.1033C73.5145 47.8682 74.0279 48.9141 74.124 50.0352C74.2202 51.1563 73.8922 52.2713 73.2047 53.1608C72.7086 53.7414 72.0695 54.1832 71.3499 54.443C71.0399 54.5525 70.7581 54.729 70.5248 54.96L69.9344 55.5585L77.5689 63.1528C77.8861 63.4632 78.313 63.6364 78.7566 63.6345C79.2002 63.6327 79.6246 63.4561 79.9371 63.1431L86.5959 56.4491L87.1175 56.9661L87.2895 57.1467C87.4498 58.1205 87.8701 59.034 88.5063 59.7911C89.1425 60.5482 89.9711 61.1208 90.9047 61.4486C91.8383 61.7765 92.8425 61.8474 93.8115 61.654C94.7804 61.4606 95.6783 61.01 96.4106 60.3497C97.1428 59.6893 97.6824 58.8436 97.9725 57.9016C98.2625 56.9596 98.2923 55.9563 98.0587 54.9971C97.8251 54.038 97.3368 53.1586 96.6451 52.4515C95.9535 51.7444 95.084 51.2358 94.1284 50.9793C94.0036 50.8974 93.8859 50.8051 93.7767 50.7033L93.1081 50.0385L100.532 42.5585C100.844 42.2439 101.017 41.8183 101.014 41.3753C101.011 40.9323 100.831 40.5082 100.515 40.1961L79.5848 19.5286C79.3274 19.2762 78.9806 19.1355 78.6202 19.1375C78.2599 19.1395 77.9155 19.284 77.6627 19.5392L70.102 27.1572C70.0055 26.9966 69.9258 26.8267 69.8641 26.65C69.5144 25.6582 68.8593 24.8012 67.9928 24.2019C66.9496 23.4301 65.6512 23.0852 64.3641 23.2377C63.0769 23.3902 61.8988 24.0287 61.0716 25.0221C60.2443 26.0154 59.8308 27.2883 59.9159 28.5792C60.001 29.8701 60.5783 31.0812 61.5291 31.9637L61.5568 31.9773Z" fill="#EBEBEB"/>
</g>
<g clip-path="url(#clip5_2003_10)">
<path d="M292.01 115.782C296.308 103.398 297.201 90.086 294.596 77.238C291.991 64.3901 285.984 52.4774 277.202 42.7446C268.42 33.0117 257.185 25.8158 244.672 21.9087C232.158 18.0016 218.825 17.5265 206.065 20.5333C193.305 23.54 181.587 29.9181 172.134 39.0014C162.682 48.0846 155.842 59.5396 152.33 72.1696C148.817 84.7995 148.761 98.141 152.166 110.8C155.572 123.459 162.315 134.972 171.69 144.135C168.854 152.324 165.636 161.579 165.636 161.579L226.253 182.599C226.253 182.599 230.018 172.932 233.178 164.243C246.49 162.35 259.024 156.826 269.402 148.277C279.78 139.728 287.602 128.485 292.01 115.782V115.782Z" fill="#ACB0B9"/>
<path d="M217.178 179.457C217.178 179.457 217.271 179.162 217.351 178.585C217.431 178.007 217.687 177.106 217.936 175.989C218.465 173.69 219.277 170.313 220.375 165.969C222.603 157.301 226.02 144.791 231.12 129.614C232.391 125.812 233.768 121.856 235.253 117.746C236.01 115.695 236.791 113.596 237.568 111.478C238.273 109.248 239.312 107.138 240.65 105.219C241.396 104.249 242.362 103.47 243.469 102.946C244.036 102.661 244.655 102.493 245.289 102.452C245.923 102.411 246.558 102.498 247.158 102.708C247.75 102.972 248.276 103.363 248.7 103.854C249.124 104.344 249.434 104.922 249.61 105.546C250 106.782 250.034 108.103 249.708 109.357C249.313 110.609 248.635 111.753 247.728 112.701C246.82 113.65 245.707 114.377 244.475 114.828C241.977 115.804 239.237 115.979 236.635 115.326C233.967 114.681 231.55 113.256 229.694 111.233C227.824 109.144 226.591 106.563 226.141 103.795C225.654 100.984 225.856 98.0967 226.731 95.3811C227.159 93.994 227.814 92.6876 228.67 91.5154C229.524 90.2644 230.814 89.3779 232.288 89.0303C233.054 88.8942 233.844 88.997 234.549 89.3248C235.244 89.6544 235.852 90.1409 236.326 90.7458C237.248 91.9429 237.763 93.4038 237.795 94.9146C237.82 96.4185 237.623 97.9179 237.21 99.3642C236.838 100.791 236.395 102.198 235.883 103.58C234.839 106.416 233.376 109.079 231.544 111.482C229.708 114.01 227.196 115.969 224.297 117.134C222.844 117.693 221.304 117.992 219.747 118.019C218.189 118.033 216.648 117.697 215.237 117.036C213.853 116.331 212.661 115.3 211.762 114.033C210.89 112.759 210.263 111.333 209.916 109.829C209.247 106.921 209.054 103.925 209.344 100.956C209.445 99.4866 209.616 98.0299 209.795 96.5759C209.955 95.1236 210.239 93.6877 210.645 92.284C211.051 90.8418 211.897 89.5625 213.066 88.6254C213.662 88.1597 214.362 87.8457 215.105 87.7103C215.873 87.5793 216.662 87.7384 217.319 88.1566C217.958 88.5705 218.455 89.1698 218.743 89.8743C219.029 90.5425 219.219 91.2482 219.307 91.9699C219.461 93.3779 219.41 94.8009 219.154 96.1941C218.288 101.686 215.954 106.984 211.959 110.61C209.983 112.401 207.581 113.655 204.983 114.254C202.443 114.883 199.765 114.641 197.378 113.566C195.084 112.441 193.298 110.492 192.377 108.109C191.412 105.846 191.199 103.333 191.769 100.94C192.041 99.7738 192.532 98.6704 193.218 97.6891C193.886 96.684 194.876 95.9365 196.026 95.5701C196.628 95.4178 197.264 95.468 197.834 95.7128C198.387 95.9693 198.844 96.3954 199.138 96.9293C199.634 97.9636 199.845 99.1113 199.751 100.254C199.694 102.497 198.901 104.546 198.361 106.554C197.822 108.562 197.204 110.527 196.646 112.446C192.162 127.817 188.3 140.178 185.477 148.677C184.067 152.923 182.912 156.211 182.125 158.419C181.715 159.525 181.407 160.355 181.202 160.908C181.022 161.482 180.878 161.733 180.878 161.733C180.878 161.733 180.971 161.438 181.143 160.89C181.316 160.342 181.597 159.448 182.015 158.384C182.772 156.157 183.899 152.87 185.278 148.605C188.039 140.096 191.85 127.719 196.281 112.34C196.83 110.419 197.404 108.449 197.979 106.443C198.555 104.437 199.258 102.379 199.339 100.236C199.423 99.1708 199.225 98.1022 198.767 97.1369C198.523 96.6758 198.131 96.3108 197.653 96.1016C197.175 95.8924 196.641 95.8512 196.136 95.9848C195.082 96.3317 194.176 97.0273 193.57 97.9572C192.921 98.8979 192.457 99.9531 192.202 101.067C191.665 103.371 191.879 105.786 192.813 107.959C193.697 110.235 195.404 112.095 197.595 113.171C199.89 114.19 202.459 114.418 204.898 113.819C207.415 113.229 209.74 112.01 211.657 110.274C215.547 106.745 217.833 101.542 218.67 96.1436C218.917 94.7965 218.969 93.421 218.825 92.0592C218.637 90.7399 218.188 89.3105 217.064 88.6138C216.481 88.2992 215.814 88.1733 215.157 88.2535C214.499 88.3337 213.882 88.6161 213.392 89.0617C212.313 89.9404 211.533 91.1327 211.16 92.4738C210.764 93.8493 210.486 95.2561 210.328 96.6787C210.129 98.1079 209.96 99.5562 209.89 101.017C209.611 103.93 209.803 106.869 210.459 109.722C210.808 111.144 211.414 112.491 212.248 113.695C213.103 114.888 214.23 115.859 215.536 116.527C216.897 117.123 218.364 117.438 219.849 117.451C221.334 117.464 222.806 117.177 224.177 116.605C226.967 115.49 229.389 113.617 231.17 111.197C232.963 108.828 234.394 106.205 235.416 103.415C236.398 100.647 237.424 97.8005 237.334 94.9364C237.316 93.5228 236.84 92.1531 235.976 91.0341C235.58 90.4802 235.04 90.0447 234.415 89.7745C233.789 89.5043 233.102 89.4096 232.427 89.5005C231.086 89.8315 229.914 90.6482 229.139 91.7926C228.319 92.9165 227.69 94.1684 227.278 95.4977C226.427 98.1305 226.23 100.931 226.703 103.657C227.132 106.334 228.322 108.831 230.129 110.851C231.918 112.803 234.245 114.181 236.817 114.809C239.323 115.448 241.967 115.285 244.377 114.343C245.542 113.925 246.596 113.243 247.455 112.351C248.314 111.46 248.956 110.382 249.331 109.202C249.637 108.033 249.61 106.802 249.254 105.647C249.095 105.091 248.817 104.576 248.44 104.137C248.063 103.698 247.596 103.347 247.069 103.106C246.527 102.916 245.951 102.838 245.377 102.875C244.803 102.913 244.243 103.066 243.729 103.325C242.684 103.82 241.771 104.555 241.062 105.469C239.747 107.349 238.727 109.419 238.037 111.607C237.249 113.731 236.47 115.821 235.716 117.864C234.209 121.967 232.818 125.916 231.544 129.71C226.404 144.866 222.93 157.349 220.644 165.998C219.515 170.323 218.67 173.717 218.112 175.989C217.838 177.125 217.621 177.993 217.477 178.569C217.333 179.144 217.178 179.457 217.178 179.457Z" fill="white"/>
<path d="M179.426 144.317C179.426 144.317 179.177 144.137 178.676 143.757C178.175 143.377 177.528 142.84 176.704 142.071C174.344 139.952 172.144 137.662 170.122 135.218C163.397 127.125 158.618 117.598 156.153 107.368C153.761 97.1234 153.744 86.4673 156.105 76.2155C156.811 73.1202 157.743 70.0806 158.893 67.1214C159.28 66.0664 159.664 65.2883 159.892 64.7393C160.004 64.4625 160.135 64.194 160.284 63.9359C160.217 64.2233 160.129 64.5052 160.019 64.7791C159.841 65.344 159.471 66.1359 159.118 67.2014C156.455 74.5894 155.029 82.3656 154.896 90.2175C154.686 106.497 160.198 122.334 170.47 134.966C172.459 137.418 174.609 139.735 176.905 141.903C177.704 142.691 178.34 143.234 178.8 143.657C179.029 143.857 179.238 144.078 179.426 144.317Z" fill="#263238"/>
<path d="M167.795 51.7589C167.341 52.9475 166.721 54.0658 165.953 55.0807C165.337 56.177 164.574 57.1841 163.686 58.0741C164.14 56.8856 164.761 55.7673 165.528 54.7524C166.144 53.6561 166.907 52.6489 167.795 51.7589Z" fill="#263238"/>
<path d="M278.792 129.194C278.889 128.952 279.009 128.719 279.149 128.5C279.437 128.025 279.807 127.382 280.28 126.585L281.103 125.204C281.394 124.693 281.661 124.11 281.972 123.504C282.71 122.136 283.378 120.731 283.973 119.296C284.314 118.476 284.655 117.657 285.005 116.84C285.354 116.024 285.64 115.029 285.976 114.079C286.687 112.171 287.183 110.066 287.766 107.858C288.852 103.032 289.469 98.1117 289.609 93.1664C289.672 88.2197 289.257 83.2784 288.367 78.4118C287.871 76.1892 287.466 74.0601 286.833 72.1277C286.537 71.1542 286.308 70.202 285.983 69.3212L285.076 66.7561C284.525 65.1187 283.814 63.7272 283.261 62.4784C282.966 61.8572 282.718 61.2603 282.455 60.7419L281.696 59.3262L280.645 57.3645C280.515 57.1381 280.403 56.9016 280.312 56.6572C280.472 56.8617 280.614 57.08 280.736 57.3098L281.873 59.2337L282.685 60.629C282.959 61.1416 283.263 61.7376 283.525 62.3482C284.228 63.7487 284.859 65.1844 285.415 66.6497C285.725 67.4608 286.05 68.3136 286.394 69.1912C286.739 70.0689 286.971 71.0407 287.278 72.0084C287.937 73.9487 288.367 76.0578 288.866 78.3279C289.811 83.2132 290.265 88.1805 290.224 93.156C290.073 98.1363 289.427 103.089 288.296 107.942C287.787 110.055 287.168 112.14 286.442 114.188C286.137 115.158 285.839 116.102 285.438 116.967C285.036 117.832 284.7 118.663 284.356 119.463C283.737 120.896 283.043 122.295 282.277 123.655C281.946 124.264 281.665 124.834 281.366 125.342C281.067 125.851 280.761 126.292 280.5 126.71C279.99 127.476 279.587 128.109 279.282 128.579C279.138 128.798 278.974 129.004 278.792 129.194Z" fill="#263238"/>
<g opacity="0.2">
<path d="M237.39 41.1865C237.194 37.8629 234.716 34.6365 231.294 32.1698C226.351 28.7074 220.244 27.3284 214.292 28.3305C196.764 31.0255 185.073 37.5498 174.084 52.5054C170.359 57.57 166.246 66.6362 167.1 73.1694C167.28 74.7978 167.794 76.3716 168.609 77.7924C169.425 79.2131 170.526 80.4502 171.841 81.4262C178.853 86.4128 187.739 80.9703 192.623 74.547C197.217 68.5787 200.679 61.2261 207.3 57.6195C212.742 54.6983 219.295 54.842 225.317 53.3731C231.339 51.9042 237.746 47.3871 237.39 41.1865Z" fill="white"/>
</g>
<g opacity="0.2">
<path d="M266.054 48.1033C265.047 42.7916 259.27 38.7404 254.974 39.14C253.186 39.3471 251.467 39.9568 249.948 40.9233C248.429 41.8898 247.149 43.188 246.203 44.7204C245.124 46.6092 244.632 48.777 244.791 50.9467C244.95 53.1165 245.753 55.1894 247.097 56.9004C248.509 58.5537 250.407 59.7192 252.521 60.2312C254.634 60.7431 256.855 60.5753 258.867 59.7516C262.814 58.0187 266.867 52.3531 266.054 48.1033Z" fill="white"/>
</g>
<path d="M170.35 202.614C171.488 204.104 172.409 205.748 173.085 207.497C173.305 208.112 173.661 208.67 174.126 209.128C174.592 209.586 175.156 209.932 175.775 210.141L187.977 214.36C188.645 214.6 189.362 214.672 190.065 214.57C190.767 214.468 191.434 214.195 192.007 213.775C193.365 212.757 195.509 211.745 197.299 211.975L170.35 202.614Z" fill="#455A64"/>
<path d="M168.893 164.068C168.813 164.321 165.039 184.355 163.603 192.012C163.293 193.561 163.374 195.163 163.839 196.674C164.304 198.184 165.138 199.554 166.265 200.662C167.184 201.534 168.282 202.196 169.482 202.601L196.167 211.831C196.167 211.831 203.136 214.247 206.633 209.259C210.313 204.013 221.384 182.198 221.384 182.198L168.893 164.068Z" fill="#263238"/>
<path d="M209.208 207.317L162.664 191.402C162.313 191.281 162.023 191.027 161.859 190.694C161.695 190.361 161.669 189.977 161.787 189.624L161.832 189.481C161.952 189.13 162.207 188.84 162.54 188.676C162.873 188.512 163.257 188.486 163.609 188.604L210.154 204.519C210.328 204.579 210.489 204.673 210.628 204.795C210.766 204.917 210.88 205.065 210.961 205.231C211.042 205.397 211.09 205.577 211.101 205.761C211.113 205.946 211.088 206.13 211.028 206.305L210.983 206.448C210.923 206.622 210.83 206.782 210.709 206.92C210.588 207.057 210.44 207.17 210.276 207.25C210.111 207.331 209.932 207.379 209.749 207.39C209.565 207.401 209.382 207.377 209.208 207.317Z" fill="#ACB0B9"/>
<path d="M209.209 207.316C209.559 207.403 209.928 207.366 210.253 207.209C210.442 207.109 210.606 206.968 210.733 206.797C210.861 206.626 210.949 206.428 210.991 206.218C211.065 205.943 211.048 205.651 210.943 205.386C210.837 205.121 210.649 204.896 210.407 204.747C207.912 203.841 204.114 202.627 199.519 201.061L163.527 188.809C163.343 188.748 163.147 188.732 162.956 188.764C162.765 188.796 162.585 188.875 162.431 188.992C162.28 189.11 162.162 189.264 162.086 189.44C161.993 189.616 161.933 189.807 161.909 190.005C161.904 190.194 161.946 190.382 162.029 190.552C162.113 190.722 162.236 190.869 162.389 190.981C162.771 191.177 163.172 191.334 163.585 191.45L168.605 193.168L178.146 196.449L194.296 202.022L205.149 205.817L208.097 206.874L208.873 207.118C208.963 207.134 209.051 207.162 209.134 207.2C209.044 207.186 208.956 207.158 208.873 207.118L208.097 206.874L205.104 205.932L194.206 202.28L178.024 196.809L168.474 193.554L163.455 191.835L162.856 191.647C162.616 191.575 162.387 191.469 162.177 191.331C161.974 191.183 161.808 190.989 161.691 190.766C161.575 190.543 161.512 190.297 161.507 190.045C161.542 189.789 161.62 189.541 161.738 189.312C161.904 188.936 162.205 188.637 162.581 188.473C162.956 188.308 163.38 188.29 163.769 188.422L199.724 200.792C204.323 202.406 208.031 203.638 210.567 204.621C210.838 204.796 211.044 205.054 211.156 205.357C211.268 205.659 211.279 205.99 211.188 206.299C211.134 206.523 211.032 206.732 210.887 206.911C210.743 207.09 210.56 207.234 210.353 207.334C210.176 207.426 209.978 207.473 209.779 207.47C209.579 207.467 209.383 207.414 209.209 207.316Z" fill="#263238"/>
<path d="M158.042 180.491L157.991 180.642C157.745 181.373 158.138 182.165 158.869 182.412L207.476 198.782C208.207 199.028 208.999 198.635 209.245 197.904L209.296 197.753C209.542 197.022 209.149 196.229 208.418 195.983L159.811 179.613C159.08 179.367 158.288 179.76 158.042 180.491Z" fill="#ACB0B9"/>
<path d="M212.269 201.654C212.631 201.745 213.014 201.7 213.346 201.53C213.54 201.42 213.705 201.267 213.831 201.083C213.956 200.899 214.038 200.689 214.069 200.469C214.127 200.178 214.086 199.876 213.953 199.611C213.82 199.346 213.602 199.133 213.334 199.005L202.003 195.199L164.628 182.511C164.342 182.416 164.03 182.434 163.757 182.562C163.484 182.69 163.27 182.918 163.16 183.199C163.08 183.389 163.04 183.595 163.045 183.802C163.049 184.005 163.11 184.204 163.219 184.375C163.328 184.547 163.483 184.685 163.665 184.775C164.012 184.94 164.508 185.041 164.956 185.237L170.201 187.036L180.11 190.441L196.888 196.23L208.176 200.172L211.242 201.266L212.072 201.573L212.342 201.658C212.249 201.643 212.158 201.614 212.072 201.573L211.229 201.308L208.126 200.332L196.784 196.531L179.975 190.843L170.048 187.46L164.801 185.67C164.338 185.524 163.958 185.405 163.437 185.176C163.194 185.04 162.99 184.844 162.844 184.607C162.698 184.369 162.615 184.099 162.603 183.82C162.6 183.548 162.653 183.277 162.76 183.027C162.855 182.763 163.018 182.53 163.233 182.35C163.45 182.17 163.71 182.048 163.987 181.996C164.264 181.944 164.551 181.963 164.818 182.052L202.146 194.892C206.924 196.553 210.769 197.883 213.449 198.847C213.75 198.995 213.992 199.24 214.135 199.542C214.279 199.845 214.316 200.187 214.241 200.514C214.2 200.748 214.106 200.971 213.965 201.163C213.824 201.355 213.641 201.511 213.429 201.62C213.254 201.723 213.056 201.779 212.853 201.785C212.651 201.791 212.45 201.746 212.269 201.654Z" fill="#263238"/>
<path d="M164.337 176.899L164.286 177.05C164.036 177.779 164.426 178.573 165.156 178.823L214.94 195.845C215.669 196.095 216.463 195.706 216.713 194.976L216.764 194.825C217.014 194.095 216.625 193.301 215.895 193.052L166.111 176.029C165.381 175.78 164.587 176.169 164.337 176.899Z" fill="#ACB0B9"/>
<path d="M214.978 195.872C215.351 195.961 215.743 195.909 216.08 195.727C216.272 195.607 216.436 195.446 216.558 195.256C216.681 195.065 216.759 194.85 216.788 194.625C216.834 194.326 216.777 194.02 216.625 193.758C216.473 193.496 216.236 193.294 215.953 193.185L204.335 189.289L166.066 176.32C165.871 176.256 165.663 176.243 165.461 176.284C165.26 176.325 165.073 176.417 164.918 176.552C164.766 176.686 164.652 176.858 164.586 177.049C164.505 177.244 164.47 177.456 164.484 177.666C164.501 177.864 164.568 178.053 164.678 178.218C164.788 178.382 164.939 178.516 165.115 178.606C165.52 178.733 166.017 178.89 166.451 179.073L171.822 180.911L181.974 184.402L199.144 190.324L210.709 194.361L213.842 195.477L214.672 195.785L214.959 195.875L214.672 195.785L213.829 195.519L210.65 194.519L199.04 190.625L181.832 184.793L171.678 181.338L166.307 179.5C165.835 179.352 165.413 179.219 164.912 179.015C164.655 178.892 164.434 178.705 164.27 178.472C164.107 178.238 164.006 177.967 163.978 177.683C163.96 177.406 164.003 177.129 164.104 176.87C164.246 176.458 164.545 176.119 164.935 175.926C165.325 175.733 165.776 175.702 166.189 175.84L204.403 188.985L215.976 193.025C216.294 193.151 216.559 193.383 216.725 193.682C216.891 193.981 216.949 194.329 216.887 194.665C216.85 194.908 216.758 195.14 216.617 195.341C216.477 195.543 216.292 195.709 216.076 195.828C215.909 195.919 215.723 195.97 215.532 195.977C215.342 195.985 215.152 195.949 214.978 195.872Z" fill="#263238"/>
<path d="M218.06 190.233L166.263 172.517C166.088 172.458 165.927 172.366 165.789 172.245C165.651 172.123 165.538 171.976 165.457 171.811C165.376 171.646 165.329 171.466 165.318 171.283C165.307 171.099 165.333 170.915 165.394 170.742L165.442 170.59C165.501 170.417 165.594 170.256 165.715 170.119C165.837 169.981 165.984 169.869 166.149 169.788C166.314 169.707 166.493 169.66 166.676 169.649C166.859 169.637 167.043 169.662 167.216 169.721L219.013 187.438C219.187 187.497 219.347 187.591 219.485 187.712C219.622 187.833 219.735 187.981 219.815 188.145C219.896 188.31 219.943 188.489 219.955 188.672C219.966 188.856 219.941 189.039 219.882 189.213L219.837 189.356C219.717 189.707 219.462 189.997 219.129 190.161C218.796 190.326 218.412 190.351 218.06 190.233Z" fill="#FFBE21"/>
<path d="M218.059 190.234C218.444 190.329 218.851 190.271 219.194 190.072C219.39 189.941 219.553 189.767 219.671 189.563C219.79 189.36 219.861 189.132 219.879 188.897C219.906 188.582 219.82 188.267 219.636 188.009C219.453 187.751 219.183 187.566 218.876 187.488L206.831 183.448L167.144 169.95C166.942 169.88 166.725 169.867 166.516 169.913C166.307 169.958 166.115 170.06 165.96 170.207C165.814 170.366 165.705 170.555 165.64 170.76C165.576 170.966 165.557 171.183 165.586 171.396C165.625 171.602 165.718 171.794 165.855 171.953C165.992 172.112 166.169 172.231 166.367 172.3L167.801 172.751L173.363 174.659L183.891 178.278L201.706 184.421L213.706 188.605L216.955 189.766L217.785 190.073C217.887 190.09 217.987 190.121 218.08 190.166L216.925 189.803L213.641 188.723L201.596 184.683L183.752 178.632L173.213 175.047L167.64 173.145L166.206 172.694C165.927 172.599 165.679 172.431 165.487 172.208C165.295 171.984 165.166 171.714 165.114 171.424C165.064 171.122 165.098 170.812 165.21 170.528C165.289 170.245 165.443 169.989 165.656 169.788C165.871 169.573 166.141 169.422 166.437 169.351C166.732 169.28 167.041 169.293 167.33 169.387L206.975 183.021L218.967 187.202C219.308 187.297 219.605 187.511 219.804 187.804C220.004 188.098 220.093 188.452 220.056 188.805C220.029 189.057 219.944 189.299 219.809 189.513C219.674 189.728 219.492 189.909 219.277 190.043C219.007 190.199 218.691 190.257 218.383 190.206C218.277 190.231 218.168 190.241 218.059 190.234Z" fill="#263238"/>
<path d="M167.86 145.293C167.704 145.79 164.748 157.834 163.245 164.024C162.972 165.146 162.956 166.314 163.2 167.442C163.444 168.57 163.94 169.629 164.652 170.537L166.758 173.238L218.365 191.09L221.653 190.271C222.786 189.991 223.84 189.456 224.734 188.706C225.629 187.956 226.34 187.012 226.813 185.945L234.605 168.371L167.86 145.293Z" fill="#656464"/>
<g opacity="0.3">
<path d="M164.429 191.892C169.011 194.733 173.929 196.54 179.395 198.399C183.804 199.907 188.087 201.523 192.9 203.074C196.441 204.189 199.714 205.154 203.263 206.215C205.042 206.775 207.148 206.974 207.622 206.734L164.429 191.892Z" fill="#E0FF21"/>
</g>
<g opacity="0.3">
<path d="M164.677 185.214C169.642 188.194 174.953 190.134 180.842 192.154C185.594 193.779 190.211 195.51 195.398 197.197C199.209 198.397 202.741 199.452 206.557 200.607C208.48 201.212 210.726 201.465 211.24 201.246L164.677 185.214Z" fill="#E0FF21"/>
</g>
<g opacity="0.3">
<path d="M166.754 179.261C171.719 182.241 177.03 184.181 182.919 186.201C187.671 187.826 192.288 189.557 197.475 191.244C201.286 192.444 204.802 193.55 208.634 194.654C210.557 195.259 212.812 195.514 213.317 195.293L166.754 179.261Z" fill="#E0FF21"/>
</g>
<g opacity="0.3">
<path d="M168.797 173.296C173.771 176.279 179.073 178.216 184.962 180.236C189.714 181.861 194.331 183.592 199.518 185.279C203.329 186.479 206.861 187.535 210.677 188.689C212.6 189.294 214.855 189.549 215.36 189.328L168.797 173.296Z" fill="#E0FF21"/>
</g>
<path d="M224.684 187.999C224.644 188.126 210.804 183.456 193.782 177.562C176.76 171.668 162.992 166.799 163.041 166.675C163.089 166.551 176.909 171.224 193.942 177.112C210.976 183 224.732 187.875 224.684 187.999Z" fill="#263238"/>
<path d="M234.358 167.914C234.316 168.049 219.268 163.036 200.752 156.709C182.235 150.382 167.264 145.152 167.301 145.006C167.338 144.86 182.391 149.884 200.908 156.211C219.425 162.538 234.395 167.768 234.358 167.914Z" fill="#263238"/>
</g>
<defs>
<clipPath id="clip0_2003_10">
<rect width="79" height="67" fill="white" transform="translate(43 106.558)"/>
</clipPath>
<clipPath id="clip1_2003_10">
<rect width="96.6536" height="81.4497" fill="white" transform="translate(429.909 69.6484) rotate(144.912)"/>
</clipPath>
<clipPath id="clip2_2003_10">
<rect width="67.6322" height="56.9935" fill="white" transform="translate(338.328 218.661) rotate(-122.49)"/>
</clipPath>
<clipPath id="clip3_2003_10">
<rect width="47.6737" height="40.1745" fill="white" transform="translate(-8.39258 123.792) rotate(-122.49)"/>
</clipPath>
<clipPath id="clip4_2003_10">
<rect width="47.6737" height="40.1745" fill="white" transform="translate(66.9482 13.2598) rotate(26.2365)"/>
</clipPath>
<clipPath id="clip5_2003_10">
<rect width="146.403" height="200.59" fill="white" transform="translate(175) rotate(17.4669)"/>
</clipPath>
</defs>
</svg>
