<svg width="1600" height="352" viewBox="0 0 1600 352" fill="none" xmlns="http://www.w3.org/2000/svg">
<mask id="mask0_1978_3" style="mask-type:alpha" maskUnits="userSpaceOnUse" x="0" y="0" width="1600" height="352">
<rect width="1600" height="352" rx="16" fill="#F3B601"/>
</mask>
<g mask="url(#mask0_1978_3)">
<rect width="1600" height="352" fill="#F3B601"/>
<circle cx="1488.5" cy="283.5" r="164.5" fill="#DD9B00"/>
<path fill-rule="evenodd" clip-rule="evenodd" d="M288.139 29.0719C288.139 32.4239 285.411 35.1419 282.046 35.1419C278.68 35.1419 275.952 32.4239 275.952 29.0719C275.952 25.7199 278.68 23.0019 282.046 23.0019C285.411 23.0019 288.139 25.7199 288.139 29.0719ZM253.267 29.0719C253.267 32.4239 250.539 35.1419 247.173 35.1419C243.808 35.1419 241.079 32.4239 241.079 29.0719C241.079 25.7199 243.808 23.0019 247.173 23.0019C250.539 23.0019 253.267 25.7199 253.267 29.0719ZM217.908 29.0719C217.908 32.4239 215.179 35.1419 211.814 35.1419C208.448 35.1419 205.72 32.4239 205.72 29.0719C205.72 25.7199 208.448 23.0019 211.814 23.0019C215.179 23.0019 217.908 25.7199 217.908 29.0719ZM183.036 29.0719C183.036 32.4239 180.308 35.1419 176.942 35.1419C173.576 35.1419 170.848 32.4239 170.848 29.0719C170.848 25.7199 173.576 23.0019 176.942 23.0019C180.308 23.0019 183.036 25.7199 183.036 29.0719ZM148.163 29.0719C148.163 32.4239 145.435 35.1419 142.069 35.1419C138.704 35.1419 135.975 32.4239 135.975 29.0719C135.975 25.7199 138.704 23.0019 142.069 23.0019C145.435 23.0019 148.163 25.7199 148.163 29.0719ZM113.292 29.0719C113.292 32.4239 110.563 35.1419 107.198 35.1419C103.832 35.1419 101.104 32.4239 101.104 29.0719C101.104 25.7199 103.832 23.0019 107.198 23.0019C110.563 23.0019 113.292 25.7199 113.292 29.0719ZM78.419 29.0719C78.419 32.4239 75.691 35.1419 72.325 35.1419C68.96 35.1419 66.231 32.4239 66.231 29.0719C66.231 25.7199 68.96 23.0019 72.325 23.0019C75.691 23.0019 78.419 25.7199 78.419 29.0719ZM43.06 29.0719C43.06 32.4239 40.331 35.1419 36.966 35.1419C33.6 35.1419 30.872 32.4239 30.872 29.0719C30.872 25.7199 33.6 23.0019 36.966 23.0019C40.331 23.0019 43.06 25.7199 43.06 29.0719ZM8.188 29.0719C8.188 32.4239 5.459 35.1419 2.094 35.1419C-1.272 35.1419 -4 32.4239 -4 29.0719C-4 25.7199 -1.272 23.0019 2.094 23.0019C5.459 23.0019 8.188 25.7199 8.188 29.0719ZM323.012 62.3499C323.012 65.7019 320.283 68.4199 316.918 68.4199C313.552 68.4199 310.824 65.7019 310.824 62.3499C310.824 58.9969 313.552 56.2799 316.918 56.2799C320.283 56.2799 323.012 58.9969 323.012 62.3499ZM288.139 62.3499C288.139 65.7019 285.411 68.4199 282.046 68.4199C278.68 68.4199 275.952 65.7019 275.952 62.3499C275.952 58.9969 278.68 56.2799 282.046 56.2799C285.411 56.2799 288.139 58.9969 288.139 62.3499ZM253.267 62.3499C253.267 65.7019 250.539 68.4199 247.173 68.4199C243.808 68.4199 241.079 65.7019 241.079 62.3499C241.079 58.9969 243.808 56.2799 247.173 56.2799C250.539 56.2799 253.267 58.9969 253.267 62.3499ZM217.908 62.3499C217.908 65.7019 215.179 68.4199 211.814 68.4199C208.448 68.4199 205.72 65.7019 205.72 62.3499C205.72 58.9969 208.448 56.2799 211.814 56.2799C215.179 56.2799 217.908 58.9969 217.908 62.3499ZM183.036 62.3499C183.036 65.7019 180.308 68.4199 176.942 68.4199C173.576 68.4199 170.848 65.7019 170.848 62.3499C170.848 58.9969 173.576 56.2799 176.942 56.2799C180.308 56.2799 183.036 58.9969 183.036 62.3499ZM148.163 62.3499C148.163 65.7019 145.435 68.4199 142.069 68.4199C138.704 68.4199 135.975 65.7019 135.975 62.3499C135.975 58.9969 138.704 56.2799 142.069 56.2799C145.435 56.2799 148.163 58.9969 148.163 62.3499ZM113.292 62.3499C113.292 65.7019 110.563 68.4199 107.198 68.4199C103.832 68.4199 101.104 65.7019 101.104 62.3499C101.104 58.9969 103.832 56.2799 107.198 56.2799C110.563 56.2799 113.292 58.9969 113.292 62.3499ZM78.419 62.3499C78.419 65.7019 75.691 68.4199 72.325 68.4199C68.96 68.4199 66.231 65.7019 66.231 62.3499C66.231 58.9969 68.96 56.2799 72.325 56.2799C75.691 56.2799 78.419 58.9969 78.419 62.3499ZM43.06 62.3499C43.06 65.7019 40.331 68.4199 36.966 68.4199C33.6 68.4199 30.872 65.7019 30.872 62.3499C30.872 58.9969 33.6 56.2799 36.966 56.2799C40.331 56.2799 43.06 58.9969 43.06 62.3499ZM8.188 62.3499C8.188 65.7019 5.459 68.4199 2.094 68.4199C-1.272 68.4199 -4 65.7019 -4 62.3499C-4 58.9969 -1.272 56.2799 2.094 56.2799C5.459 56.2799 8.188 58.9969 8.188 62.3499ZM323.012 95.6279C323.012 98.9799 320.283 101.698 316.918 101.698C313.552 101.698 310.824 98.9799 310.824 95.6279C310.824 92.2749 313.552 89.5579 316.918 89.5579C320.283 89.5579 323.012 92.2749 323.012 95.6279ZM288.139 95.6279C288.139 98.9799 285.411 101.698 282.046 101.698C278.68 101.698 275.952 98.9799 275.952 95.6279C275.952 92.2749 278.68 89.5579 282.046 89.5579C285.411 89.5579 288.139 92.2749 288.139 95.6279ZM253.267 95.6279C253.267 98.9799 250.539 101.698 247.173 101.698C243.808 101.698 241.079 98.9799 241.079 95.6279C241.079 92.2749 243.808 89.5579 247.173 89.5579C250.539 89.5579 253.267 92.2749 253.267 95.6279ZM217.908 95.6279C217.908 98.9799 215.179 101.698 211.814 101.698C208.448 101.698 205.72 98.9799 205.72 95.6279C205.72 92.2749 208.448 89.5579 211.814 89.5579C215.179 89.5579 217.908 92.2749 217.908 95.6279ZM183.036 95.6279C183.036 98.9799 180.308 101.698 176.942 101.698C173.576 101.698 170.848 98.9799 170.848 95.6279C170.848 92.2749 173.576 89.5579 176.942 89.5579C180.308 89.5579 183.036 92.2749 183.036 95.6279ZM148.163 95.6279C148.163 98.9799 145.435 101.698 142.069 101.698C138.704 101.698 135.975 98.9799 135.975 95.6279C135.975 92.2749 138.704 89.5579 142.069 89.5579C145.435 89.5579 148.163 92.2749 148.163 95.6279ZM113.292 95.6279C113.292 98.9799 110.563 101.698 107.198 101.698C103.832 101.698 101.104 98.9799 101.104 95.6279C101.104 92.2749 103.832 89.5579 107.198 89.5579C110.563 89.5579 113.292 92.2749 113.292 95.6279ZM78.419 95.6279C78.419 98.9799 75.691 101.698 72.325 101.698C68.96 101.698 66.231 98.9799 66.231 95.6279C66.231 92.2749 68.96 89.5579 72.325 89.5579C75.691 89.5579 78.419 92.2749 78.419 95.6279ZM43.06 95.6279C43.06 98.9799 40.331 101.698 36.966 101.698C33.6 101.698 30.872 98.9799 30.872 95.6279C30.872 92.2749 33.6 89.5579 36.966 89.5579C40.331 89.5579 43.06 92.2749 43.06 95.6279ZM8.188 95.6279C8.188 98.9799 5.459 101.698 2.094 101.698C-1.272 101.698 -4 98.9799 -4 95.6279C-4 92.2749 -1.272 89.5579 2.094 89.5579C5.459 89.5579 8.188 92.2749 8.188 95.6279ZM323.012 127.934C323.012 131.286 320.283 134.004 316.918 134.004C313.552 134.004 310.824 131.286 310.824 127.934C310.824 124.582 313.552 121.864 316.918 121.864C320.283 121.864 323.012 124.582 323.012 127.934ZM288.139 127.934C288.139 131.286 285.411 134.004 282.046 134.004C278.68 134.004 275.952 131.286 275.952 127.934C275.952 124.582 278.68 121.864 282.046 121.864C285.411 121.864 288.139 124.582 288.139 127.934ZM253.267 127.934C253.267 131.286 250.539 134.004 247.173 134.004C243.808 134.004 241.079 131.286 241.079 127.934C241.079 124.582 243.808 121.864 247.173 121.864C250.539 121.864 253.267 124.582 253.267 127.934ZM217.908 127.934C217.908 131.286 215.179 134.004 211.814 134.004C208.448 134.004 205.72 131.286 205.72 127.934C205.72 124.582 208.448 121.864 211.814 121.864C215.179 121.864 217.908 124.582 217.908 127.934ZM183.036 127.934C183.036 131.286 180.308 134.004 176.942 134.004C173.576 134.004 170.848 131.286 170.848 127.934C170.848 124.582 173.576 121.864 176.942 121.864C180.308 121.864 183.036 124.582 183.036 127.934ZM148.163 127.934C148.163 131.286 145.435 134.004 142.069 134.004C138.704 134.004 135.975 131.286 135.975 127.934C135.975 124.582 138.704 121.864 142.069 121.864C145.435 121.864 148.163 124.582 148.163 127.934ZM113.292 127.934C113.292 131.286 110.563 134.004 107.198 134.004C103.832 134.004 101.104 131.286 101.104 127.934C101.104 124.582 103.832 121.864 107.198 121.864C110.563 121.864 113.292 124.582 113.292 127.934ZM78.419 127.934C78.419 131.286 75.691 134.004 72.325 134.004C68.96 134.004 66.231 131.286 66.231 127.934C66.231 124.582 68.96 121.864 72.325 121.864C75.691 121.864 78.419 124.582 78.419 127.934ZM43.06 127.934C43.06 131.286 40.331 134.004 36.966 134.004C33.6 134.004 30.872 131.286 30.872 127.934C30.872 124.582 33.6 121.864 36.966 121.864C40.331 121.864 43.06 124.582 43.06 127.934ZM8.188 127.934C8.188 131.286 5.459 134.004 2.094 134.004C-1.272 134.004 -4 131.286 -4 127.934C-4 124.582 -1.272 121.864 2.094 121.864C5.459 121.864 8.188 124.582 8.188 127.934ZM310.824 29.0719C310.824 25.7199 313.552 23.0019 316.918 23.0019C320.283 23.0019 323.012 25.7199 323.012 29.0719C323.012 32.4239 320.283 35.1419 316.918 35.1419C313.552 35.1419 310.824 32.4239 310.824 29.0719Z" fill="#DD9B00"/>
<circle cx="117.5" cy="417.5" r="208.5" stroke="#DD9B00" stroke-width="94"/>
</g>
</svg>
