<svg width="100%" height="100%" preserveAspectRatio="none" viewBox="0 0 1920 974" fill="none" xmlns="http://www.w3.org/2000/svg">
<path fill-rule="evenodd" clip-rule="evenodd" d="M0.000954167 286.402C0.000954167 286.402 -0.000274166 59.1545 5.65209e-05 45.098C127.216 64.8525 853.562 171.637 1760.13 20.8955C1819.52 11.0202 1873.28 4.31599 1920 0C1920 93.5599 1920 490.221 1920 490.221C1920 490.221 0.000897512 466.501 0.00105569 484.072" fill="#F1F1F1"/>
<path fill-rule="evenodd" clip-rule="evenodd" d="M1920 974C1920 974 1772.54 949.053 1760.92 947.462C1612 927.058 1061.23 766.762 0 922.459C0.00195627 654.06 0 462.108 0 462.108C0 462.108 1920 459.766 1920 441.316" fill="#F1F1F1"/>
</svg>
