<svg width="132" height="132" viewBox="0 0 132 132" fill="none" xmlns="http://www.w3.org/2000/svg">
<path d="M49.5 110H82.5V121H49.5V110ZM92.983 75.416C98.648 68.783 104.5 61.9245 104.5 49.5C104.5 28.2755 87.2245 11 66 11C44.7755 11 27.5 28.2755 27.5 49.5C27.5 62.0675 33.3685 68.904 39.0555 75.515C41.0245 77.814 43.065 80.1955 45.0175 82.9345C45.8095 84.0675 47.1075 88.4125 48.268 93.5H43.912V104.5H88.088V93.5H83.743C84.9145 88.4015 86.218 84.0455 87.0045 82.9125C88.9405 80.146 90.9975 77.7425 92.983 75.416Z" fill="#B6B6B6"/>
</svg>
