<svg width="175" height="175" viewBox="0 0 175 175" fill="none" xmlns="http://www.w3.org/2000/svg">
<path d="M153.125 58.333C151.652 58.333 117.76 58.5445 87.4997 72.9747C57.2393 58.5445 23.3476 58.333 21.8747 58.333C19.9408 58.333 18.0861 59.1012 16.7187 60.4687C15.3512 61.8361 14.583 63.6908 14.583 65.6247V137.688C14.583 138.667 14.7799 139.635 15.162 140.536C15.5441 141.436 16.1035 142.251 16.807 142.931C18.2288 144.302 20.307 145.155 22.1226 144.973L23.0486 144.965C28.0288 144.965 54.3736 145.68 84.4153 159.731C84.532 159.789 84.6632 159.767 84.7799 159.811C85.6476 160.168 86.5591 160.416 87.4997 160.416C88.4403 160.416 89.3518 160.168 90.2268 159.811C90.3434 159.767 90.4747 159.789 90.5913 159.731C120.633 145.673 146.978 144.965 151.958 144.965L152.884 144.973C154.619 145.155 156.771 144.302 158.2 142.931C159.614 141.553 160.416 139.657 160.416 137.688V65.6247C160.416 63.6908 159.648 61.8361 158.281 60.4687C156.913 59.1012 155.059 58.333 153.125 58.333ZM29.1663 73.2736C39.9945 74.083 61.1111 76.7736 80.208 85.6111V142.063C58.333 133.496 39.4476 131.169 29.1663 130.572V73.2736ZM145.833 130.572C135.552 131.169 116.666 133.496 94.7913 142.063V85.6111C113.888 76.7736 135.005 74.083 145.833 73.2736V130.572Z" fill="#B6B6B6"/>
<path d="M87.5 58.333C99.5812 58.333 109.375 48.5392 109.375 36.458C109.375 24.3768 99.5812 14.583 87.5 14.583C75.4188 14.583 65.625 24.3768 65.625 36.458C65.625 48.5392 75.4188 58.333 87.5 58.333Z" fill="#B6B6B6"/>
</svg>
