<svg width="54" height="51" viewBox="0 0 54 51" fill="none" xmlns="http://www.w3.org/2000/svg">
<path d="M51.3016 40.8905C50.2406 40.8627 49.4009 41.7163 49.3271 42.9C49.2046 44.8802 48.0934 46.3647 46.2901 46.9733C45.9559 47.0861 45.6161 47.1306 45.2652 47.1306C35.9941 47.1306 26.7216 47.1334 17.4505 47.1265C15.3353 47.1251 13.4193 45.149 13.4012 42.9501C13.3817 40.5187 13.397 38.0873 13.397 35.6558C13.3956 32.6172 13.4277 29.5786 13.3859 26.54C13.3539 24.0752 15.4913 22.0991 17.807 22.1144C26.8525 22.1715 35.8994 22.1618 44.945 22.12C47.3066 22.1089 49.3327 24.0821 49.3271 26.4746C49.3229 28.3671 49.3229 30.2596 49.3271 32.1521C49.3313 33.4945 50.1208 34.4206 51.2529 34.4206C52.3947 34.422 53.1926 33.5029 53.1968 32.166C53.201 30.222 53.2483 28.2752 53.1856 26.3325C53.0896 23.2981 51.7263 20.9586 49.1308 19.3585C49.0416 19.3042 48.9456 19.2624 48.8564 19.2081C48.4345 18.9533 48.3969 18.8154 48.7116 18.4352C49.2435 17.7905 49.7588 17.1318 50.1487 16.3937C51.8628 13.149 52.0661 9.81102 50.5191 6.47163C48.8439 2.85511 45.9865 0.647883 42.0222 0.117312C38.0411 -0.417437 34.6657 0.87905 32.02 3.94411C31.3795 4.68635 31.3349 4.71142 30.7083 3.95803C28.8284 1.70067 26.4153 0.342909 23.5161 0.0755346C18.9098 -0.350593 15.2629 1.40405 12.7732 5.34504C10.2709 9.30552 10.7444 14.6238 13.8551 18.2584C13.9234 18.3378 13.9944 18.413 14.0612 18.4923C14.298 18.7667 14.259 18.9937 13.9415 19.1663C13.4666 19.424 13.0155 19.7122 12.5922 20.0478C11.151 21.1911 10.2389 22.6715 9.77379 24.4386C9.75569 24.5055 9.74037 24.5737 9.72227 24.6406C9.54543 25.302 9.48694 25.3396 8.81438 25.1182C6.96795 24.511 5.12571 23.8858 3.27928 23.2758C3.03281 23.1937 2.78635 23.1087 2.53292 23.0488C1.703 22.8525 0.878653 23.2146 0.434453 23.9429C0.317485 24.1364 0.311915 24.4358 0 24.4734V44.7925C0.175452 45.2047 0.334194 45.628 0.694846 45.9261C1.3702 46.4845 2.10682 46.5736 2.93395 46.2909C5.09089 45.5542 7.2548 44.8454 9.43264 44.1185C9.43542 44.1185 9.4396 44.1171 9.44238 44.1157C9.44378 44.1185 9.44378 44.1227 9.44517 44.1255C9.60948 44.216 9.68189 44.4736 9.81278 44.9791C10.729 48.5009 13.9512 51.0006 17.5758 51.0006H45.1831C49.0778 51.0006 52.5535 47.9759 53.0896 44.1199C53.1425 43.7411 53.2079 43.3665 53.1982 42.9808C53.1703 41.8013 52.3752 40.9184 51.3016 40.8905ZM40.4737 4.00538C44.3434 3.99981 47.5029 7.13589 47.5141 10.9961C47.5266 14.9204 44.3643 18.101 40.4626 18.0899C36.6054 18.0801 33.4487 14.9176 33.4445 11.063C33.4417 7.16235 36.579 4.01234 40.4737 4.00538ZM31.3753 17.6262C31.5466 17.6275 31.6064 17.8782 31.7568 18.0732H30.9993C31.0968 17.8685 31.1692 17.6234 31.3753 17.6262ZM22.2462 4.00538C26.1424 4.01931 29.2852 7.17627 29.2754 11.0685C29.2643 14.9427 26.0658 18.1163 22.1961 18.0899C18.3083 18.0648 15.1905 14.8995 15.2031 10.9905C15.2156 7.13032 18.3793 3.99285 22.2462 4.00538ZM4.17743 27.8101C4.91127 28.0551 5.61864 28.2905 6.32741 28.5272C7.22835 28.828 8.12649 29.1427 9.03439 29.4254C9.29757 29.5076 9.37972 29.6246 9.37972 29.8975C9.36998 33.0559 9.37276 36.2142 9.37415 39.374C9.37415 39.5871 9.38112 39.75 9.10262 39.8405C7.47621 40.3655 5.85815 40.917 4.17743 41.4796V27.8101Z" fill="black"/>
<path d="M33.2471 33.3178C33.2471 36.4859 35.8315 39.0747 39.0064 39.0859C42.1923 39.097 44.7907 36.5361 44.806 33.368C44.8199 30.1567 42.2675 27.5665 39.0565 27.5345C35.8956 27.5024 33.2471 30.1386 33.2471 33.3178ZM40.6383 33.3123C40.6411 34.2077 39.9212 34.9221 39.0217 34.9179C38.15 34.9137 37.4329 34.2105 37.4148 33.3457C37.398 32.4739 38.1388 31.7108 39.0147 31.7011C39.8961 31.6913 40.6342 32.4238 40.6383 33.3123Z" fill="black"/>
<path d="M19.1702 39.5399C19.173 40.8016 20.0474 41.7388 21.2297 41.7541C22.4244 41.7694 23.3337 40.8183 23.3351 39.5288C23.3407 36.2674 23.3407 33.0074 23.3351 29.7459C23.3351 28.4829 22.4523 27.5485 21.2714 27.5317C20.0809 27.5136 19.173 28.4731 19.1702 29.7571C19.1674 31.3878 19.1702 33.0171 19.1702 34.6478C19.1702 36.2785 19.1674 37.9092 19.1702 39.5399Z" fill="black"/>
</svg>
