<svg width="173" height="387" viewBox="0 0 173 387" fill="none" xmlns="http://www.w3.org/2000/svg">
<path d="M132.76 105.095L136.241 103.015L140.825 115.358L137.103 117.642L132.76 105.095Z" fill="#F5F5F5"/>
<path d="M71.783 25.5519C71.596 20.7635 69.6093 16.2212 66.2187 12.8302C62.8282 9.43912 58.2827 7.44823 53.488 7.25424L52.4973 7.20801C41.8221 7.39293 36.0077 16.5464 36.4891 27.2069L37.8316 70.108L54.7194 76.5801L61.2004 70.5888C61.2004 67.5839 61.2004 61.3429 61.256 61.3429C61.3115 61.3429 71.5608 60.1779 72.1163 49.9519C72.4219 44.9961 72.1441 34.7886 71.783 25.5519Z" fill="#FFBF9D"/>
<path d="M61.302 61.3246C56.5744 61.1171 52.0055 59.5609 48.1362 56.8403C48.1362 56.8403 51.0249 64.6624 61.2834 64.1631L61.302 61.3246Z" fill="#FF9A6C"/>
<path d="M68.2368 34.3729C68.2248 34.7539 68.0641 35.1151 67.7891 35.3794C67.514 35.6437 67.1464 35.7901 66.7648 35.7875C66.4025 35.7879 66.054 35.6488 65.7919 35.3991C65.5297 35.1493 65.3741 34.8083 65.3574 34.4469C65.3695 34.0659 65.5302 33.7047 65.8052 33.4404C66.0802 33.1761 66.4479 33.0297 66.8296 33.0323C67.1925 33.0296 67.5423 33.168 67.8049 33.4182C68.0676 33.6683 68.2224 34.0107 68.2368 34.3729Z" fill="#040404"/>
<path d="M69.4127 29.9807C69.2275 30.1564 68.1535 29.2965 66.5795 29.2318C65.0056 29.1671 63.8019 29.916 63.6538 29.7126C63.5056 29.5092 63.7741 29.2873 64.2926 28.9452C64.9936 28.5011 65.8152 28.2847 66.6444 28.3257C67.4636 28.3581 68.2514 28.6495 68.8942 29.1579C69.3571 29.5462 69.5145 29.8975 69.4127 29.9807Z" fill="#040404"/>
<path d="M54.5712 34.3726C54.5591 34.7535 54.3985 35.1147 54.1234 35.379C53.8484 35.6433 53.4808 35.7898 53.0991 35.7872C52.9125 35.7946 52.7262 35.7646 52.5513 35.6989C52.3765 35.6333 52.2165 35.5333 52.081 35.4048C51.9455 35.2764 51.8372 35.1222 51.7624 34.9512C51.6876 34.7803 51.6478 34.5961 51.6455 34.4095C51.6552 34.0278 51.8152 33.6652 52.0908 33.4004C52.3663 33.1356 52.7353 32.9899 53.1177 32.9949C53.304 32.9888 53.4897 33.0196 53.664 33.0858C53.8383 33.1519 53.9977 33.252 54.133 33.3801C54.2682 33.5083 54.3766 33.6621 54.4518 33.8324C54.527 34.0028 54.5676 34.1864 54.5712 34.3726Z" fill="#040404"/>
<path d="M53.9789 29.7035C53.7845 29.8884 52.7104 29.0193 51.1365 28.9638C49.5625 28.9083 48.3589 29.6387 48.22 29.4446C48.0811 29.2504 48.3311 29.0193 48.8588 28.6679C49.5582 28.2279 50.3755 28.0117 51.2013 28.0484C52.0208 28.0795 52.809 28.3711 53.4511 28.8806C53.9233 29.2689 54.0715 29.6202 53.9789 29.7035Z" fill="#040404"/>
<path d="M59.1264 42.0097C59.9674 41.7915 60.8314 41.6736 61.7002 41.6584C62.0983 41.6584 62.4872 41.566 62.5613 41.2978C62.617 40.8848 62.5426 40.4647 62.3483 40.0959C62.0058 39.1065 61.6539 38.0802 61.2836 36.9892C59.8115 32.5697 58.7653 28.9453 58.9412 28.8898C59.1171 28.8343 60.4596 32.3663 61.9317 36.7858C62.2835 37.8768 62.6169 38.9124 62.9409 39.9017C63.1689 40.3998 63.2211 40.9604 63.089 41.492C63.0238 41.6298 62.9283 41.7513 62.8098 41.8473C62.6912 41.9433 62.5524 42.0115 62.4039 42.0467C62.1768 42.1021 61.9429 42.1239 61.7095 42.1115C60.8478 42.1934 59.9789 42.1592 59.1264 42.0097Z" fill="#040404"/>
<path d="M54.6917 24.8123C54.4602 25.2006 52.9511 24.7198 51.0901 24.5996C49.2291 24.4795 47.6736 24.7106 47.507 24.2853C47.4329 24.0911 47.7569 23.7398 48.4328 23.4439C49.31 23.0772 50.263 22.9281 51.2104 23.0094C52.1613 23.0725 53.0842 23.3575 53.9047 23.8415C54.5158 24.276 54.7935 24.6274 54.6917 24.8123Z" fill="#040404"/>
<path d="M69.6813 25.3581C69.348 25.7095 68.0704 25.3027 66.5334 25.2472C64.9965 25.1917 63.6817 25.4136 63.3855 25.0253C63.2651 24.8496 63.4781 24.489 64.0521 24.1654C64.8536 23.772 65.7438 23.5936 66.6353 23.6477C67.5207 23.6833 68.3806 23.9546 69.1258 24.4335C69.6628 24.8126 69.8295 25.201 69.6813 25.3581Z" fill="#040404"/>
<path d="M37.0074 34.807C36.8408 34.733 30.0634 32.44 29.9893 39.4299C29.9153 46.4198 36.9796 45.0514 36.9889 44.8573C36.9981 44.6631 37.0074 34.807 37.0074 34.807Z" fill="#FFBF9D"/>
<path d="M34.8782 42.1949C34.8782 42.1949 34.7578 42.2781 34.5448 42.3706C34.3981 42.4316 34.2408 42.463 34.0819 42.463C33.923 42.463 33.7657 42.4316 33.619 42.3706C32.8783 42.0932 32.2672 40.9097 32.2394 39.6523C32.2288 39.0503 32.3522 38.4534 32.6005 37.9048C32.6697 37.688 32.7898 37.4909 32.9509 37.3301C33.112 37.1692 33.3093 37.0492 33.5264 36.9802C33.6678 36.943 33.8179 36.957 33.95 37.0196C34.0821 37.0822 34.1879 37.1894 34.2486 37.3223C34.3412 37.5164 34.2949 37.6551 34.3319 37.6736C34.3689 37.6921 34.4801 37.5534 34.4245 37.2668C34.3893 37.0922 34.2943 36.9354 34.156 36.823C33.9637 36.6753 33.721 36.6089 33.4801 36.6381C33.1929 36.695 32.9245 36.8231 32.6997 37.0104C32.4748 37.1978 32.3007 37.4386 32.1932 37.7106C31.8912 38.3158 31.7418 38.9855 31.758 39.6615C31.758 41.0669 32.4987 42.4353 33.5079 42.6942C33.6952 42.7515 33.8931 42.7664 34.0869 42.7376C34.2808 42.7088 34.4657 42.6371 34.6282 42.5277C34.8596 42.3613 34.906 42.2041 34.8782 42.1949Z" fill="#FF9A6C"/>
<path d="M54.1824 42.9899C54.4232 42.9899 54.4324 44.5802 55.812 45.7174C57.1915 46.8547 58.9136 46.642 58.9229 46.8917C58.9229 46.9841 58.5432 47.206 57.8211 47.2245C56.8718 47.2322 55.9504 46.9047 55.2194 46.2999C54.5153 45.7297 54.0632 44.9064 53.9602 44.0069C53.8954 43.3782 54.0713 42.9807 54.1824 42.9899Z" fill="#040404"/>
<path d="M85.9301 16.3432C85.808 15.9308 85.5332 15.5804 85.1617 15.3631C84.3428 14.9864 83.4395 14.8302 82.5415 14.9101C80.3092 14.8379 78.1221 14.2627 76.1438 13.2273C76.8464 12.8994 77.4907 12.459 78.0511 11.9236C78.6466 11.3861 79.0837 10.6964 79.3154 9.92898C79.5471 9.16151 79.5645 8.34542 79.3658 7.5688C79.3321 7.42223 79.2654 7.28528 79.1707 7.16832C79.0761 7.05137 78.9559 6.9575 78.8195 6.89385C78.3658 6.75516 77.9677 7.19896 77.6437 7.54106C77.235 8.08629 76.686 8.51085 76.0552 8.76968C75.4243 9.02851 74.7351 9.11197 74.0606 9.01117C73.1252 8.94102 72.2174 8.66303 71.4034 8.19753L71.32 8.09582L70.2553 7.00481C67.6536 4.36048 65.4037 2.52053 63.0798 1.55895C59.6726 0.144327 53.9601 -0.47514 50.377 0.412468C46.7939 1.30008 43.5627 4.16631 43.0257 7.8092C41.0443 6.09871 38.0352 6.08022 35.6187 7.03255H35.5539C32.8319 7.95714 31.2579 10.8141 30.4247 13.5694C30.4247 13.7173 30.3413 13.8653 30.295 14.0225C29.3615 15.4764 28.0912 16.6847 26.5916 17.5451C26.3231 17.6931 26.0268 17.878 25.9897 18.1739C25.9955 18.3244 26.0403 18.471 26.1198 18.599C26.1994 18.7271 26.3109 18.8323 26.4434 18.9043C27.0951 19.3687 27.8411 19.6843 28.6285 19.8289C28.3804 20.4884 28.0704 21.1231 27.7026 21.7243C27.3878 22.2421 27.0175 22.8523 27.2767 23.3978C27.3973 23.5981 27.5764 23.7568 27.7898 23.8527C28.0033 23.9485 28.241 23.9769 28.4711 23.9341C28.9276 23.8383 29.3595 23.6495 29.7395 23.3793C29.434 24.1005 29.1192 24.8217 28.8137 25.5336C29.7969 25.7127 30.8085 25.6588 31.7671 25.3764C32.3134 27.9653 32.693 32.7732 33.3411 34.5207C35.1928 34.5669 35.6558 34.3727 36.5909 34.6963C37.7945 35.1124 37.3038 37.2482 38.8963 36.6565C39.7018 36.3606 40.9703 33.3279 41.248 32.5143C43.0902 27.0759 43.7344 21.3043 43.1368 15.5943C44.2823 14.4212 45.6435 13.4794 47.1458 12.8205L47.0254 12.9222C49.8956 11.9976 53.1546 11.0175 55.8581 12.3952C57.9506 13.4584 59.1727 15.659 60.7282 17.4249C62.0398 19.0313 63.6778 20.3416 65.534 21.2691C67.3901 22.1967 69.4221 22.7206 71.4959 22.8061C71.857 25.9035 71.9218 30.961 72.0422 33.8457L74.6161 28.067C74.815 27.7388 74.9943 27.3992 75.1531 27.0499L75.2087 26.9482C75.4679 26.4027 75.7179 25.8572 76.0419 25.3117C76.3826 25.5331 76.7869 25.6364 77.1922 25.6056C77.5975 25.5748 77.9814 25.4117 78.2847 25.1415C78.588 24.8712 78.7938 24.5088 78.8704 24.1101C78.9469 23.7114 78.89 23.2987 78.7084 22.9355C78.47 22.5826 78.1761 22.2704 77.8381 22.0109C78.1897 22.3547 78.6238 22.6024 79.0989 22.7303C79.5739 22.8582 80.0739 22.862 80.5509 22.7413C81.0239 22.6048 81.4384 22.3158 81.7298 21.9195C82.0212 21.5231 82.1731 21.0416 82.1619 20.5501C82.1316 20.217 82.0114 19.8983 81.8141 19.628C81.6169 19.3578 81.3499 19.146 81.0416 19.0152C82.3254 19.1392 83.6166 18.8716 84.745 18.2478C85.4487 17.9242 86.1616 17.2493 85.9301 16.3432Z" fill="#040404"/>
<path d="M46.2382 9.02051C45.8679 9.30001 45.5211 9.60923 45.2012 9.9451C44.375 10.9128 43.8164 12.0794 43.5809 13.3291C43.3985 14.1834 43.3024 15.0538 43.2939 15.9272C43.2939 16.8518 43.3402 17.8781 43.405 18.9506C43.475 20.0683 43.475 21.1892 43.405 22.3069C43.362 22.9005 43.2785 23.4906 43.1551 24.0729C43.0586 24.6985 42.8001 25.2882 42.4051 25.7834C42.2251 25.9817 41.9961 26.1296 41.7411 26.2124C41.4861 26.2951 41.214 26.3097 40.9515 26.2549C40.4493 26.1598 39.995 25.8955 39.6646 25.506C39.1286 24.7314 38.809 23.8282 38.7387 22.8894H38.9516C38.6326 23.6579 38.2055 24.377 37.6832 25.0252C37.176 25.6253 36.4561 26.0063 35.6741 26.0885C35.3101 26.1206 34.9445 26.0501 34.6186 25.8851C34.3065 25.7394 34.0476 25.5003 33.8779 25.2009C33.7266 24.9171 33.6561 24.5973 33.6743 24.2763C33.6889 23.9805 33.8068 23.6991 34.0076 23.4811L34.1187 23.5736C33.5033 24.2688 32.7455 24.8238 31.8966 25.2009C31.6754 25.3051 31.4463 25.3917 31.2114 25.4597C31.1317 25.4917 31.0472 25.5105 30.9614 25.5152L31.1929 25.4228C31.3503 25.358 31.5818 25.2748 31.8595 25.1361C32.6783 24.7321 33.4085 24.1695 34.0076 23.4811L34.1187 23.5828C33.9466 23.7946 33.8459 24.0552 33.8309 24.3275C33.8159 24.5998 33.8875 24.8699 34.0353 25.0992C34.176 25.3734 34.3995 25.5966 34.6741 25.7371C34.9633 25.8713 35.2822 25.9286 35.6 25.9035C36.3218 25.8109 36.9826 25.4513 37.4517 24.8957C37.9561 24.2605 38.3676 23.557 38.6739 22.8062L38.8221 22.4826L38.8868 22.8339C38.971 23.7327 39.2903 24.5936 39.8127 25.3303C40.1126 25.6775 40.5198 25.915 40.97 26.0053C41.1922 26.0516 41.4226 26.0393 41.6385 25.9696C41.8545 25.8999 42.0485 25.7751 42.2014 25.6077C42.5638 25.1412 42.8026 24.5911 42.8958 24.0081C43.0192 23.4352 43.1028 22.8544 43.1458 22.2699C43.211 21.1614 43.211 20.0499 43.1458 18.9414C43.0903 17.8781 43.0347 16.861 43.0532 15.8995C43.0732 15.0156 43.1817 14.1359 43.3773 13.2736C43.6337 12.0043 44.225 10.8264 45.0901 9.86189C45.4215 9.51757 45.8099 9.23294 46.2382 9.02051Z" fill="#A6A6A6"/>
<path d="M77.8569 19.3479C77.8569 19.3479 77.8569 19.3479 77.7736 19.4219L77.5143 19.6068C77.3779 19.7094 77.2322 19.7991 77.0792 19.875C76.8774 19.9978 76.667 20.1059 76.4496 20.1986C75.0676 20.8052 73.5564 21.0593 72.0517 20.9382C69.8113 20.7643 67.6694 19.9453 65.8855 18.5805C63.7347 16.8981 61.9487 14.7969 60.6359 12.4043C59.9044 11.1561 59.3119 9.87087 58.6545 8.70589C58.0573 7.55464 57.2964 6.49578 56.3954 5.56227C55.588 4.70961 54.5787 4.07368 53.4604 3.71308C52.9563 3.56295 52.4306 3.49734 51.9049 3.51893C51.4206 3.53794 50.941 3.62191 50.4791 3.76857C49.0587 4.24236 47.8688 5.23256 47.146 6.54235C46.9086 7.02936 46.7254 7.54095 46.5998 8.06792C46.5976 8.03405 46.5976 8.00008 46.5998 7.96621C46.5998 7.87375 46.5998 7.77205 46.6553 7.65185C46.7434 7.25269 46.877 6.86492 47.0534 6.49611C47.3581 5.9231 47.7519 5.40195 48.22 4.95205C48.8488 4.36026 49.5969 3.90946 50.4143 3.62987C50.8909 3.4739 51.3858 3.38065 51.8865 3.35249C52.433 3.32761 52.9799 3.39005 53.5067 3.53742C54.6595 3.88695 55.7045 4.52325 56.5435 5.38661C57.471 6.32526 58.2569 7.39354 58.8767 8.55795C59.5433 9.75067 60.1359 11.0266 60.8673 12.2563C62.1598 14.6227 63.9169 16.7045 66.0336 18.3771C67.7843 19.7273 69.8855 20.5487 72.0888 20.7441C73.5679 20.874 75.0568 20.6489 76.4311 20.0876C76.922 19.8722 77.3982 19.6252 77.8569 19.3479Z" fill="#A6A6A6"/>
<path d="M78.8476 14.8638C78.7335 14.96 78.6093 15.0437 78.4772 15.1134C78.1238 15.3193 77.7556 15.4986 77.3754 15.6497C76.8164 15.8845 76.2368 16.0671 75.6441 16.1952C74.92 16.3554 74.182 16.4452 73.4405 16.4633C72.6958 16.4787 71.9515 16.4198 71.2185 16.2877C70.6226 16.1813 70.0371 16.0236 69.4686 15.8161C69.0815 15.682 68.7067 15.515 68.3483 15.3168C68.0983 15.1781 67.9594 15.1042 67.9687 15.0857C67.978 15.0672 68.552 15.3446 69.5241 15.6589C70.0916 15.8351 70.6699 15.9741 71.2555 16.075C71.975 16.1879 72.7031 16.2374 73.4313 16.2229C74.159 16.2044 74.8838 16.124 75.5978 15.9825C76.1837 15.8642 76.7595 15.7003 77.3199 15.4925C78.3198 15.1412 78.8198 14.8176 78.8476 14.8638Z" fill="#A6A6A6"/>
<path d="M67.6999 335.549L67.8388 355.382C67.8388 355.382 88.0782 361.854 88.4578 365.552L49.9696 367.217L48.4697 336.326L67.6999 335.549Z" fill="#040404"/>
<path d="M55.8672 354.235C55.4984 354.362 55.1905 354.622 55.0038 354.964C54.8171 355.307 54.7651 355.706 54.858 356.084C54.9738 356.46 55.2324 356.776 55.5784 356.965C55.9244 357.153 56.3304 357.199 56.7097 357.092C57.0962 356.955 57.4181 356.68 57.613 356.319C57.808 355.959 57.8622 355.539 57.7652 355.141C57.6074 354.768 57.31 354.472 56.9365 354.315C56.563 354.158 56.1428 354.152 55.7654 354.3" fill="#E0E0E0"/>
<path d="M49.9697 367.226V364.101L86.8932 363.675C86.8932 363.675 88.643 364.341 88.4949 365.524L49.9697 367.226Z" fill="#A6A6A6"/>
<path d="M68.4592 355.16C68.4592 355.354 67.5334 355.474 66.6075 356.085C65.6816 356.695 65.2465 357.536 65.0706 357.471C64.8947 357.407 65.1261 356.306 66.2279 355.548C67.3297 354.79 68.487 354.984 68.4592 355.16Z" fill="white"/>
<path d="M72.5701 356.658C72.6164 356.833 71.8202 357.185 71.2184 358.007C70.6166 358.83 70.4592 359.681 70.2925 359.681C70.1259 359.681 69.9407 358.627 70.7092 357.619C71.4776 356.611 72.5608 356.473 72.5701 356.658Z" fill="white"/>
<path d="M75.0699 361.382C74.9032 361.382 74.5977 360.457 75.0699 359.449C75.5421 358.442 76.3753 357.961 76.4587 358.109C76.542 358.257 76.0235 358.839 75.681 359.699C75.3384 360.559 75.255 361.354 75.0699 361.382Z" fill="white"/>
<path d="M67.9219 350.658C67.8479 350.833 66.996 350.658 65.922 350.722C64.848 350.787 64.0703 351.212 63.9407 351.055C63.811 350.898 64.5981 350.195 65.848 350.075C67.0979 349.955 68.0053 350.491 67.9219 350.658Z" fill="white"/>
<path d="M23.0545 339.774L20.9713 363.675L24.7766 383.092C24.8414 383.422 24.8378 383.762 24.7657 384.09C24.6937 384.419 24.5549 384.73 24.3579 385.003C24.1609 385.276 23.9099 385.505 23.6204 385.678C23.3309 385.85 23.0091 385.961 22.6749 386.004C22.2851 386.053 21.8892 386.008 21.5204 385.873C21.1515 385.738 20.8204 385.516 20.5547 385.227C17.1197 381.529 4.55575 367.66 4.81499 365.931C5.11127 363.916 5.34274 340.57 5.34274 340.57L23.0545 339.774Z" fill="#040404"/>
<path d="M22.6752 385.976L4.90792 364.285L4.8431 365.302C4.78483 366.179 5.0408 367.047 5.56525 367.752C6.98182 369.602 10.9816 374.752 20.4809 385.199C20.7562 385.497 21.0997 385.723 21.482 385.858C21.8643 385.994 22.2738 386.034 22.6752 385.976Z" fill="#A6A6A6"/>
<g opacity="0.6">
<path d="M10.3335 356.88C10.6124 357.115 10.7947 357.445 10.8459 357.807C10.8971 358.168 10.8136 358.536 10.6112 358.84C10.3872 359.129 10.0603 359.321 9.69838 359.376C9.33642 359.431 8.9671 359.345 8.66696 359.136C8.36708 358.888 8.17122 358.536 8.11808 358.151C8.06494 357.766 8.15839 357.375 8.37994 357.055C8.64624 356.78 9.00827 356.618 9.39097 356.603C9.77367 356.587 10.1476 356.72 10.4353 356.972" fill="white"/>
</g>
<path d="M17.8609 375.158C18.4889 374.451 19.2421 373.865 20.0829 373.429C20.9787 373.14 21.9208 373.021 22.8605 373.078C22.8605 373.023 22.5921 372.819 22.0366 372.699C21.3062 372.57 20.5542 372.654 19.87 372.939C19.1802 373.223 18.586 373.698 18.1572 374.308C17.8702 374.779 17.8054 375.131 17.8609 375.158Z" fill="white"/>
<path d="M19.3696 378.478C20.0787 378.126 20.8084 377.818 21.5546 377.554C22.3374 377.451 23.1262 377.402 23.9156 377.406C23.56 377.154 23.1502 376.989 22.7191 376.925C22.2881 376.861 21.8479 376.899 21.4343 377.036C19.9899 377.387 19.2492 378.395 19.3696 378.478Z" fill="white"/>
<path d="M14.9536 370.841C16.0097 370.23 17.1081 369.695 18.2404 369.241C19.4233 368.947 20.6276 368.746 21.842 368.64C20.6034 368.31 19.2958 368.341 18.0746 368.731C16.8535 369.122 15.7702 369.854 14.9536 370.841Z" fill="white"/>
<path d="M14.9722 363.528C15.0277 363.675 16.3887 363.204 18.1201 363.25C19.8514 363.296 21.1847 363.805 21.2495 363.657C20.3488 362.996 19.2454 362.669 18.1293 362.732C17.0159 362.617 15.8975 362.899 14.9722 363.528Z" fill="white"/>
<path d="M15.4073 356.491C16.4758 356.226 17.5747 356.101 18.6756 356.121C19.7722 356.311 20.8376 356.65 21.8421 357.129C21.8421 357.129 21.6384 356.768 21.1106 356.417C20.4031 355.962 19.5966 355.683 18.7589 355.603C17.9263 355.522 17.0862 355.636 16.3054 355.936C15.6758 356.205 15.361 356.436 15.4073 356.491Z" fill="white"/>
<path d="M18.7221 354.78C18.8171 354.482 18.8455 354.166 18.8054 353.856C18.7813 353.022 18.5893 352.201 18.2406 351.443C18.036 350.864 17.6453 350.37 17.1296 350.037C16.9497 349.94 16.7437 349.902 16.5409 349.929C16.3381 349.955 16.1488 350.045 16.0001 350.185C15.7231 350.467 15.5642 350.844 15.5557 351.239C15.5587 352.047 15.8431 352.828 16.3601 353.449C16.8771 354.07 17.5944 354.491 18.3888 354.642C19.1776 354.772 19.9872 354.665 20.7155 354.336C21.4438 354.007 22.0582 353.47 22.4811 352.792C22.5845 352.62 22.6503 352.429 22.6742 352.229C22.6981 352.03 22.6797 351.828 22.62 351.637C22.5451 351.444 22.4077 351.282 22.2299 351.176C22.052 351.071 21.8438 351.028 21.6386 351.054C21.0421 351.15 20.4806 351.398 20.0091 351.775C19.3234 352.253 18.7278 352.847 18.2499 353.532C18.0509 353.765 17.9083 354.04 17.8333 354.337C18.5068 353.471 19.3093 352.713 20.2127 352.09C20.6358 351.773 21.133 351.569 21.6571 351.498C21.7673 351.486 21.8785 351.509 21.9749 351.564C22.0713 351.619 22.148 351.702 22.1941 351.803C22.2235 351.932 22.2263 352.066 22.2024 352.196C22.1785 352.327 22.1284 352.451 22.0552 352.561C21.6734 353.135 21.1345 353.588 20.5025 353.865C19.8706 354.142 19.1723 354.232 18.4906 354.124C17.8178 353.996 17.2083 353.644 16.7624 353.125C16.3166 352.606 16.0608 351.95 16.0371 351.267C16.04 350.993 16.1382 350.728 16.3149 350.518C16.3955 350.44 16.4988 350.389 16.6101 350.372C16.7214 350.355 16.8351 350.374 16.9352 350.426C17.3554 350.715 17.6782 351.124 17.8611 351.6C18.3322 352.602 18.6236 353.678 18.7221 354.78Z" fill="white"/>
<path d="M88.0505 171.148C89.9077 179.362 90.5318 187.806 89.9023 196.204C89.5042 201.53 71.5146 348.808 71.5146 348.808H47.2107L54.0436 210.35L52.053 210.785C52.053 210.785 38.7946 269.829 37.7114 279.39C36.7855 287.988 24.8233 355.539 24.8233 355.539L1.9082 355.28L10.4354 268.091L18.6849 188.854L21.7958 165.739L88.0505 171.148Z" fill="#040404"/>
<path d="M132.788 103.014L109.179 114.683L95.8371 79.955C94.6227 76.9796 92.7007 74.3445 90.2373 72.2775C87.774 70.2106 84.8434 68.7742 81.6992 68.0925C80.8907 67.9157 80.0708 67.7952 79.2456 67.7319L88.782 123.207C90.6626 127.744 93.1546 132.002 96.1889 135.865C98.1888 138.26 102.151 140.775 110.919 138.029L139.121 119.167L132.788 103.014Z" fill="#040404"/>
<path d="M36.6556 61.0103L48.34 70.7092L54.3119 75.3322L57.3302 74.8976L58.9875 70.3579L61.2466 61.4818L64.3853 65.6425L72.8847 83.709L82.4396 171.064C82.4396 171.064 65.774 175.937 57.1357 176.529C48.4974 177.12 34.7391 174.754 34.7391 174.754V128.755L29.8413 83.2374L35.7298 65.8829L36.6556 61.0103Z" fill="#F5F5F5"/>
<path d="M61.3208 175.909C61.3208 175.909 61.3208 175.826 61.3208 175.669C61.3208 175.512 61.3208 175.244 61.3208 174.948C61.3208 174.291 61.256 173.357 61.2189 172.174C61.1356 169.752 61.0152 166.284 60.8763 162.003C60.5708 153.414 60.0987 141.542 59.4228 128.441C58.7469 115.339 57.9877 103.477 57.3951 94.8966C57.0989 90.625 56.8581 87.1578 56.6822 84.7261C56.6081 83.5426 56.5433 82.618 56.497 81.9523C56.497 81.6564 56.497 81.416 56.497 81.2404C56.4847 81.1576 56.4847 81.0735 56.497 80.9907C56.5064 81.0706 56.5064 81.1513 56.497 81.2311C56.497 81.416 56.497 81.6472 56.5711 81.9523C56.6359 82.5995 56.7193 83.5241 56.8211 84.7261C57.0433 87.1208 57.321 90.588 57.6451 94.8966C58.3024 103.477 59.0987 115.33 59.7838 128.441C60.469 141.551 60.8949 153.405 61.1263 162.022C61.2467 166.321 61.3208 169.798 61.3578 172.192C61.3578 173.376 61.3578 174.31 61.3578 174.966V175.687C61.352 175.762 61.3396 175.837 61.3208 175.909Z" fill="#040404"/>
<path d="M30.8412 69.9786L31.6838 69.5441L15.0182 78.2537L21.3141 121.312L24.8046 143.502L11.7036 196.158C11.7036 196.158 21.49 202.547 26.4063 201.289C29.0265 200.614 31.2578 195.353 32.9985 191.202C36.4657 182.94 38.7143 174.22 39.674 165.313C40.6461 156.345 41.5257 144.926 40.8868 137.187C39.6647 122.699 37.7389 98.7889 37.563 92.5109C37.3871 86.2329 35.9427 63.1089 35.9427 63.1089L30.8412 69.9786Z" fill="#040404"/>
<path d="M61.6543 61.0845L71.3296 66.3269L79.829 67.7693L91.2819 92.8257L89.0969 138.131L100.541 194.087C100.541 194.087 92.1522 197.055 88.8376 195.834C85.523 194.614 80.9678 187.106 80.7919 182.567C80.616 178.027 74.1535 134.053 74.1535 134.053L68.6538 82.3501C68.1337 77.4162 66.7485 72.6122 64.5615 68.1576L61.6543 61.0845Z" fill="#040404"/>
<path d="M71.2832 67.7319C71.4018 67.836 71.5075 67.954 71.598 68.0833L72.459 69.1373L75.6718 73.15L75.7366 73.2333L75.644 73.3072L72.9312 75.3691V75.1379L76.1162 76.1457H76.218V76.2474C76.1532 81.9244 76.0791 89.0715 75.9958 96.8196C75.8569 106.269 75.7366 114.831 75.644 121.053C75.5792 124.132 75.5329 126.601 75.4959 128.404C75.4959 129.248 75.4774 129.914 75.4403 130.401C75.4403 130.604 75.4403 130.78 75.4403 130.919C75.4403 131.057 75.4403 131.094 75.4403 131.094C75.433 131.036 75.433 130.977 75.4403 130.919C75.4403 130.78 75.4403 130.604 75.4403 130.392C75.4403 129.911 75.4403 129.245 75.4403 128.394C75.4403 126.638 75.4403 124.132 75.4403 121.053C75.4959 114.821 75.5885 106.26 75.6811 96.8103C75.7922 89.0623 75.894 81.9244 75.9773 76.2474L76.0792 76.3861L72.8942 75.3506L72.6627 75.2674L72.8571 75.1194L75.6347 73.0946V73.2517L72.5053 69.1743L71.6906 68.0833C71.5423 67.9815 71.4056 67.8637 71.2832 67.7319Z" fill="#A6A6A6"/>
<path d="M40.2016 128.154C40.2016 128.154 40.2016 128.089 40.1368 127.978C40.072 127.867 40.035 127.682 39.9702 127.47C39.822 126.998 39.6091 126.342 39.3313 125.519C38.7758 123.817 37.9518 121.367 36.887 118.362L35.1279 113.444C34.4324 111.561 33.833 109.645 33.3317 107.702C32.2596 103.243 31.4252 98.7311 30.8319 94.1843C29.9616 87.8971 29.406 81.9612 29.0635 76.8575V76.7835H29.1098L31.8873 74.1392V74.3518L29.2487 72.3547L29.1468 72.2808L29.2209 72.179L33.9243 65.8086L35.2205 64.0889L35.5631 63.6451C35.6464 63.5526 35.6834 63.4971 35.6927 63.5064C35.6618 63.5637 35.6278 63.6192 35.5908 63.6728L35.276 64.1351C34.9798 64.5604 34.5631 65.1429 34.0446 65.8918L29.4153 72.364V72.1883L32.0355 74.1484L32.1744 74.2409L32.0541 74.3611L29.332 76.9777V76.8575C29.7024 81.952 30.2579 87.8786 31.1837 94.1566C31.7773 98.6923 32.6023 103.195 33.6558 107.646C34.1405 109.58 34.7246 111.487 35.4057 113.36L37.1278 118.298C38.1555 121.321 38.9795 123.781 39.4702 125.491C39.7294 126.351 39.9146 127.017 40.0442 127.47C40.0905 127.682 40.1368 127.849 40.1738 127.987C40.2109 128.126 40.2109 128.145 40.2016 128.154Z" fill="#A6A6A6"/>
<path d="M83.0601 159.701L85.1433 166.164L96.9387 165.082L93.2631 158.906L83.0601 159.701Z" fill="#040404"/>
<path d="M83.0601 159.71C83.2918 159.661 83.5271 159.63 83.7637 159.618L85.8284 159.414C87.6153 159.239 90.1892 158.998 93.2353 158.749H93.3371L93.3927 158.832C94.5038 160.681 95.7629 162.789 97.0962 164.999L97.2443 165.248H96.9573L96.3554 165.313L85.1618 166.302H85.0507V166.201C84.4118 164.176 83.9211 162.502 83.5878 161.411C83.4304 160.884 83.3101 160.487 83.2082 160.117C83.1613 159.978 83.1241 159.836 83.0971 159.692C83.1688 159.845 83.2307 160.002 83.2823 160.163C83.3934 160.505 83.5507 160.931 83.7359 161.467L85.3099 166.09L85.1711 165.997L96.3462 164.925L96.9573 164.869L96.8184 165.137L93.1149 158.952L93.2724 159.035C90.2911 159.248 87.7634 159.405 85.958 159.516L83.847 159.645C83.3471 159.71 83.0786 159.719 83.0601 159.71Z" fill="#A6A6A6"/>
<g opacity="0.3">
<path d="M76.0324 76.3213L77.9859 79.0026C77.9859 79.0026 77.4397 119.62 75.375 129.707L76.0324 76.3213Z" fill="black"/>
</g>
<path d="M36.6558 69.5815C36.8635 69.8969 37.1091 70.1857 37.3872 70.4414C37.8871 70.9684 38.6186 71.7174 39.5352 72.6327C41.3869 74.4819 43.9238 76.9783 46.7754 79.7151L48.6272 81.5643L48.942 81.8601L49.0901 81.4626C50.016 78.8829 50.8956 76.5622 51.5992 74.6298L51.2659 74.7038C52.2658 75.6284 53.1176 76.3681 53.6731 76.8673C53.9458 77.1531 54.2575 77.399 54.599 77.5978C54.3791 77.2585 54.1179 76.948 53.8212 76.6732C53.2935 76.1184 52.5158 75.3325 51.5437 74.3802L51.3215 74.1583L51.2011 74.4541L48.5439 81.2221L49.0068 81.1204L47.1551 79.2713C44.3127 76.4975 41.711 74.0751 39.8037 72.3091C38.8779 71.3845 38.0723 70.728 37.5261 70.2473C37.2648 69.99 36.9725 69.7664 36.6558 69.5815Z" fill="#040404"/>
<path d="M58.4785 76.7005C59.1475 75.5141 59.7233 74.2776 60.2006 73.0022L59.8118 73.0576C61.1944 74.8627 62.3366 76.8393 63.2097 78.938C63.3578 79.2986 63.4967 79.6592 63.6263 80.0013L63.9411 80.8427L64.1725 79.9736C64.7903 77.7086 65.1293 75.3768 65.1818 73.0299C65.2653 72.0798 65.2028 71.1226 64.9966 70.1914C64.9132 70.1914 64.9318 71.2639 64.7929 73.0114C64.6215 75.3153 64.2277 77.5973 63.617 79.8256H64.1633C64.043 79.4743 63.9041 79.1045 63.7467 78.7346C62.8592 76.5887 61.6545 74.5879 60.1729 72.7987L59.9136 72.4936L59.784 72.8542C59.2459 74.0992 58.8093 75.3854 58.4785 76.7005Z" fill="#040404"/>
<path d="M60.5803 79.0396L58.2749 82.4421H54.8122L52.9604 79.0396L54.7288 75.3227L57.7379 74.8882L60.5803 79.0396Z" fill="#FFBE21"/>
<path d="M58.4044 80.7041L68.8482 159.461L59.9229 171.536L50.9883 158.721L54.9417 80.7041H58.4044Z" fill="#FFBE21"/>
<path d="M78.7363 166.322C78.7172 166.903 78.7544 167.486 78.8474 168.06C78.9863 169.271 79.1622 170.834 79.3751 172.766C79.5881 174.699 79.9121 177.14 80.2362 179.738C80.6426 182.597 81.3438 185.408 82.3286 188.124C83.4119 190.971 84.8285 193.764 87.2264 195.243C88.3562 195.876 89.6349 196.195 90.9299 196.168C92.0345 196.179 93.1378 196.089 94.226 195.899C95.7959 195.639 97.3436 195.259 98.8553 194.762C99.4186 194.614 99.9625 194.4 100.476 194.124C99.9068 194.233 99.3443 194.371 98.7905 194.54C97.2677 194.943 95.7217 195.251 94.1611 195.465C93.0947 195.622 92.0168 195.687 90.9392 195.659C89.722 195.683 88.5204 195.383 87.4579 194.79C85.2821 193.431 83.8933 190.722 82.8286 187.939C80.6713 182.243 80.3936 176.659 79.7362 172.72C79.4492 170.825 79.2085 169.243 79.0233 168.042C78.9779 167.461 78.8819 166.886 78.7363 166.322Z" fill="#A6A6A6"/>
<path d="M40.359 168.633C40.3498 168.812 40.3187 168.989 40.2664 169.16C40.1739 169.548 40.0627 170.038 39.9146 170.63C39.5906 171.906 39.0998 173.755 38.4517 176.011C36.7952 181.923 34.795 187.733 32.4614 193.412C31.7752 195.029 30.9866 196.601 30.1004 198.118C29.6737 198.849 29.181 199.539 28.6283 200.18L28.1839 200.633C28.0265 200.772 27.8506 200.892 27.6839 201.021C27.4953 201.131 27.3006 201.23 27.1006 201.317C26.8969 201.382 26.7025 201.4 26.4989 201.447C25.0065 201.663 23.4851 201.559 22.0362 201.141C20.7696 200.812 19.5312 200.382 18.3327 199.856C16.6255 199.102 14.9679 198.241 13.3701 197.277C12.8053 196.925 12.3794 196.648 12.0924 196.454C11.9422 196.361 11.8026 196.253 11.6758 196.13C11.8439 196.187 12.0029 196.268 12.148 196.371L13.4627 197.11C15.0832 198.012 16.7523 198.824 18.4623 199.542C19.6386 200.031 20.8484 200.436 22.0825 200.753C23.4775 201.138 24.9379 201.226 26.3692 201.012C27.1105 200.886 27.7742 200.479 28.221 199.875C28.7484 199.252 29.2193 198.584 29.6282 197.878C30.4989 196.387 31.275 194.843 31.9522 193.255C34.7297 186.662 36.6463 180.431 38.0536 175.956L39.6646 170.621C39.8498 170.038 39.9979 169.557 40.109 169.169C40.1736 168.982 40.2574 168.802 40.359 168.633Z" fill="#A6A6A6"/>
<path d="M22.0458 74.7959C22.0458 74.7959 7.73195 77.995 5.908 90.2921C3.80629 104.448 1.96387 136.855 1.96387 136.855L26.5177 104.013" fill="#040404"/>
<path d="M17.4902 77.6157C17.4902 77.662 18.1198 78.1797 19.0642 79.1505C21.5358 81.6904 23.2454 84.871 23.9991 88.3317C24.2954 89.6539 24.3602 90.4953 24.4157 90.486C24.4436 90.2898 24.4436 90.0906 24.4157 89.8943C24.3801 89.3549 24.3151 88.8179 24.2213 88.2855C23.5759 84.735 21.8226 81.4793 19.2123 78.9841C18.8236 78.6111 18.4124 78.2622 17.981 77.9393C17.8337 77.8086 17.6684 77.6997 17.4902 77.6157Z" fill="#040404"/>
<path d="M90.791 84.8091C90.6244 84.8091 90.1337 96.2463 89.6893 110.356C89.2449 124.465 89.0042 135.921 89.1616 135.93C89.319 135.939 89.8189 124.493 90.2634 110.374C90.7078 96.2555 90.9484 84.8091 90.791 84.8091Z" fill="#A6A6A6"/>
<path d="M15.046 78.2539C15.046 78.2539 8.37979 82.7474 7.6391 86.3903C7.00952 89.3305 1.74138 133.498 1.0655 139.037C0.389617 144.575 -2.2213 155.975 4.50047 160.533C9.00942 163.594 23.2955 166.663 23.2955 166.663C21.8882 160.09 24.7676 155.282 31.7949 151.639L22.24 142.624L26.5175 103.995L15.046 78.2539Z" fill="#040404"/>
<path d="M24.8323 143.475C24.6749 143.475 22.3417 131.455 19.6197 116.578C16.8976 101.702 14.833 89.6079 14.9904 89.5709C15.1478 89.5339 17.4902 101.591 20.203 116.477C22.9158 131.362 24.999 143.447 24.8323 143.475Z" fill="#A6A6A6"/>
<path d="M22.9901 134.626C23.0434 135.391 23.0217 136.159 22.9253 136.919C22.8327 138.353 22.6753 140.359 22.4716 142.661L22.3976 142.467L24.2493 144.196C26.3695 146.202 28.2768 148.042 29.6378 149.383C30.4061 150.078 31.1181 150.832 31.7673 151.639C30.927 151.032 30.1346 150.361 29.3971 149.633C27.9805 148.347 26.0362 146.554 23.916 144.547L22.0643 142.809L21.981 142.735V142.615C22.2032 140.313 22.4254 138.316 22.6013 136.892C22.663 136.127 22.7931 135.368 22.9901 134.626Z" fill="#A6A6A6"/>
<path d="M12.6572 148.338C13.6984 146.77 15.101 145.473 16.7474 144.558C18.3938 143.643 20.236 143.135 22.1195 143.077C20.3449 143.527 18.6225 144.163 16.981 144.973C15.4225 145.936 13.9728 147.064 12.6572 148.338Z" fill="#A6A6A6"/>
<path d="M45.1551 110.402C45.1044 111.253 44.8858 112.086 44.5117 112.853C44.1377 113.619 43.6156 114.305 42.9754 114.869C42.3353 115.434 41.5897 115.866 40.7817 116.142C39.9736 116.418 39.1189 116.532 38.2667 116.476C37.3759 116.432 36.5042 116.203 35.7071 115.803C34.91 115.404 34.2051 114.843 33.6374 114.156C31.8504 111.955 28.6192 108.812 24.6009 108.608C18.3791 108.22 13.7128 112.926 13.2776 119.971C12.8425 127.017 16.8792 132.259 23.101 132.648C27.1193 132.888 30.7209 130.17 32.767 128.21C33.4097 127.601 34.1719 127.132 35.0055 126.833C35.839 126.534 36.7257 126.41 37.6093 126.471C38.4618 126.522 39.2959 126.74 40.0636 127.114C40.8313 127.487 41.5175 128.009 42.0828 128.648C42.648 129.287 43.0812 130.032 43.3575 130.839C43.6337 131.646 43.7474 132.499 43.6922 133.35L40.9146 177.305L138.908 181.457L141.028 135.227C141.079 134.376 141.298 133.543 141.672 132.776C142.046 132.01 142.568 131.324 143.208 130.76C143.848 130.195 144.594 129.763 145.402 129.487C146.21 129.211 147.064 129.097 147.917 129.153C148.808 129.196 149.681 129.426 150.479 129.828C151.276 130.229 151.98 130.793 152.546 131.483C154.333 133.683 157.564 136.817 161.582 137.03C167.804 137.418 172.461 132.722 172.906 125.676C173.35 118.631 169.304 113.379 163.073 113C159.055 112.75 155.462 115.469 153.416 117.429C152.773 118.037 152.011 118.505 151.178 118.805C150.344 119.104 149.458 119.227 148.574 119.167C144.991 118.945 141.649 116.236 141.871 112.695L143.547 73.4459L46.5439 69.3223L45.1551 110.402Z" fill="#FFBE21"/>
<path d="M33.2116 154.838C33.2116 154.838 36.1003 152.6 38.2483 152.508C40.3963 152.415 43.1831 153.248 43.7479 152.97C44.3127 152.693 45.5997 151.472 46.4515 152.499C47.3033 153.525 48.3032 157.26 43.8405 158.277H40.7574C40.9191 159.754 41.2966 161.2 41.8777 162.567C42.6277 163.779 53.0714 176.908 53.0714 176.908C53.0714 176.908 54.3768 178.211 53.7195 179.515C53.0621 180.819 50.2753 180.07 50.2753 180.07C50.2753 180.07 48.3124 181.836 46.0811 180.995C44.9714 180.615 43.9065 180.116 42.9054 179.506C42.1815 180.056 41.2969 180.354 40.3871 180.354C39.4773 180.354 38.5926 180.056 37.8687 179.506C35.2578 177.546 24.8418 164.712 24.8418 164.712L29.6656 154.44L33.2116 154.838Z" fill="#FFBF9D"/>
<path d="M30.2394 152.471L33.2114 154.838C28.8043 158.037 26.5267 161.957 26.5545 166.663L22.7677 164.047C22.7677 164.047 22.1196 154.366 30.2394 152.471Z" fill="#F5F5F5"/>
<path d="M42.2109 171.545C42.3313 171.443 43.896 173.542 46.1273 175.826C48.3587 178.11 50.4418 179.691 50.3493 179.811C49.8186 179.582 49.3279 179.27 48.8956 178.886C47.7919 178.056 46.7491 177.147 45.7755 176.168C44.8129 175.175 43.9218 174.115 43.109 172.997C42.7325 172.565 42.4292 172.075 42.2109 171.545Z" fill="#FF9A6C"/>
<path d="M37.0264 174.153C37.1467 174.042 38.3133 175.438 40.0262 176.825C41.151 177.585 42.1453 178.521 42.9704 179.599C41.8307 178.873 40.7447 178.066 39.7206 177.185C38.6196 176.374 37.7016 175.341 37.0264 174.153Z" fill="#FF9A6C"/>
<path d="M138.168 93.4908C138.168 93.4908 138.631 90.338 145.287 91.4105C149.454 92.0762 147.278 94.776 147.278 94.776C147.59 95.0461 147.832 95.3877 147.983 95.7714C148.133 96.1552 148.189 96.5697 148.144 96.9796C148.1 97.3894 147.956 97.7824 147.726 98.1249C147.497 98.4673 147.187 98.749 146.824 98.9459L147.26 99.2695C147.26 99.2695 150.574 100.925 147.713 103.893C148.001 104.42 148.12 105.024 148.052 105.621C147.984 106.219 147.733 106.781 147.334 107.23C145.898 108.654 142.325 106.749 142.325 106.749C142.325 106.749 137.26 106.666 136.973 105.335C136.884 104.929 136.933 104.505 137.115 104.131C137.296 103.757 137.599 103.454 137.973 103.273C139.141 103.052 140.323 102.91 141.51 102.848C141.51 102.848 137.084 102.801 136.686 101.923C135.973 100.379 136.149 98.798 141.51 98.9922C141.51 98.9922 137.529 98.9182 137.066 98.0676C136.603 97.2169 137.177 95.9503 138.603 95.2938C139.45 94.8957 140.379 94.7024 141.315 94.7298C141.315 94.7298 137.575 95.4695 138.168 93.4908Z" fill="#FFBF9D"/>
<path d="M147.074 94.8037C145.879 94.9383 144.675 94.9785 143.473 94.9239C142.274 95.0228 141.07 95.0228 139.871 94.9239C141.027 94.5345 142.244 94.3591 143.463 94.4061C144.681 94.3118 145.906 94.4467 147.074 94.8037Z" fill="#FF9A6C"/>
<path d="M146.898 99.1031C145.767 99.1827 144.632 99.1827 143.5 99.1031C142.368 99.1694 141.231 99.1447 140.103 99.0291C141.198 98.659 142.358 98.5204 143.51 98.6223C144.66 98.5512 145.813 98.7148 146.898 99.1031Z" fill="#FF9A6C"/>
<path d="M147.759 104.115C147.695 104.244 146.195 103.587 144.223 103.264C142.251 102.94 140.612 103.079 140.593 102.931C141.794 102.56 143.071 102.513 144.297 102.792C145.549 102.916 146.744 103.373 147.759 104.115Z" fill="#FF9A6C"/>
</svg>
