<svg width="171" height="396" viewBox="0 0 171 396" fill="none" xmlns="http://www.w3.org/2000/svg">
<path d="M117.571 366.812V367.963C117.571 367.963 98.0733 376.008 97.8999 379.715L136.773 379.145L136.049 366.242C133.19 367.655 130.061 368.437 126.872 368.535C123.684 368.634 120.512 368.046 117.571 366.812Z" fill="#040404"/>
<path d="M136.774 379.145L136.6 376.039L99.4095 377.73C99.4095 377.73 97.6861 378.504 97.9003 379.715L136.774 379.145Z" fill="#A6A6A6"/>
<path d="M117.439 368.075C117.439 368.269 118.397 368.34 119.346 368.931C120.294 369.521 120.794 370.316 120.967 370.244C121.14 370.173 120.845 369.073 119.692 368.371C118.54 367.668 117.398 367.902 117.439 368.075Z" fill="white"/>
<path d="M113.391 369.817C113.391 370.01 114.176 370.316 114.829 371.11C115.481 371.904 115.685 372.75 115.848 372.74C116.011 372.729 116.134 371.65 115.308 370.703C114.482 369.756 113.391 369.644 113.391 369.817Z" fill="white"/>
<path d="M111.147 374.725C111.321 374.725 111.565 373.819 111.066 372.78C110.566 371.741 109.669 371.354 109.587 371.507C109.506 371.66 110.066 372.22 110.474 373.076C110.882 373.931 110.954 374.715 111.147 374.725Z" fill="white"/>
<path d="M145.36 355.112L128.809 359.735L132.888 369.104L128.605 392.822C128.487 393.471 128.611 394.141 128.955 394.704C129.3 395.268 129.839 395.685 130.472 395.877C130.963 396.018 131.485 396.019 131.977 395.878C132.47 395.738 132.912 395.462 133.255 395.083C136.916 391.009 150.275 375.876 149.959 374.033L149.429 369.104C149.154 367.863 148.817 366.636 148.419 365.428L145.36 355.112Z" fill="#040404"/>
<path d="M131.012 395.978L149.847 372.322L149.949 373.401C150.016 373.845 149.982 374.297 149.85 374.726C149.717 375.154 149.49 375.547 149.184 375.876C147.706 378.259 143.494 383.666 133.388 395.082C133.095 395.414 132.726 395.669 132.312 395.825C131.898 395.981 131.451 396.034 131.012 395.978Z" fill="#A6A6A6"/>
<path d="M135.978 384.318C135.27 383.579 134.429 382.978 133.5 382.546C132.506 382.269 131.47 382.173 130.441 382.261C130.441 382.2 130.726 381.976 131.328 381.833C132.126 381.673 132.953 381.74 133.714 382.027C134.469 382.298 135.128 382.783 135.611 383.422C135.968 383.921 136.039 384.298 135.978 384.318Z" fill="white"/>
<path d="M134.428 387.903C133.641 387.561 132.834 387.265 132.012 387.017C131.151 386.936 130.286 386.909 129.421 386.935C129.804 386.652 130.248 386.463 130.717 386.381C131.186 386.3 131.668 386.329 132.124 386.467C133.704 386.813 134.561 387.831 134.428 387.903Z" fill="white"/>
<path d="M139.048 379.684C137.878 379.06 136.665 378.522 135.417 378.075C134.11 377.801 132.784 377.627 131.45 377.556C132.785 377.078 134.245 377.078 135.58 377.556C136.952 377.833 138.18 378.587 139.048 379.684Z" fill="white"/>
<path d="M132.756 365.875C132.914 366.934 132.979 368.004 132.95 369.073C132.746 370.448 132.46 372.2 132.124 374.104C131.726 376.365 131.349 378.401 131.043 379.868C130.924 380.673 130.726 381.464 130.451 382.23C130.447 381.419 130.529 380.61 130.696 379.817C130.91 378.33 131.247 376.283 131.645 374.022C131.971 372.118 132.297 370.366 132.572 369.002C132.538 367.956 132.599 366.91 132.756 365.875Z" fill="#A6A6A6"/>
<path d="M156.302 213.202C157.607 206.909 160.911 195.554 159.606 190.32C156.547 178.191 151.295 171.175 144.065 155.777H138.701L87.1111 154.881L82.8893 164.219C78.2086 176.816 75.0065 184.342 73.7115 193.558C72.192 204.17 74.8536 219.547 80.758 235.077C93.5051 268.581 100.623 295.384 101.153 302.604C101.684 309.825 102.418 317.289 109.118 340.151C114.012 356.832 117.633 366.812 117.633 366.812C122.732 369.674 128.106 370.448 133.011 367.668L147.981 361.894C147.981 361.894 143.392 322.534 138.038 312.096C134.173 304.58 127.84 301.006 130.808 291.209C133.775 281.412 152.305 232.49 156.302 213.202Z" fill="#040404"/>
<path d="M95.9321 181.42L96.136 181.675L96.7071 182.469C97.2068 183.192 97.941 184.231 98.8894 185.575L107.048 197.317V197.398C106.65 201.797 106.497 206.91 106.232 212.592C105.967 218.274 105.661 224.548 105.334 231.269C105.008 237.99 104.61 245.18 104.213 252.705C103.815 260.231 103.376 268.103 102.622 276.199C101.837 282.94 101.143 289.55 101.724 295.914C101.855 297.49 102.069 299.057 102.367 300.609C102.625 302.131 102.997 303.633 103.478 305.1C104.498 307.951 105.793 310.721 106.966 313.41C111.728 324.164 116.144 333.777 119.897 341.863C123.649 349.949 126.637 356.466 128.738 360.998L131.124 366.202L131.736 367.566C131.81 367.718 131.874 367.875 131.93 368.035L131.695 367.587C131.532 367.271 131.318 366.823 131.032 366.253L128.554 361.079C126.433 356.558 123.364 350.051 119.58 342.016C115.797 333.981 111.331 324.347 106.548 313.593C105.355 310.894 104.121 308.155 103.03 305.243C102.534 303.756 102.152 302.234 101.888 300.69C101.591 299.124 101.373 297.543 101.235 295.955C100.643 289.539 101.347 282.879 102.132 276.148C102.877 268.083 103.274 260.2 103.733 252.726C104.192 245.251 104.529 238.02 104.896 231.34C105.263 224.66 105.559 218.356 105.844 212.663C106.13 206.971 106.323 201.869 106.752 197.469V197.571L98.6854 185.738L96.5644 182.591C96.34 182.245 96.1564 181.98 96.0239 181.787C95.9844 181.667 95.9537 181.544 95.9321 181.42Z" fill="#A6A6A6"/>
<path d="M102.805 71.3855L105.967 63.3914L124.842 62.373L132.552 63.3914L133.398 65.6013L138.64 158.058C138.64 158.058 120.355 161.745 111.208 160.462C102.061 159.179 91.3228 155.013 91.3228 155.013V102.435L102.805 71.3855Z" fill="#F5F5F5"/>
<path d="M131.216 75.1943C131.176 75.2514 131.131 75.3058 131.084 75.3572L130.676 75.8155C130.309 76.2126 129.768 76.7829 129.065 77.4856C127.118 79.4107 125.054 81.2133 122.885 82.8829L122.793 82.9542L122.711 82.8727C120.675 80.6193 118.784 78.2383 117.052 75.7442L116.491 74.9397H116.715C115.104 77.1088 113.574 79.1761 112.177 81.0499C112.002 81.293 111.793 81.5092 111.555 81.6914C111.304 81.8789 110.99 81.9628 110.678 81.9257C110.383 81.8716 110.114 81.7211 109.913 81.4979C109.729 81.3041 109.555 81.1001 109.393 80.8869C108.751 80.0824 108.149 79.339 107.609 78.6465L105.039 75.4081L104.345 74.5222C104.262 74.4196 104.187 74.3106 104.121 74.1963C104.218 74.2827 104.307 74.3781 104.386 74.4814C104.57 74.7055 104.815 74.9804 105.12 75.3368L107.751 78.5345C108.312 79.2066 108.914 79.95 109.567 80.7443C109.893 81.1313 110.219 81.61 110.709 81.6914C111.198 81.7729 111.647 81.3452 111.983 80.8971L116.491 74.7869L116.613 74.6342L116.715 74.7971L117.276 75.6016C119.002 78.07 120.879 80.4303 122.895 82.6691H122.732C124.905 81.0132 126.985 79.2385 128.963 77.3532C129.676 76.6709 130.237 76.121 130.615 75.7442L131.053 75.3063C131.155 75.1943 131.206 75.1332 131.216 75.1943Z" fill="#040404"/>
<g opacity="0.3">
<path d="M109.668 80.9992C109.668 80.9992 112.064 83.9524 112.727 83.209C113.39 82.4656 116.939 76.9868 117.367 76.7628C117.796 76.5388 122.078 84.2172 123.761 83.6775C125.444 83.1377 131.43 77.16 131.43 77.16L131.552 74.7974L122.813 82.7406L116.613 74.8483L111.402 81.6306C111.402 81.6306 110.28 82.4962 109.668 80.9992Z" fill="black"/>
</g>
<path d="M113.656 161.022C113.632 160.734 113.632 160.444 113.656 160.156C113.656 159.535 113.707 158.71 113.738 157.671C113.829 155.462 113.962 152.356 114.115 148.506C114.431 140.797 114.869 130.176 115.277 118.393C115.685 106.611 115.991 95.9892 116.195 88.2701C116.307 84.4512 116.399 81.3452 116.46 79.1048C116.46 78.0864 116.532 77.2412 116.552 76.62C116.553 76.3304 116.574 76.0413 116.613 75.7544C116.637 76.0458 116.637 76.3387 116.613 76.6302C116.613 77.2412 116.613 78.0661 116.613 79.1048C116.613 81.3146 116.613 84.4206 116.521 88.2701C116.409 95.9892 116.165 106.601 115.757 118.414C115.349 130.227 114.859 140.818 114.441 148.516C114.207 152.335 114.023 155.431 113.901 157.682C113.819 158.72 113.758 159.545 113.717 160.156C113.72 160.446 113.7 160.735 113.656 161.022Z" fill="#040404"/>
<g opacity="0.3">
<path d="M97.0331 123.699C93.7291 145.356 90.4217 167.016 87.1108 188.68L87.8859 195.727C88.7527 196.746 90.4862 196.389 91.3734 195.412C92.1645 194.346 92.6381 193.079 92.7399 191.756C96.5131 169.291 98.5526 146.479 97.0331 123.699Z" fill="black"/>
</g>
<path d="M83.0726 71.6196C81.2547 72.209 79.6068 73.2292 78.2696 74.5929C76.9324 75.9566 75.9457 77.6234 75.3938 79.4507L63.5747 121.02L73.2625 149.534L83.3887 132.344L90.527 70.1226L83.0726 71.6196Z" fill="#FFBE21"/>
<path d="M96.7278 68.962L85.5104 71.1413L82.3798 130.614C82.3798 131.347 83.114 142.783 83.114 142.783L63.7793 185.992C68.0929 193.691 79.7794 197.296 88.0293 199.231C88.0293 199.231 96.3709 140.166 96.9114 127.151C97.4518 114.137 105.824 63.5239 105.824 63.5239L96.7278 68.962Z" fill="#FFBE21"/>
<path d="M66.1552 181.104C66.1695 181.037 66.1935 180.971 66.2266 180.911L66.4611 180.34C66.6854 179.831 67.0016 179.098 67.3993 178.161L70.9175 170.106L82.9813 142.732V142.793C82.8895 139.85 82.7875 136.795 82.6345 133.628C82.3082 126.581 81.9207 119.88 81.6148 113.77C81.3088 107.66 81.1966 102.171 81.1558 97.5476C81.1151 92.9243 81.1558 89.1869 81.1558 86.6002C81.1558 85.3171 81.217 84.3191 81.2272 83.6266C81.2272 83.3007 81.2272 83.036 81.2272 82.8527C81.2272 82.6694 81.2272 82.5879 81.2272 82.5879C81.2272 82.5879 81.2272 82.6796 81.2272 82.8527V83.6266C81.2272 84.3191 81.2272 85.3273 81.2272 86.6002C81.2272 89.1869 81.2272 92.9243 81.2986 97.5476C81.37 102.171 81.5434 107.66 81.8187 113.76C82.0941 119.86 82.4612 126.571 82.8385 133.618C82.9914 136.744 83.1036 139.799 83.1852 142.783V142.844L71.0296 170.177C69.5 173.589 68.2661 176.287 67.4197 178.232C66.9914 179.159 66.6651 179.892 66.3999 180.391C66.2877 180.626 66.196 180.809 66.1348 180.952L66.1552 181.104Z" fill="#040404"/>
<path d="M96.3197 120.726C96.3151 120.682 96.3151 120.637 96.3197 120.593L96.2178 120.176C96.126 119.789 96.0036 119.249 95.8404 118.577C95.5549 117.172 95.1368 115.145 94.7595 112.62C94.3822 110.094 94.0049 107.07 93.7397 103.709C93.4746 100.348 93.2095 96.6415 93.0259 92.7513C92.9545 91.2951 92.8933 89.8694 92.8321 88.4742C92.8321 87.7817 92.771 87.0892 92.7404 86.4375C92.7404 86.0912 92.7403 85.7552 92.6894 85.4191V84.6656C92.6847 84.6181 92.6847 84.5704 92.6894 84.523C92.6867 84.4925 92.6867 84.4618 92.6894 84.4313V84.3804C92.6894 84.3804 92.822 84.3193 92.8423 84.3804C92.8627 84.4415 92.9138 84.4415 92.9342 84.4619H92.7505L95.7486 82.3742V82.5881L92.4956 81.0707H92.4141V80.9791C92.9035 79.1257 93.495 77.4861 94.0049 76.0298C94.5148 74.5736 95.0246 73.3312 95.402 72.3026C95.7793 71.2741 96.126 70.4696 96.3503 69.9299C96.4625 69.6753 96.5441 69.4614 96.6155 69.3086C96.6385 69.2358 96.6729 69.1671 96.7174 69.105L96.646 69.3188L96.4115 69.9502C96.2076 70.5205 95.9016 71.3352 95.5243 72.3434C95.147 73.3515 94.6881 74.6449 94.1782 76.0909C93.6684 77.537 93.1075 79.146 92.6384 81.03L92.5772 80.8976L95.8404 82.4048L96.0342 82.4964L95.8609 82.6186L92.873 84.7165H92.6792L92.771 84.6554V85.3784L92.8321 86.3968C92.8321 87.0791 92.8934 87.7614 92.9239 88.4335C92.9851 89.8286 93.0463 91.2544 93.1177 92.7004C93.3013 96.5906 93.5256 100.297 93.8111 103.658C94.0967 107.019 94.4434 110.033 94.8309 112.558C95.2184 115.084 95.5651 117.121 95.8507 118.516C95.9832 119.208 96.0852 119.738 96.1668 120.135L96.2382 120.553C96.3198 120.675 96.3299 120.726 96.3197 120.726Z" fill="#040404"/>
<path d="M151.876 148.221L159.014 76.2737L138.956 68.9313C138.956 68.9313 134.255 64.6134 131.746 62.373L130.869 73.6667C130.869 73.6667 128.156 119.849 132.429 143.099C136.702 166.348 136.09 165.574 139.221 180.697C141.495 191.705 141.862 201.329 145.339 202.296C148.817 203.263 166.112 196.929 166.112 196.929L151.876 148.221Z" fill="#FFBE21"/>
<path d="M159.005 76.2739C159.005 76.2739 166.847 79.2577 168.03 89.3497C168.907 96.7939 173.485 139.382 168.692 144.687C162.946 150.852 156.663 156.495 149.919 161.552L138.701 146.969L149.348 135.278L155.354 83.708L159.005 76.2739Z" fill="#FFBE21"/>
<path d="M140.2 82.0382C140.186 82.0382 140.172 82.0344 140.159 82.0273H140.129L137.141 79.9295L136.968 79.8073L137.151 79.7258L140.345 78.2554C140.066 76.9715 139.851 75.6745 139.7 74.3692C139.547 73.1981 139.405 72.1899 139.242 71.365C139.119 70.7359 138.962 70.1138 138.773 69.5014L138.62 69.0228V68.8599C138.65 68.9075 138.674 68.9588 138.691 69.0126C138.691 69.1144 138.803 69.2672 138.874 69.4811C139.092 70.0891 139.266 70.7119 139.395 71.3447C139.578 72.1594 139.741 73.1777 139.904 74.3998C140.068 75.6218 140.251 76.9049 140.608 78.3408V78.4325H140.537L137.448 79.8781L140.196 81.7912L140.272 81.844H140.088C140.115 81.816 140.151 81.7981 140.19 81.7931C140.192 81.7924 140.194 81.7918 140.196 81.7912L137.448 79.8781L137.273 79.96V79.7563L137.448 79.8781L140.537 78.4325H140.608V78.3408C140.251 76.9049 140.068 75.6218 139.904 74.3998C139.741 73.1777 139.578 72.1594 139.395 71.3447C139.266 70.7119 139.092 70.0891 138.874 69.4811C138.803 69.2672 138.691 69.1144 138.691 69.0126C138.674 68.9588 138.65 68.9075 138.62 68.8599V69.0228L138.773 69.5014C138.962 70.1138 139.119 70.7359 139.242 71.365C139.405 72.1899 139.547 73.1981 139.7 74.3692C139.851 75.6745 140.066 76.9715 140.345 78.2554L140.425 78.2186L140.363 78.3408C140.357 78.3123 140.351 78.2839 140.345 78.2554L137.151 79.7258L136.968 79.8073L137.141 79.9295L140.129 82.0273H140.159H140.241C140.229 82.0344 140.214 82.0382 140.2 82.0382Z" fill="#040404"/>
<path d="M164.369 136.999C164.369 137.05 163.665 136.531 162.451 135.981C161.743 135.638 161.006 135.359 160.249 135.146C159.323 134.883 158.373 134.712 157.414 134.636C156.451 134.57 155.485 134.597 154.528 134.718C153.747 134.82 152.976 134.987 152.223 135.217C150.938 135.624 150.184 136.032 150.184 135.981C150.343 135.862 150.514 135.76 150.693 135.675C150.894 135.559 151.101 135.457 151.316 135.37C151.56 135.268 151.846 135.135 152.172 135.034C152.928 134.772 153.706 134.581 154.497 134.463C155.474 134.33 156.461 134.296 157.444 134.361C158.421 134.443 159.388 134.621 160.33 134.891C161.098 135.127 161.842 135.434 162.553 135.807C162.859 135.95 163.114 136.133 163.349 136.266C163.548 136.386 163.738 136.518 163.92 136.663C164.079 136.762 164.229 136.874 164.369 136.999Z" fill="#040404"/>
<g opacity="0.3">
<path d="M138.956 69.8486C138.956 69.8486 142.576 78.2909 142.076 79.0139C141.577 79.7369 139.66 80.2156 139.66 80.2156C139.66 80.2156 142.78 81.5598 142.78 82.7615C142.78 85.1342 139.435 99.2386 139.435 99.2386L140.261 82.0181L137.263 79.9202L140.526 78.4131L138.956 69.8486Z" fill="black"/>
</g>
<path d="M153.406 93.5962C153.433 93.7888 153.433 93.9841 153.406 94.1766C153.406 94.6247 153.345 95.195 153.304 95.8671C153.182 97.3947 153.029 99.4925 152.835 102.049C152.376 107.324 151.754 114.493 151.071 122.416C150.846 124.89 150.622 127.284 150.408 129.544C150.296 130.685 150.183 131.795 150.051 132.864C149.943 133.919 149.755 134.964 149.49 135.991L141.77 143.924C140.853 144.833 140.118 145.567 139.568 146.123C139.318 146.394 139.045 146.643 138.752 146.867C138.963 146.566 139.198 146.284 139.456 146.021L141.567 143.73L149.153 135.665L149.103 135.746C149.347 134.742 149.517 133.72 149.612 132.691C149.735 131.673 149.847 130.522 149.949 129.381C150.153 127.1 150.377 124.697 150.602 122.253C151.336 114.33 152.009 107.171 152.509 101.886C152.774 99.3397 152.988 97.2521 153.151 95.7755C153.233 95.0932 153.294 94.5433 153.345 94.1054C153.342 93.9337 153.363 93.7625 153.406 93.5962Z" fill="#040404"/>
<path d="M65.696 113.586L57.9152 130.899L50.5831 122.68L40.7729 129.585L52.2963 148.017C55.9062 152.661 59.3734 155.808 63.3097 155.319C64.0971 155.205 64.8722 155.017 65.6246 154.759C71.0395 152.916 74.8025 149.29 76.1689 143.76L80.6253 121.438L65.696 113.586Z" fill="#FFBE21"/>
<path d="M66.512 144.494C66.4349 144.259 66.3803 144.017 66.3489 143.771C66.2673 143.292 66.1347 142.62 65.941 141.785C65.7472 140.95 65.4719 139.962 65.1354 138.893C64.7989 137.824 64.3501 136.653 63.83 135.451C63.31 134.249 62.7287 133.15 62.178 132.172C61.6274 131.194 61.0665 130.329 60.577 129.616C60.0875 128.903 59.6898 128.353 59.3941 127.976C59.2377 127.782 59.0946 127.578 58.9658 127.365C59.1432 127.542 59.3101 127.729 59.4655 127.925C59.7714 128.282 60.1997 128.832 60.7096 129.534C61.2195 130.237 61.7293 131.092 62.3514 132.07C62.9639 133.141 63.5221 134.242 64.0238 135.37C64.5206 136.5 64.9563 137.655 65.3291 138.832C65.6555 139.911 65.9104 140.869 66.0837 141.755C66.2571 142.641 66.3794 143.282 66.4406 143.791C66.4791 144.024 66.503 144.259 66.512 144.494Z" fill="#040404"/>
<path d="M109.403 3.31836C109.403 3.41005 109.403 3.50175 109.403 3.59344C109.393 3.51193 109.403 3.42024 109.403 3.31836Z" fill="#040404"/>
<path d="M90.5479 53.1369C90.6805 50.3567 89.6403 47.6784 88.7735 44.99C87.9067 42.3015 87.1725 39.5112 87.9169 36.8431C88.8449 33.4723 91.8838 31.1301 93.5052 28.0444C95.1267 24.9588 95.2592 21.2927 95.5448 17.7895C95.8303 14.2864 96.4319 10.5897 98.757 7.95215C101.684 4.6221 109.383 4.02127 113.034 6.58754C113.595 26.4762 113.421 46.1611 109.159 65.5914C99.4504 65.9988 94.525 64.1148 86.0508 59.3591C88.743 58.9008 90.4255 55.9068 90.5479 53.1369Z" fill="#040404"/>
<path d="M132.225 65.7239L135.733 17.4536C135.777 16.4046 135.431 15.3766 134.76 14.568C134.09 13.7593 133.143 13.2273 132.103 13.0746L109.668 6.73022C102.448 5.71186 97.38 14.5207 96.7172 21.7714C95.9829 29.8165 95.3915 39.6641 96.1767 45.7131C97.7574 57.8622 106.996 59.6647 106.996 59.6647C106.813 65.6425 106.874 65.7749 106.874 65.7749L116.776 74.8179L132.225 65.7239Z" fill="#FFBF9D"/>
<path d="M99.9399 32.2399C99.9258 32.6448 100.07 33.0392 100.342 33.3396C100.615 33.64 100.993 33.8227 101.398 33.8489C101.796 33.8858 102.191 33.764 102.499 33.5102C102.807 33.2564 103.001 32.8912 103.04 32.4945C103.054 32.0896 102.91 31.6951 102.637 31.3948C102.365 31.0944 101.987 30.9117 101.582 30.8855C101.384 30.863 101.184 30.8805 100.994 30.937C100.803 30.9935 100.626 31.0877 100.473 31.2142C100.319 31.3406 100.193 31.4966 100.102 31.6729C100.01 31.8491 99.9551 32.042 99.9399 32.2399Z" fill="#040404"/>
<path d="M98.6545 26.9136C98.8381 27.1275 100.041 26.2924 101.714 26.3434C103.386 26.3943 104.579 27.2599 104.773 27.0664C104.967 26.8729 104.671 26.6081 104.151 26.2008C103.444 25.6798 102.592 25.3916 101.714 25.3759C100.844 25.3433 99.9862 25.5895 99.2663 26.0786C98.7463 26.4656 98.5627 26.822 98.6545 26.9136Z" fill="#040404"/>
<path d="M114.196 32.5252C114.182 32.9301 114.326 33.3246 114.598 33.6249C114.871 33.9253 115.249 34.108 115.654 34.1342C115.851 34.1553 116.051 34.1367 116.241 34.0797C116.431 34.0227 116.608 33.9283 116.76 33.8021C116.913 33.6759 117.04 33.5205 117.132 33.3449C117.224 33.1694 117.279 32.9772 117.296 32.7798C117.31 32.376 117.165 31.9826 116.893 31.6839C116.62 31.3852 116.242 31.2047 115.838 31.181C115.641 31.1585 115.442 31.1757 115.252 31.2315C115.062 31.2874 114.885 31.3807 114.732 31.5061C114.579 31.6315 114.452 31.7863 114.36 31.9614C114.268 32.1364 114.212 32.3282 114.196 32.5252Z" fill="#040404"/>
<path d="M115.073 27.6979C115.257 27.9016 116.46 27.0665 118.133 27.1175C119.805 27.1684 121.008 28.0442 121.192 27.8405C121.376 27.6368 121.1 27.3822 120.57 26.9749C119.863 26.454 119.011 26.1657 118.133 26.15C117.262 26.126 116.406 26.3754 115.685 26.8629C115.165 27.2397 114.982 27.6063 115.073 27.6979Z" fill="#040404"/>
<path d="M108.649 39.8979C107.773 39.6054 106.866 39.4174 105.946 39.3378C105.518 39.2767 105.12 39.1851 105.049 38.8897C105.026 38.4486 105.14 38.011 105.375 37.6371C105.804 36.6188 106.252 35.5495 106.732 34.4293C108.608 29.8569 109.985 26.0889 109.791 26.0176C109.597 25.9463 107.935 29.5819 106.049 34.1645L104.743 37.4029C104.46 37.9072 104.366 38.4957 104.478 39.0628C104.532 39.2166 104.623 39.3551 104.741 39.4667C104.86 39.5784 105.004 39.6599 105.161 39.7044C105.397 39.7755 105.64 39.8166 105.885 39.8266C106.799 39.9744 107.729 39.9984 108.649 39.8979Z" fill="#040404"/>
<path d="M106.936 59.6241C112.627 59.8662 118.274 58.5303 123.252 55.7645C123.976 54.0842 120.009 61.7932 106.844 62.7912L106.936 59.6241Z" fill="#FF9A6C"/>
<path d="M108.791 43.8802C109.18 43.337 109.697 42.8979 110.297 42.6013C110.896 42.3047 111.559 42.1599 112.228 42.1795C112.664 42.1984 113.088 42.3233 113.465 42.5434C113.842 42.7634 114.159 43.072 114.39 43.4423C114.647 43.8692 114.768 44.3645 114.735 44.8618C114.703 45.3592 114.519 45.8347 114.208 46.2248C113.898 46.6148 113.475 46.9006 112.997 47.044C112.519 47.1874 112.009 47.1814 111.534 47.0269C110.611 46.7023 109.781 46.1569 109.117 45.4382C108.901 45.2695 108.727 45.0535 108.607 44.8069C108.546 44.6707 108.521 44.5204 108.538 44.3717C108.554 44.223 108.61 44.0814 108.699 43.9616" fill="#FF9A6C"/>
<path d="M113.543 41.1914C113.268 41.1914 113.217 42.9837 111.626 44.2465C110.035 45.5093 108.108 45.2649 108.088 45.4889C108.067 45.7129 108.506 45.8555 109.321 45.8962C110.384 45.9435 111.429 45.6114 112.269 44.9593C113.078 44.34 113.616 43.4309 113.768 42.4236C113.849 41.6395 113.666 41.1914 113.543 41.1914Z" fill="#040404"/>
<path d="M114.532 20.8038C114.685 21.2621 116.358 21.089 118.306 21.3843C120.253 21.6796 121.834 22.2601 122.109 21.8528C122.232 21.6593 121.966 21.2316 121.334 20.7733C120.502 20.1991 119.544 19.8324 118.54 19.704C117.541 19.5564 116.52 19.6472 115.562 19.9688C114.838 20.203 114.461 20.5798 114.532 20.8038Z" fill="#E0E0E0"/>
<path d="M99.399 21.221C99.6846 21.6079 100.847 21.221 102.234 21.2719C103.621 21.3228 104.783 21.5978 105.069 21.2006C105.191 21.0173 105.069 20.6303 104.508 20.2535C103.838 19.7977 103.044 19.5595 102.234 19.5712C101.417 19.5592 100.618 19.8052 99.9497 20.2739C99.4704 20.61 99.2767 20.9969 99.399 21.221Z" fill="#040404"/>
<path d="M106.925 6.60775C108.965 1.63815 113.503 0.589244 118.326 0.080063C123.15 -0.429118 130.308 1.55669 134.296 4.15351C137.615 6.17431 140.597 8.69963 143.137 11.6385C145.279 14.388 146.196 17.545 147.553 20.7223C149.592 25.6715 149.49 31.1401 149.786 36.4458C150.145 43.129 151.215 49.755 152.978 56.2122C153.6 58.534 154.252 61.304 150.938 62.638C150.327 62.8777 149.685 63.0319 149.031 63.0963C143.932 63.7175 138.987 65.3673 133.317 65.7339H129.809C125.373 65.7339 123.109 62.8825 123.262 59.2673C123.721 48.3402 129.054 30.3967 129.646 26.9546C129.666 26.9445 131.502 3.37954 106.925 6.60775Z" fill="#040404"/>
<path d="M108.536 6.48566C109.278 7.10353 109.886 7.86526 110.324 8.72472C110.762 9.58417 111.021 10.5235 111.086 11.4858C111.34 13.3902 111.228 15.3352 111.585 17.2294C111.961 19.1219 112.787 20.8963 113.994 22.4028C115.201 23.9094 116.753 25.1039 118.52 25.8855C119.641 26.3743 121.191 26.5678 121.885 25.5596C121.844 26.902 122.213 28.225 122.941 29.3541C123.669 30.4832 124.723 31.3651 125.964 31.8836C127.759 32.6066 129.778 32.4946 131.664 32.902C133.551 33.3093 135.529 34.623 135.631 36.5477L136.416 23.1257L132.643 11.2516L121.018 4.33691L108.536 6.48566Z" fill="#040404"/>
<path d="M129.136 28.6245C128.735 28.3647 128.363 28.0644 128.024 27.7284C127.151 26.7638 126.521 25.6045 126.188 24.3474C125.724 22.472 125.451 20.5545 125.373 18.6242C125.285 16.2475 125.012 13.8811 124.557 11.5466C124.084 9.19054 122.989 7.00359 121.385 5.21238C120.668 4.44254 119.805 3.82289 118.846 3.38952C118.011 3.01763 117.117 2.79694 116.205 2.73777C114.877 2.62506 113.548 2.93904 112.412 3.63392C112.237 3.74465 112.07 3.86714 111.912 4.00053C111.789 4.08952 111.676 4.19199 111.575 4.30604C111.487 4.3912 111.405 4.48314 111.331 4.581C111.683 4.26188 112.062 3.97236 112.462 3.71539C113.591 3.06088 114.896 2.77596 116.195 2.9007C118.125 3.05169 119.925 3.9289 121.232 5.35495C122.785 7.13435 123.84 9.2911 124.292 11.6077C124.746 13.9292 125.025 16.2814 125.128 18.6446C125.208 20.5848 125.498 22.5106 125.995 24.3881C126.339 25.6665 127.002 26.8368 127.922 27.7895C128.275 28.1365 128.685 28.4192 129.136 28.6245Z" fill="white"/>
<path d="M139.241 27.0057C138.633 26.9421 138.035 26.7948 137.467 26.5678C135.957 25.8375 134.674 24.7111 133.755 23.3091C133.093 22.3676 132.523 21.365 132.052 20.3151C131.546 19.0932 131.227 17.8025 131.104 16.486C130.93 15.0909 130.869 13.6244 130.716 12.0969C130.634 11.3198 130.508 10.548 130.339 9.78521C130.163 8.99746 129.906 8.22972 129.574 7.49389C128.273 4.66846 125.953 2.43607 123.078 1.24115C120.735 0.284184 118.146 0.109144 115.695 0.742149C114.048 1.14526 112.505 1.89138 111.167 2.93162C110.674 3.29912 110.223 3.71914 109.821 4.18422L109.913 4.11292L110.178 3.86853C110.29 3.76669 110.423 3.63429 110.606 3.49172C110.801 3.31772 111.006 3.15454 111.218 3.00291C112.566 2.00324 114.103 1.28619 115.736 0.894897C118.152 0.297411 120.696 0.486533 122.997 1.43464C124.774 2.15995 126.351 3.30205 127.594 4.7644C128.836 6.22674 129.708 7.96635 130.135 9.83613C130.306 10.5879 130.429 11.3498 130.502 12.1173C130.665 13.6346 130.737 15.1112 130.91 16.5064C131.051 17.8439 131.394 19.1523 131.93 20.3863C132.403 21.4626 132.987 22.4865 133.674 23.4414C134.616 24.8553 135.932 25.98 137.477 26.69C137.906 26.8601 138.355 26.9731 138.813 27.0261H139.17L139.241 27.0057Z" fill="#A6A6A6"/>
<path d="M121.906 25.5597C121.903 25.597 121.903 25.6344 121.906 25.6717C121.897 25.7836 121.897 25.8959 121.906 26.0078C121.906 26.1503 121.906 26.3438 121.967 26.5475C122.028 26.7512 122.069 27.016 122.12 27.2909C122.296 27.9593 122.556 28.6027 122.895 29.2054C123.356 30.0057 123.982 30.6997 124.73 31.2422C126.793 32.5895 129.252 33.1964 131.706 32.9632C133.163 32.8963 134.609 32.6744 136.019 32.3013C137.564 31.9107 139.049 31.3147 140.435 30.5293L140.71 30.3664L140.394 30.3154C138.623 30.0683 136.902 29.5424 135.295 28.7574H135.214L135.142 28.9814C138.746 29.5585 142.439 28.8941 145.615 27.0974L145.819 26.9854L145.595 26.9039C143.357 26.2299 141.254 25.1682 139.384 23.7674C138.159 22.8777 137.173 21.6987 136.514 20.3358C135.856 18.9729 135.546 17.4684 135.611 15.9565C135.611 15.5492 135.611 15.2335 135.683 15.0095V14.6836C135.683 14.6836 135.683 14.6836 135.683 14.7651V14.9993C135.683 15.2335 135.621 15.5492 135.581 15.9565C135.522 17.1572 135.684 18.3585 136.06 19.5004C136.716 21.2419 137.842 22.768 139.313 23.91C141.192 25.3411 143.313 26.4241 145.574 27.1076V26.9141C142.434 28.6734 138.789 29.3194 135.234 28.7472L134.459 28.625L135.173 28.9712H135.254C136.861 29.7588 138.582 30.2913 140.353 30.5497V30.346C138.993 31.1278 137.531 31.7172 136.009 32.0976C134.613 32.4762 133.181 32.7049 131.736 32.7799C129.322 33.0225 126.897 32.4449 124.853 31.1403C124.113 30.5948 123.494 29.9011 123.038 29.1036C122.688 28.5181 122.42 27.8877 122.242 27.2298C122.181 26.9549 122.12 26.7104 122.069 26.4966C122.018 26.2827 122.008 26.1096 121.987 25.967C121.967 25.8245 121.987 25.7226 121.987 25.631C121.987 25.5393 121.906 25.5597 121.906 25.5597Z" fill="#A6A6A6"/>
<path d="M146.747 58.6153C146.808 58.6153 146.074 52.1487 145.105 44.175C144.136 36.2012 143.3 29.755 143.239 29.7651C143.178 29.7753 143.912 36.2318 144.881 44.2055C145.849 52.1793 146.686 58.6255 146.747 58.6153Z" fill="#A6A6A6"/>
<path d="M122.201 150.003C121.24 149.811 120.25 149.818 119.292 150.025C118.334 150.232 117.429 150.633 116.633 151.205C114.104 153.068 109.76 155.523 105.416 154.667C98.6447 153.343 94.9735 147.009 96.4828 139.341C97.992 131.673 103.784 127.202 110.556 128.526C114.92 129.381 118.01 133.302 119.652 135.97C120.167 136.802 120.85 137.518 121.658 138.072C122.466 138.626 123.38 139.006 124.343 139.188C125.269 139.376 126.224 139.378 127.151 139.194C128.079 139.01 128.96 138.644 129.745 138.118C130.529 137.591 131.201 136.914 131.722 136.126C132.242 135.337 132.601 134.454 132.776 133.526L140.261 88.4329L69.5712 76.1107L21.2549 67.7397L13.7188 110.511C12.954 114.401 16.2173 117.853 20.1128 118.658C21.0737 118.85 22.064 118.842 23.0219 118.636C23.9798 118.429 24.8849 118.027 25.6807 117.456C28.2097 115.593 32.5437 113.138 36.8981 113.994C43.6591 115.318 47.3302 121.652 45.8312 129.32C44.3321 136.988 38.5296 141.459 31.7584 140.135C27.3938 139.28 24.304 135.359 22.6622 132.691C22.1468 131.859 21.4636 131.143 20.656 130.589C19.8484 130.035 18.934 129.655 17.9713 129.473C17.0445 129.291 16.0909 129.293 15.1649 129.479C14.239 129.665 13.3588 130.031 12.5746 130.557C11.7905 131.083 11.1178 131.758 10.595 132.543C10.0722 133.329 9.70944 134.209 9.52761 135.135L0.553711 185.483L71.6414 197.988L113.35 205.32L118.448 206.217L127.871 158.435C128.061 157.509 128.064 156.555 127.881 155.627C127.697 154.7 127.331 153.819 126.803 153.034C126.276 152.249 125.597 151.577 124.807 151.057C124.017 150.537 123.131 150.178 122.201 150.003Z" fill="#A6A6A6"/>
<path d="M51.7871 121.388C51.7973 121.132 51.7541 120.876 51.66 120.638C51.566 120.4 51.4233 120.184 51.241 120.004C51.0587 119.824 50.8408 119.683 50.6013 119.592C50.3617 119.501 50.1057 119.46 49.8496 119.473C49.2683 119.473 48.5035 119.544 47.5551 119.646C45.1281 119.891 37.9081 123.424 37.7246 124.86C37.5925 125.37 37.5945 125.905 37.7302 126.413C37.866 126.922 38.131 127.386 38.4996 127.763C38.4996 127.763 37.0923 129.626 37.6124 131.164C38.0611 132.488 40.172 132.946 40.172 132.946C40.172 132.946 38.6015 134.769 40.172 136.062C40.7328 136.52 41.8648 137.386 42.13 137.671C42.2324 138.06 42.3796 138.436 42.5684 138.791C42.9211 139.29 43.3767 139.706 43.9045 140.014C44.4322 140.321 45.0199 140.512 45.6277 140.574H46.0356C46.8165 140.643 47.5953 140.418 48.2179 139.942C51.0325 137.793 58.9968 131.561 59.1599 129.83C59.1599 129.83 60.6794 128.648 60.0778 127.406C59.4761 126.164 57.2122 126.714 57.2122 126.714C57.5255 126.466 57.7511 126.125 57.8557 125.74C57.9604 125.355 57.9385 124.947 57.7935 124.575C57.2632 123.282 53.2453 123.394 51.4098 123.628C49.9617 123.821 45.903 124.473 45.903 124.473C45.903 124.473 51.2976 122.63 51.6239 121.713C51.6909 121.612 51.7456 121.502 51.7871 121.388Z" fill="#FFBF9D"/>
<path d="M59.2512 129.87C59.0826 129.997 58.9015 130.106 58.7108 130.196C58.3539 130.4 57.8236 130.675 57.1709 131C55.8554 131.652 54.0096 132.467 51.9191 133.271C49.8286 134.076 47.9217 134.718 46.5246 135.155C45.8312 135.379 45.2601 135.553 44.8726 135.665C44.6715 135.738 44.4628 135.789 44.2505 135.817C44.4421 135.729 44.6398 135.654 44.842 135.593L46.4838 135.023C47.8605 134.544 49.7674 133.882 51.8477 133.078C53.928 132.273 55.7841 131.489 57.1097 130.868C57.7726 130.563 58.3028 130.308 58.6699 130.125C58.857 130.025 59.0513 129.94 59.2512 129.87Z" fill="#FF9A6C"/>
<path d="M57.5587 126.703C57.3654 126.761 57.1675 126.801 56.9672 126.825C56.5797 126.907 56.029 127.009 55.356 127.161C53.9997 127.457 52.154 127.966 50.1348 128.597C49.1151 128.923 48.0953 129.198 47.2897 129.504C46.4841 129.809 45.658 130.115 45.0156 130.39C44.3731 130.665 43.8735 130.899 43.5268 131.062C43.3492 131.159 43.1652 131.244 42.9761 131.316C42.9761 131.316 42.9761 131.316 43.0984 131.225L43.486 131.001C43.8327 130.807 44.3324 130.553 44.9646 130.257C45.5969 129.962 46.3617 129.646 47.2285 129.331C48.0953 129.015 49.0641 128.73 50.0736 128.414C51.7974 127.853 53.5506 127.388 55.3254 127.019C56.0087 126.887 56.5695 126.805 56.957 126.754C57.1556 126.719 57.357 126.702 57.5587 126.703Z" fill="#FF9A6C"/>
<path d="M45.9946 124.514C45.7232 124.706 45.4286 124.864 45.1176 124.982C44.5669 125.237 43.7919 125.563 42.9455 125.909C42.0991 126.255 41.3241 126.601 40.7836 126.866C40.4973 127.023 40.1968 127.152 39.8862 127.253C40.1398 127.048 40.4171 126.873 40.7122 126.734C41.2527 126.449 42.0073 126.082 42.8639 125.715C43.7205 125.349 44.5058 125.064 45.0666 124.84C45.3659 124.704 45.6764 124.595 45.9946 124.514Z" fill="#FF9A6C"/>
<path d="M56.7121 133.027C56.6025 133.18 56.476 133.32 56.3348 133.445C56.0798 133.71 55.7127 134.076 55.2334 134.514C54.2748 135.39 52.8778 136.551 51.3787 137.793C51.0014 138.119 50.6445 138.445 50.2774 138.74C49.9103 139.036 49.5431 139.29 49.176 139.524C48.5223 139.931 47.8106 140.237 47.0651 140.431C46.5667 140.563 46.0497 140.611 45.5355 140.573C45.3946 140.565 45.2548 140.544 45.1174 140.512H44.9746C44.9746 140.512 45.1785 140.512 45.5355 140.512C46.042 140.523 46.5473 140.457 47.0345 140.319C47.757 140.109 48.4444 139.793 49.0741 139.382C49.4486 139.144 49.8095 138.886 50.155 138.608C50.5221 138.323 50.8689 137.987 51.2462 137.671C52.7554 136.388 54.1627 135.278 55.1315 134.422C55.6312 134.005 56.0187 133.659 56.2838 133.404C56.4141 133.265 56.5575 133.139 56.7121 133.027Z" fill="#FF9A6C"/>
<path d="M136.672 149.841C136.672 149.841 134.143 147.132 132.001 146.694C129.86 146.256 126.903 146.633 126.413 146.266C125.924 145.9 124.792 144.454 123.782 145.35C122.772 146.246 121.131 149.81 125.454 151.572L128.514 152.071C128.113 153.511 127.501 154.883 126.699 156.144C125.75 157.234 113.136 168.701 113.136 168.701C113.136 168.701 111.616 169.79 112.116 171.206C112.616 172.622 115.481 172.326 115.481 172.326C115.967 172.92 116.597 173.38 117.311 173.664C118.024 173.947 118.799 174.044 119.56 173.945C120.733 173.733 121.879 173.391 122.976 172.927C123.615 173.609 124.463 174.059 125.386 174.206C126.309 174.354 127.255 174.19 128.075 173.742C131.012 172.204 143.545 161.043 143.545 161.043L140.261 150.044L136.672 149.841Z" fill="#FFBF9D"/>
<path d="M139.588 147.651L136.458 149.84C140.343 153.771 143.3 157.244 142.505 161.959L148.562 159.494C148.562 159.494 149.082 150.095 139.588 147.651Z" fill="#FFBF9D"/>
<path d="M124.965 166.094C123.773 167.576 122.326 168.835 120.692 169.811C119.156 170.932 117.428 171.763 115.593 172.265C115.532 172.122 117.837 171.084 120.417 169.373C122.997 167.662 124.822 165.971 124.965 166.094Z" fill="#FF9A6C"/>
<path d="M129.319 168.538C128.593 169.841 127.538 170.933 126.26 171.705C125.076 172.637 123.671 173.247 122.181 173.477C122.181 173.324 123.965 172.642 125.913 171.277C127.861 169.912 129.197 168.436 129.319 168.538Z" fill="#FF9A6C"/>
</svg>
