<svg width="63" height="58" viewBox="0 0 63 58" fill="none" xmlns="http://www.w3.org/2000/svg">
<path d="M62.9945 8.82623C62.9945 6.60116 62.2889 4.6155 60.794 2.95147C58.9426 0.883558 56.5939 0.014094 53.8447 0.014094C44.0058 0.0317183 34.1665 0.0317183 24.3266 0.014094C19.2316 0.014094 14.1367 0.0669539 9.04315 0.000862905C3.70024 -0.0696342 -0.15511 4.18957 0.00479629 9.0568C0.0825487 11.4405 0.0165275 13.8286 0.0179945 16.2152C0.0179945 23.1533 -0.0216195 30.0928 0.0502648 37.0324C0.0957426 41.3709 3.70757 45.0338 8.01916 45.2688C8.5693 45.2982 8.64558 45.5067 8.64265 45.9782C8.62358 48.6703 8.63384 51.3639 8.63384 54.056V57.1597C8.63384 57.5195 9.03852 57.7412 9.33361 57.5353V57.5353C14.9807 53.6041 20.6248 49.669 26.266 45.73C26.6512 45.4497 27.1177 45.3042 27.5937 45.3158C36.3841 45.3276 45.1731 45.2762 53.9635 45.3437C59.0174 45.3819 62.9916 41.5251 62.9945 36.5316C63.0033 27.2984 63.0033 18.0633 62.9945 8.82623ZM59.305 36.3215C59.3041 36.3215 59.3035 36.3222 59.3035 36.323C59.303 38.9776 57.8727 40.857 55.4379 41.4928C54.9024 41.6397 54.3552 41.625 53.8095 41.625C44.7139 41.625 35.6183 41.625 26.5228 41.625C26.0045 41.6093 25.4954 41.7641 25.0734 42.0656C21.0517 44.8913 17.0218 47.7039 12.9836 50.5032V50.5032C12.7116 50.6915 12.3365 50.4918 12.3362 50.161C12.3334 47.5037 12.3195 44.9351 12.3542 42.3652C12.363 41.7381 12.1679 41.603 11.5884 41.6309C10.519 41.6691 9.4451 41.669 8.37564 41.6103C7.16404 41.5498 6.01789 41.0417 5.15887 40.1841C4.29986 39.3266 3.78903 38.1806 3.72517 36.9678C3.7105 36.7489 3.70904 36.5272 3.70904 36.3113C3.70904 27.2269 3.70904 18.1426 3.70904 9.05827C3.70904 6.8993 4.57018 5.26465 6.51106 4.25126C7.26658 3.85618 8.08225 3.7431 8.91992 3.7431C23.9638 3.7431 39.0077 3.7431 54.0515 3.7431C56.654 3.7431 58.4863 5.11777 59.1304 7.52642C59.2524 8.01374 59.3111 8.51479 59.3049 9.01715C59.3137 18.1127 59.3142 27.2137 59.3064 36.3201C59.3064 36.3209 59.3058 36.3215 59.305 36.3215V36.3215Z" fill="black"/>
<path d="M17.7181 16.9999C22.3077 16.9668 26.8974 16.9826 31.4871 16.9826C36.1407 16.9826 40.7953 16.9826 45.4508 16.9826C45.8473 16.9826 46.0187 16.9146 45.9984 16.422C45.9577 15.4587 45.9722 14.4923 45.9984 13.5274C46.0057 13.1547 45.9476 13 45.551 13C36.1983 13.0126 26.8461 13.0126 17.4944 13C17.0688 13 16.9933 13.1579 17.0064 13.5653C17.034 14.4354 17.0499 15.3024 17.0064 16.1772C16.9671 16.7978 17.0979 17.0047 17.7181 16.9999Z" fill="black"/>
<path d="M45.3298 21C36.1091 21.02 26.8888 21.0248 17.6691 21.0143C17.6043 21.019 17.5393 21.019 17.4745 21.0143C17.11 20.9526 16.9924 21.1107 17.0026 21.5172C17.0287 22.4662 17.0447 23.4041 17.0026 24.3452C16.9779 24.883 17.1275 25.0016 17.6081 24.9984C22.2402 24.9779 26.8724 24.9858 31.5031 24.9858C36.1338 24.9858 40.7674 24.9763 45.3995 25C45.8889 25 46.0239 24.8735 45.9963 24.3452C45.9484 23.474 45.9484 22.6004 45.9963 21.7292C46.0268 21.1424 45.8743 20.9984 45.3298 21Z" fill="black"/>
<path d="M45.3591 29C38.4983 29.0169 31.637 29.0211 24.7752 29.0126C22.372 29.0126 19.9702 29.0269 17.5669 29C17.1051 29 16.9861 29.1359 17.0035 29.6319C17.0478 30.5265 17.0478 31.423 17.0035 32.3175C16.9715 32.8942 17.1574 33 17.6482 32.9984C22.2587 32.9779 26.8692 32.9858 31.4797 32.9858C36.0902 32.9858 40.7428 32.9747 45.375 33C45.8993 33 46.0212 32.842 45.9966 32.3033C45.9523 31.433 45.9523 30.5607 45.9966 29.6904C46.027 29.1185 45.8586 28.9984 45.3591 29Z" fill="black"/>
</svg>
