<svg width="328" height="320" viewBox="0 0 328 320" fill="none" xmlns="http://www.w3.org/2000/svg">
<path d="M327.868 30.0285V287.662C327.868 296.238 327.868 320 327.868 320C327.868 320 304.24 320 295.712 320H0C1.19614 310.377 3.73626 300.971 7.54526 292.062C22.3716 257.633 52.7938 232.213 85.6393 214.357L88.8664 212.637C100.224 206.619 111.927 201.33 123.779 196.352C126.834 195.058 129.9 193.799 132.967 192.541C141.936 188.891 150.974 185.368 159.989 181.776L160.862 181.43C165.41 179.613 169.95 177.776 174.483 175.921L175.264 175.598C179.674 173.773 184.061 171.906 188.425 169.996C199.312 165.215 210.142 159.983 220.581 154.116C221.178 153.792 221.73 153.457 222.361 153.111C222.556 153.018 222.74 152.903 222.924 152.799L223.085 152.707C229.275 149.149 235.316 145.373 241.138 141.307C255.479 131.55 268.259 119.652 279.037 106.024C302.006 76.3417 312.342 37.2584 307.748 0H327.868V30.0285Z" fill="#ffb200"/>
</svg>
