<svg width="910" height="473" viewBox="0 0 910 473" fill="none" xmlns="http://www.w3.org/2000/svg">
<mask id="mask0_2821_2" style="mask-type:alpha" maskUnits="userSpaceOnUse" x="212" y="0" width="698" height="473">
<rect x="212.357" width="697.286" height="473" fill="#D9D9D9"/>
</mask>
<g mask="url(#mask0_2821_2)">
<path d="M765.431 84.2161C761.837 84.6968 758.091 82.1185 757.258 78.6006C756.426 75.0827 758.595 71.106 762.035 69.9261C759.756 67.6756 759.121 63.9392 760.545 61.0768C761.969 58.2145 765.321 56.4228 768.498 56.8598C768.564 53.6915 770.404 50.6325 773.165 49.0812C775.926 47.5298 779.497 47.5079 782.258 49.0812C785.698 46.0221 791.329 45.8036 795.009 48.5786C798.077 47.9449 801.451 49.5182 802.963 52.2494C804.453 54.9807 803.949 58.6733 801.758 60.902" fill="#263238"/>
<path d="M764.357 85.2859C765.343 69.0076 778.708 56.2035 795.053 55.8757L796.675 55.832C814.225 56.4875 823.449 71.7389 822.31 89.1971L823.361 151.535L780.724 166.787L780.352 144.347C780.352 144.347 763.459 142.074 762.911 125.293C762.648 117.187 763.459 100.428 764.379 85.2859H764.357Z" fill="#AE7461"/>
<path d="M780.22 144.325C780.22 144.325 791 144.762 802.152 137.442C802.152 137.442 797.2 149.635 780.373 148.455L780.22 144.325Z" fill="#6F4439"/>
<path d="M769.615 101.018C769.615 102.285 770.667 103.356 771.982 103.399C773.296 103.443 774.392 102.46 774.414 101.193C774.414 99.9253 773.362 98.8547 772.047 98.811C770.711 98.7673 769.637 99.7505 769.615 101.018Z" fill="#263238"/>
<path d="M768.148 93.4366C768.454 93.7425 770.251 92.3659 772.836 92.3222C775.422 92.2348 777.35 93.524 777.613 93.2181C777.744 93.0651 777.438 92.5189 776.583 91.9289C775.75 91.339 774.348 90.7927 772.749 90.8364C771.127 90.8801 769.791 91.4919 769.024 92.1256C768.235 92.7592 767.972 93.3274 768.126 93.4585L768.148 93.4366Z" fill="#263238"/>
<path d="M792.687 101.018C792.687 102.285 793.739 103.356 795.053 103.399C796.368 103.443 797.463 102.46 797.485 101.193C797.485 99.9253 796.434 98.8547 795.119 98.811C793.783 98.7673 792.709 99.7505 792.687 101.018Z" fill="#263238"/>
<path d="M793.607 93.392C793.914 93.6979 795.71 92.3214 798.296 92.2777C800.881 92.1903 802.809 93.4794 803.072 93.1517C803.204 92.9987 802.897 92.4525 802.043 91.8625C801.21 91.2726 799.808 90.7263 798.208 90.77C796.587 90.8137 795.25 91.4255 794.484 92.0592C793.695 92.6928 793.432 93.2609 793.585 93.392H793.607Z" fill="#263238"/>
<path d="M784.602 112.73C784.602 112.577 783.003 112.337 780.374 112.053C779.716 112.009 779.081 111.878 778.971 111.441C778.796 110.96 779.059 110.261 779.366 109.475C779.957 107.858 780.571 106.175 781.228 104.405C783.792 97.1949 785.632 91.2953 785.347 91.1861C785.062 91.0768 782.74 96.8453 780.176 104.034C779.563 105.804 778.971 107.508 778.402 109.125C778.161 109.89 777.744 110.742 778.117 111.725C778.314 112.206 778.796 112.555 779.212 112.665C779.629 112.796 780.001 112.774 780.33 112.796C782.959 112.883 784.58 112.861 784.58 112.708L784.602 112.73Z" fill="#263238"/>
<path d="M792.643 84.6092C792.994 85.2647 795.207 84.4999 797.924 84.3688C800.641 84.1722 802.963 84.631 803.204 83.9537C803.314 83.6259 802.81 83.0578 801.824 82.5552C800.838 82.0527 799.348 81.6812 797.705 81.7686C796.061 81.8779 794.659 82.4241 793.783 83.0578C792.884 83.6915 792.49 84.3251 792.665 84.631L792.643 84.6092Z" fill="#263238"/>
<path d="M767.665 84.3028C768.213 84.8709 770.338 84.2154 772.924 84.1498C775.487 83.9969 777.678 84.4557 778.16 83.8221C778.379 83.5162 778.029 82.948 777.065 82.4018C776.123 81.8774 774.545 81.4404 772.77 81.5278C770.996 81.6152 769.484 82.1833 768.607 82.7951C767.709 83.4069 767.424 84.0187 767.665 84.3028Z" fill="#263238"/>
<path d="M765.825 77.5513C765.825 77.5513 770.054 66.9322 775.093 64.3757C781.184 61.273 783.989 67.9591 789.817 66.2111C795.645 64.4631 801.473 61.4915 807.564 65.8833C814.225 70.7122 811.223 74.2301 811.793 81.681C814.049 111.856 819.768 120.29 821.039 106.022C821.17 104.449 825.486 103.138 826.012 96.539C826.67 87.9738 826.779 77.595 824.764 71.5862C823.055 66.517 820.053 63.0428 814.729 59.2409C806.337 53.254 794.966 53.3633 787.275 54.3028C779.585 55.2424 764.883 64.3975 765.847 77.5513H765.825Z" fill="#263238"/>
<path d="M819.943 105.607C819.987 103.007 822.2 100.909 824.785 101.106C827.94 101.346 831.468 103.05 831.38 109.518C831.249 121.011 819.702 118.498 819.68 118.17C819.68 117.952 819.812 110.392 819.921 105.585L819.943 105.607Z" fill="#AE7461"/>
<path d="M822.266 113.888C822.266 113.888 822.463 114.041 822.792 114.194C823.12 114.347 823.69 114.456 824.282 114.237C825.509 113.8 826.56 111.899 826.626 109.824C826.67 108.775 826.451 107.77 826.1 106.961C825.75 106.109 825.224 105.519 824.61 105.41C823.997 105.257 823.559 105.628 823.427 105.934C823.274 106.262 823.339 106.481 823.274 106.502C823.252 106.524 823.033 106.306 823.12 105.825C823.164 105.607 823.318 105.323 823.58 105.104C823.865 104.886 824.26 104.776 824.698 104.82C825.596 104.886 826.385 105.716 826.779 106.634C827.218 107.551 827.48 108.666 827.437 109.846C827.327 112.162 826.122 114.325 824.457 114.784C823.646 114.98 822.967 114.74 822.616 114.456C822.266 114.172 822.2 113.91 822.244 113.888H822.266Z" fill="#6F4439"/>
<path d="M819.264 83.3634C817.796 84.4122 816.24 85.5047 814.422 85.7014C812.625 85.9199 810.544 84.9148 810.193 83.1449C810.04 82.3583 810.215 81.4188 809.667 80.807C809.032 80.0859 807.871 80.3262 806.906 80.4573C803.576 80.8725 800.092 78.5782 799.172 75.3663C798.34 76.6554 796.346 76.6336 795.031 75.847C793.716 75.0385 792.862 73.7057 791.832 72.5695C790.802 71.4333 789.356 70.4282 787.845 70.6685C786.99 70.7996 786.201 71.324 785.347 71.2803C783.835 71.1711 783.068 69.4231 782.805 67.9373C782.542 66.4515 782.323 64.7034 781.03 63.9168C779.825 63.1958 778.292 63.6546 776.911 63.895C775.531 64.1353 773.712 63.8294 773.34 62.4966C773.143 61.7974 773.428 61.0326 773.822 60.399C775.553 57.5366 779.453 56.2256 782.564 57.4055C783.616 53.5818 787.122 50.5664 791.043 50.0639C794.987 49.5613 799.128 51.6371 801.1 55.0676C803.488 52.817 807.016 51.8119 810.215 52.4893C813.436 53.1448 816.262 55.4609 817.555 58.4762C820.337 57.6896 823.558 58.6947 825.377 60.9452C827.195 63.1958 827.524 66.5389 826.165 69.0953C828.269 70.2315 830.066 72.2417 830.175 74.6234C830.263 77.005 827.984 79.4085 825.683 78.8404C826.648 80.6758 825.946 83.2105 824.172 84.2593C822.397 85.3299 819.833 84.7837 818.65 83.0794" fill="#263238"/>
<path d="M781.797 60.7705C781.797 60.7705 781.797 60.8361 781.797 60.989C781.797 61.1201 781.819 61.3386 781.885 61.6008C781.995 62.1252 782.236 62.9118 782.761 63.7858C783.309 64.6598 784.12 65.6649 785.369 66.4515C786.596 67.2381 788.261 67.8281 790.123 67.697L789.926 67.4566C789.597 68.4399 789.707 69.6198 790.211 70.6249C790.693 71.6518 791.438 72.5477 792.249 73.3998C792.643 73.815 793.015 74.3176 793.563 74.689C794.111 75.0605 794.746 75.2571 795.404 75.3227C796.696 75.4538 798.164 75.0386 799.085 73.9243L798.646 73.815C798.975 76.0874 800.333 78.3598 802.437 79.6927C803.554 80.4574 804.913 80.9163 806.249 80.8507C807.586 80.807 808.813 80.3919 809.952 79.9549L809.645 79.8238C810.303 81.244 811.267 82.4458 812.45 83.3198C813.611 84.1938 815.123 84.6963 816.481 84.3249C819.198 83.6912 820.951 81.397 821.258 79.2775L820.995 79.4086C822.353 80.1078 823.799 80.1515 824.96 79.9112C826.144 79.6708 827.042 79.1464 827.699 78.622C828.357 78.0976 828.729 77.5514 828.948 77.2018C829.145 76.8085 829.233 76.6118 829.233 76.6118C829.167 76.5681 828.861 77.4858 827.568 78.4909C826.932 78.9716 826.034 79.4523 824.895 79.649C823.777 79.8675 822.419 79.7801 821.148 79.1246L820.929 79.0153L820.885 79.2557C820.557 81.244 818.869 83.3853 816.35 83.9316C815.123 84.2375 813.786 83.8005 812.691 82.9702C811.595 82.1399 810.653 80.9818 810.062 79.649L809.974 79.4305L809.755 79.5179C808.615 79.933 807.432 80.3263 806.205 80.37C804.978 80.4137 803.751 80.0204 802.7 79.2994C800.728 78.0102 799.457 75.9126 799.128 73.7494L799.041 73.2032L798.69 73.6402C797.923 74.5798 796.609 74.9949 795.447 74.8857C794.856 74.8201 794.286 74.6453 793.826 74.3394C793.366 74.0335 792.994 73.5528 792.577 73.1376C791.788 72.2855 791.065 71.4115 790.605 70.4719C790.123 69.5324 790.014 68.5054 790.299 67.6096L790.386 67.3255H790.101C788.349 67.5003 786.749 66.9759 785.566 66.233C784.361 65.4901 783.528 64.5506 782.981 63.7203C781.907 61.9941 781.907 60.7924 781.819 60.8142L781.797 60.7705Z" fill="#455A64"/>
<path d="M793.52 113.605C793.103 113.648 793.585 116.358 791.591 118.696C789.62 121.034 786.662 121.23 786.706 121.624C786.706 121.799 787.45 122.039 788.677 121.864C789.883 121.689 791.57 120.99 792.775 119.57C793.98 118.15 794.308 116.467 794.199 115.331C794.111 114.173 793.673 113.561 793.498 113.605H793.52Z" fill="#263238"/>
<path d="M846.367 324.414L853.422 362.018L842.335 472.885C842.335 472.885 843.453 488.748 845.841 516.804C847.923 541.167 846.367 611.458 846.367 611.458L814.115 614.801L794.725 479.79L789.62 387.714L778.095 340.059L846.389 324.458L846.367 324.414Z" fill="#263238"/>
<path d="M757.324 341.326L763.634 491.632L800.575 598.632L803.182 608.508L828.05 602.521L810.456 338.441L757.324 341.326Z" fill="#263238"/>
<path d="M846.367 611.415C846.367 611.415 846.192 611.458 845.82 611.502C845.403 611.546 844.856 611.611 844.198 611.677C842.687 611.83 840.583 612.026 837.866 612.289C832.257 612.769 824.194 613.468 814.072 614.364H813.721L813.677 614.058C810.238 589.455 804.979 551.917 799.085 509.943C798.121 503.3 797.201 496.767 796.171 490.387C795.645 487.262 794.988 484.072 794.594 480.926C794.199 477.801 793.783 474.721 793.389 471.662C791.877 459.491 790.584 448.02 789.401 437.532C787.056 416.556 785.26 399.491 784.142 388.478V388.522C782.674 383.89 781.535 380.285 780.746 377.794C780.396 376.636 780.111 375.718 779.914 375.019C779.739 374.407 779.651 374.079 779.673 374.079C779.695 374.079 779.826 374.385 780.045 374.997C780.286 375.674 780.593 376.57 781.009 377.728C781.864 380.219 783.069 383.781 784.646 388.391V388.435C785.939 399.534 787.933 416.534 790.365 437.444C791.636 447.932 793.016 459.382 794.484 471.552C794.878 474.589 795.295 477.67 795.711 480.795C796.105 483.919 796.763 486.978 797.289 490.212C798.318 496.592 799.26 503.126 800.225 509.79C806.206 551.808 811.202 589.433 814.4 613.971L814.006 613.665C824.129 612.922 832.213 612.332 837.822 611.939C840.539 611.764 842.665 611.633 844.176 611.524C844.856 611.48 845.381 611.458 845.82 611.436C846.192 611.436 846.367 611.436 846.367 611.436V611.415Z" fill="#455A64"/>
<path d="M526.04 315.587L517.341 339.731L530.203 468.232C530.203 468.232 529.063 484.532 526.609 513.374C524.462 538.414 523.717 614.124 523.717 614.124H559.234L579.172 475.289L584.43 380.613L613.045 320.744L526.062 315.587H526.04Z" fill="#263238"/>
<path d="M613.943 320.612L565.807 335.077L582.546 480.467L587.147 607.569H625.008L629.762 480.446L613.943 320.612Z" fill="#263238"/>
<path d="M559.277 613.36C559.277 613.36 559.277 613.141 559.299 612.704C559.343 612.223 559.409 611.59 559.496 610.825C559.716 609.099 560 606.673 560.373 603.614C561.184 597.278 562.367 588.232 563.791 577.11C566.793 554.736 570.846 523.818 575.907 489.732C576.345 486.826 576.849 483.854 577.397 481.035C577.901 478.217 578.252 475.333 578.646 472.514C579.347 466.855 580.048 461.327 580.727 455.952C581.998 445.18 583.203 435.019 584.299 425.689C586.468 407.073 588.243 391.756 589.47 381.421V381.355C591.091 376.636 592.34 372.965 593.216 370.409C593.633 369.229 593.961 368.289 594.224 367.59C594.465 366.956 594.597 366.65 594.619 366.65C594.64 366.65 594.553 367 594.377 367.634C594.158 368.333 593.874 369.294 593.501 370.496C592.69 373.074 591.507 376.767 589.995 381.53V381.465C588.966 391.734 587.344 407.095 585.285 425.777C584.211 435.129 583.05 445.289 581.823 456.061C581.166 461.436 580.465 466.986 579.785 472.645C579.413 475.486 579.062 478.326 578.536 481.232C577.967 484.116 577.507 486.935 577.068 489.885C572.007 523.949 567.822 554.845 564.623 577.198C563.024 588.319 561.731 597.322 560.833 603.658C560.373 606.717 560 609.121 559.759 610.847C559.628 611.612 559.54 612.223 559.453 612.704C559.387 613.119 559.321 613.338 559.299 613.338L559.277 613.36Z" fill="#455A64"/>
<path d="M676.914 242.301C676.914 242.301 679.981 240.728 682.698 241.318C685.415 241.908 695.252 248.31 695.252 248.31L703.184 246.824L707.851 269.155L676.914 281.981V242.301Z" fill="#AE7461"/>
<path d="M654.039 250.079C654.039 250.079 661.116 249.183 663.702 247.916C666.265 246.627 672.4 241.23 673.671 241.317C674.964 241.427 679.587 242.301 679.587 242.301L677.702 247.916C677.702 247.916 686.992 253.532 689.753 255.586C692.514 257.661 701.212 266.904 701.606 269.176C702.001 271.449 701.3 274.093 700.226 274.988C699.13 275.884 695.187 274.093 695.187 274.093C695.187 274.093 695.778 276.168 694.288 278.135C692.798 280.101 689.359 279.424 689.359 279.424C689.359 279.424 689.052 282.68 687.474 283.27C685.897 283.86 682.347 282.09 682.347 282.09C682.347 282.09 681.274 284.843 679.981 285.149C678.688 285.455 675.029 283.27 675.029 283.27C675.029 283.27 659.232 271.951 655.683 270.269C652.133 268.586 651.038 268.499 651.038 268.499L654.017 250.101L654.039 250.079Z" fill="#FFBF9D"/>
<path d="M682.348 282.069C682.348 282.069 682.238 281.785 682.063 281.369C681.909 280.954 681.625 280.408 681.274 279.796C680.573 278.594 679.937 277.633 680.047 277.546C680.135 277.48 680.945 278.31 681.69 279.556C682.063 280.168 682.304 280.801 682.391 281.282C682.479 281.763 682.391 282.069 682.348 282.069Z" fill="#FF9A6C"/>
<path d="M688.899 280.146C688.767 280.211 688 278.791 686.905 277.174C685.831 275.535 684.67 274.443 684.758 274.333C684.823 274.224 686.182 275.207 687.299 276.912C688.417 278.572 689.008 280.102 688.899 280.146Z" fill="#FF9A6C"/>
<path d="M695.252 274.465C695.121 274.509 694.683 272.804 693.587 270.969C692.514 269.112 691.243 267.91 691.33 267.801C691.396 267.713 692.864 268.806 693.982 270.729C695.121 272.651 695.362 274.465 695.252 274.465Z" fill="#FF9A6C"/>
<path d="M690.63 262.185C690.761 262.163 691.09 263.321 691.155 264.829C691.221 266.315 690.98 267.516 690.871 267.495C690.739 267.495 690.761 266.293 690.695 264.829C690.63 263.365 690.52 262.185 690.652 262.163L690.63 262.185Z" fill="#FF9A6C"/>
<path d="M667.645 253.313C667.645 253.313 670.121 245.447 670.998 244.442C671.896 243.459 680.134 241.296 680.134 241.296L682.698 247.895L680.857 249.817L676.913 249.555C676.913 249.555 674.438 256.045 667.624 253.292L667.645 253.313Z" fill="#AE7461"/>
<path d="M652.484 268.893C652.484 268.893 651.345 269.767 652.484 271.82C653.623 273.896 656.669 272.41 657.655 271.82C657.655 271.82 656.165 275.273 658.049 276.343C659.933 277.436 662.19 277.13 662.19 277.13C662.19 277.13 662.102 279.206 664.754 280.582C667.427 281.959 668.106 280.582 668.106 280.582C668.106 280.582 668.413 284.035 671.458 284.319C674.526 284.625 675.599 283.576 675.599 283.576L674.219 281.544C674.219 281.544 675.994 277.939 674.613 276.365C673.233 274.792 670.954 274.989 670.954 274.989C670.954 274.989 671.568 271.799 669.793 270.903C666.528 269.242 665.126 272.345 665.126 272.345C665.126 272.345 664.929 268.849 662.365 268.914C659.802 269.002 658.422 270.575 658.422 270.575L652.462 268.914L652.484 268.893Z" fill="#AE7461"/>
<path d="M665.17 272.323C665.28 272.389 664.798 273.59 663.987 274.945C663.176 276.322 662.366 277.327 662.256 277.239C662.146 277.174 662.782 276.059 663.571 274.705C664.359 273.35 665.039 272.258 665.148 272.323H665.17Z" fill="#6F4439"/>
<path d="M671.063 275.426C671.173 275.469 670.669 276.758 669.727 278.157C668.785 279.555 667.755 280.473 667.667 280.385C667.558 280.298 668.412 279.249 669.332 277.873C670.275 276.518 670.954 275.36 671.063 275.426Z" fill="#6F4439"/>
<path d="M623.102 96.2771C620.604 93.1307 617.493 90.0935 616.858 86.1168C616.266 82.4679 617.866 78.4693 616.222 75.1481C614.207 71.0621 608.401 70.2755 605.881 66.4736C604.654 64.6382 604.369 62.3002 603.164 60.4648C601.104 57.3184 596.898 56.3133 593.151 56.51C589.382 56.7285 585.723 57.8865 581.955 57.9739C576.784 58.0832 571.569 56.1604 566.552 57.384C561.009 58.7387 557.459 63.3927 553.669 67.872L548.783 73.0505C547.775 73.9245 546.723 74.7329 545.584 75.3884C543.568 76.5465 541.311 77.3112 539.559 78.8189C535.812 82.0746 535.79 88.6733 539.515 91.9289C535.483 92.9996 532.438 96.9763 532.482 101.128C532.482 103.422 533.336 105.607 533.928 107.814C534.497 110.021 534.804 112.468 533.796 114.522C532.788 116.576 530.028 117.865 528.1 116.663C528.669 119.657 530.663 122.344 533.358 123.743C532.241 124.791 530.685 125.381 529.151 125.36C532.854 135.345 543.963 141.026 554.611 141.594C565.259 142.162 575.645 138.623 585.723 135.127L614.776 129.052C617.318 128.593 618.523 125.6 618.611 123.022C618.698 120.443 618.172 117.734 619.202 115.374C620.626 112.14 624.548 110.567 626.038 107.355C627.725 103.706 625.622 99.4454 623.124 96.2771H623.102Z" fill="#263238"/>
<path d="M553.976 119.176C552.201 112.621 550.471 106.001 549.857 99.2271C549.244 92.4535 549.813 85.4615 552.508 79.2124C552.925 78.2729 556.321 71.9582 557.328 72.1111C558.051 72.2204 555.86 78.1636 556.189 78.8191C559.41 85.0682 560.001 92.4098 559.081 99.38C558.161 106.35 556.364 112.556 553.954 119.176" fill="#263238"/>
<path d="M554.655 93.2409C554.984 76.1979 565.194 62.1701 582.262 62.9786L583.84 63.1534C599.681 64.814 611.578 78.3173 611.184 94.2023C610.811 108.973 610.219 125.295 609.299 133.139C607.371 149.374 590.807 150.204 590.807 150.204C590.763 150.204 590.369 177.036 590.369 177.036L551.544 150.204L554.655 93.2628V93.2409Z" fill="#FFBF9D"/>
<path d="M590.807 150.181C590.807 150.181 580.465 149.701 570.233 141.682C570.233 141.682 574.046 155.425 590.478 155.666L590.807 150.159V150.181Z" fill="#FF9A6C"/>
<path d="M605.53 107.574C605.443 108.798 604.325 109.737 603.033 109.672C601.74 109.606 600.776 108.557 600.863 107.334C600.951 106.11 602.069 105.149 603.361 105.214C604.654 105.28 605.64 106.328 605.552 107.552L605.53 107.574Z" fill="#263238"/>
<path d="M606.999 100.56C606.67 100.822 605.049 99.3364 602.551 99.096C600.053 98.812 598.081 99.9045 597.84 99.5549C597.731 99.4019 598.081 98.8994 598.936 98.3968C599.79 97.8943 601.193 97.4791 602.748 97.6539C604.304 97.8287 605.553 98.5279 606.254 99.2053C606.955 99.8826 607.174 100.451 606.999 100.582V100.56Z" fill="#263238"/>
<path d="M582.854 107.574C582.766 108.798 581.649 109.737 580.356 109.672C579.063 109.606 578.099 108.557 578.187 107.334C578.274 106.11 579.392 105.149 580.684 105.214C581.977 105.28 582.941 106.328 582.875 107.552L582.854 107.574Z" fill="#263238"/>
<path d="M582.328 99.0092C581.999 99.2714 580.378 97.7856 577.88 97.5453C575.382 97.2612 573.41 98.3537 573.169 98.0041C573.06 97.8512 573.41 97.3486 574.265 96.8461C575.119 96.3435 576.522 95.9284 578.077 96.1032C579.633 96.278 580.882 96.9772 581.583 97.6545C582.284 98.3319 582.503 98.9 582.328 99.0311V99.0092Z" fill="#263238"/>
<path d="M589.295 119.155C589.295 119.002 590.895 118.915 593.436 118.849C594.093 118.849 594.707 118.784 594.86 118.368C595.058 117.931 594.86 117.21 594.641 116.424C594.203 114.807 593.743 113.124 593.261 111.354C591.355 104.166 590.062 98.2663 590.347 98.2007C590.632 98.1352 592.406 103.904 594.313 111.092C594.773 112.862 595.189 114.566 595.605 116.183C595.781 116.926 596.109 117.8 595.671 118.718C595.452 119.177 594.948 119.483 594.51 119.548C594.093 119.636 593.721 119.592 593.414 119.592C590.851 119.461 589.273 119.308 589.295 119.155Z" fill="#263238"/>
<path d="M581.736 120.116C582.153 120.116 581.868 122.848 583.993 125.011C586.118 127.196 589.054 127.196 589.033 127.567C589.033 127.742 588.331 128.026 587.104 127.939C585.899 127.851 584.19 127.283 582.876 125.95C581.583 124.617 581.145 122.979 581.167 121.864C581.167 120.728 581.561 120.073 581.736 120.116Z" fill="#263238"/>
<path d="M583.27 88.8486C582.941 89.5041 580.487 88.9141 577.508 88.9578C574.528 88.9578 572.074 89.5478 571.745 88.8923C571.592 88.5864 572.074 87.9964 573.104 87.4283C574.133 86.8821 575.711 86.4014 577.486 86.4014C579.26 86.4014 580.86 86.8384 581.89 87.3846C582.919 87.9309 583.401 88.5208 583.27 88.8267V88.8486Z" fill="#263238"/>
<path d="M606.824 92.1476C606.32 92.672 604.655 91.9073 602.595 91.6451C600.535 91.3173 598.717 91.6451 598.388 90.9895C598.235 90.6836 598.585 90.1374 599.396 89.6785C600.207 89.2197 601.521 88.9138 602.946 89.1104C604.37 89.3071 605.553 89.9407 606.21 90.6181C606.889 91.2736 607.065 91.8854 606.846 92.1476H606.824Z" fill="#263238"/>
<path d="M554.699 105.411C554.436 105.258 543.831 100.931 543.021 112.075C542.21 123.24 553.603 121.754 553.647 121.427C553.691 121.099 554.699 105.389 554.699 105.389V105.411Z" fill="#FFBF9D"/>
<path d="M550.558 116.97C550.558 116.97 550.361 117.101 550.01 117.21C549.681 117.341 549.112 117.385 548.542 117.144C547.403 116.62 546.526 114.675 546.636 112.665C546.68 111.638 546.965 110.699 547.381 109.912C547.775 109.125 548.345 108.579 548.958 108.536C549.55 108.448 549.966 108.82 550.076 109.147C550.207 109.475 550.12 109.694 550.164 109.715C550.185 109.737 550.426 109.541 550.361 109.082C550.339 108.863 550.229 108.579 549.966 108.361C549.703 108.12 549.331 107.989 548.915 107.989C548.038 107.989 547.206 108.71 546.745 109.562C546.242 110.415 545.891 111.485 545.847 112.621C545.76 114.872 546.746 117.057 548.345 117.647C549.112 117.909 549.791 117.713 550.142 117.472C550.514 117.232 550.58 116.97 550.558 116.948V116.97Z" fill="#FF9A6C"/>
<path d="M605.136 75.2359C607.02 74.3619 601.959 68.1565 597.621 65.8622C591.092 62.3881 580.925 59.8535 574.615 61.2082C567.012 62.8469 560.571 66.1463 556.386 72.6795C552.201 79.2126 550.273 87.035 549.988 94.7917C549.9 97.1515 549.988 99.6425 551.127 101.718C552.53 104.297 555.422 106.045 555.071 109.431C554.94 110.677 555.225 111.944 556.013 112.905C557.92 115.2 560.549 113.321 561.841 111.354C564.58 107.137 565.194 101.937 565.742 96.933C566.136 93.3715 566.508 89.7444 565.72 86.2702C565.281 84.3693 564.536 82.5557 564.208 80.6329C563.879 78.7101 564.076 76.5688 565.369 75.1048C565.566 74.8645 565.917 74.5804 566.333 74.2527C569.685 71.6744 574.177 71.15 578.055 72.7887C584.212 75.4107 594.773 79.4311 597.709 77.4865C601.959 74.6678 603.055 72.745 603.055 72.745L605.136 75.2359Z" fill="#263238"/>
<path d="M575.316 59.7003C581.605 58.0397 588.594 58.6078 594.159 61.9509C597.117 63.7208 599.702 66.4302 600.425 69.7951C601.148 73.16 599.461 77.1367 596.197 78.2292L595.978 78.3603C591.092 79.6495 588.024 78.8192 583.379 76.8745C579.457 75.2357 576.061 72.5482 572.139 70.9094C567.976 69.1833 563.266 68.7463 558.84 69.664C563.441 65.0755 569.028 61.3609 575.316 59.7003Z" fill="#263238"/>
<path d="M578.143 57.7777C578.143 57.7777 578.559 57.7777 579.282 57.887C580.005 58.0181 581.057 58.2584 582.306 58.6954C583.555 59.1543 584.979 59.8316 586.425 60.8149C587.871 61.7981 589.361 63.0654 590.522 64.7479C591.705 66.4085 592.362 68.2657 592.779 69.9482C593.195 71.6525 593.37 73.2039 593.458 74.5149C593.546 75.8259 593.546 76.8965 593.546 77.6176C593.546 78.3605 593.502 78.7538 593.458 78.7538C593.414 78.7538 593.392 78.3605 593.348 77.6176C593.305 76.8965 593.261 75.8259 593.107 74.5367C592.976 73.2476 592.757 71.6962 592.319 70.0574C591.88 68.4187 591.245 66.6051 590.106 65.0101C588.966 63.415 587.542 62.1477 586.14 61.1645C584.738 60.1812 583.357 59.482 582.152 59.0013C579.742 58.0399 578.099 57.8433 578.121 57.7559L578.143 57.7777Z" fill="#455A64"/>
<path d="M588.44 57.1436C588.44 57.1436 588.791 57.2091 589.405 57.4058C589.711 57.515 590.106 57.6024 590.5 57.8209C590.938 58.0394 591.398 58.2798 591.902 58.5201C593.896 59.6782 596.35 62.0161 597.709 65.3373C598.081 66.1458 598.3 66.9979 598.541 67.7845C598.694 68.6148 598.87 69.4014 598.914 70.1662C599.023 70.931 598.957 71.6739 598.957 72.3512C598.87 73.0286 598.848 73.6622 598.694 74.2303C598.563 74.7984 598.453 75.301 598.278 75.738C598.103 76.175 597.993 76.5464 597.818 76.8305C597.511 77.3986 597.336 77.7045 597.292 77.6826C597.205 77.6389 597.971 76.4153 598.344 74.1648C598.475 73.6185 598.475 72.9849 598.541 72.3294C598.541 71.6739 598.563 70.9528 598.453 70.2099C598.41 69.467 598.234 68.7022 598.081 67.8938C597.84 67.1072 597.621 66.2987 597.27 65.5121C595.956 62.3002 593.633 60.0059 591.727 58.8042C591.245 58.542 590.807 58.2798 590.391 58.0613C589.996 57.8209 589.624 57.7117 589.339 57.5806C588.747 57.3184 588.419 57.1654 588.44 57.1436Z" fill="#455A64"/>
<path d="M595.736 174.326C595.736 175.855 603.427 209.57 606.385 217.851C609.321 226.132 618.654 309.163 617.427 315.084C616.2 321.005 613.002 320.765 613.002 320.765C613.002 320.765 537.631 316.024 529.546 316.745C521.439 317.444 517.999 317.225 516.049 307.983C514.099 298.74 516.115 250.801 514.384 239.199C512.675 227.596 512.653 221.981 511.996 204.763C511.426 189.839 514.822 177.866 521.943 169.213C529.064 160.582 544.817 151.842 544.817 151.842L550.404 143.714L589.952 164.581L590.85 159.839L593.261 167.225L595.736 174.304V174.326Z" fill="#455A64"/>
<g opacity="0.3">
<path d="M612.738 277.065C612.081 275.382 609.934 274.967 608.159 274.77C591.398 272.913 573.957 268.74 561.709 257.181C556.911 252.658 553.143 247.196 549.506 241.711C541.552 229.715 534.081 217.414 526.587 205.112L520.781 207.297C524.353 224.668 527.836 237.232 533.643 251.456C539.449 265.703 543.94 279.49 558.642 284.166C568.151 287.181 586.183 284.865 596.13 284.1C600.271 283.773 604.456 283.379 608.444 282.178C609.649 281.806 610.876 281.347 611.774 280.495C612.673 279.643 613.198 278.245 612.738 277.086V277.065Z" fill="black"/>
</g>
<path d="M518.744 202.753C519.182 203.518 552.726 274.968 567.691 277.896C582.656 280.824 629.215 281.523 638.286 279.797C647.378 278.093 656.252 276.497 656.252 276.497C656.252 276.497 662.825 260.918 656.822 247.655L644.311 248.049C644.311 248.049 609.561 246.17 604.654 244.837C599.746 243.504 595.495 238.915 591.091 239.156L564.646 177.779C564.646 177.779 547.468 161.872 535.198 166.766C522.929 171.661 515.15 196.373 518.744 202.753Z" fill="#455A64"/>
<path d="M645.297 278.988C645.297 278.988 645.363 278.551 645.538 277.787C645.735 277.022 645.976 275.908 646.239 274.531C646.502 273.154 646.743 271.494 646.896 269.658C647.05 267.801 647.116 265.769 647.028 263.628C646.853 259.345 646.086 255.521 645.319 252.834C644.946 251.479 644.596 250.387 644.355 249.644C644.114 248.901 643.982 248.486 644.004 248.464C644.026 248.464 644.223 248.857 644.53 249.578C644.837 250.299 645.231 251.37 645.648 252.725C646.48 255.412 647.313 259.28 647.51 263.606C647.598 265.769 647.51 267.823 647.335 269.68C647.137 271.538 646.875 273.198 646.568 274.575C646.261 275.951 645.954 277.066 645.713 277.809C645.472 278.551 645.319 278.967 645.297 278.967V278.988Z" fill="#263238"/>
<path d="M564.646 177.778C564.646 177.778 564.821 178.15 565.15 178.871C565.478 179.614 565.938 180.684 566.552 182.083C567.779 184.923 569.597 189.053 571.898 194.363C576.521 205.025 583.138 220.342 591.245 239.068L591.069 238.959C593.151 238.871 595.123 239.767 596.941 240.75C598.76 241.755 600.535 242.913 602.463 243.809C604.369 244.771 606.56 245.011 608.751 245.273C610.942 245.535 613.199 245.732 615.477 245.929C624.592 246.672 634.254 247.283 644.333 247.83C648.255 247.699 652.527 247.567 656.844 247.436H656.997L657.063 247.567C658.991 251.959 659.802 256.919 659.561 261.879C659.342 266.839 658.334 271.821 656.493 276.606L656.449 276.715H656.318C653.798 277.196 651.103 277.699 648.365 278.201C645.45 278.748 642.536 279.272 639.666 279.796C636.774 280.364 633.838 280.583 630.946 280.692C625.162 280.954 619.465 280.976 613.856 280.954C608.247 280.933 602.769 280.801 597.379 280.605C591.99 280.408 586.731 280.146 581.604 279.753C579.041 279.578 576.499 279.316 574.023 279.053C571.525 278.726 569.072 278.507 566.683 277.83C565.5 277.393 564.47 276.715 563.506 275.994C562.542 275.273 561.644 274.465 560.811 273.635C559.124 271.974 557.591 270.204 556.166 268.412C550.492 261.224 546.044 253.948 542.078 247.283C534.212 233.889 528.538 222.658 524.638 214.902C522.71 211.012 521.242 207.975 520.256 205.921C519.27 203.867 518.788 202.775 518.788 202.775C518.788 202.775 518.941 203.037 519.204 203.561C519.467 204.108 519.861 204.872 520.365 205.899C521.395 207.953 522.907 210.969 524.835 214.836C528.779 222.571 534.497 233.758 542.385 247.109C546.373 253.751 550.82 261.027 556.495 268.172C557.919 269.942 559.431 271.712 561.118 273.351C561.951 274.181 562.827 274.967 563.791 275.667C564.733 276.366 565.763 277.021 566.859 277.436C569.137 278.07 571.657 278.31 574.111 278.616C576.609 278.879 579.128 279.119 581.692 279.316C586.819 279.709 592.077 279.971 597.445 280.168C602.813 280.364 608.313 280.496 613.922 280.517C619.509 280.539 625.205 280.517 630.968 280.255C633.86 280.124 636.752 279.927 639.622 279.359C642.514 278.835 645.407 278.289 648.321 277.764C651.038 277.262 653.754 276.759 656.274 276.3L656.099 276.431C657.895 271.734 658.925 266.752 659.144 261.857C659.385 256.963 658.575 252.09 656.69 247.764L656.909 247.895C652.593 248.026 648.343 248.157 644.399 248.288C634.32 247.72 624.658 247.109 615.543 246.344C613.264 246.147 611.008 245.951 608.795 245.688C607.699 245.557 606.604 245.426 605.508 245.208C604.413 245.033 603.383 244.618 602.397 244.181C600.425 243.285 598.65 242.105 596.854 241.1C595.057 240.117 593.151 239.264 591.201 239.352H591.069L591.026 239.243C582.984 220.495 576.39 205.135 571.81 194.472C569.532 189.14 567.757 184.989 566.552 182.148C565.96 180.75 565.5 179.657 565.193 178.915C564.887 178.193 564.755 177.8 564.755 177.8L564.646 177.778Z" fill="#263238"/>
<path d="M561.14 172.971C561.14 172.971 560.68 172.534 559.847 171.77C559.015 171.005 557.744 169.956 556.013 168.885C554.282 167.815 552.091 166.788 549.506 166.067C546.92 165.346 543.962 165.018 540.873 165.324C537.806 165.652 534.957 166.569 532.569 167.771C530.181 168.973 528.209 170.415 526.741 171.813C525.251 173.19 524.221 174.479 523.564 175.397C522.907 176.314 522.556 176.861 522.534 176.839C522.534 176.839 522.6 176.686 522.731 176.424C522.885 176.161 523.082 175.768 523.411 175.287C524.024 174.326 525.054 172.993 526.522 171.573C527.99 170.131 529.962 168.623 532.372 167.378C534.782 166.132 537.696 165.193 540.829 164.865C543.962 164.581 547.008 164.931 549.615 165.673C552.244 166.416 554.457 167.509 556.188 168.623C557.919 169.738 559.168 170.83 559.979 171.66C560.395 172.054 560.658 172.403 560.877 172.622C561.074 172.84 561.162 172.971 561.162 172.993L561.14 172.971Z" fill="#263238"/>
<path d="M591.003 239.199C591.135 239.243 590.368 241.559 589.316 244.377C588.264 247.196 587.3 249.447 587.169 249.403C587.038 249.359 587.804 247.043 588.856 244.224C589.908 241.406 590.872 239.155 591.003 239.199Z" fill="#263238"/>
<path d="M651.739 250.976C651.739 250.976 651.87 250.91 652.089 250.976C652.309 251.041 652.571 251.26 652.769 251.631C652.944 251.981 653.054 252.549 652.725 253.052C652.418 253.51 651.827 253.882 651.147 253.773C650.446 253.642 650.03 253.03 649.942 252.505C649.855 251.937 650.074 251.435 650.402 251.151C650.731 250.867 651.082 250.845 651.301 250.867C651.52 250.867 651.629 250.954 651.629 250.976C651.629 251.063 651.104 250.932 650.643 251.413C650.424 251.631 650.293 252.025 650.38 252.44C650.468 252.833 650.797 253.248 651.235 253.336C651.673 253.401 652.155 253.161 652.374 252.833C652.615 252.505 652.571 252.09 652.462 251.784C652.221 251.129 651.739 251.041 651.761 250.976H651.739Z" fill="#263238"/>
<path d="M590.916 166.963C590.916 166.963 590.587 166.81 590.018 166.504C589.404 166.154 588.572 165.674 587.52 165.084L587.695 164.996C587.191 167.487 586.731 171.136 585.877 175.528L585.811 175.812L585.548 175.659C581.867 173.343 577.463 170.721 572.774 167.88C569.269 165.783 566.004 163.685 562.981 161.85C559.957 160.036 557.174 158.463 554.852 157.174C552.551 155.907 550.667 154.858 549.309 154.093C548.695 153.743 548.191 153.459 547.797 153.241C547.446 153.044 547.271 152.935 547.293 152.913C547.293 152.913 547.49 152.979 547.841 153.153C548.235 153.35 548.761 153.612 549.374 153.918C550.711 154.596 552.639 155.601 554.983 156.868C557.35 158.135 560.132 159.665 563.178 161.478C566.201 163.336 569.51 165.346 572.994 167.487C577.682 170.328 582.086 172.971 585.745 175.331L585.439 175.462C586.315 171.114 586.863 167.443 587.41 164.952L587.454 164.8L587.586 164.887C588.594 165.521 589.426 166.023 590.018 166.395C590.565 166.744 590.872 166.941 590.85 166.963H590.916Z" fill="#263238"/>
<g opacity="0.3">
<path d="M552.858 155.885C559.738 160.998 566.618 166.111 573.498 171.224C578.033 174.588 582.7 178.041 588.09 179.767C587.98 175.004 587.893 170.24 587.783 165.455L585.68 175.506L552.858 155.907V155.885Z" fill="black"/>
</g>
<path d="M793.125 359.373C792.884 359.767 785.72 378.886 784.624 382.556C783.529 386.227 784.953 398.288 787.56 400.452C790.189 402.615 791.504 404.21 792.512 403.991C793.52 403.773 797.398 399.206 797.398 399.206C797.398 399.206 802.591 402.833 805.373 396.278C805.373 396.278 810.281 397.677 811.114 391.624C811.114 391.624 815.737 389.942 814.751 386.315L813.677 384.02C813.677 384.02 814.619 372.571 814.203 368.223C813.787 363.896 812.122 360.794 812.122 360.794L793.125 359.352V359.373Z" fill="#AE7461"/>
<path d="M790.606 391.035C790.43 391.166 791.57 393.329 793.322 395.776C795.053 398.245 796.719 400.015 796.894 399.884C797.069 399.731 795.689 397.721 793.98 395.295C792.249 392.87 790.825 390.903 790.627 391.035H790.606Z" fill="#6F4439"/>
<path d="M799.37 389.57C799.195 389.701 800.246 391.559 801.999 393.503C803.752 395.448 805.483 396.672 805.614 396.497C805.768 396.322 804.278 394.836 802.591 392.935C800.882 391.034 799.567 389.417 799.392 389.548L799.37 389.57Z" fill="#6F4439"/>
<path d="M792.271 389.243C792.095 389.374 792.862 390.401 794.308 390.51C795.755 390.641 796.697 389.767 796.543 389.592C796.412 389.396 795.514 389.811 794.374 389.68C793.235 389.592 792.424 389.046 792.271 389.221V389.243Z" fill="#6F4439"/>
<path d="M784.997 389.636C784.887 389.811 785.786 390.575 787.188 390.685C788.59 390.816 789.62 390.226 789.532 390.029C789.466 389.811 788.459 389.985 787.254 389.876C786.048 389.789 785.106 389.439 784.997 389.658V389.636Z" fill="#6F4439"/>
<path d="M801.254 388.369C801.1 388.522 801.955 389.33 803.226 389.112C804.518 388.893 805.088 387.866 804.891 387.757C804.716 387.604 804.058 388.151 803.094 388.303C802.13 388.478 801.363 388.172 801.232 388.369H801.254Z" fill="#6F4439"/>
<path d="M699.415 244.313C700.883 243.723 749.108 237.954 749.108 237.954L768.674 221.436L766.833 269.265L705.244 275.187L699.394 244.313H699.415Z" fill="#BBD1DC"/>
<g opacity="0.3">
<path d="M760.041 228.733C759.45 229.017 754.629 233.3 754.629 233.3L756.097 270.139L760.041 228.733Z" fill="black"/>
</g>
<path d="M770.339 190.036L779.125 170.874L780.221 159.031C780.221 159.031 797.048 148.478 805.045 144.501C813.042 140.524 823.8 136.919 823.8 136.919V148.084L770.361 190.036H770.339Z" fill="#EBEBEB"/>
<path d="M843.716 287.946C843.716 287.946 848.493 224.035 848.799 219.294C848.799 219.294 851.626 185.142 845.535 172.141C839.444 159.14 825.859 147.713 825.859 147.713L824.611 140.896L798.034 157.589L785.742 168.252C785.742 168.252 778.774 175.593 774.151 182.629C770.668 187.436 766.79 193.62 765.059 201.42C764.423 204.261 757.127 238.281 756.908 261.989C756.908 261.989 755.791 282.681 754.586 294.392C753.096 308.901 753.753 347.291 754.235 366.891L837.428 358.937C858.703 355.704 854.956 353.584 854.956 353.584L843.694 287.946H843.716Z" fill="#BBD1DC"/>
<path d="M823.778 148.063C823.778 148.063 823.581 148.172 823.186 148.325C822.77 148.5 822.179 148.74 821.434 149.068C820.689 149.439 819.768 149.898 818.695 150.466C817.665 151.1 816.438 151.756 815.167 152.651C809.996 156.104 803.182 161.96 796.259 170.088L796.215 170.153H796.149C793.52 170.656 790.759 171.158 787.889 171.683L788.064 171.486C787.933 175.31 787.801 179.33 787.648 183.482V183.569L787.582 183.635C783.441 187.546 779.235 191.96 775.444 196.92C773.91 198.952 772.486 201.027 771.281 203.191L770.821 203.999L770.47 204.851C770.229 205.419 770.01 205.966 769.857 206.556C769.485 207.714 769.134 208.872 768.827 210.03C767.556 214.662 766.505 219.207 765.519 223.511C763.569 232.142 761.925 239.942 760.567 246.519C757.872 259.629 756.338 267.779 756.338 267.779C756.338 267.779 756.338 267.255 756.514 266.294C756.667 265.31 756.908 263.89 757.237 262.033C757.894 258.34 758.902 253.031 760.216 246.454C761.531 239.877 763.131 232.076 765.059 223.424C766.023 219.097 767.074 214.574 768.345 209.92C768.652 208.762 769.003 207.582 769.375 206.403C769.528 205.813 769.769 205.223 770.01 204.655L770.361 203.781L770.821 202.95C772.026 200.765 773.472 198.646 775.028 196.614C778.862 191.632 783.069 187.218 787.232 183.285L787.166 183.438C787.319 179.287 787.451 175.266 787.604 171.442V171.268L787.78 171.246C790.65 170.721 793.432 170.241 796.04 169.76L795.93 169.826C802.941 161.697 809.799 155.863 815.036 152.455C816.329 151.559 817.556 150.925 818.607 150.292C819.703 149.745 820.623 149.286 821.39 148.937C822.157 148.653 822.748 148.412 823.186 148.26C823.581 148.107 823.8 148.041 823.8 148.041L823.778 148.063Z" fill="#263238"/>
<path d="M794.878 198.558L795.908 283.839L782.894 366.891H817.227C817.227 366.891 832.827 303.832 836.464 290.591C839.992 277.721 845.272 212.957 845.754 209.767C845.929 208.522 849.654 186.147 838.699 175.594" fill="#BBD1DC"/>
<path d="M838.677 175.594C838.677 175.594 838.918 175.834 839.4 176.315C839.86 176.795 840.518 177.538 841.284 178.609C842.796 180.729 844.549 184.246 845.579 189.119C846.609 193.97 846.959 200.11 846.236 207.102C845.71 210.598 845.469 214.334 845.075 218.311C844.702 222.287 844.33 226.483 843.936 230.896C843.125 239.724 842.183 249.381 841.065 259.76C840.496 264.939 839.904 270.314 839.159 275.82C838.414 281.326 837.691 287.029 836.136 292.732C830.395 315.5 824.085 340.584 817.446 366.935L817.402 367.11H817.227C816.066 367.11 814.795 367.11 813.524 367.11C803.117 367.11 792.885 367.11 782.894 367.11H782.609L782.653 366.847C787.473 336.214 791.921 307.94 795.711 283.795C795.426 258.012 795.207 236.687 795.054 221.829C794.988 214.399 794.944 208.587 794.901 204.632C794.901 202.666 794.901 201.158 794.879 200.11C794.879 199.083 794.879 198.558 794.879 198.558C794.879 198.558 794.901 199.083 794.922 200.11C794.922 201.136 794.966 202.644 795.01 204.632C795.076 208.609 795.163 214.421 795.273 221.829C795.47 236.708 795.755 258.012 796.106 283.839V283.861C792.337 308.005 787.911 336.279 783.135 366.913L782.894 366.651C792.863 366.651 803.095 366.651 813.524 366.651H817.227L816.986 366.826C823.647 340.474 829.957 315.391 835.719 292.623C837.253 286.964 837.998 281.283 838.743 275.776C839.488 270.27 840.079 264.917 840.671 259.717C841.81 249.338 842.752 239.68 843.585 230.853C844.001 226.439 844.396 222.244 844.768 218.267C845.163 214.312 845.425 210.532 845.951 207.058C846.718 200.066 846.368 193.97 845.382 189.141C844.396 184.29 842.665 180.794 841.197 178.653C840.452 177.582 839.816 176.817 839.356 176.337C838.896 175.856 838.677 175.594 838.677 175.594Z" fill="#263238"/>
<path d="M813.02 292.229C813.02 292.229 811.991 292.01 810.369 291.464C808.748 290.918 806.557 290.088 804.169 289.017C801.781 287.968 799.699 286.898 798.187 286.067C796.697 285.237 795.799 284.669 795.843 284.625C795.887 284.56 796.829 285.04 798.341 285.783C799.874 286.526 801.978 287.553 804.344 288.602C806.71 289.651 808.879 290.525 810.457 291.158C812.035 291.792 813.02 292.163 812.999 292.229H813.02Z" fill="#263238"/>
<path d="M754.257 297.888C754.257 297.888 754.257 297.823 754.257 297.67C754.257 297.495 754.257 297.276 754.279 297.014C754.301 296.402 754.366 295.572 754.41 294.501C754.542 292.273 754.761 289.148 755.002 285.281C755.528 277.502 756.273 266.752 757.324 254.887C758.376 243.023 759.581 232.316 760.589 224.581C761.093 220.714 761.509 217.589 761.816 215.426C761.969 214.377 762.101 213.547 762.188 212.935C762.232 212.673 762.276 212.454 762.298 212.302C762.32 212.149 762.342 212.083 762.342 212.083C762.342 212.083 762.342 212.17 762.342 212.302C762.342 212.476 762.298 212.695 762.276 212.957C762.21 213.569 762.123 214.399 761.991 215.448C761.728 217.655 761.356 220.779 760.896 224.625C759.997 232.36 758.836 243.088 757.784 254.931C756.733 266.774 755.922 277.524 755.308 285.303C755.002 289.17 754.739 292.295 754.564 294.501C754.476 295.55 754.388 296.402 754.344 296.992C754.322 297.255 754.301 297.473 754.279 297.648C754.279 297.801 754.257 297.866 754.235 297.866L754.257 297.888Z" fill="#263238"/>
<path d="M823.778 164.843C823.625 164.887 822.792 161.566 820.557 158.048C818.344 154.508 815.715 152.301 815.825 152.192C815.868 152.148 816.57 152.629 817.556 153.591C818.563 154.552 819.834 155.994 820.952 157.786C822.069 159.578 822.836 161.347 823.274 162.658C823.712 163.969 823.844 164.822 823.778 164.822V164.843Z" fill="#263238"/>
<path d="M763.218 270.772C763.218 270.772 763.328 270.991 763.306 271.384C763.284 271.777 763.109 272.389 762.561 272.935C762.057 273.482 761.049 273.853 760.085 273.503C759.603 273.35 759.143 273.023 758.814 272.586C758.464 272.149 758.289 271.559 758.31 270.991C758.31 270.248 758.551 269.549 758.968 269.002C759.187 268.74 759.45 268.5 759.757 268.369C760.085 268.238 760.326 268.194 760.589 268.106H760.633H760.655C761.268 268.106 761.882 268.259 762.32 268.587C762.758 268.893 762.977 269.33 763.087 269.68C763.306 270.379 763.262 270.794 763.218 270.794C763.153 270.794 763.109 270.401 762.846 269.767C762.714 269.461 762.495 269.112 762.123 268.871C761.75 268.631 761.224 268.522 760.655 268.522H760.721C760.48 268.609 760.151 268.696 759.932 268.784C759.691 268.893 759.494 269.068 759.318 269.286C758.968 269.745 758.771 270.357 758.771 270.991C758.727 271.996 759.428 272.804 760.239 273.088C761.049 273.394 761.86 273.132 762.342 272.695C762.846 272.258 763.043 271.734 763.131 271.362C763.218 270.991 763.196 270.772 763.24 270.772H763.218Z" fill="#263238"/>
<path d="M761.926 300.925C761.926 300.925 762.035 301.144 762.013 301.537C761.992 301.931 761.816 302.542 761.269 303.089C760.765 303.635 759.757 304.006 758.793 303.657C758.311 303.504 757.851 303.176 757.522 302.739C757.171 302.302 756.996 301.712 757.018 301.144C757.018 300.401 757.259 299.702 757.675 299.156C757.894 298.893 758.157 298.653 758.486 298.522C758.815 298.391 759.056 298.347 759.319 298.26H759.362H759.384C759.998 298.26 760.611 298.413 761.049 298.74C761.488 299.046 761.707 299.483 761.816 299.833C762.035 300.532 761.992 300.947 761.948 300.947C761.882 300.947 761.838 300.554 761.575 299.92C761.444 299.614 761.225 299.265 760.852 299.025C760.48 298.784 759.954 298.675 759.384 298.675H759.45C759.209 298.762 758.88 298.85 758.661 298.937C758.42 299.046 758.223 299.221 758.048 299.44C757.697 299.899 757.5 300.51 757.5 301.144C757.456 302.149 758.157 302.958 758.968 303.242C759.779 303.547 760.589 303.285 761.071 302.848C761.575 302.411 761.772 301.887 761.86 301.515C761.948 301.144 761.926 300.925 761.97 300.925H761.926Z" fill="#263238"/>
<path d="M834.821 170.546C834.821 170.546 833.638 169.913 831.644 169.148C830.636 168.754 829.409 168.405 828.029 168.121C826.648 167.859 825.093 167.706 823.449 167.706C821.806 167.728 820.272 167.946 818.892 168.23C817.512 168.558 816.307 168.929 815.321 169.344C813.349 170.175 812.231 170.918 812.188 170.83C812.188 170.808 812.429 170.612 812.933 170.262C813.174 170.087 813.502 169.891 813.875 169.694C814.247 169.497 814.685 169.235 815.189 169.039C816.175 168.58 817.402 168.143 818.804 167.793C820.207 167.465 821.784 167.247 823.449 167.203C825.115 167.203 826.692 167.378 828.116 167.662C829.519 167.968 830.767 168.361 831.775 168.798C832.279 168.995 832.717 169.235 833.112 169.432C833.506 169.628 833.813 169.803 834.076 169.978C834.58 170.306 834.865 170.502 834.843 170.524L834.821 170.546Z" fill="#263238"/>
<g opacity="0.3">
<path d="M759.625 250.299C763.349 244.902 764.708 239.811 766.702 233.584C769.659 224.32 770.47 213.832 775.115 205.266C777.854 200.219 781.053 195.041 785.785 191.807C790.408 188.66 791.088 184.64 791 173.802C794.308 173.846 797.792 171.289 798.208 170.852C800.465 168.449 802.086 164.603 802.262 163.271C799.939 165.783 796.083 169.957 796.083 169.957C796.083 169.957 787.691 171.508 787.823 171.464C787.626 175.638 787.604 179.287 787.407 183.46C787.407 183.46 771.325 200.481 770.054 203.912C768.805 207.342 759.625 250.299 759.625 250.299Z" fill="black"/>
</g>
<g opacity="0.3">
<path d="M819.374 356.6C839.772 318.1 846.105 267.495 844.899 219.294C844.899 219.294 839.049 277.896 837.078 287.947C835.127 297.932 819.396 356.6 819.396 356.6H819.374Z" fill="black"/>
</g>
<path d="M822.485 141.879C822.485 141.879 822.332 142.01 822.025 142.228C821.674 142.469 821.214 142.774 820.666 143.146C819.418 143.954 817.709 145.091 815.627 146.445C811.289 149.22 805.395 153.022 798.888 157.196C796.368 158.791 793.936 160.342 791.657 161.784C790.869 162.374 790.102 162.986 789.357 163.554C788.59 164.122 787.933 164.69 787.297 165.302C786.026 166.526 784.909 167.705 783.901 168.776L783.726 168.973L783.616 168.732C782.521 166.22 781.622 164.144 780.987 162.658C780.702 161.981 780.461 161.434 780.286 160.997C780.133 160.626 780.067 160.407 780.067 160.407C780.067 160.407 780.176 160.582 780.374 160.954C780.571 161.369 780.834 161.915 781.162 162.571C781.842 164.035 782.784 166.089 783.945 168.579L783.66 168.536C784.668 167.443 785.764 166.241 787.034 164.996C787.648 164.384 788.371 163.751 789.116 163.182C789.861 162.593 790.628 162.003 791.394 161.391C793.673 159.949 796.083 158.397 798.603 156.78C805.154 152.629 811.07 148.893 815.43 146.139C817.555 144.828 819.286 143.736 820.557 142.971C821.127 142.622 821.609 142.337 821.959 142.119C822.288 141.922 822.463 141.835 822.463 141.857L822.485 141.879Z" fill="#263238"/>
<path d="M397.882 108.182C399.525 103.637 396.896 97.9999 392.361 96.3175C394.661 94.198 395.363 90.5709 394.048 87.7523C392.733 84.9336 389.491 83.1419 386.401 83.5352C388.044 78.6845 386.511 72.9379 382.677 69.5511C382.633 69.5074 382.589 69.4856 382.567 69.4419C377.111 64.7441 368.544 66.9947 365.587 73.5497L347.839 113.033C347.708 116.048 347.576 119.107 348.256 122.057C348.935 125.007 350.556 127.869 353.163 129.377C355.793 130.884 359.474 130.709 361.511 128.481C364.381 132.763 370.67 134.337 375.227 131.911C377.703 130.578 379.609 128.306 382.173 127.148C385.393 125.706 389.206 126.252 392.558 125.16C395.866 124.089 398.583 121.358 399.613 118.036C400.643 114.737 399.986 110.935 397.882 108.182Z" fill="#263238"/>
<path d="M371.678 92.1229C374.614 88.321 374.22 82.3559 370.78 78.991C372.664 76.6312 371.985 73.0041 370.079 70.6661C368.173 68.3282 365.346 66.9953 362.607 65.728C361.117 58.8452 353.361 53.9727 346.481 55.6114C342.91 50.3456 335.285 49.5152 329.172 51.2851C327.682 51.7221 326.193 52.2684 324.637 52.2684C323.498 52.2684 322.38 51.9406 321.241 51.7877C315.018 50.9355 308.84 55.3055 306.408 61.0739C306.013 61.9916 305.707 62.9749 305.093 63.7615C304.282 64.7884 303.055 65.4003 302.026 66.2087C299.769 67.9349 298.345 70.688 298.213 73.5285C298.104 75.932 298.871 78.4884 297.863 80.6734C297.359 81.766 296.439 82.6618 296.022 83.798C294.861 87.0974 298.542 90.4841 297.863 93.9364C297.731 94.6356 297.403 95.2911 297.205 95.9685C296.811 97.3669 296.942 98.9183 297.578 100.251C298.06 101.278 298.849 102.196 298.914 103.332C298.958 104.184 298.586 104.993 298.41 105.845C297.994 107.899 302.42 115.808 304.195 116.923L357.283 117.469C361.293 116.661 364.579 113.033 364.974 108.969C365.039 108.292 365.039 107.549 365.478 107.025C365.828 106.566 366.42 106.369 366.924 106.085C370.342 104.25 370.758 99.5738 370.407 95.7281C370.364 95.1819 370.298 94.6356 370.429 94.1112C370.626 93.3465 371.196 92.7565 371.678 92.1229Z" fill="#263238"/>
<path d="M371.678 92.1227C371.678 92.1227 371.13 92.6908 370.582 93.9363C370.341 94.5918 370.517 95.444 370.582 96.4928C370.67 97.5416 370.692 98.7433 370.538 100.12C370.363 101.475 370.034 103.026 369.049 104.468C368.567 105.167 367.887 105.823 367.055 106.282C366.2 106.719 365.411 107.046 365.324 107.986C365.236 109.865 364.688 112.137 363.286 113.929C361.928 115.765 359.846 117.272 357.305 117.84H357.261H357.217C343.173 117.731 324.878 117.6 304.107 117.447H303.931L303.822 117.36C302.42 116.245 301.74 114.956 300.886 113.667C300.097 112.356 299.352 110.979 298.717 109.537C298.41 108.816 298.103 108.073 297.906 107.243C297.818 106.828 297.709 106.435 297.775 105.888C297.818 105.408 297.972 105.058 298.059 104.665C298.279 103.9 298.366 103.31 298.125 102.676C297.906 102.021 297.446 101.387 297.052 100.622C296.263 99.0711 296.109 97.1701 296.679 95.4877C296.964 94.6574 297.271 94.0019 297.293 93.2808C297.336 92.5597 297.183 91.8168 296.942 91.0739C296.482 89.5663 295.649 88.1023 295.277 86.3325C295.102 85.4585 295.102 84.4752 295.43 83.5575C295.759 82.6398 296.329 81.9625 296.767 81.2851C298.673 78.816 297.095 75.4511 297.731 72.1299C298.038 70.4693 298.739 68.918 299.768 67.607C300.754 66.2523 302.222 65.3127 303.427 64.4824C304.698 63.6739 305.224 62.4722 305.794 60.9645C306.407 59.5006 307.24 58.1459 308.226 56.9441C310.198 54.5406 312.805 52.6834 315.719 51.7657C317.165 51.3068 318.699 51.0883 320.211 51.1757C321.744 51.2194 323.147 51.7001 324.439 51.7438C325.732 51.7875 327.047 51.3724 328.383 50.9791C329.72 50.5858 331.1 50.258 332.48 50.1051C335.241 49.7992 338.024 49.974 340.565 50.8261C343.129 51.6346 345.386 53.2515 346.832 55.3709L346.328 55.1743C350.315 54.2566 354.281 55.4146 357.239 57.4467C360.219 59.4787 362.278 62.494 362.936 65.6405L362.716 65.3783C365.937 66.8641 369.07 68.5028 370.801 71.1685C372.51 73.7687 372.62 77.1336 370.933 79.1438V78.7942C372.62 80.5204 373.365 82.5961 373.65 84.366C373.913 86.1577 373.693 87.709 373.365 88.8671C372.642 91.2269 371.634 92.1009 371.634 92.1009C371.546 92.0572 372.488 91.1176 373.102 88.8015C373.387 87.6435 373.54 86.1577 373.255 84.4315C372.949 82.7272 372.182 80.7607 370.56 79.1656L370.385 78.9909L370.538 78.816C372.006 77.0025 371.875 73.9216 370.276 71.5181C368.654 69.0709 365.652 67.4977 362.41 66.0556L362.234 65.9901L362.191 65.7934C361.533 62.8655 359.583 60.0468 356.757 58.1459C353.974 56.2449 350.206 55.218 346.569 56.0701L346.24 56.1357L346.065 55.8735C343.37 51.8968 337.805 50.4328 332.612 51.1102C331.297 51.2631 330.005 51.569 328.69 51.9623C327.375 52.3556 325.973 52.8363 324.417 52.7926C322.884 52.7489 321.525 52.2682 320.167 52.2464C318.787 52.1808 317.406 52.3775 316.07 52.8145C313.397 53.6666 310.943 55.3928 309.102 57.6433C308.182 58.7795 307.415 60.0468 306.845 61.4015C306.561 62.0789 306.298 62.8436 305.86 63.5647C305.421 64.3076 304.764 64.9194 304.107 65.3783C302.77 66.296 301.565 67.0607 300.667 68.2843C299.768 69.4424 299.133 70.8408 298.848 72.3266C298.563 73.7905 298.783 75.32 298.848 76.9588C298.98 78.5539 298.761 80.4985 297.709 81.9188C297.227 82.6398 296.723 83.2735 296.482 83.9508C296.241 84.6282 296.219 85.3711 296.372 86.114C296.679 87.6216 297.49 89.0856 297.994 90.7243C298.257 91.5328 298.454 92.4286 298.388 93.3463C298.344 94.2859 297.95 95.1381 297.731 95.8373C297.249 97.2357 297.38 98.8089 298.038 100.098C298.366 100.754 298.87 101.431 299.177 102.283C299.527 103.157 299.374 104.206 299.133 104.949C299.024 105.32 298.892 105.713 298.87 106.019C298.848 106.26 298.892 106.631 298.98 106.981C299.155 107.68 299.418 108.401 299.725 109.078C300.316 110.455 301.039 111.81 301.806 113.077C302.573 114.301 303.449 115.677 304.392 116.442L304.107 116.354C324.856 116.639 343.173 116.879 357.195 117.076H357.107C359.43 116.595 361.402 115.218 362.695 113.514C364.031 111.788 364.557 109.843 364.688 107.855C364.776 107.352 365.039 106.784 365.499 106.456C365.915 106.129 366.375 105.976 366.748 105.757C367.515 105.364 368.128 104.774 368.588 104.14C369.509 102.829 369.881 101.343 370.078 100.032C370.254 98.6996 370.254 97.5197 370.21 96.4709C370.166 95.4658 370.013 94.5263 370.297 93.827C370.582 93.1497 370.977 92.7564 371.218 92.4723C371.459 92.2101 371.59 92.0572 371.59 92.079L371.678 92.1227Z" fill="#455A64"/>
<path d="M352.156 73.6814L330.553 63.3682L324.703 63.6522C311.644 62.8219 301.675 76.5656 300.864 87.0973C299.966 98.809 299.353 113.121 300.623 121.883C303.187 139.494 317.954 141.941 317.954 141.941L316.903 158.897C319.642 168.227 342.691 171.832 351.587 161.978L357.612 79.9961C357.721 76.7841 355.333 74.031 352.156 73.6595V73.6814Z" fill="#FFBF9D"/>
<path d="M327.003 119.588C326.937 118.671 326.499 117.819 325.886 117.229C324.659 116.027 322.774 115.786 321.306 116.66C319.838 117.534 318.918 119.435 319.05 121.271C319.751 122.385 320.912 123.194 322.227 123.412C322.424 123.434 322.643 123.456 322.84 123.478C323.848 123.521 324.9 123.259 325.71 122.56C326.521 121.883 327.091 120.746 327.003 119.588Z" fill="#FF9A6C"/>
<path d="M306.781 103.026C306.715 104.206 307.679 105.255 308.928 105.32C310.177 105.408 311.228 104.512 311.294 103.31C311.36 102.13 310.396 101.081 309.147 101.016C307.898 100.928 306.846 101.824 306.781 103.026Z" fill="#263238"/>
<path d="M304.435 93.2155C304.72 93.5214 306.451 92.276 308.883 92.3197C311.315 92.3197 313.09 93.587 313.353 93.3029C313.484 93.1718 313.199 92.6474 312.433 92.0575C311.666 91.4894 310.373 90.9213 308.861 90.8994C307.349 90.8994 306.057 91.4238 305.334 91.9919C304.589 92.56 304.326 93.0844 304.457 93.2155H304.435Z" fill="#263238"/>
<path d="M318.721 113.23C318.721 113.098 317.231 112.814 314.777 112.465C314.164 112.399 313.572 112.268 313.463 111.831C313.331 111.372 313.594 110.717 313.901 109.996C314.514 108.51 315.128 106.937 315.807 105.298C318.436 98.6119 320.364 93.1275 320.102 93.0183C319.839 92.909 317.472 98.2404 314.843 104.927C314.208 106.565 313.594 108.139 313.025 109.646C312.784 110.345 312.367 111.132 312.674 112.072C312.827 112.53 313.287 112.88 313.682 112.989C314.076 113.12 314.427 113.12 314.734 113.142C317.187 113.317 318.721 113.339 318.743 113.208L318.721 113.23Z" fill="#263238"/>
<path d="M317.91 141.941C317.91 141.941 329.764 142.858 341.595 135.976C341.595 135.976 335.373 148.539 317.757 146.66L317.91 141.941Z" fill="#FF9A6C"/>
<path d="M325.864 114.999C325.47 114.978 325.426 117.6 323.147 119.435C320.869 121.27 318.064 120.943 318.042 121.314C317.998 121.489 318.656 121.838 319.839 121.882C321 121.926 322.709 121.576 324.111 120.462C325.513 119.326 326.127 117.818 326.215 116.726C326.324 115.633 326.039 114.978 325.864 114.978V114.999Z" fill="#263238"/>
<path d="M305.838 84.8028C306.232 85.3927 308.116 85.0213 310.285 85.2398C312.476 85.3709 314.251 86.0482 314.733 85.5238C314.952 85.2616 314.733 84.6935 313.966 84.0817C313.221 83.4699 311.951 82.9237 310.461 82.7926C308.971 82.6833 307.612 83.0329 306.802 83.5136C305.969 83.9943 305.662 84.5406 305.838 84.8246V84.8028Z" fill="#263238"/>
<path d="M331.605 103.747C331.605 104.949 330.553 105.91 329.304 105.91C328.055 105.91 327.069 104.949 327.069 103.769C327.069 102.567 328.121 101.605 329.348 101.605C330.597 101.605 331.583 102.567 331.583 103.747H331.605Z" fill="#263238"/>
<path d="M337.301 94.5047C337.016 94.7887 335.351 93.434 332.919 93.3248C330.487 93.1718 328.646 94.3299 328.405 94.024C328.274 93.8929 328.602 93.3685 329.391 92.8441C330.18 92.3197 331.516 91.839 333.028 91.9264C334.54 92.0138 335.789 92.6256 336.49 93.2374C337.213 93.8492 337.432 94.3954 337.301 94.5047Z" fill="#263238"/>
<path d="M336.359 86.6599C335.855 87.1843 334.015 86.5288 331.758 86.3759C329.501 86.1574 327.573 86.5288 327.157 85.9389C326.982 85.6548 327.31 85.1086 328.165 84.6279C329.019 84.1472 330.4 83.7976 331.955 83.9068C333.511 84.0379 334.826 84.5842 335.57 85.196C336.337 85.8078 336.578 86.3759 336.337 86.6381L336.359 86.6599Z" fill="#263238"/>
<path d="M297.073 89.1297C299.505 87.5783 301.039 85.5026 300.864 82.6183C302.485 83.0772 304.128 80.9796 305.049 79.5812C305.991 78.1828 307.13 77.4617 307.042 75.7793C307.042 75.4515 306.999 75.1019 307.152 74.796C307.393 74.3372 307.963 74.1842 308.467 74.0094C311.03 73.1791 313.112 70.9723 313.747 68.3502C316.354 69.4646 319.224 69.9016 322.051 69.6394C323.322 71.4311 325.557 72.5236 327.748 72.4144C329.96 72.3051 332.064 70.9941 333.137 69.0713C333.882 70.579 335.46 71.5404 337.103 71.9337C338.746 72.327 340.455 72.2396 342.121 72.174C341.419 75.4297 343.567 79.0349 346.766 79.9745C347.204 80.1056 347.686 80.2367 347.905 80.63C348.124 81.0451 347.905 81.5477 347.73 81.9847C346.7 84.7596 348.562 88.212 351.454 88.8893C349.482 90.4407 349.723 93.9804 351.871 95.2477C352.309 95.5099 352.9 95.8158 352.835 96.3402C352.813 96.5368 352.681 96.6898 352.572 96.8646C351.673 98.0663 350.797 99.3773 350.688 100.863C350.6 102.349 351.608 104.01 353.12 104.075C352.331 104.774 351.608 105.692 351.608 106.741C351.608 107.79 352.681 108.86 353.645 108.467C354.062 108.292 360.087 107.069 360.35 106.719C363.724 102.065 359.386 96.9738 358.991 91.2273C358.597 85.4807 360.525 78.9038 357.611 73.922C356.384 71.8463 351.016 70.863 349.285 69.1805C347.313 67.2577 344.947 65.7938 342.581 64.3517C339.513 62.4726 336.336 60.6153 332.831 59.8287C326.28 58.3429 319.531 60.7683 313.462 63.6306C311.162 64.7231 308.861 65.8812 306.911 67.5418C304.588 69.5301 302.901 72.1303 301.433 74.796C299.308 78.6416 297.555 82.815 297.161 87.185" fill="#263238"/>
<path d="M352.594 109.253C352.594 107.942 354.171 104.883 355.464 104.687C358.926 104.184 365.17 104.556 365.104 113.317C365.039 125.313 352.988 122.757 352.966 122.407C352.966 122.145 352.528 113.754 352.594 109.253Z" fill="#FFBF9D"/>
<path d="M356.319 118.058C356.319 118.058 356.538 118.211 356.888 118.364C357.239 118.517 357.83 118.626 358.444 118.408C359.715 117.949 360.788 115.939 360.876 113.798C360.92 112.705 360.701 111.656 360.306 110.804C359.934 109.93 359.386 109.318 358.751 109.187C358.115 109.034 357.655 109.406 357.502 109.755C357.348 110.083 357.414 110.323 357.348 110.345C357.304 110.367 357.085 110.149 357.195 109.646C357.239 109.406 357.392 109.122 357.677 108.903C357.962 108.663 358.4 108.554 358.838 108.597C359.758 108.663 360.591 109.515 361.007 110.476C361.467 111.438 361.752 112.596 361.708 113.819C361.621 116.245 360.372 118.495 358.619 118.976C357.765 119.195 357.063 118.932 356.713 118.648C356.34 118.342 356.275 118.08 356.319 118.058Z" fill="#FF9A6C"/>
<path d="M281.342 341.06C277.53 344.862 276.697 370.143 283.883 392.91C291.07 415.678 304.172 464.994 304.172 464.994C304.172 464.994 299.9 492.175 300.338 522.001C300.732 548.833 310.723 591.2 310.723 591.2L336.38 590.588C336.38 590.588 349.395 484.812 347.27 461.192C345.166 437.594 340.193 364.942 340.193 364.942C340.193 364.942 344.312 282.458 341.77 282.895C339.229 283.332 300.316 281.213 300.316 281.213L281.32 341.06H281.342Z" fill="#263238"/>
<path d="M381.099 281.213C379.302 278.329 341.792 282.896 341.792 282.896L335.876 591.2L366.726 589.212C366.726 589.212 373.474 507.995 376.015 491.127C378.557 474.258 376.87 456.145 376.87 456.145C376.87 456.145 390.454 400.23 391.835 378.162C391.835 378.162 392.098 298.912 381.099 281.213Z" fill="#263238"/>
<path d="M335.877 591.2C335.877 591.2 335.877 590.982 335.877 590.588C335.899 590.108 335.943 589.518 335.964 588.775C336.074 587.092 336.249 584.776 336.446 581.804C336.929 575.665 337.586 566.946 338.418 556.196C340.149 534.499 342.516 504.674 345.145 471.724C345.276 469.67 345.43 467.616 345.561 465.584C345.715 463.596 345.561 461.542 345.539 459.531C345.43 455.511 345.32 451.534 345.211 447.645C344.97 439.845 344.729 432.328 344.509 425.161C344.006 410.85 343.545 397.958 343.151 387.098C342.713 376.261 342.318 367.499 341.946 361.446C341.595 355.394 341.223 352.051 341.026 352.117C341.793 351.964 342.888 365.423 343.94 387.055C344.466 397.892 345.013 410.784 345.539 425.118C345.78 432.284 346.043 439.801 346.306 447.601C346.416 451.513 346.547 455.467 346.657 459.51C346.657 461.52 346.854 463.552 346.679 465.628C346.547 467.682 346.394 469.735 346.262 471.811C343.721 504.827 341.091 534.674 339.207 556.284C338.221 567.012 337.432 575.73 336.863 581.87C336.578 584.82 336.337 587.158 336.162 588.818C336.074 589.561 336.008 590.151 335.943 590.632C335.899 591.047 335.855 591.244 335.833 591.244L335.877 591.2Z" fill="#455A64"/>
<path d="M411.16 364.44C411.16 364.44 413.285 364.943 416.331 375.344C419.354 385.744 421.874 402.722 421.874 402.722H413.307L409.21 376.895L411.182 364.44H411.16Z" fill="#263238"/>
<path d="M394.399 352.073C394.048 352.598 390.959 363.064 392.054 367.368C393.15 371.673 394.267 376.851 396.48 375.628C398.693 374.426 400.117 371.542 399.46 368.133C398.803 364.724 398.123 362.692 399.613 361.185C401.125 359.677 402.703 369.444 403.009 369.794C403.316 370.121 403.009 380.697 403.009 380.697C403.009 380.697 407.632 380.369 409.736 375.081C411.839 369.794 411.05 353.319 410.722 353.209C410.393 353.1 394.377 352.073 394.377 352.073H394.399Z" fill="#FFBF9D"/>
<path d="M392.603 403.224C392.603 403.224 395.823 370.799 400.359 366.625L402.243 366.014L403.799 370.864L401.739 403.246H392.603V403.224Z" fill="#263238"/>
<path d="M306.846 154.286L317.012 143.252C317.012 143.252 333.182 159.028 333.62 159.006C334.058 159.006 352.748 142.094 352.748 142.094C352.748 142.094 355.355 147.207 355.377 147.491C355.377 147.775 355.377 147.207 355.377 147.207L374.001 280.252C374.001 280.252 331.517 291.177 302.157 276.341L306.846 154.308V154.286Z" fill="#F5F5F5"/>
<path d="M312.586 145.809C311.841 146.814 303.143 155.051 303.143 155.051L273.038 163.245L290.829 267.142L261.535 363.304L316.639 382.03C316.639 382.03 327.901 287.616 329.917 274.134C331.911 260.653 312.63 145.809 312.63 145.809H312.586Z" fill="#BBD1DC"/>
<path d="M266.531 276.384C266.531 276.384 254.502 264.629 255.751 252.153C257 239.654 265.172 170.848 269.533 165.736C271.833 163.004 273.038 163.245 273.038 163.245L279.699 202.138L282.306 199.45L300.338 220.929C300.338 220.929 295.584 261.395 290.829 267.142C286.075 272.888 272.556 282.502 266.531 276.384Z" fill="#BBD1DC"/>
<path d="M283.161 200.477C283.292 200.564 281.736 203.055 279.282 207.097C276.829 211.14 273.498 216.777 270.014 223.092C266.531 229.406 263.551 235.24 261.426 239.457C259.322 243.696 258.052 246.34 257.898 246.275C257.832 246.253 258.052 245.553 258.534 244.308C258.994 243.063 259.739 241.293 260.703 239.13C262.631 234.803 265.501 228.904 269.007 222.545C272.512 216.209 275.952 210.615 278.581 206.66C279.896 204.672 281.013 203.121 281.802 202.05C282.591 200.979 283.073 200.411 283.139 200.477H283.161Z" fill="#263238"/>
<path d="M324.921 259.057C324.921 259.057 324.658 258.773 324.22 258.161C323.804 257.549 323.234 256.61 322.533 255.386C321.131 252.939 319.268 249.334 317.077 244.811C312.739 235.765 307.108 223.07 301.565 208.78C300.185 205.197 298.892 201.701 297.731 198.27C297.139 196.566 296.613 194.862 296.131 193.179C295.693 191.453 295.167 189.902 295.189 187.979C297.183 181.511 298.3 175.765 299.462 170.848C300.535 166.085 301.412 162.152 302.047 159.268C302.354 158 302.595 156.974 302.792 156.121C302.967 155.4 303.099 155.029 303.143 155.051C303.186 155.051 303.143 155.444 303.011 156.165C302.858 157.017 302.682 158.066 302.463 159.355C301.959 162.108 301.214 166.107 300.228 171.023C299.703 173.492 299.133 176.18 298.541 179.064C297.906 181.904 297.161 185.138 296.219 188.132C296.219 189.53 296.723 191.278 297.161 192.895C297.643 194.556 298.191 196.238 298.782 197.921C299.944 201.329 301.258 204.825 302.617 208.387C308.138 222.633 313.659 235.35 317.8 244.483C319.882 249.05 321.635 252.699 322.906 255.19C323.497 256.326 324.001 257.287 324.395 258.052C324.746 258.686 324.921 259.035 324.899 259.057H324.921Z" fill="#263238"/>
<path d="M383.356 278.35L385.941 200.695C385.941 200.695 388.176 193.157 390.674 185.313C393.325 176.988 396.283 168.313 397.225 167.876C399.065 167.002 363.352 155.05 363.352 155.05L355.157 144.453C355.574 147.206 358.466 208.474 358.466 210.134C358.466 211.052 360.898 261.264 362.431 278.35C363.965 295.437 367.011 383.602 367.011 383.602L403.009 368.395L383.334 278.372L383.356 278.35Z" fill="#BBD1DC"/>
<path d="M397.247 167.877C397.247 167.877 401.826 176.595 401.826 184.483C401.826 192.371 411.992 264.913 412.014 271.818C412.058 280.274 412.014 353.231 412.014 353.231L392.383 351.964L382.677 284.36L373.189 203.012L397.247 167.899V167.877Z" fill="#BBD1DC"/>
<path d="M370.78 394.331H447.597C451.234 394.331 454.192 397.281 454.192 400.908V462.066C454.192 465.693 451.234 468.643 447.597 468.643H370.78C367.142 468.643 364.185 465.693 364.185 462.066V400.908C364.185 397.281 367.142 394.331 370.78 394.331Z" fill="#455A64"/>
<path d="M290.172 182.495L287.127 173.711C286.688 172.466 287.499 171.111 288.814 170.914L309.322 167.899C310.395 167.746 311.403 168.402 311.688 169.429L321.723 206.159C321.723 206.159 300.316 213.107 300.689 213.129C300.996 213.129 290.172 182.495 290.172 182.495Z" fill="#263238"/>
<path d="M283.117 206.835C283.117 206.835 285.351 196.479 286.162 194.119C286.973 191.759 291.64 185.685 291.64 185.685L293.042 189.377C293.042 189.377 300.689 185.685 303.712 186.427C306.758 187.17 306.385 189.618 303.712 191.453C301.039 193.31 296.328 195.146 296.328 195.146V199.581C296.328 199.581 314.908 193.441 316.902 193.529C318.896 193.594 320.32 195.889 319.203 197.746C318.085 199.603 299.045 207.207 299.045 207.207C299.045 207.207 318.918 201.286 320.408 201.504C321.898 201.723 321.679 205.262 319.794 206.18C317.888 207.119 313.594 208.824 313.594 208.824C313.594 208.824 315.588 211.184 311.731 213.325C307.875 215.466 304.041 219.093 300.513 219.749C296.986 220.404 294.159 220.645 294.159 220.645C294.159 220.645 290.96 222.415 290.15 222.109C289.339 221.803 281.758 212.888 283.117 206.814V206.835Z" fill="#FFBF9D"/>
<path d="M290.172 182.495L287.127 173.711C286.688 172.466 287.499 171.111 288.814 170.914L309.322 167.899C310.395 167.746 311.403 168.402 311.688 169.429L321.723 206.159C321.723 206.159 300.316 213.107 300.689 213.129C300.996 213.129 290.172 182.495 290.172 182.495Z" fill="#263238"/>
<path d="M283.117 206.835C283.117 206.835 285.351 196.479 286.162 194.119C286.973 191.759 291.64 185.685 291.64 185.685L293.042 189.377C293.042 189.377 300.689 185.685 303.712 186.427C306.758 187.17 306.385 189.618 303.712 191.453C301.039 193.31 296.328 195.146 296.328 195.146V199.581C296.328 199.581 314.908 193.441 316.902 193.529C318.896 193.594 320.32 195.889 319.203 197.746C318.085 199.603 299.045 207.207 299.045 207.207C299.045 207.207 318.918 201.286 320.408 201.504C321.898 201.723 321.679 205.262 319.794 206.18C317.888 207.119 313.594 208.824 313.594 208.824C313.594 208.824 315.588 211.184 311.731 213.325C307.875 215.466 304.041 219.093 300.513 219.749C296.986 220.404 294.159 220.645 294.159 220.645C294.159 220.645 290.96 222.415 290.15 222.109C289.339 221.803 281.758 212.888 283.117 206.814V206.835Z" fill="#FFBF9D"/>
<path d="M297.095 222.175C297.249 222.218 296.898 224.709 296.592 228.817C296.263 232.903 295.868 238.584 295.233 244.833C294.62 251.082 293.787 256.742 292.845 260.784C292.407 262.794 291.925 264.411 291.53 265.503C291.136 266.596 290.873 267.186 290.807 267.142C290.632 267.077 291.377 264.651 292.056 260.609C292.779 256.567 293.48 250.951 294.094 244.702C294.729 238.475 295.233 232.794 295.781 228.708C296.285 224.622 296.942 222.109 297.074 222.153L297.095 222.175Z" fill="#263238"/>
<path d="M281.145 204.061C280.839 204.149 278.933 198.402 276.895 191.213C274.857 184.025 273.455 178.147 273.74 178.06C274.047 177.972 275.953 183.719 277.99 190.907C280.028 198.096 281.43 203.974 281.145 204.061Z" fill="#263238"/>
<path d="M403.031 368.373C403.031 368.373 402.812 367.762 402.505 366.538C402.177 365.227 401.76 363.457 401.213 361.228C400.117 356.509 398.562 349.845 396.677 341.673C392.931 325.045 387.782 302.255 382.107 277.084C382.063 276.865 382.019 276.669 381.976 276.45V276.363V276.275C384.846 245.707 387.475 218.635 389.184 202.007V201.941C390.762 196.413 392.01 192.021 392.887 188.897C393.325 187.455 393.654 186.319 393.917 185.445C394.158 184.658 394.311 184.265 394.333 184.265C394.355 184.265 394.289 184.68 394.092 185.488C393.873 186.362 393.588 187.52 393.237 188.984C392.427 192.131 391.266 196.566 389.819 202.116V202.051C388.417 218.7 385.963 245.773 383.093 276.363V276.188C383.137 276.385 383.181 276.603 383.224 276.822C388.768 302.037 393.807 324.848 397.466 341.498C399.219 349.713 400.643 356.378 401.651 361.119C402.111 363.37 402.462 365.14 402.725 366.472C402.966 367.696 403.075 368.352 403.031 368.352V368.373Z" fill="#263238"/>
<path d="M362.41 260.543C362.41 260.543 362.41 260.15 362.498 259.45C362.629 258.598 362.783 257.571 362.958 256.326C363.44 253.442 364.097 249.574 364.886 244.876C366.595 235.066 368.917 221.825 371.481 207.163C372.094 203.471 372.708 199.887 373.278 196.413C373.562 194.687 373.825 192.939 374.001 191.344C374.198 190.754 373.803 189.88 373.584 189.093C373.343 188.307 373.102 187.52 372.861 186.755C370.955 180.594 369.246 175.044 367.778 170.302C366.398 165.735 365.28 161.977 364.448 159.18C364.097 157.957 363.834 156.952 363.593 156.143C363.418 155.444 363.33 155.073 363.374 155.051C363.418 155.051 363.571 155.379 363.812 156.056C364.097 156.864 364.448 157.848 364.864 159.027C365.784 161.781 367.033 165.517 368.545 170.04C370.079 174.76 371.875 180.288 373.869 186.406C374.11 187.17 374.373 187.957 374.614 188.744C374.833 189.552 375.25 190.229 375.118 191.366C374.943 193.157 374.68 194.818 374.395 196.566C373.825 200.04 373.212 203.645 372.598 207.338C370.035 222.065 367.537 235.372 365.675 244.986C364.733 249.662 363.966 253.507 363.396 256.37C363.133 257.593 362.892 258.62 362.717 259.45C362.542 260.15 362.432 260.521 362.41 260.521V260.543Z" fill="#263238"/>
<path d="M355.158 161.081C355.158 161.081 354.106 162.283 352.091 164.162C350.075 166.041 347.183 168.663 343.677 171.766L343.283 172.116L342.954 171.701C340.456 168.663 337.652 165.211 334.672 161.562C334.278 161.081 333.883 160.579 333.489 160.098H334.387C331.254 164.315 328.34 168.248 325.82 171.657L325.535 172.05L325.163 171.744C322.205 169.406 319.773 167.44 318.086 166.063C316.399 164.665 315.479 163.856 315.544 163.769C315.61 163.682 316.64 164.381 318.415 165.626C320.189 166.893 322.709 168.729 325.733 171.001L325.075 171.089C327.551 167.658 330.399 163.682 333.489 159.399L333.927 158.787L334.387 159.377C334.781 159.858 335.176 160.338 335.57 160.841C338.506 164.512 341.289 167.986 343.765 171.067L343.042 171.001C346.591 167.964 349.593 165.451 351.718 163.703C353.843 161.955 355.114 160.994 355.18 161.081H355.158Z" fill="#263238"/>
<path d="M353.799 228.642C353.953 228.904 349.395 231.854 343.589 235.219C337.783 238.584 332.963 241.097 332.809 240.834C332.656 240.572 337.213 237.622 343.02 234.236C348.826 230.871 353.646 228.358 353.799 228.642Z" fill="#263238"/>
<path d="M345.758 284.12C345.758 284.12 345.649 283.683 345.583 282.874C345.495 281.935 345.408 280.733 345.276 279.291C345.035 276.013 344.706 271.534 344.312 266.071C343.48 254.928 342.209 239.524 340.39 222.546C338.572 205.569 336.578 190.252 335.044 179.174C334.277 173.755 333.664 169.297 333.204 166.064C333.006 164.622 332.853 163.442 332.744 162.48C332.656 161.672 332.612 161.235 332.656 161.213C332.7 161.213 332.809 161.628 332.963 162.436C333.138 163.376 333.357 164.534 333.642 165.976C334.211 169.057 334.956 173.514 335.833 179.043C337.586 190.099 339.711 205.416 341.529 222.415C343.348 239.392 344.487 254.819 345.123 266.006C345.43 271.599 345.649 276.122 345.736 279.247C345.78 280.711 345.802 281.891 345.824 282.852C345.824 283.683 345.824 284.12 345.78 284.12H345.758Z" fill="#263238"/>
<path d="M376.213 465.846C375.906 465.846 375.644 450.901 375.644 432.481C375.644 414.062 375.906 399.116 376.213 399.116C376.52 399.116 376.783 414.062 376.783 432.481C376.783 450.901 376.52 465.846 376.213 465.846Z" fill="#263238"/>
<path d="M451.716 410.719C451.716 410.719 451.124 411.899 449.788 413.887C448.451 415.854 446.479 418.694 443.631 421.906C440.782 425.074 436.97 428.658 431.865 431.258C429.323 432.547 426.453 433.574 423.342 434.033C420.231 434.513 416.922 434.295 413.723 433.508C407.26 431.87 401.87 428.548 397.093 425.577C392.339 422.518 388.286 419.415 385.021 416.662C381.756 413.909 379.28 411.484 377.637 409.779C376.805 408.927 376.191 408.25 375.775 407.769C375.359 407.288 375.161 407.026 375.183 407.004C375.249 406.939 376.191 407.856 377.944 409.473C379.697 411.09 382.238 413.406 385.547 416.05C388.855 418.716 392.909 421.731 397.663 424.703C402.418 427.631 407.786 430.843 413.986 432.416C420.209 434.055 426.475 432.853 431.405 430.34C436.4 427.871 440.169 424.441 443.061 421.382C445.953 418.301 448.013 415.548 449.459 413.647C450.883 411.746 451.672 410.697 451.738 410.741L451.716 410.719Z" fill="#263238"/>
</g>
<g clip-path="url(#clip0_2821_2)">
<path d="M169.49 212.206L189.384 199.58C129.878 210.967 66.9454 200.649 14.5901 170.742L8.30101 181.843C7.50975 183.244 5.73342 183.728 4.33281 182.937C2.93221 182.146 2.44772 180.369 3.23898 178.969L10.4817 166.177C10.5323 165.758 10.6575 165.333 10.8868 164.949C11.0934 164.591 11.3678 164.291 11.6851 164.049L18.9936 151.151C19.7849 149.751 21.5612 149.266 22.9618 150.057C24.3624 150.849 24.8469 152.625 24.0556 154.025L17.6893 165.246C70.0706 195.163 133.285 204.979 192.641 192.476L164.322 188.699C162.735 188.489 161.613 187.021 161.823 185.434C162.033 183.846 163.501 182.724 165.088 182.934L207.872 188.647C210.565 189.01 211.33 192.53 209.05 193.976L172.613 217.111C171.259 217.971 169.466 217.566 168.605 216.213C167.744 214.859 168.149 213.066 169.503 212.205L169.49 212.206Z" fill="#1B1B1B"/>
</g>
<defs>
<clipPath id="clip0_2821_2">
<rect width="80.917" height="205.767" fill="white" transform="translate(7.46191 232.148) rotate(-95.0905)"/>
</clipPath>
</defs>
</svg>
