<svg width="133" height="390" viewBox="0 0 133 390" fill="none" xmlns="http://www.w3.org/2000/svg">
<path opacity="0.451" fill-rule="evenodd" clip-rule="evenodd" d="M125.128 347.531C121.13 347.531 117.889 344.285 117.889 340.281C117.889 336.278 121.13 333.032 125.128 333.032C129.125 333.032 132.366 336.278 132.366 340.281C132.366 344.285 129.125 347.531 125.128 347.531ZM125.128 306.047C121.13 306.047 117.889 302.801 117.889 298.798C117.889 294.794 121.13 291.548 125.128 291.548C129.125 291.548 132.366 294.794 132.366 298.798C132.366 302.801 129.125 306.047 125.128 306.047ZM125.128 263.983C121.13 263.983 117.889 260.737 117.889 256.734C117.889 252.73 121.13 249.485 125.128 249.485C129.125 249.485 132.366 252.73 132.366 256.734C132.366 260.737 129.125 263.983 125.128 263.983ZM125.128 222.499C121.13 222.499 117.889 219.254 117.889 215.25C117.889 211.246 121.13 208 125.128 208C129.125 208 132.366 211.246 132.366 215.25C132.366 219.254 129.125 222.499 125.128 222.499ZM125.128 181.015C121.13 181.015 117.889 177.769 117.889 173.766C117.889 169.762 121.13 166.516 125.128 166.516C129.125 166.516 132.366 169.762 132.366 173.766C132.366 177.769 129.125 181.015 125.128 181.015ZM125.128 139.531C121.13 139.531 117.889 136.286 117.889 132.282C117.889 128.278 121.13 125.032 125.128 125.032C129.125 125.032 132.366 128.278 132.366 132.282C132.366 136.286 129.125 139.531 125.128 139.531ZM125.128 98.047C121.13 98.047 117.889 94.802 117.889 90.798C117.889 86.794 121.13 83.548 125.128 83.548C129.125 83.548 132.366 86.794 132.366 90.798C132.366 94.802 129.125 98.047 125.128 98.047ZM125.128 55.983C121.13 55.983 117.889 52.738 117.889 48.734C117.889 44.73 121.13 41.485 125.128 41.485C129.125 41.485 132.366 44.73 132.366 48.734C132.366 52.738 129.125 55.983 125.128 55.983ZM125.128 14.499C121.13 14.499 117.889 11.254 117.889 7.25C117.889 3.246 121.13 0 125.128 0C129.125 0 132.366 3.246 132.366 7.25C132.366 11.254 129.125 14.499 125.128 14.499ZM85.445 389.015C81.447 389.015 78.207 385.769 78.207 381.766C78.207 377.762 81.447 374.516 85.445 374.516C89.443 374.516 92.683 377.762 92.683 381.766C92.683 385.769 89.443 389.015 85.445 389.015ZM85.445 347.531C81.447 347.531 78.207 344.285 78.207 340.281C78.207 336.278 81.447 333.032 85.445 333.032C89.443 333.032 92.683 336.278 92.683 340.281C92.683 344.285 89.443 347.531 85.445 347.531ZM85.445 306.047C81.447 306.047 78.207 302.801 78.207 298.798C78.207 294.794 81.447 291.548 85.445 291.548C89.443 291.548 92.683 294.794 92.683 298.798C92.683 302.801 89.443 306.047 85.445 306.047ZM85.445 263.983C81.447 263.983 78.207 260.737 78.207 256.734C78.207 252.73 81.447 249.485 85.445 249.485C89.443 249.485 92.683 252.73 92.683 256.734C92.683 260.737 89.443 263.983 85.445 263.983ZM85.445 222.499C81.447 222.499 78.207 219.254 78.207 215.25C78.207 211.246 81.447 208 85.445 208C89.443 208 92.683 211.246 92.683 215.25C92.683 219.254 89.443 222.499 85.445 222.499ZM85.445 181.015C81.447 181.015 78.207 177.769 78.207 173.766C78.207 169.762 81.447 166.516 85.445 166.516C89.443 166.516 92.683 169.762 92.683 173.766C92.683 177.769 89.443 181.015 85.445 181.015ZM85.445 139.531C81.447 139.531 78.207 136.286 78.207 132.282C78.207 128.278 81.447 125.032 85.445 125.032C89.443 125.032 92.683 128.278 92.683 132.282C92.683 136.286 89.443 139.531 85.445 139.531ZM85.445 98.047C81.447 98.047 78.207 94.802 78.207 90.798C78.207 86.794 81.447 83.548 85.445 83.548C89.443 83.548 92.683 86.794 92.683 90.798C92.683 94.802 89.443 98.047 85.445 98.047ZM85.445 55.983C81.447 55.983 78.207 52.738 78.207 48.734C78.207 44.73 81.447 41.485 85.445 41.485C89.443 41.485 92.683 44.73 92.683 48.734C92.683 52.738 89.443 55.983 85.445 55.983ZM85.445 14.499C81.447 14.499 78.207 11.254 78.207 7.25C78.207 3.246 81.447 0 85.445 0C89.443 0 92.683 3.246 92.683 7.25C92.683 11.254 89.443 14.499 85.445 14.499ZM45.762 389.015C41.765 389.015 38.524 385.769 38.524 381.766C38.524 377.762 41.765 374.516 45.762 374.516C49.76 374.516 53.001 377.762 53.001 381.766C53.001 385.769 49.76 389.015 45.762 389.015ZM45.762 347.531C41.765 347.531 38.524 344.285 38.524 340.281C38.524 336.278 41.765 333.032 45.762 333.032C49.76 333.032 53.001 336.278 53.001 340.281C53.001 344.285 49.76 347.531 45.762 347.531ZM45.762 306.047C41.765 306.047 38.524 302.801 38.524 298.798C38.524 294.794 41.765 291.548 45.762 291.548C49.76 291.548 53.001 294.794 53.001 298.798C53.001 302.801 49.76 306.047 45.762 306.047ZM45.762 263.983C41.765 263.983 38.524 260.737 38.524 256.734C38.524 252.73 41.765 249.485 45.762 249.485C49.76 249.485 53.001 252.73 53.001 256.734C53.001 260.737 49.76 263.983 45.762 263.983ZM45.762 222.499C41.765 222.499 38.524 219.254 38.524 215.25C38.524 211.246 41.765 208 45.762 208C49.76 208 53.001 211.246 53.001 215.25C53.001 219.254 49.76 222.499 45.762 222.499ZM45.762 181.015C41.765 181.015 38.524 177.769 38.524 173.766C38.524 169.762 41.765 166.516 45.762 166.516C49.76 166.516 53.001 169.762 53.001 173.766C53.001 177.769 49.76 181.015 45.762 181.015ZM45.762 139.531C41.765 139.531 38.524 136.286 38.524 132.282C38.524 128.278 41.765 125.032 45.762 125.032C49.76 125.032 53.001 128.278 53.001 132.282C53.001 136.286 49.76 139.531 45.762 139.531ZM45.762 98.047C41.765 98.047 38.524 94.802 38.524 90.798C38.524 86.794 41.765 83.548 45.762 83.548C49.76 83.548 53.001 86.794 53.001 90.798C53.001 94.802 49.76 98.047 45.762 98.047ZM45.762 55.983C41.765 55.983 38.524 52.738 38.524 48.734C38.524 44.73 41.765 41.485 45.762 41.485C49.76 41.485 53.001 44.73 53.001 48.734C53.001 52.738 49.76 55.983 45.762 55.983ZM45.762 14.499C41.765 14.499 38.524 11.254 38.524 7.25C38.524 3.246 41.765 0 45.762 0C49.76 0 53.001 3.246 53.001 7.25C53.001 11.254 49.76 14.499 45.762 14.499ZM7.238 389.015C3.24 389.015 0 385.769 0 381.766C0 377.762 3.24 374.516 7.238 374.516C11.235 374.516 14.476 377.762 14.476 381.766C14.476 385.769 11.235 389.015 7.238 389.015ZM7.238 347.531C3.24 347.531 0 344.285 0 340.281C0 336.278 3.24 333.032 7.238 333.032C11.235 333.032 14.476 336.278 14.476 340.281C14.476 344.285 11.235 347.531 7.238 347.531ZM7.238 306.047C3.24 306.047 0 302.801 0 298.798C0 294.794 3.24 291.548 7.238 291.548C11.235 291.548 14.476 294.794 14.476 298.798C14.476 302.801 11.235 306.047 7.238 306.047ZM7.238 263.983C3.24 263.983 0 260.737 0 256.734C0 252.73 3.24 249.485 7.238 249.485C11.235 249.485 14.476 252.73 14.476 256.734C14.476 260.737 11.235 263.983 7.238 263.983ZM7.238 222.499C3.24 222.499 0 219.254 0 215.25C0 211.246 3.24 208 7.238 208C11.235 208 14.476 211.246 14.476 215.25C14.476 219.254 11.235 222.499 7.238 222.499ZM7.238 181.015C3.24 181.015 0 177.769 0 173.766C0 169.762 3.24 166.516 7.238 166.516C11.235 166.516 14.476 169.762 14.476 173.766C14.476 177.769 11.235 181.015 7.238 181.015ZM7.238 139.531C3.24 139.531 0 136.286 0 132.282C0 128.278 3.24 125.032 7.238 125.032C11.235 125.032 14.476 128.278 14.476 132.282C14.476 136.286 11.235 139.531 7.238 139.531ZM7.238 98.047C3.24 98.047 0 94.802 0 90.798C0 86.794 3.24 83.548 7.238 83.548C11.235 83.548 14.476 86.794 14.476 90.798C14.476 94.802 11.235 98.047 7.238 98.047ZM7.238 55.983C3.24 55.983 0 52.738 0 48.734C0 44.73 3.24 41.485 7.238 41.485C11.235 41.485 14.476 44.73 14.476 48.734C14.476 52.738 11.235 55.983 7.238 55.983ZM7.238 14.499C3.24 14.499 0 11.254 0 7.25C0 3.246 3.24 0 7.238 0C11.235 0 14.476 3.246 14.476 7.25C14.476 11.254 11.235 14.499 7.238 14.499ZM125.128 374.516C129.125 374.516 132.366 377.762 132.366 381.766C132.366 385.769 129.125 389.015 125.128 389.015C121.13 389.015 117.889 385.769 117.889 381.766C117.889 377.762 121.13 374.516 125.128 374.516Z" fill="#A97E00"/>
</svg>
