<svg width="241" height="83" viewBox="0 0 241 83" fill="none" xmlns="http://www.w3.org/2000/svg">
<path opacity="0.451" fill-rule="evenodd" clip-rule="evenodd" d="M236.242 58.161C233.764 58.161 231.756 56.152 231.756 53.674C231.756 51.197 233.764 49.188 236.242 49.188C238.72 49.188 240.728 51.197 240.728 53.674C240.728 56.152 238.72 58.161 236.242 58.161ZM236.242 33.566C233.764 33.566 231.756 31.558 231.756 29.08C231.756 26.602 233.764 24.594 236.242 24.594C238.72 24.594 240.728 26.602 240.728 29.08C240.728 31.558 238.72 33.566 236.242 33.566ZM236.242 8.972C233.764 8.972 231.756 6.963 231.756 4.486C231.756 2.008 233.764 0 236.242 0C238.72 0 240.728 2.008 240.728 4.486C240.728 6.963 238.72 8.972 236.242 8.972ZM210.571 82.037C208.093 82.037 206.085 80.028 206.085 77.551C206.085 75.073 208.093 73.065 210.571 73.065C213.049 73.065 215.057 75.073 215.057 77.551C215.057 80.028 213.049 82.037 210.571 82.037ZM210.571 58.161C208.093 58.161 206.085 56.152 206.085 53.674C206.085 51.197 208.093 49.188 210.571 49.188C213.049 49.188 215.057 51.197 215.057 53.674C215.057 56.152 213.049 58.161 210.571 58.161ZM210.571 33.566C208.093 33.566 206.085 31.558 206.085 29.08C206.085 26.602 208.093 24.594 210.571 24.594C213.049 24.594 215.057 26.602 215.057 29.08C215.057 31.558 213.049 33.566 210.571 33.566ZM210.571 8.972C208.093 8.972 206.085 6.963 206.085 4.486C206.085 2.008 208.093 0 210.571 0C213.049 0 215.057 2.008 215.057 4.486C215.057 6.963 213.049 8.972 210.571 8.972ZM184.9 82.037C182.423 82.037 180.414 80.028 180.414 77.551C180.414 75.073 182.423 73.065 184.9 73.065C187.378 73.065 189.386 75.073 189.386 77.551C189.386 80.028 187.378 82.037 184.9 82.037ZM184.9 58.161C182.423 58.161 180.414 56.152 180.414 53.674C180.414 51.197 182.423 49.188 184.9 49.188C187.378 49.188 189.386 51.197 189.386 53.674C189.386 56.152 187.378 58.161 184.9 58.161ZM184.9 33.566C182.423 33.566 180.414 31.558 180.414 29.08C180.414 26.602 182.423 24.594 184.9 24.594C187.378 24.594 189.386 26.602 189.386 29.08C189.386 31.558 187.378 33.566 184.9 33.566ZM184.9 8.972C182.423 8.972 180.414 6.963 180.414 4.486C180.414 2.008 182.423 0 184.9 0C187.378 0 189.386 2.008 189.386 4.486C189.386 6.963 187.378 8.972 184.9 8.972ZM158.87 82.037C156.393 82.037 154.384 80.028 154.384 77.551C154.384 75.073 156.393 73.065 158.87 73.065C161.348 73.065 163.356 75.073 163.356 77.551C163.356 80.028 161.348 82.037 158.87 82.037ZM158.87 58.161C156.393 58.161 154.384 56.152 154.384 53.674C154.384 51.197 156.393 49.188 158.87 49.188C161.348 49.188 163.356 51.197 163.356 53.674C163.356 56.152 161.348 58.161 158.87 58.161ZM158.87 33.566C156.393 33.566 154.384 31.558 154.384 29.08C154.384 26.602 156.393 24.594 158.87 24.594C161.348 24.594 163.356 26.602 163.356 29.08C163.356 31.558 161.348 33.566 158.87 33.566ZM158.87 8.972C156.393 8.972 154.384 6.963 154.384 4.486C154.384 2.008 156.393 0 158.87 0C161.348 0 163.356 2.008 163.356 4.486C163.356 6.963 161.348 8.972 158.87 8.972ZM133.199 82.037C130.722 82.037 128.714 80.028 128.714 77.551C128.714 75.073 130.722 73.065 133.199 73.065C135.677 73.065 137.686 75.073 137.686 77.551C137.686 80.028 135.677 82.037 133.199 82.037ZM133.199 58.161C130.722 58.161 128.714 56.152 128.714 53.674C128.714 51.197 130.722 49.188 133.199 49.188C135.677 49.188 137.686 51.197 137.686 53.674C137.686 56.152 135.677 58.161 133.199 58.161ZM133.199 33.566C130.722 33.566 128.714 31.558 128.714 29.08C128.714 26.602 130.722 24.594 133.199 24.594C135.677 24.594 137.686 26.602 137.686 29.08C137.686 31.558 135.677 33.566 133.199 33.566ZM133.199 8.972C130.722 8.972 128.714 6.963 128.714 4.486C128.714 2.008 130.722 0 133.199 0C135.677 0 137.686 2.008 137.686 4.486C137.686 6.963 135.677 8.972 133.199 8.972ZM107.529 82.037C105.051 82.037 103.043 80.028 103.043 77.551C103.043 75.073 105.051 73.065 107.529 73.065C110.006 73.065 112.015 75.073 112.015 77.551C112.015 80.028 110.006 82.037 107.529 82.037ZM107.529 58.161C105.051 58.161 103.043 56.152 103.043 53.674C103.043 51.197 105.051 49.188 107.529 49.188C110.006 49.188 112.015 51.197 112.015 53.674C112.015 56.152 110.006 58.161 107.529 58.161ZM107.529 33.566C105.051 33.566 103.043 31.558 103.043 29.08C103.043 26.602 105.051 24.594 107.529 24.594C110.006 24.594 112.015 26.602 112.015 29.08C112.015 31.558 110.006 33.566 107.529 33.566ZM107.529 8.972C105.051 8.972 103.043 6.963 103.043 4.486C103.043 2.008 105.051 0 107.529 0C110.006 0 112.015 2.008 112.015 4.486C112.015 6.963 110.006 8.972 107.529 8.972ZM81.858 82.037C79.38 82.037 77.372 80.028 77.372 77.551C77.372 75.073 79.38 73.065 81.858 73.065C84.335 73.065 86.344 75.073 86.344 77.551C86.344 80.028 84.335 82.037 81.858 82.037ZM81.858 58.161C79.38 58.161 77.372 56.152 77.372 53.674C77.372 51.197 79.38 49.188 81.858 49.188C84.335 49.188 86.344 51.197 86.344 53.674C86.344 56.152 84.335 58.161 81.858 58.161ZM81.858 33.566C79.38 33.566 77.372 31.558 77.372 29.08C77.372 26.602 79.38 24.594 81.858 24.594C84.335 24.594 86.344 26.602 86.344 29.08C86.344 31.558 84.335 33.566 81.858 33.566ZM81.858 8.972C79.38 8.972 77.372 6.963 77.372 4.486C77.372 2.008 79.38 0 81.858 0C84.335 0 86.344 2.008 86.344 4.486C86.344 6.963 84.335 8.972 81.858 8.972ZM56.187 82.037C53.709 82.037 51.701 80.028 51.701 77.551C51.701 75.073 53.709 73.065 56.187 73.065C58.665 73.065 60.673 75.073 60.673 77.551C60.673 80.028 58.665 82.037 56.187 82.037ZM56.187 58.161C53.709 58.161 51.701 56.152 51.701 53.674C51.701 51.197 53.709 49.188 56.187 49.188C58.665 49.188 60.673 51.197 60.673 53.674C60.673 56.152 58.665 58.161 56.187 58.161ZM56.187 33.566C53.709 33.566 51.701 31.558 51.701 29.08C51.701 26.602 53.709 24.594 56.187 24.594C58.665 24.594 60.673 26.602 60.673 29.08C60.673 31.558 58.665 33.566 56.187 33.566ZM56.187 8.972C53.709 8.972 51.701 6.963 51.701 4.486C51.701 2.008 53.709 0 56.187 0C58.665 0 60.673 2.008 60.673 4.486C60.673 6.963 58.665 8.972 56.187 8.972ZM30.157 82.037C27.68 82.037 25.671 80.028 25.671 77.551C25.671 75.073 27.68 73.065 30.157 73.065C32.635 73.065 34.643 75.073 34.643 77.551C34.643 80.028 32.635 82.037 30.157 82.037ZM30.157 58.161C27.68 58.161 25.671 56.152 25.671 53.674C25.671 51.197 27.68 49.188 30.157 49.188C32.635 49.188 34.643 51.197 34.643 53.674C34.643 56.152 32.635 58.161 30.157 58.161ZM30.157 33.566C27.68 33.566 25.671 31.558 25.671 29.08C25.671 26.602 27.68 24.594 30.157 24.594C32.635 24.594 34.643 26.602 34.643 29.08C34.643 31.558 32.635 33.566 30.157 33.566ZM30.157 8.972C27.68 8.972 25.671 6.963 25.671 4.486C25.671 2.008 27.68 0 30.157 0C32.635 0 34.643 2.008 34.643 4.486C34.643 6.963 32.635 8.972 30.157 8.972ZM4.486 82.037C2.009 82.037 0 80.028 0 77.551C0 75.073 2.009 73.065 4.486 73.065C6.964 73.065 8.972 75.073 8.972 77.551C8.972 80.028 6.964 82.037 4.486 82.037ZM4.486 58.161C2.009 58.161 0 56.152 0 53.674C0 51.197 2.009 49.188 4.486 49.188C6.964 49.188 8.972 51.197 8.972 53.674C8.972 56.152 6.964 58.161 4.486 58.161ZM4.486 33.566C2.009 33.566 0 31.558 0 29.08C0 26.602 2.009 24.594 4.486 24.594C6.964 24.594 8.972 26.602 8.972 29.08C8.972 31.558 6.964 33.566 4.486 33.566ZM4.486 8.972C2.009 8.972 0 6.963 0 4.486C0 2.008 2.009 0 4.486 0C6.964 0 8.972 2.008 8.972 4.486C8.972 6.963 6.964 8.972 4.486 8.972ZM236.242 73.065C238.72 73.065 240.728 75.073 240.728 77.551C240.728 80.028 238.72 82.037 236.242 82.037C233.764 82.037 231.756 80.028 231.756 77.551C231.756 75.073 233.764 73.065 236.242 73.065Z" fill="#A97E00"/>
</svg>
