<svg width="597" height="574" viewBox="0 0 597 574" fill="none" xmlns="http://www.w3.org/2000/svg">
<path opacity="0.05" d="M235.365 198.185V200.398C235.291 213.975 233.926 224.858 231.27 233.048C228.613 241.164 224.85 247.731 219.98 252.749C215.111 257.692 209.245 262.304 202.383 266.583C198.03 269.24 194.045 272.339 190.43 275.88C186.888 279.422 184.084 283.443 182.018 287.944C179.952 292.371 178.919 297.352 178.919 302.885C178.919 309.378 180.469 315.023 183.568 319.819C186.667 324.689 190.762 328.415 195.853 330.997C201.018 333.654 206.736 334.982 213.008 334.982C218.689 334.982 224.112 333.764 229.277 331.329C234.442 328.968 238.722 325.316 242.116 320.372C245.584 315.429 247.539 309.046 247.982 301.225H281.628C281.185 314.507 277.828 325.722 271.556 334.871C265.358 344.02 257.131 350.956 246.875 355.678C236.693 360.474 225.404 362.872 213.008 362.872C199.431 362.872 187.552 360.327 177.37 355.236C167.188 350.218 159.256 343.172 153.574 334.096C147.967 325.021 145.163 314.507 145.163 302.553C145.163 294.216 146.454 286.763 149.036 280.197C151.619 273.556 155.308 267.653 160.104 262.488C164.9 257.323 170.582 252.749 177.148 248.764C183.42 244.928 188.474 240.906 192.311 236.701C196.222 232.421 199.063 227.441 200.833 221.759C202.604 216.004 203.563 208.884 203.711 200.398V198.185H235.365ZM218.652 130.893C224.703 130.893 229.905 133.07 234.258 137.423C238.611 141.776 240.788 146.978 240.788 153.029C240.788 159.079 238.611 164.281 234.258 168.634C229.905 172.987 224.703 175.164 218.652 175.164C212.676 175.164 207.474 172.987 203.047 168.634C198.694 164.281 196.517 159.079 196.517 153.029C196.517 148.97 197.513 145.281 199.505 141.961C201.571 138.641 204.264 135.984 207.585 133.992C210.979 131.926 214.668 130.893 218.652 130.893ZM352.184 236.811V234.708C352.332 220.984 353.697 210.064 356.279 201.948C358.936 193.832 362.699 187.265 367.568 182.247C372.438 177.23 378.304 172.655 385.166 168.523C389.593 165.72 393.577 162.584 397.119 159.116C400.661 155.648 403.465 151.664 405.531 147.163C407.597 142.662 408.63 137.681 408.63 132.221C408.63 125.655 407.08 119.973 403.981 115.177C400.882 110.381 396.75 106.692 391.585 104.109C386.494 101.453 380.813 100.125 374.541 100.125C368.86 100.125 363.436 101.306 358.271 103.667C353.107 106.028 348.827 109.717 345.433 114.734C342.039 119.678 340.084 126.06 339.567 133.881H305.921C306.438 120.6 309.795 109.385 315.993 100.236C322.191 91.0126 330.381 84.0399 340.563 79.3177C350.819 74.5955 362.145 72.2344 374.541 72.2344C388.117 72.2344 399.997 74.7799 410.179 79.8711C420.361 84.8884 428.256 91.9349 433.864 101.01C439.545 110.012 442.386 120.526 442.386 132.553C442.386 140.817 441.095 148.27 438.512 154.91C435.93 161.477 432.241 167.343 427.445 172.508C422.722 177.673 417.041 182.247 410.4 186.232C404.129 190.142 399.038 194.201 395.127 198.406C391.29 202.612 388.486 207.592 386.716 213.348C384.945 219.103 383.985 226.223 383.838 234.708V236.811H352.184ZM368.896 304.103C362.846 304.103 357.644 301.963 353.291 297.684C348.938 293.33 346.761 288.092 346.761 281.967C346.761 275.917 348.938 270.752 353.291 266.473C357.644 262.119 362.846 259.943 368.896 259.943C374.873 259.943 380.038 262.119 384.391 266.473C388.818 270.752 391.032 275.917 391.032 281.967C391.032 286.026 389.999 289.752 387.933 293.146C385.941 296.466 383.285 299.122 379.964 301.115C376.644 303.107 372.955 304.103 368.896 304.103Z" fill="black"/>
<path fill-rule="evenodd" clip-rule="evenodd" d="M499.163 319.128C497.238 345.299 373.23 422.35 372.506 424.512C372.185 425.473 385.051 455.846 411.106 515.63L400.265 519.826C360.302 456.51 341.347 421.479 343.4 414.732C346.339 405.073 378.411 373.298 439.617 319.407L499.163 319.128Z" fill="#B28B67"/>
<path fill-rule="evenodd" clip-rule="evenodd" d="M408.253 502.127L390.554 508.545C353.235 466.6 338.607 431.991 341.274 414.358C343.052 402.602 375.014 370.88 437.159 319.191L500.432 319.191C498.274 379.799 383.333 424.742 381.796 427.324C380.258 429.907 395.388 455.203 408.253 502.127Z" fill="#2F3676"/>
<path fill-rule="evenodd" clip-rule="evenodd" d="M415.122 513.628C417.335 516.215 418.712 518.253 419.254 519.74C419.912 521.549 420.571 524.299 421.232 527.989C419.133 528.753 400.273 535.617 364.65 548.583C361.411 544.257 361.304 541.324 364.331 539.783C367.358 538.243 369.862 536.935 371.844 535.86L393.875 514.564C394.299 514.154 394.975 514.166 395.385 514.589C395.392 514.597 395.399 514.604 395.406 514.612L398.588 518.097C402.019 518.398 404.651 518.215 406.485 517.547C407.974 517.005 409.813 515.655 412 513.496L412 513.496C412.839 512.668 414.191 512.676 415.019 513.516C415.055 513.552 415.089 513.589 415.122 513.628Z" fill="#E4E4E4"/>
<path fill-rule="evenodd" clip-rule="evenodd" d="M484.905 319.127L540.147 451.236L594.442 562.923H581.632L441.483 319.127H484.905Z" fill="#997659"/>
<path fill-rule="evenodd" clip-rule="evenodd" d="M595.208 557.873C596.403 561.061 597 563.447 597 565.029C597 566.955 596.679 569.764 596.038 573.457C593.805 573.457 573.734 573.457 535.825 573.457C534.26 568.284 535.163 565.492 538.535 565.079C541.906 564.667 544.706 564.294 546.936 563.962L574.923 551.485C575.461 551.245 576.092 551.487 576.332 552.026C576.336 552.035 576.34 552.044 576.344 552.054L578.143 556.417C581.264 557.873 583.8 558.602 585.751 558.602C587.337 558.602 589.526 557.961 592.319 556.681L592.319 556.681C593.391 556.189 594.659 556.66 595.15 557.732C595.171 557.778 595.191 557.825 595.208 557.873Z" fill="#E4E4E4"/>
<path fill-rule="evenodd" clip-rule="evenodd" d="M589.539 539.721L561.075 545.039C539.067 512.808 446.962 380.649 436.864 319.127H500.231C533.955 363.602 568.561 506.957 589.539 539.721Z" fill="#5C63AB"/>
<path fill-rule="evenodd" clip-rule="evenodd" d="M465.142 190.572C468.53 183.829 470.064 176.218 467.623 168.727C460.589 147.143 430.936 159.67 427.698 172.256C424.461 184.842 432.187 212.794 440.439 212.842C443.73 212.861 449.838 209.281 455.547 203.601L458.698 234.174L483.558 227.976L465.142 190.572Z" fill="#B28B67"/>
<path fill-rule="evenodd" clip-rule="evenodd" d="M426.593 177.821C426.48 176.322 426.684 174.576 426.831 173.095C427.02 171.186 427.573 169.369 428.244 167.619C429.508 164.325 431.231 161.205 433.307 158.455C437.099 153.431 442.593 149.709 448.717 148.946C451.809 148.561 455.006 148.969 457.957 150.24C460.623 151.388 463.405 153.362 466.351 152.819C469.557 152.229 471.762 148.745 473.869 146.408C476.244 143.773 478.932 141.615 482.133 140.238C487.495 137.933 493.212 138.495 498.198 142.08C503.503 145.895 508.251 152.245 507.157 159.325C506.954 160.641 506.56 161.806 505.844 162.869C505.187 163.843 504.095 164.978 504.056 166.283C504.014 167.671 505.521 169.071 506.236 170.136C507.259 171.661 508.195 173.296 508.472 175.162C508.928 178.226 507.743 181.555 506.23 184.021C504.691 186.53 502.468 188.303 499.921 189.5C498.22 190.299 496.44 190.95 494.589 191.271C493.669 191.43 492.811 191.38 491.887 191.4C490.989 191.42 490.569 191.763 489.963 192.405C487.146 195.388 483.749 197.118 479.799 197.764C476.465 198.308 472.504 198.463 469.286 196.909C465.713 195.183 464.924 191.77 464.716 187.967C464.068 188.513 462.083 189.247 462.943 187.498C463.283 186.805 464.138 186.345 464.674 185.854C465.298 185.282 465.905 184.593 466.306 183.814C467.926 180.669 464.331 175.987 461.27 175.831C456.723 175.599 457.254 181.76 454.618 184.045C453.103 185.358 450.988 184.606 449.382 183.701C447.23 182.487 445.499 180.601 443.921 178.635C442.621 177.016 441.373 175.357 440.059 173.752C439.445 173.002 437.456 170.946 437.915 169.811C434.738 169.968 431.677 172.055 429.477 174.341C428.568 175.285 427.932 176.236 427.655 177.572C427.596 177.859 427.517 178.686 427.188 178.801C426.576 179.015 426.621 178.198 426.593 177.821Z" fill="#191847"/>
<path fill-rule="evenodd" clip-rule="evenodd" d="M397.338 309.885L363.724 335.359C354.532 337.999 346.871 341.219 340.739 345.018C339.299 346.37 337.577 349.089 343.639 348.518C349.7 347.948 356.102 347.619 356.976 349.665C357.849 351.71 354.219 354.238 355.96 356.988C357.121 358.821 362.372 354.082 371.714 342.769L405.188 328.268L397.338 309.885ZM528.082 308.462L505.777 308.938C520.323 352.94 528.168 376.285 529.313 378.973C531.889 385.021 526.824 394.389 524.676 399.413C532.012 402.527 531.027 390.536 540.285 394.627C548.734 398.361 555.233 405.281 564.814 399.166C565.992 398.414 567.248 395.639 564.058 393.543C556.111 388.322 544.63 379.141 543.047 376.08C540.888 371.907 535.9 349.367 528.082 308.462Z" fill="#B28B67"/>
<path fill-rule="evenodd" clip-rule="evenodd" d="M463.066 216.431L453.808 215.017C420.076 245.053 406.997 301.852 365.543 332.544L375.864 344.83C448.53 334.586 465.376 265.289 463.066 216.431Z" fill="#E87613"/>
<path fill-rule="evenodd" clip-rule="evenodd" d="M505.317 331.15C468.308 331.796 441.085 332.271 423.648 332.575C419.916 332.64 420.526 327.266 421.018 324.551C426.699 293.214 450.415 259.128 449.639 214.676L473.132 210.589C493.162 241.432 500.57 279.707 505.317 331.15Z" fill="#DDE3E9"/>
<path fill-rule="evenodd" clip-rule="evenodd" d="M503.082 240.729C506.486 239.691 509.156 237.361 511.091 233.74C519.431 218.13 516.173 209.672 506.922 207.035C497.672 204.398 489.567 210.304 474.906 210.56C474.109 210.574 473.379 210.636 472.718 210.747L465.35 211.295C445.437 283.02 440.433 330.729 450.337 354.423L514.617 353.301C518.58 362.071 522.354 369.443 525.94 375.415L543.455 375.109C544.177 322.044 530.72 277.251 503.082 240.729Z" fill="#FF9B21"/>
<path fill-rule="evenodd" clip-rule="evenodd" d="M499.98 316.899C498.252 333.765 495.179 346.038 490.762 353.717L514.617 353.301C509.994 343.07 505.115 330.936 499.98 316.899Z" fill="black" fill-opacity="0.1"/>
<path fill-rule="evenodd" clip-rule="evenodd" d="M132.887 178.777C127.896 172.918 124.518 165.738 125.082 157.692C126.709 134.51 158.978 139.61 165.255 151.31C171.532 163.01 170.786 192.688 162.674 194.779C159.439 195.613 152.547 193.57 145.532 189.343L149.935 220.491H123.938L132.887 178.777Z" fill="#B28B67"/>
<path fill-rule="evenodd" clip-rule="evenodd" d="M176.773 135.09C176.234 133.197 174.786 131.577 172.835 131.096C172.361 130.98 171.873 130.933 171.386 130.952C171.211 130.959 171.162 131.01 171.081 130.888C171.02 130.797 171.019 130.576 170.994 130.469C170.916 130.138 170.819 129.812 170.7 129.493C170.291 128.407 169.605 127.447 168.778 126.637C167.231 125.123 165.14 124.078 162.968 123.888C161.779 123.785 160.599 123.978 159.475 124.365C158.894 124.565 158.329 124.814 157.78 125.09C157.614 125.173 157.078 125.579 156.912 125.553C156.728 125.524 156.36 125.068 156.211 124.954C154.368 123.54 152.092 122.984 149.796 123C147.205 123.02 144.71 123.149 142.549 124.729C142.092 125.063 141.656 125.429 141.241 125.815C141.023 126.018 140.811 126.228 140.609 126.448C140.488 126.58 140.369 126.715 140.255 126.854C140.061 127.09 140.092 127.168 139.821 127.003C138.781 126.371 137.576 126.076 136.362 126.225C135.641 126.314 134.94 126.53 134.274 126.815C134.047 126.912 133.523 127.299 133.281 127.302C133.041 127.306 132.524 126.947 132.277 126.856C130.943 126.364 129.506 126.243 128.104 126.47C126.658 126.705 125.237 127.282 124.012 128.079C123.423 128.463 122.909 128.887 122.496 129.458C122.318 129.704 122.156 129.964 121.954 130.193C121.836 130.326 121.602 130.463 121.538 130.633C121.576 130.531 119.957 129.907 119.804 129.867C118.99 129.654 118.161 129.698 117.364 129.96C115.865 130.453 114.575 131.56 113.516 132.694C112.972 133.276 112.495 133.92 112.091 134.607C111.897 134.935 111.72 135.273 111.558 135.619C111.48 135.786 111.427 135.995 111.324 136.146C111.191 136.34 111.101 136.343 110.859 136.428C109.633 136.858 108.514 137.585 107.662 138.569C106.801 139.563 106.242 140.788 106.008 142.078C105.994 142.154 105.986 142.468 105.941 142.51C105.88 142.566 105.633 142.541 105.54 142.552C105.217 142.59 104.896 142.646 104.579 142.721C103.996 142.86 103.428 143.063 102.89 143.329C100.795 144.365 99.297 146.309 98.5638 148.495C97.7944 150.79 97.808 153.419 98.7276 155.671C98.8761 156.035 99.0528 156.388 99.2604 156.722C99.3879 156.927 99.429 156.927 99.3462 157.142C99.254 157.382 99.0855 157.614 98.9759 157.848C98.6185 158.611 98.3687 159.42 98.2108 160.247C97.9519 161.603 97.8236 163.028 98.079 164.394C98.1976 165.029 98.4043 165.649 98.7196 166.214C98.8803 166.502 99.0684 166.775 99.2808 167.028C99.391 167.159 99.5081 167.285 99.6306 167.405C99.7007 167.473 99.7925 167.533 99.852 167.61C99.9974 167.797 100.028 167.643 99.953 167.917C99.8482 168.301 99.6105 168.679 99.465 169.052C99.315 169.437 99.1795 169.827 99.0555 170.221C98.8045 171.018 98.5922 171.829 98.4594 172.655C98.2045 174.24 98.2493 175.929 98.999 177.383C99.3195 178.006 99.7794 178.552 100.337 178.976C100.61 179.184 100.906 179.363 101.216 179.51C101.375 179.586 101.579 179.618 101.652 179.772C101.73 179.938 101.614 180.267 101.587 180.452C101.357 182.065 101.241 183.757 101.72 185.337C102.162 186.792 103.134 188.077 104.395 188.927C106.843 190.577 110.142 190.484 112.714 189.163C113.385 188.819 114.012 188.392 114.571 187.887C115.996 189.805 118.928 189.744 121.01 189.198C123.604 188.517 125.686 186.713 126.885 184.343C128.525 186.34 131.966 185.692 133.104 183.526C133.382 182.996 133.547 182.412 133.628 181.821C133.671 181.51 133.644 181.196 133.676 180.888C133.717 180.495 133.979 180.113 134.13 179.733C134.424 178.993 134.607 178.229 134.614 177.431C134.619 177.014 134.566 176.608 134.526 176.195C134.49 175.823 134.594 175.476 134.652 175.109C133.987 175.219 133.176 175.039 132.55 174.846C131.934 174.657 131.358 174.158 130.924 173.703C129.916 172.646 129.3 171.26 128.879 169.88C127.955 166.852 128.334 163.219 131.379 161.558C132.798 160.783 137.048 160.786 138.738 161.169C140.515 161.571 142.529 165.491 142.628 165.86C142.689 166.088 142.659 166.37 142.868 166.522C143.329 166.856 144.088 166.276 144.428 165.99C145.014 165.496 145.432 164.839 145.794 164.173C146.583 162.722 147.218 161.166 147.668 159.577C148.014 158.352 148.236 157.089 148.688 155.895C149.139 154.708 149.849 153.646 150.953 152.973C152.154 152.241 153.53 151.856 154.849 151.396C156.156 150.94 157.44 150.383 158.453 149.416C158.676 149.203 158.892 148.977 159.072 148.726C159.213 148.529 159.353 148.15 159.569 148.025C159.904 147.83 160.393 148.337 160.683 148.521C162.114 149.43 163.307 150.697 164.269 152.081C165.226 153.457 166.012 154.782 166.65 156.319C167.123 157.459 167.419 158.919 168.251 159.853C168.623 160.27 171.386 160.522 172.281 160.158C173.176 159.794 174.179 158.848 174.479 158.256C174.786 157.649 174.86 156.983 174.728 156.319C174.651 155.928 174.493 155.563 174.407 155.179C174.334 154.857 174.268 154.552 174.112 154.257C173.814 153.697 173.306 153.295 172.694 153.127C173.331 152.539 173.859 151.836 174.225 151.05C174.605 150.233 174.927 149.24 175.018 148.344C175.092 147.616 174.978 146.862 174.579 146.236C174.161 145.58 173.42 145.151 172.78 144.742C173.758 143.976 174.596 143.045 175.285 142.014C176.624 140.008 177.453 137.48 176.773 135.09Z" fill="#191847"/>
<path fill-rule="evenodd" clip-rule="evenodd" d="M115.283 310.422L167.366 448.237L203.873 549.814H224.689L174.507 310.422L115.283 310.422Z" fill="#1F28CF"/>
<path fill-rule="evenodd" clip-rule="evenodd" d="M102.411 310.422C101.845 357.709 102.254 421.374 100.935 424.321C100.055 426.286 72.7026 448.676 18.8762 491.491L29.6055 509.735C93.5098 468.525 127.095 445.174 130.363 439.684C135.263 431.448 159.884 355.661 172.694 310.422H102.411Z" fill="#2B44FF"/>
<path fill-rule="evenodd" clip-rule="evenodd" d="M2.94691e-05 503.768L18.1221 489.976L32.744 507.402C33.8687 520.539 38.2182 535.272 45.7925 551.601L42.4733 554.386L16.0145 522.854L8.62246 510.674L6.96286 512.066L2.94691e-05 503.768Z" fill="#191847"/>
<path fill-rule="evenodd" clip-rule="evenodd" d="M201.941 569.312L203.024 546.564H225.772C236.558 554.147 250.64 560.285 268.018 564.979V569.312H226.855L212.773 567.146V569.312H201.941Z" fill="#191847"/>
<path fill-rule="evenodd" clip-rule="evenodd" d="M208.437 267.416L251.206 261.582C259.762 256.823 267.632 253.602 274.818 251.917C276.84 251.858 280.057 252.593 275.265 256.588C270.473 260.583 265.61 265.003 266.464 267.135C267.318 269.267 271.774 268.474 272.513 271.753C273.005 273.939 265.772 274.295 250.814 272.819L216.111 286.577L208.437 267.416ZM74.0847 277.315L97.8045 277.404C71.7951 335.935 58.2334 366.581 57.1194 369.342C54.6129 375.553 59.917 385.014 62.1853 390.098C54.7977 393.404 55.5848 381.161 46.2655 385.497C37.7593 389.454 31.2886 396.625 21.4609 390.561C20.2526 389.815 18.9286 387.008 22.1277 384.814C30.0978 379.349 41.5832 369.785 43.135 366.636C45.2512 362.343 55.5678 332.569 74.0847 277.315Z" fill="#997659"/>
<path fill-rule="evenodd" clip-rule="evenodd" d="M139.056 202.086L157.628 203.323C162.202 244.704 187.116 270.841 242.896 261.992L250.306 315.281C198.171 322.019 152.449 301.146 143.078 244.633C140.652 230.004 138.737 214.779 139.056 202.086Z" fill="#AFB9C5"/>
<path fill-rule="evenodd" clip-rule="evenodd" d="M129.894 196.687L158.032 203.132C158.032 251.529 173.449 282.408 181.357 317.991H105.362C104.291 330.287 103.634 342.924 103.291 355.904H46.3887C59.2831 287.297 86.4988 234.219 128.036 196.67H129.879L129.894 196.687Z" fill="#C5CFD6"/>
<path fill-rule="evenodd" clip-rule="evenodd" d="M117.352 248.945C115.393 279.104 116.545 302.119 120.807 317.991H105.362C107.482 293.633 111.224 270.618 117.352 248.945L117.352 248.945Z" fill="black" fill-opacity="0.1"/>
</svg>
