<svg width="58" height="66" viewBox="0 0 58 66" fill="none" xmlns="http://www.w3.org/2000/svg">
<g clip-path="url(#clip0_1805_836)">
<path d="M45.7888 38.5077C45.7824 37.7023 45.26 37.1468 44.5576 37.1304C43.8329 37.1123 43.2786 37.6908 43.2674 38.5175C43.2515 39.6237 43.2643 40.7314 43.2611 41.8376C43.2595 42.0134 43.2388 42.1876 43.2244 42.3783H42.393C30.5317 42.3783 18.672 42.3783 6.81066 42.3816C6.37424 42.3816 5.91871 42.3504 5.50778 42.4671C4.52982 42.7498 3.57416 43.113 2.57709 43.4532V42.9601C2.57709 31.9498 2.5755 20.9411 2.57709 9.93242C2.57869 7.22545 4.13959 5.62625 6.77562 5.6246C9.08035 5.62132 11.3851 5.62789 13.6898 5.61967C13.9638 5.61967 14.2536 5.60324 14.5069 5.50791C15.0691 5.29753 15.3574 4.68941 15.2459 4.05827C15.136 3.43207 14.62 3.0146 13.8953 3.01296C11.3325 3.00638 8.76817 2.99324 6.207 3.02939C5.60175 3.03926 4.97739 3.16417 4.40081 3.35811C1.66603 4.27851 0.0175204 6.7521 0.0143349 9.89955C0.00477829 22.8559 0 35.8139 0 48.7702C0 49.278 0.0653033 49.7958 0.170426 50.2921C0.847351 53.4429 3.3671 55.4891 6.59882 55.5089C9.26033 55.5236 11.9234 55.5121 14.5849 55.5121H15.2746V56.255C15.2746 58.9193 15.2889 61.5852 15.2651 64.2494C15.2571 65.0449 15.4896 65.6415 16.1984 65.9998H16.9136C18.6704 64.5732 20.4272 63.1482 22.1856 61.7216C22.4166 61.5326 22.6491 61.3436 22.9199 61.1217C24.2323 62.2064 25.5225 63.2846 26.8253 64.3431C27.523 64.9118 28.2445 65.4492 28.9549 65.9998H29.67C30.3501 65.6086 30.5588 65.0137 30.5476 64.2198C30.5126 61.5539 30.5349 58.8897 30.5349 56.2238V55.5121H31.3201C35.6126 55.5121 39.9035 55.5138 44.1944 55.5105C45.3492 55.5089 45.792 55.0569 45.7936 53.8817C45.7983 50.7655 45.7967 47.6493 45.7952 44.533C45.7952 42.5246 45.8031 40.5161 45.7888 38.5077ZM27.9578 61.8547C27.824 61.7643 27.695 61.692 27.5819 61.6C26.3873 60.6171 25.1959 59.6293 24.0014 58.6464C23.1365 57.9348 22.6953 57.9364 21.84 58.6432C20.6789 59.6014 19.5177 60.5612 18.3534 61.5194C18.2212 61.6279 18.0779 61.7232 17.8756 61.8711V50.2527H27.9578V61.8547ZM43.226 52.8183H30.5651V50.2527H33.1136C33.4703 50.2527 33.8287 50.256 34.1855 50.251C35.0408 50.2379 35.6174 49.7202 35.6285 48.9575C35.6397 48.1916 35.0743 47.646 34.2189 47.641C32.2328 47.6312 30.2482 47.6378 28.262 47.6378C22.7606 47.6378 17.2608 47.6361 11.7594 47.6394C10.885 47.6394 10.3864 47.9698 10.2431 48.6223C10.0519 49.4983 10.6317 50.2346 11.5571 50.2478C12.766 50.2642 13.9749 50.251 15.2284 50.251V52.8085C15.1265 52.8265 15.015 52.8627 14.9035 52.8627C12.0429 52.8643 9.18229 52.8841 6.32327 52.8545C4.61265 52.838 3.19827 51.7007 2.73 50.062C2.06741 47.7479 3.52319 45.4041 5.84704 45.059C6.17993 45.0097 6.51918 44.9949 6.85526 44.9949C18.7341 44.9916 30.6113 44.9932 42.4886 44.9932H43.226V52.8183Z" fill="black" stroke="black" stroke-linejoin="round"/>
<path d="M53.3689 11.5712C51.0116 9.02036 48.5747 6.54678 46.1282 4.0847C44.4654 2.40989 41.8485 2.72546 40.5121 4.68296C40.4213 4.81609 40.3321 4.94922 40.2382 5.09057C40.0885 4.98702 39.9594 4.89498 39.8256 4.80787C38.0258 3.63436 35.643 4.22933 34.6301 6.16218C34.3784 6.64046 34.1506 6.74401 33.6712 6.62567C33.3558 6.54842 32.9975 6.59444 32.6678 6.64539C31.4525 6.83276 30.5733 7.54772 29.9266 8.6522C29.7514 8.48456 29.6049 8.35307 29.4679 8.21172C28.1459 6.85084 26.851 5.46201 25.4955 4.13565C23.4473 2.13048 20.1455 3.04595 19.3777 5.82196C18.9573 7.34062 19.3825 8.6407 20.456 9.74518C23.7467 13.1342 27.031 16.5282 30.3168 19.9206C30.4602 20.0685 30.594 20.2296 30.7931 20.4531C30.5128 20.4679 30.3583 20.4745 30.2022 20.486C27.4435 20.6832 25.2885 21.9159 23.9952 24.4897C22.8643 26.7414 24.1497 28.9307 26.5961 28.8222C29.1605 28.7071 31.4955 29.3876 33.77 30.4986C36.0922 31.6311 38.4829 32.5613 41.0616 32.8506C43.7534 33.153 46.305 32.7142 48.3629 30.7978C50.0831 29.1953 51.6679 27.4301 53.2351 25.6632C53.8531 24.9631 54.323 24.0969 54.7483 23.2472C56.8045 19.1382 56.3155 14.7614 53.3689 11.5712ZM52.0151 22.8494C51.4162 23.829 50.6549 24.7116 49.9047 25.5811C49.207 26.3913 48.3931 27.0948 47.6875 27.9018C45.7284 30.142 43.2867 30.6531 40.5249 30.142C38.3746 29.7426 36.3885 28.8682 34.423 27.933C31.9749 26.7694 29.4488 25.9969 26.7124 26.2336C26.5754 26.2451 26.4353 26.2253 26.2983 26.2023C26.2457 26.1925 26.2011 26.1366 26.0992 26.061C26.628 24.8069 27.4578 23.8783 28.7368 23.4313C30.3168 22.8807 31.9096 23.0352 33.5024 23.3704C33.7174 23.4148 33.9261 23.4904 34.1411 23.5217C34.6842 23.6038 35.1238 23.4033 35.4217 22.9316C35.7211 22.4566 35.7115 21.9586 35.3946 21.4935C35.2576 21.2946 35.0824 21.122 34.9152 20.9478C30.758 16.6564 26.5993 12.3667 22.4406 8.0753C22.3005 7.93067 22.1539 7.78932 22.0313 7.62825C21.6618 7.14668 21.692 6.48596 22.0918 6.06028C22.5091 5.61487 23.1733 5.57213 23.6575 5.96824C23.812 6.09479 23.9474 6.24765 24.0875 6.39228C27.1234 9.5233 30.1544 12.6576 33.1982 15.7788C33.4434 16.0319 33.7445 16.2735 34.0646 16.3918C34.5902 16.5841 35.1636 16.3014 35.4503 15.8149C35.7498 15.3054 35.7068 14.7039 35.2687 14.2321C34.4437 13.3446 33.59 12.485 32.749 11.6139C32.6088 11.4677 32.4623 11.3279 32.3412 11.1669C31.9462 10.6393 31.9892 9.99829 32.4368 9.55453C32.8732 9.12391 33.5342 9.08939 34.0025 9.52494C34.4899 9.97528 34.939 10.47 35.4041 10.9483C36.2467 11.8177 37.0845 12.6921 37.9334 13.555C38.5626 14.1943 39.2953 14.2437 39.8368 13.7078C40.3927 13.1589 40.3544 12.3568 39.7237 11.6994C38.8732 10.8086 38.0083 9.93255 37.1578 9.04173C36.5748 8.4336 36.5223 7.70221 37.008 7.19599C37.513 6.67005 38.1883 6.71278 38.7919 7.33076C40.0614 8.62919 41.3149 9.9457 42.5907 11.2375C43.3234 11.9788 44.3937 11.7684 44.7314 10.8414C44.9273 10.3056 44.7983 9.83065 44.4208 9.42961C43.9079 8.88559 43.3791 8.35964 42.8662 7.81726C42.3104 7.23051 42.2626 6.52048 42.7293 6.0159C43.2246 5.48009 43.9206 5.50639 44.5147 6.1178C46.7956 8.46155 49.0908 10.7905 51.3381 13.1671C53.8945 15.8708 54.1446 19.365 52.0151 22.8494Z" fill="black" stroke="black" stroke-linejoin="round"/>
</g>
<defs>
<clipPath id="clip0_1805_836">
<rect width="58" height="66" fill="white"/>
</clipPath>
</defs>
</svg>
