<svg width="166" height="182" viewBox="0 0 166 182" fill="none" xmlns="http://www.w3.org/2000/svg">
<path d="M113.556 154.26C113.463 155.523 112.128 166.766 110.329 181.964H84.3017L85.1012 165.632L83.5236 165.976C83.5236 165.976 81.9602 172.961 79.9971 182H53.584L57.0462 148.402L58.7524 135.645L59.5091 129.973L85.4796 132.069H85.6794L112.093 134.223C112.093 134.223 112.285 134.941 112.535 136.319C113.643 142.23 113.986 148.261 113.556 154.26V154.26Z" fill="#455A64"/>
<path d="M82.0596 154.31C82.3078 154.492 82.5761 154.643 82.8591 154.763C83.6149 155.15 84.4194 155.432 85.2506 155.603C85.8382 155.711 86.4405 155.711 87.0281 155.603C87.7195 155.488 88.3638 155.177 88.8841 154.705C89.4232 154.154 89.8096 153.471 90.0049 152.724C90.2333 152.006 90.3618 151.187 90.526 150.398C91.14 147.203 91.554 144.288 91.7967 142.17C91.9181 141.115 92.0037 140.254 92.0466 139.658C92.0838 139.35 92.0838 139.039 92.0466 138.732C91.9512 139.027 91.8913 139.333 91.8681 139.643C91.761 140.318 91.6397 141.151 91.4898 142.135C91.1757 144.231 90.7116 147.16 90.1049 150.319C89.7908 151.891 89.5766 153.492 88.5986 154.432C88.1435 154.817 87.6086 155.095 87.033 155.245C86.4575 155.396 85.8558 155.415 85.272 155.301C84.457 155.155 83.6617 154.914 82.9019 154.583C82.6321 154.461 82.3495 154.37 82.0596 154.31V154.31Z" fill="#263238"/>
<path d="M87.8557 139.306C87.8557 139.306 87.7343 139.205 87.463 139.184C87.0749 139.178 86.6959 139.302 86.3851 139.536C86.145 139.705 85.9468 139.928 85.8057 140.187C85.6646 140.446 85.5844 140.734 85.5713 141.029C85.5831 141.4 85.7078 141.759 85.9286 142.057C86.1494 142.355 86.4558 142.577 86.8063 142.694C87.1468 142.84 87.5238 142.876 87.8855 142.798C88.2472 142.719 88.576 142.53 88.8265 142.256C89.0099 142.025 89.1382 141.755 89.2013 141.466C89.2644 141.177 89.2607 140.878 89.1906 140.591C89.1133 140.211 88.9093 139.869 88.6124 139.622C88.3911 139.449 88.2412 139.428 88.234 139.442C88.5819 139.761 88.8195 140.184 88.9122 140.648C88.9521 140.889 88.9396 141.136 88.8756 141.371C88.8115 141.607 88.6973 141.826 88.541 142.012C88.3372 142.219 88.0759 142.358 87.7917 142.412C87.5074 142.466 87.2135 142.432 86.9491 142.314C86.6725 142.227 86.4287 142.057 86.2502 141.828C86.0717 141.598 85.9669 141.32 85.9496 141.029C85.9551 140.786 86.0128 140.547 86.1188 140.329C86.2248 140.111 86.3765 139.919 86.5636 139.765C86.9326 139.474 87.3866 139.313 87.8557 139.306V139.306Z" fill="#263238"/>
<path d="M57.3164 147.282C57.5256 147.354 57.7451 147.39 57.966 147.39C58.5697 147.432 59.1756 147.432 59.7793 147.39C61.7763 147.271 63.7388 146.812 65.583 146.033C67.4195 145.25 69.1096 144.158 70.5801 142.802C71.0234 142.401 71.4385 141.969 71.8222 141.51C72.0863 141.173 72.2291 140.986 72.2077 140.964C72.1863 140.943 71.4938 141.632 70.3802 142.608C68.8753 143.874 67.1911 144.908 65.3831 145.674C63.5758 146.435 61.6652 146.919 59.715 147.11C58.2587 147.26 57.3164 147.21 57.3164 147.282Z" fill="#263238"/>
<path d="M102.833 139.026C103.076 139.726 103.412 140.39 103.832 141C104.776 142.52 105.898 143.92 107.173 145.171C108.453 146.419 109.877 147.508 111.414 148.416C112.035 148.821 112.707 149.139 113.413 149.364C113.413 149.306 112.699 148.911 111.571 148.165C110.098 147.204 108.721 146.103 107.459 144.877C106.207 143.643 105.074 142.292 104.075 140.842C103.694 140.214 103.28 139.608 102.833 139.026V139.026Z" fill="#263238"/>
<path d="M89.8694 4.22454L89.0985 4.18144C85.3586 3.96625 81.6757 5.17711 78.7844 7.57238C75.8932 9.96765 74.0064 13.3712 73.5005 17.1038C72.5082 24.2829 71.5016 32.2445 71.3589 36.114C70.9948 44.1474 78.9044 45.856 78.9044 45.856L78.6189 49.1153C78.5074 50.3967 78.6487 51.6876 79.0347 52.9139C79.4208 54.1402 80.044 55.2777 80.8686 56.261C81.6931 57.2443 82.7028 58.0541 83.8395 58.6438C84.9762 59.2335 86.2175 59.5915 87.4923 59.6973V59.6973C90.0348 59.9072 92.5573 59.1023 94.5144 57.4566C96.4714 55.8108 97.7057 53.4566 97.9504 50.9029L100.806 21.1169C101.948 12.7964 98.1431 5.19371 89.8694 4.22454Z" fill="#FFBF9D"/>
<path d="M78.8112 45.8125C82.515 46.0287 86.2023 45.1689 89.4336 43.3357C89.4336 43.3357 86.6495 48.9713 78.7256 47.7867L78.8112 45.8125Z" fill="#FF9A6C"/>
<path d="M75.7277 24.5267C75.7097 24.8253 75.8074 25.1192 76.0005 25.3468C76.1935 25.5744 76.4668 25.7179 76.7628 25.7471C76.9075 25.7672 77.0547 25.7578 77.1958 25.7197C77.3368 25.6815 77.4688 25.6153 77.5839 25.5249C77.6991 25.4346 77.795 25.3219 77.8661 25.1936C77.9372 25.0653 77.982 24.9239 77.9978 24.7779C78.0177 24.4789 77.9206 24.1839 77.7272 23.9559C77.5338 23.7279 77.2594 23.5849 76.9627 23.5575C76.8182 23.5384 76.6713 23.5485 76.5306 23.587C76.39 23.6256 76.2584 23.6919 76.1435 23.7821C76.0285 23.8723 75.9326 23.9845 75.8612 24.1124C75.7898 24.2402 75.7445 24.381 75.7277 24.5267Z" fill="#263238"/>
<path d="M74.9855 21.095C75.1211 21.2529 76.0206 20.657 77.2485 20.7288C78.4763 20.8006 79.333 21.4467 79.4757 21.3319C79.6185 21.217 79.4186 20.9873 79.0403 20.6786C78.534 20.2764 77.9145 20.0452 77.2699 20.0181C76.6305 19.9752 75.9944 20.1414 75.4567 20.4919C75.064 20.7575 74.9213 21.0232 74.9855 21.095Z" fill="#263238"/>
<path d="M86.3283 25.2805C86.3102 25.5791 86.408 25.8731 86.601 26.1007C86.7941 26.3283 87.0674 26.4718 87.3634 26.501C87.5075 26.5211 87.6542 26.512 87.7948 26.4743C87.9354 26.4365 88.0672 26.3709 88.1822 26.2813C88.2973 26.1917 88.3933 26.0799 88.4648 25.9524C88.5363 25.8249 88.5817 25.6843 88.5984 25.5389C88.6183 25.2399 88.5211 24.9449 88.3278 24.7169C88.1344 24.4889 87.86 24.3459 87.5633 24.3185C87.4191 24.2984 87.2724 24.3075 87.1318 24.3452C86.9912 24.3829 86.8595 24.4485 86.7445 24.5381C86.6294 24.6277 86.5333 24.7396 86.4619 24.8671C86.3904 24.9946 86.345 25.1351 86.3283 25.2805V25.2805Z" fill="#263238"/>
<path d="M87.0289 22.05C87.1574 22.208 88.0569 21.6121 89.2848 21.6911C90.5126 21.77 91.3692 22.409 91.512 22.2869C91.6548 22.1649 91.4549 21.9495 91.0766 21.6336C90.5671 21.2373 89.9494 21.0069 89.3062 20.9732C88.6669 20.9312 88.0311 21.0974 87.4929 21.447C87.1075 21.6839 86.9575 21.9495 87.0289 22.05Z" fill="#263238"/>
<path d="M82.0524 30.9018C81.4167 30.6655 80.7553 30.5065 80.0821 30.428C79.768 30.3778 79.4753 30.2988 79.4396 30.0834C79.4271 29.7543 79.5197 29.4298 79.7037 29.1573L80.7603 26.817C82.2451 23.4787 83.3373 20.7219 83.2017 20.6645C83.066 20.6071 81.7739 23.2633 80.2748 26.6016C79.9179 27.4272 79.561 28.2097 79.254 28.9635C79.0317 29.3311 78.9481 29.7667 79.0184 30.1911C79.0582 30.3036 79.1224 30.4058 79.2064 30.4903C79.2904 30.5747 79.392 30.6393 79.5038 30.6793C79.6755 30.7345 79.8526 30.7706 80.0321 30.787C80.6978 30.9127 81.3768 30.9513 82.0524 30.9018V30.9018Z" fill="#263238"/>
<path d="M86.9848 17.1682C87.0847 17.5128 88.3197 17.4266 89.7474 17.6851C91.1752 17.9435 92.3173 18.403 92.5244 18.1086C92.6172 17.9722 92.4316 17.642 91.9818 17.2902C91.3805 16.8536 90.6864 16.5635 89.9544 16.4431C89.2236 16.3116 88.472 16.3583 87.7629 16.5795C87.2203 16.759 86.9419 17.0246 86.9848 17.1682Z" fill="#263238"/>
<path d="M75.642 17.5485C75.8418 17.8428 76.7056 17.5987 77.7193 17.649C78.733 17.6993 79.5825 17.9433 79.7967 17.649C79.8966 17.5126 79.7967 17.2183 79.4112 16.9311C78.9309 16.575 78.3517 16.3792 77.755 16.3711C77.1569 16.349 76.5664 16.5119 76.0631 16.8378C75.6919 17.1249 75.5563 17.4121 75.642 17.5485Z" fill="#263238"/>
<path d="M74.4785 13.4352C74.4785 13.4352 76.87 8.5319 79.3399 7.49811C82.3382 6.24895 83.409 9.53697 86.2359 8.93393C89.0628 8.33088 91.9468 7.11043 94.6381 9.43645C97.6078 11.985 96.0658 13.5573 96.0658 17.1253C96.023 31.6055 98.4073 35.8339 99.5424 29.0784C99.6709 28.3605 101.755 27.8652 102.241 24.771C102.869 20.7076 103.312 15.7684 102.569 12.8178C101.948 10.3339 100.656 8.56778 98.286 6.56482C94.5382 3.40602 89.1556 3.03272 85.4863 3.19066C81.8171 3.3486 74.4999 7.12479 74.4785 13.4352Z" fill="#263238"/>
<path d="M99.0275 28.8199C99.0497 28.5244 99.1323 28.2367 99.2702 27.9748C99.408 27.7128 99.5982 27.4823 99.8287 27.2977C100.059 27.1131 100.325 26.9783 100.61 26.9017C100.894 26.8252 101.192 26.8085 101.483 26.8528C102.961 27.0826 104.567 28.0302 104.296 31.1172C103.81 36.5877 98.4421 34.9652 98.4492 34.8072C98.4564 34.6493 98.799 31.11 99.0275 28.8199Z" fill="#FFBF9D"/>
<path d="M99.8128 32.8544C99.8128 32.8544 99.9056 32.9333 100.056 33.0195C100.274 33.1373 100.53 33.1656 100.769 33.0985C101.369 32.9405 101.933 32.0647 102.047 31.0811C102.104 30.612 102.055 30.1361 101.904 29.6884C101.869 29.5125 101.791 29.348 101.678 29.2092C101.564 29.0704 101.419 28.9613 101.255 28.8915C101.147 28.8554 101.031 28.857 100.925 28.8962C100.818 28.9353 100.728 29.0096 100.669 29.1069C100.584 29.2505 100.612 29.3654 100.584 29.3725C100.555 29.3797 100.47 29.272 100.534 29.0495C100.578 28.9161 100.666 28.802 100.784 28.7264C100.943 28.6255 101.135 28.592 101.319 28.6331C101.538 28.6979 101.736 28.8175 101.896 28.9808C102.056 29.1441 102.172 29.3456 102.233 29.5664C102.422 30.0621 102.488 30.5969 102.426 31.1242C102.29 32.2226 101.64 33.2062 100.834 33.3641C100.683 33.3935 100.529 33.3888 100.38 33.3503C100.232 33.3118 100.094 33.2404 99.977 33.1416C99.8128 32.9908 99.7985 32.8687 99.8128 32.8544Z" fill="#FF9A6C"/>
<path d="M103.454 11.583C103.054 10.2405 102.154 8.35958 101.062 7.49091C99.3346 6.11971 98.7706 6.40687 98.7706 6.40687C98.7282 5.76277 98.5518 5.1348 98.253 4.5635C97.9542 3.9922 97.5396 3.49028 97.036 3.09013C96.4432 2.66282 95.7484 2.40116 95.0223 2.3318C94.2962 2.26244 93.5648 2.38787 92.9027 2.69529C92.4544 1.83392 91.7674 1.12179 90.9248 0.645218C90.0822 0.16865 89.1202 -0.0519094 88.1555 0.0103007C85.3928 0.0103007 84.6861 1.40306 82.8657 1.59689C81.7449 1.71176 80.5528 1.20204 79.5034 1.59689C77.7259 2.3148 77.6616 4.94233 76.1411 6.11252C75.313 6.75146 74.1565 6.83045 73.2856 7.47656C71.7865 8.61086 72.0863 11.2886 73.6925 12.265C73.9403 12.4163 74.2101 12.5277 74.492 12.5952L74.7704 12.6599H74.8347C75.5626 12.749 76.3006 12.6282 76.9629 12.3118C77.6251 11.9953 78.1844 11.496 78.5754 10.8723C78.887 11.1292 79.2523 11.3121 79.6441 11.4072C80.0358 11.5024 80.4439 11.5073 80.8378 11.4218C81.2317 11.3362 81.6013 11.1622 81.9191 10.913C82.2369 10.6637 82.4945 10.3455 82.6729 9.98206C83.5153 11.0015 85.0858 11.023 86.328 10.5851C87.5701 10.1472 88.6623 9.33593 89.8973 8.91954C91.1452 8.51048 92.49 8.51048 93.7379 8.91954C92.8313 10.2907 93.9306 12.2866 95.0014 14.4331C95.3155 15.0577 95.7153 15.6966 96.0294 16.3427C96.3662 16.9596 96.6689 17.5947 96.936 18.2452C97.4429 19.5231 98.8777 20.5497 100.177 20.1117C100.436 20.0308 100.679 19.9017 100.891 19.7312C101.241 19.4434 101.532 19.0899 101.747 18.6903C101.961 18.3305 102.149 17.9563 102.311 17.5704C102.497 17.154 102.683 16.7232 102.861 16.2853C102.875 16.2411 102.891 16.1979 102.911 16.1561C103.586 14.733 103.777 13.1259 103.454 11.583V11.583Z" fill="#263238"/>
<path d="M102.869 16.3065C102.617 16.7028 102.407 17.1237 102.24 17.5629C102.046 18.0067 101.735 18.3889 101.341 18.6685C100.821 18.9427 100.218 19.0143 99.649 18.8695C99.0613 18.751 98.5061 18.5061 98.0214 18.1516C97.6278 17.8475 97.2687 17.5009 96.9506 17.1178C96.6771 16.7376 96.3739 16.3799 96.0439 16.0481C96.2155 16.4885 96.4566 16.8981 96.7578 17.2613C97.0638 17.685 97.4238 18.0663 97.8286 18.3956C98.3444 18.7847 98.9432 19.0477 99.5776 19.1638C100.225 19.3264 100.909 19.2339 101.491 18.9054C101.921 18.5834 102.249 18.1417 102.433 17.6347C102.637 17.2138 102.784 16.767 102.869 16.3065V16.3065Z" fill="#455A64"/>
<path d="M102.67 20.5639C102.338 20.8112 101.975 21.014 101.592 21.167C101.17 21.2999 100.724 21.3391 100.285 21.2819C99.7511 21.198 99.2403 21.0024 98.7861 20.7075C97.9681 20.1332 97.2716 19.4011 96.7373 18.5538C96.5377 18.184 96.2983 17.8373 96.0234 17.52C96.1483 17.9307 96.3336 18.3203 96.5731 18.6758C97.0666 19.6077 97.7769 20.4057 98.6433 21.0019C99.1335 21.3281 99.6939 21.5323 100.278 21.5977C100.763 21.6538 101.253 21.5871 101.706 21.4039C102.441 21.0665 102.698 20.6142 102.67 20.5639Z" fill="#455A64"/>
<path d="M85.5368 32.9192C85.718 33.5183 85.8212 34.1384 85.8438 34.7642C85.8618 35.0611 85.8184 35.3586 85.7165 35.6378C85.6145 35.9171 85.4561 36.1721 85.2513 36.3867C85.0331 36.6444 84.7617 36.8512 84.456 36.9925C84.1502 37.1339 83.8174 37.2064 83.4809 37.2051V37.2051C82.876 37.2044 82.2911 36.9873 81.8308 36.5928C81.3704 36.1982 81.0646 35.6518 80.9681 35.0514L80.7539 33.6945C82.0175 33.314 85.4369 33.0125 85.5368 32.9192Z" fill="#FF9A6C"/>
<path d="M82.1802 36.8102C82.1802 36.8102 82.3372 36.8102 82.6156 36.8533C82.9962 36.9166 83.3844 36.9166 83.765 36.8533C84.3262 36.7655 84.835 36.4713 85.1927 36.0277C85.5995 35.4734 85.7946 34.7906 85.7424 34.1037C85.7223 33.7164 85.6226 33.3375 85.4497 32.9909L85.621 33.0699C84.3932 33.2565 83.3224 33.4073 82.5514 33.5006C82.1451 33.5822 81.73 33.6111 81.3164 33.5868C81.707 33.4459 82.1115 33.3472 82.5228 33.2924C83.2795 33.1417 84.3432 32.955 85.571 32.7468H85.6853L85.7352 32.8473C85.9369 33.2343 86.0537 33.6603 86.0779 34.0965C86.1407 34.8713 85.9085 35.6411 85.4283 36.2502C85.0257 36.7379 84.449 37.0472 83.8221 37.1117C83.414 37.1552 83.0014 37.1161 82.6085 36.9969C82.3158 36.9035 82.173 36.8317 82.1802 36.8102Z" fill="#263238"/>
<path d="M99.6633 29.4513C99.7285 29.3126 99.821 29.1886 99.9352 29.0869C100.049 28.9852 100.183 28.9078 100.328 28.8595C100.473 28.8111 100.626 28.7929 100.778 28.8058C100.93 28.8187 101.078 28.8624 101.212 28.9344C101.833 29.279 101.926 29.7816 102.119 30.4708C102.184 30.7106 102.201 30.9609 102.169 31.2073C102.137 31.4538 102.057 31.6915 101.933 31.9066C101.8 32.1219 101.603 32.2892 101.37 32.3847C101.136 32.4801 100.879 32.4987 100.634 32.4378C100.39 32.3267 100.175 32.1598 100.007 31.9504C99.8382 31.741 99.7206 31.4949 99.6633 31.2318C99.4404 30.6594 99.4404 30.0236 99.6633 29.4513Z" fill="#455A64"/>
<path d="M89.9486 38.9781C91.6403 38.9831 93.3132 38.6207 94.8528 37.9156C96.389 37.2024 97.7565 36.1683 98.8643 34.8821C99.9721 33.596 100.795 32.0873 101.278 30.4565L100.371 30.1909C99.9283 31.6909 99.1737 33.0791 98.1571 34.2635C97.1406 35.448 95.8853 36.4017 94.4745 37.0613C93.0562 37.7037 91.5184 38.0359 89.9629 38.0359C88.4073 38.0359 86.8695 37.7037 85.4512 37.0613L85.0586 37.9156C86.5939 38.6187 88.2616 38.9811 89.9486 38.9781V38.9781Z" fill="#455A64"/>
<path d="M86.2799 39.4586L83.6112 38.9306C83.3158 38.8722 83.0556 38.6981 82.8878 38.4468C82.7201 38.1954 82.6585 37.8873 82.7166 37.5903L82.8654 36.8295C82.9235 36.5325 83.0966 36.2708 83.3465 36.1021C83.5965 35.9334 83.9028 35.8714 84.1982 35.9298L86.8599 36.4564C87.1571 36.5153 87.4189 36.6904 87.5878 36.9433C87.7566 37.1963 87.8186 37.5063 87.7601 37.8052L87.6113 38.566C87.5516 38.8614 87.378 39.1211 87.1286 39.2884C86.8791 39.4556 86.574 39.5168 86.2799 39.4586V39.4586Z" fill="#455A64"/>
<path d="M99.7421 30.3705C99.2681 29.9134 98.8959 29.3604 98.6499 28.748C98.5304 28.4423 98.48 28.1136 98.5022 27.7859C98.5244 27.4581 98.6187 27.1394 98.7784 26.8528C99.1096 26.3875 99.5797 26.0405 100.12 25.8621C100.57 25.6639 101.058 25.5706 101.548 25.5893C101.796 25.6012 102.038 25.6663 102.258 25.7802C102.479 25.8941 102.672 26.0542 102.826 26.2497C102.909 26.3478 102.961 26.4691 102.974 26.5974C102.986 26.7258 102.96 26.855 102.897 26.9676C102.705 27.2117 102.333 27.1471 102.034 27.0681C101.632 26.9431 101.211 26.892 100.791 26.9174C100.583 26.9327 100.38 26.9941 100.197 27.0971C100.015 27.2 99.8569 27.3421 99.735 27.5132C99.6174 27.7263 99.5558 27.966 99.5558 28.2096C99.5558 28.4533 99.6174 28.6929 99.735 28.906C99.9769 29.3247 100.288 29.6986 100.656 30.0116L99.7421 30.3705Z" fill="#455A64"/>
<path d="M118.032 59.4961C118.503 59.4961 125.256 62.2098 127.034 68.8863C128.811 75.5629 133.665 99.9861 133.665 99.9861L138.812 107.165C138.812 107.165 137.142 120.267 127.669 117.776C127.669 117.776 121.344 118.889 119.331 112.442C117.318 105.995 113.413 86.7623 113.413 86.7623L118.032 59.4961Z" fill="white"/>
<path d="M98.314 48.3108L101.883 53.7525L118.024 59.4958L113.405 106.548L115.133 131.215C115.187 131.993 115.078 132.774 114.814 133.507C114.549 134.239 114.133 134.908 113.595 135.469C113.056 136.031 112.407 136.472 111.688 136.764C110.969 137.056 110.197 137.193 109.422 137.166L58.7372 135.659C57.4665 135.623 56.874 134.007 56.667 132.27C56.4885 130.703 56.6245 129.117 57.0667 127.604L59.7437 118.17C59.344 124.036 61.0929 83.1581 61.1715 81.6648L57.2595 60.6301L75.6201 53.1639L78.4756 48.7487L86.735 55.0663L98.314 48.3108Z" fill="white"/>
<path d="M57.2669 60.6304C57.2669 60.6304 53.5763 63.8897 52.9837 66.3736C52.3912 68.8576 39.0919 97.7893 39.0919 97.7893L32.4958 99.5841L30.7397 103.253C29.7066 105.361 29.4265 107.763 29.9465 110.055C30.4665 112.346 31.7548 114.388 33.5951 115.838C33.8378 116.017 34.0734 116.182 34.309 116.319C37.8783 118.472 44.3031 118.365 48.0152 113.935C51.5489 109.742 61.8999 94.6521 61.8999 94.6521V76.1946L57.2669 60.6304Z" fill="white"/>
<path d="M35.6367 100.711L26.1352 95.0825L21.5664 100.711L22.5087 103.439L34.7373 112.564C36.2506 111.315 37.2646 109.558 37.5927 107.617C38.1638 104.2 35.6367 100.711 35.6367 100.711Z" fill="#FFBF9D"/>
<path d="M38.6494 97.8034C38.6494 97.8895 39.4561 97.8034 40.6482 98.2054C42.1895 98.7375 43.5537 99.6893 44.5888 100.955C45.6124 102.243 46.4555 103.665 47.0945 105.183C47.3328 105.836 47.634 106.464 47.9939 107.057C47.8942 106.366 47.6996 105.692 47.4157 105.054C46.8526 103.451 46.0222 101.955 44.96 100.632C43.8693 99.2968 42.3962 98.3318 40.741 97.868C40.0638 97.6488 39.3388 97.6264 38.6494 97.8034Z" fill="#263238"/>
<path d="M26.3137 98.2057C26.547 96.9603 26.4603 95.6756 26.0618 94.4733C25.6633 93.271 24.9662 92.1909 24.0365 91.3353C21.7966 89.4857 19.2625 88.0295 16.5409 87.0279C14.8776 86.31 11.4153 83.3737 10.8299 84.0773C10.4634 84.4986 10.2614 85.0394 10.2614 85.5992C10.2614 86.159 10.4634 86.6998 10.8299 87.1212C11.7009 88.3991 16.7193 90.3159 16.0198 91.9312C15.7342 92.5988 14.1566 92.7137 14.1566 92.7137C14.1566 92.7137 8.11012 93.1085 5.59017 92.886C3.07022 92.6634 0.771569 93.1516 0.907204 94.0346C1.04284 94.9177 1.52113 95.3987 3.61989 95.5781C5.71866 95.7576 9.13808 95.6212 9.33083 96.1022C9.52357 96.5832 8.80257 96.8991 7.57472 96.8201C6.34687 96.7412 0.571682 96.7268 0.171917 97.3873C0.076422 97.5555 0.019088 97.7428 0.00401038 97.9359C-0.0110672 98.129 0.0164864 98.323 0.0847038 98.5041C0.152921 98.6852 0.260115 98.8489 0.398605 98.9835C0.537096 99.1181 0.703456 99.2202 0.885783 99.2826L2.24927 99.7707C2.24927 99.7707 1.45688 100.869 2.11363 101.487C2.77039 102.104 4.25523 101.881 4.25523 101.881L11.9222 101.666C11.9222 101.666 12.3576 102.125 12.1435 102.449C11.9293 102.772 5.91855 102.326 5.87572 102.987C5.83288 103.647 5.30462 103.956 7.10356 104.423C9.72937 104.86 12.4088 104.86 15.0346 104.423C16.6551 103.985 23.444 103.705 23.444 103.705L26.3137 98.2057Z" fill="#FFBF9D"/>
<path d="M130.481 101.738L139.348 94.3362L144.445 100.079L143.816 102.894L132.73 113.397C131.08 112.442 129.84 110.908 129.246 109.089C128.147 105.952 130.481 101.738 130.481 101.738Z" fill="#FFBF9D"/>
<path d="M139.455 98.1482C139.076 96.9387 139.012 95.6517 139.268 94.4101C139.524 93.1684 140.093 92.0134 140.919 91.0553C142.929 88.9576 145.274 87.2129 147.857 85.8935C149.428 84.9531 152.526 81.6579 153.219 82.304C153.63 82.6787 153.893 83.1909 153.957 83.7455C154.021 84.3001 153.883 84.8593 153.568 85.3192C152.855 86.6904 149.399 88.2986 149.521 90.0574C149.532 90.2325 149.579 90.4034 149.657 90.5599C149.736 90.7165 149.845 90.8556 149.979 90.9688C150.112 91.082 150.266 91.1671 150.433 91.219C150.6 91.2708 150.775 91.2884 150.948 91.2707C150.948 91.2707 156.995 90.9548 159.515 90.4379C162.035 89.921 164.333 90.1364 164.305 91.0266C164.276 91.9168 163.855 92.4624 161.785 92.8716C159.715 93.2808 156.31 93.5895 156.188 94.0705C156.067 94.5515 156.802 94.7884 158.009 94.5587C159.215 94.329 164.962 93.6541 165.433 94.2644C165.546 94.4193 165.625 94.5975 165.662 94.7863C165.7 94.9751 165.696 95.1699 165.65 95.3569C165.604 95.5439 165.518 95.7185 165.398 95.8684C165.278 96.0183 165.127 96.1398 164.955 96.2243L163.662 96.8704C163.662 96.8704 164.569 97.8683 163.991 98.5575C163.413 99.2466 161.906 99.2036 161.906 99.2036L154.268 99.8856C154.268 99.8856 153.882 100.395 154.139 100.69C154.396 100.984 160.3 99.8353 160.421 100.489C160.543 101.142 161.135 101.386 159.365 102.032C156.816 102.775 154.163 103.088 151.512 102.958C149.856 102.714 143.075 103.202 143.075 103.202L139.455 98.1482Z" fill="#FFBF9D"/>
<path d="M76.1064 54.5066C76.5837 55.111 77.1167 55.6686 77.6984 56.1721C78.7049 57.17 80.0898 58.5556 81.5604 60.1494L82.4599 61.1401L82.6526 61.3554L82.8311 61.1257C83.9661 59.6899 84.9727 58.3618 85.6294 57.4141C86.0337 56.932 86.381 56.4044 86.6645 55.8419C86.1857 56.2515 85.7568 56.7165 85.3867 57.2275C84.63 58.1177 83.602 59.3812 82.4527 60.817H82.8168L81.9173 59.8119C80.6583 58.4456 79.3287 57.1468 77.9339 55.9209C77.385 55.3755 76.7712 54.9005 76.1064 54.5066V54.5066Z" fill="#263238"/>
<path d="M116.982 71.9734C116.851 72.2927 116.762 72.6283 116.718 72.9713C116.575 73.6174 116.411 74.5578 116.226 75.728C115.847 78.0612 115.447 81.3134 115.119 84.9029C114.791 88.4924 114.548 91.7518 114.37 94.1065C114.291 95.1977 114.22 96.131 114.17 96.8992C114.124 97.2398 114.124 97.5851 114.17 97.9258C114.274 97.5994 114.341 97.2622 114.37 96.9207C114.469 96.2674 114.591 95.3126 114.726 94.1424C114.998 91.7876 115.29 88.5355 115.626 84.946C115.961 81.3564 116.29 78.1187 116.582 75.7783C116.711 74.6871 116.825 73.761 116.918 73C116.976 72.6611 116.998 72.3169 116.982 71.9734V71.9734Z" fill="#263238"/>
<path d="M60.8794 70.3293C60.7793 70.7411 60.7218 71.1621 60.708 71.5857C60.6224 72.3969 60.5367 73.5671 60.4653 75.0173C60.3011 77.9248 60.2226 81.9379 60.2083 86.3746V101.164C60.181 101.586 60.2002 102.009 60.2654 102.427C60.348 102.011 60.3934 101.588 60.4011 101.164C60.4582 100.352 60.5081 99.1821 60.5581 97.7247C60.6581 94.8531 60.6937 90.8041 60.7009 86.3746C60.708 81.9451 60.7366 77.932 60.808 75.0316C60.8437 73.6604 60.8722 72.5046 60.9008 71.6C60.9395 71.1769 60.9323 70.7509 60.8794 70.3293Z" fill="#263238"/>
<path d="M124.263 111.939C124.478 111.117 124.642 110.283 124.756 109.441C125.092 107.438 125.738 105.5 126.669 103.698C127.626 101.922 129.064 100.456 130.816 99.4693C131.572 99.1154 132.349 98.8109 133.144 98.5576C132.909 98.503 132.665 98.503 132.43 98.5576C131.807 98.6608 131.201 98.8517 130.631 99.1247C128.749 100.065 127.205 101.57 126.212 103.432C125.249 105.276 124.63 107.28 124.384 109.348C124.227 110.202 124.187 111.074 124.263 111.939V111.939Z" fill="#263238"/>
<path d="M121.958 102.197C122.058 102.312 123.485 100.833 125.806 100.044C128.126 99.254 130.139 99.5196 130.153 99.3688C130.167 99.2181 128.09 98.7227 125.649 99.577C123.207 100.431 121.844 102.14 121.958 102.197Z" fill="#263238"/>
<path d="M85.5724 135.702C85.6108 135.436 85.6275 135.167 85.6224 134.898C85.6224 134.323 85.6224 133.555 85.6795 132.586C85.7223 130.533 85.7795 127.64 85.8437 124.086C86.015 116.907 86.2435 106.978 86.5005 96.0445C86.7574 85.1108 86.9002 75.1677 86.8859 67.9887C86.8859 64.3991 86.8859 61.4916 86.8003 59.4815C86.8003 58.5195 86.7503 57.7441 86.736 57.177C86.7368 56.9055 86.7177 56.6344 86.6789 56.3657C86.6369 56.6339 86.6226 56.9058 86.6361 57.177C86.6361 57.7441 86.6361 58.5195 86.6361 59.4886C86.6361 61.5418 86.5933 64.435 86.5576 67.9887C86.4862 75.1677 86.2792 85.0821 86.0293 96.0373C85.7794 106.993 85.5796 116.9 85.5225 124.079C85.5225 127.668 85.5225 130.54 85.5225 132.586C85.5225 133.555 85.5225 134.323 85.5582 134.898C85.5412 135.166 85.546 135.435 85.5724 135.702V135.702Z" fill="#263238"/>
<path d="M130.917 101.408C130.332 101.831 129.881 102.414 129.618 103.088C129.266 103.796 129.011 104.55 128.861 105.327C128.716 106.279 128.716 107.247 128.861 108.199C128.967 109.154 129.248 110.082 129.689 110.934C130.075 111.627 130.606 112.227 131.245 112.693C131.804 113.161 132.51 113.415 133.237 113.411C132.604 113.149 132.005 112.812 131.452 112.406C130.89 111.939 130.426 111.363 130.089 110.712C129.707 109.897 129.465 109.023 129.375 108.127C129.25 107.227 129.25 106.314 129.375 105.414C129.494 104.673 129.702 103.95 129.996 103.26C130.269 102.626 130.577 102.008 130.917 101.408V101.408Z" fill="#263238"/>
<path d="M32.9811 113.59C32.9811 113.59 33.2024 113.59 33.5736 113.411C34.0851 113.182 34.565 112.888 35.0013 112.535C36.4851 111.361 37.4988 109.69 37.8568 107.826C38.2016 105.953 37.87 104.018 36.9216 102.37C36.6395 101.88 36.2991 101.427 35.908 101.02C35.6224 100.74 35.4439 100.611 35.4225 100.632C35.4011 100.654 35.9936 101.3 36.6147 102.535C37.4284 104.136 37.6967 105.962 37.3785 107.732C37.0156 109.491 36.0935 111.084 34.7515 112.269C33.7592 113.181 32.9383 113.511 32.9811 113.59Z" fill="#263238"/>
<path d="M69.21 91.9812C69.5965 92.2579 70.0075 92.4982 70.4378 92.6991C71.2373 93.137 72.4152 93.7473 73.8787 94.4795C76.8055 95.9153 80.896 97.8752 85.4861 99.8279C90.0763 101.781 94.3024 103.417 97.3863 104.487C98.9211 105.033 100.178 105.456 101.048 105.736C101.493 105.906 101.951 106.033 102.419 106.117C102 105.894 101.563 105.707 101.113 105.557L97.5219 104.157C94.4808 102.987 90.2833 101.328 85.7003 99.3757C81.1173 97.4229 77.0125 95.5492 74.05 94.1636C72.6222 93.5032 71.4515 92.9576 70.5449 92.5268C70.1166 92.3062 69.6699 92.1236 69.21 91.9812V91.9812Z" fill="#263238"/>
<path d="M14.7778 89.8059C14.7207 89.8633 15.1276 90.2581 15.6559 90.9617C15.9585 91.3588 16.1661 91.8206 16.2627 92.3113C16.3769 92.8641 16.3697 93.5174 16.4625 94.2282C16.5478 94.841 16.7533 95.4308 17.067 95.9632C17.3807 96.4956 17.7964 96.96 18.29 97.3295C18.6704 97.6716 19.152 97.8784 19.6607 97.9182C19.6607 97.8392 19.161 97.6382 18.5113 97.0567C17.6695 96.3151 17.1157 95.2979 16.948 94.1851C16.8552 93.5318 16.8552 92.857 16.7053 92.2396C16.5653 91.7047 16.2982 91.212 15.9271 90.8037C15.2918 90.0571 14.8135 89.7628 14.7778 89.8059Z" fill="#FF9A6C"/>
<path d="M153.039 97.3875C153.039 97.5168 155.423 97.646 158.372 97.5024C161.32 97.3588 163.683 97.007 163.669 96.8778C163.654 96.7486 161.277 96.8778 158.35 97.0142C155.423 97.1506 153.039 97.2439 153.039 97.3875Z" fill="#FF9A6C"/>
<path d="M147.606 96.9783C147.606 97.0286 148.177 96.9352 148.848 96.3609C149.285 95.981 149.633 95.5083 149.866 94.977C150.1 94.4457 150.213 93.8689 150.198 93.2883C150.147 92.6713 150.037 92.0606 149.869 91.4648C149.744 91.009 149.684 90.5377 149.691 90.0649C149.733 89.6302 149.831 89.203 149.984 88.7942C149.984 88.7439 149.462 89.1244 149.341 90.0362C149.287 90.5448 149.316 91.0589 149.427 91.5581C149.56 92.1327 149.655 92.7154 149.712 93.3026C149.73 94.3478 149.334 95.3572 148.613 96.1097C148.056 96.7127 147.571 96.9065 147.606 96.9783Z" fill="#FF9A6C"/>
<path d="M13.4074 98.6865C13.4074 98.5501 10.8518 98.6506 7.6965 98.9162C4.54121 99.1818 2.04268 99.4977 2.04982 99.6341C2.05696 99.7705 4.60546 99.6341 7.76075 99.4044C10.916 99.1746 13.4217 98.8229 13.4074 98.6865Z" fill="#FF9A6C"/>
<path d="M87.2217 55.3752C87.5083 56.3339 87.8712 57.2678 88.3067 58.1679C88.4924 58.6058 88.6922 59.0653 88.9064 59.5534C89.111 60.1038 89.3494 60.6409 89.6203 61.1616C89.7229 61.3344 89.8735 61.4734 90.0536 61.5614C90.2337 61.6494 90.4354 61.6826 90.634 61.6569C90.9818 61.5614 91.3054 61.3925 91.5834 61.1616L93.2681 59.9985C95.581 58.3976 97.6513 56.9259 99.1433 55.8419C99.9778 55.2964 100.764 54.6791 101.492 53.9968C100.602 54.4461 99.7497 54.9671 98.9434 55.5547C97.4086 56.5669 95.3026 57.9956 92.9897 59.5965L91.3121 60.7667C91.0901 60.9566 90.8329 61.1006 90.5554 61.1903C90.4427 61.2059 90.3279 61.1861 90.2269 61.1333C90.1259 61.0806 90.0436 60.9977 89.9915 60.8959C89.4418 59.9052 88.9921 58.8283 88.5637 58.0243C88.1921 57.1045 87.7431 56.2183 87.2217 55.3752V55.3752Z" fill="#263238"/>
</svg>
