<svg width="63" height="63" viewBox="0 0 63 63" fill="none" xmlns="http://www.w3.org/2000/svg">
<path d="M62.2254 0.00185132C51.9919 0.0228125 41.7578 0.0277364 31.523 0.0166393H24.2609C16.4481 0.0166393 8.63339 0.0258932 0.818687 0C0.127415 0 -0.0481767 0.19789 0.00912126 0.847069C0.0664192 1.49625 0.0220609 2.18241 0.0220609 2.85194C0.0220609 4.21873 0.0220619 4.25943 1.38058 4.20394C2.03858 4.1762 2.16057 4.38889 2.15687 5.00662C2.13099 9.43436 2.15687 13.8621 2.131 18.2898C2.131 18.8077 2.24928 18.9538 2.76866 18.9279C3.73533 18.8817 4.70755 18.878 5.67238 18.9279C6.22687 18.9575 6.34147 18.7781 6.33777 18.2491C6.31744 13.7992 6.33777 9.34744 6.31559 4.89751C6.31559 4.46094 6.5 4.20579 6.9699 4.20579C23.3127 4.22429 39.655 4.22429 55.9966 4.20579C56.6047 4.20579 56.6897 4.39073 56.686 4.93264C56.6638 9.06075 56.686 12.8645 56.686 17C56.686 27.2167 56.6731 37.7578 56.6731 47.9745C56.6731 48.5682 56.5918 49.1194 56.2147 49.5966C55.712 50.231 55.0299 50.4159 54.2536 50.414C50.1744 50.414 46.0933 50.4251 42.0141 50.3956C41.4244 50.3956 41.2747 50.5546 41.3098 51.1206C41.3598 52.0638 41.3487 53.0126 41.3098 53.9559C41.2895 54.446 41.3856 54.6235 41.9346 54.6198C46.1303 54.5939 50.326 54.6051 54.5198 54.6069C55.0731 54.6091 55.6245 54.542 56.1611 54.4071C59.0833 53.6673 60.9519 51.2204 60.9519 48.1096C60.9519 33.9965 60.9519 19.8823 60.9519 5.76677C60.9519 5.2674 60.7302 4.60713 61.0592 4.31306C61.3346 4.06892 61.9833 4.2132 62.4565 4.23539C62.8465 4.25389 62.9814 4.12995 62.9703 3.73231C62.9481 2.74097 62.9186 1.74594 62.9796 0.758296C63.0332 0.116515 62.8188 0.00185132 62.2254 0.00185132Z" fill="black"/>
<path d="M32.7873 37.9264C28.8634 38.9066 24.9468 39.9127 21.0172 40.8671C18.8547 41.3923 16.7254 42.0859 14.4465 42.0212C12.3523 41.962 10.2526 41.9805 8.16217 42.0212C3.887 42.11 0.277236 45.4964 0.103494 49.7669C-0.0480685 53.4493 0.0203162 57.1428 0.0424961 60.8308C0.0424961 62.2086 0.950024 62.9891 2.37878 62.9928C5.81295 62.9928 9.24713 62.9928 12.6813 62.9928C16.0453 62.9928 19.4098 62.9928 22.775 62.9928C24.3904 62.9928 25.2012 62.1864 25.2074 60.5737C25.2074 58.7242 25.2277 56.8746 25.2074 55.0399C25.1944 54.0467 25.577 53.3458 26.4199 52.8002C28.8079 51.2404 31.1812 49.6566 33.5396 48.0488C36.5505 45.9977 37.3712 42.2302 35.521 39.0897C34.8445 37.9652 34.0387 37.6138 32.7873 37.9264ZM32.329 43.0699C32.2181 43.7227 31.8429 44.1796 31.2939 44.5495C28.8412 46.177 26.3995 47.8231 23.9505 49.4581C22.0431 50.7306 21.093 52.5246 21.0579 54.805C21.0394 55.9573 21.0339 57.1114 21.0579 58.2636C21.069 58.6872 20.9544 58.8018 20.5256 58.7981C17.8991 58.7778 15.2745 58.787 12.648 58.787C10.0216 58.787 7.44132 58.787 4.83889 58.7981C4.3916 58.7981 4.20307 58.7445 4.20861 58.2211C4.24003 55.6632 4.20861 53.1053 4.2271 50.5456C4.24558 47.9859 6.0366 46.2233 8.59283 46.2103C10.9439 46.1992 13.2937 46.1949 15.6423 46.1974C17.7901 46.1974 19.8084 45.5186 21.8601 45.0193C25.163 44.2184 28.4623 43.3991 31.7504 42.5354C32.4066 42.3578 32.4066 42.6093 32.329 43.0699V43.0699Z" fill="black"/>
<path d="M22.1206 30.5135C22.1206 25.2701 17.9323 21.0181 12.7441 21.0088C10.2418 21.001 7.83866 21.9868 6.06203 23.75C4.2854 25.5132 3.28045 27.9098 3.26773 30.4136C3.26067 31.6597 3.49984 32.895 3.97152 34.0482C4.44319 35.2015 5.13805 36.2502 6.01614 37.1338C6.89423 38.0175 7.93822 38.7187 9.08809 39.1972C10.238 39.6757 11.471 39.922 12.7163 39.922C17.8565 39.9294 22.1132 35.6718 22.1206 30.5135ZM7.44123 30.3988C7.46216 29.0133 8.02882 27.692 9.01801 26.7223C10.0072 25.7525 11.339 25.2127 12.7237 25.2202C13.4159 25.2228 14.1006 25.3626 14.7385 25.6314C15.3764 25.9003 15.9547 26.2928 16.4402 26.7865C16.9256 27.2802 17.3085 27.8652 17.5669 28.5077C17.8252 29.1502 17.9538 29.8376 17.9452 30.5301C17.9296 31.9167 17.3652 33.2405 16.3756 34.2113C15.3861 35.1821 14.0522 35.7206 12.6664 35.7088C11.9739 35.7071 11.2885 35.5681 10.65 35.2996C10.0114 35.0312 9.43245 34.6387 8.94652 34.1449C8.46058 33.651 8.07733 33.0657 7.81895 32.4227C7.56057 31.7797 7.43219 31.0918 7.44123 30.3988Z" fill="black"/>
<path d="M52.9965 28.3124C52.9441 27.4218 52.9441 26.5293 52.9965 25.6387C53.0289 25.0977 52.8154 25.0035 52.2779 25.0052C48.1934 25.0244 44.1069 25.0157 40.0223 25.0157C35.9377 25.0157 31.8512 25.0314 27.7667 25C27.1148 25 26.9719 25.1745 27.0043 25.7243C27.0557 26.6353 27.0462 27.5515 27.0043 28.4625C26.9852 28.911 27.1586 29.007 27.6085 28.986C28.5805 28.9581 29.5545 28.986 30.5285 28.986C37.7713 28.986 45.0141 28.986 52.257 29C52.865 28.9983 53.027 28.8482 52.9965 28.3124Z" fill="black"/>
<path d="M43.4253 15.0001C40.7898 15.0212 38.1543 15.0107 35.5188 15.0107C32.8833 15.0107 30.201 15.0107 27.543 15.0001C27.1106 15.0001 26.9815 15.1004 27.0021 15.5106C27.0358 16.5177 27.032 17.5282 27.0021 18.537C26.9908 18.9208 27.1294 19 27.5112 19C32.8521 18.9894 38.193 18.9894 43.5339 19C43.9082 19 44.0056 18.9049 43.9981 18.5616C43.9737 17.5546 43.9644 16.5441 43.9981 15.5371C44.0187 15.0987 43.8764 14.9966 43.4253 15.0001Z" fill="black"/>
</svg>
