<svg width="99" height="94" viewBox="0 0 99 94" fill="none" xmlns="http://www.w3.org/2000/svg">
<path d="M99.0001 50.4034V34.2852H82.8818V82.64H99.0001V66.5217H93.6287V77.2686H88.2573V61.1503H96.3144V55.7748H88.2573V39.6606H93.6287V50.4034H99.0001Z" fill="#232323"/>
<path d="M46.2806 71.8929H51.652V82.6398H57.0234V42.3462C57.0234 37.904 53.4085 34.2891 48.9663 34.2891C44.5241 34.2891 40.9092 37.904 40.9092 42.3462V82.6398H46.2806V71.8929ZM46.2806 42.3462C46.2806 40.8668 47.4869 39.6605 48.9663 39.6605C50.4456 39.6605 51.652 40.8668 51.652 42.3462V66.5215H46.2806V42.3462Z" fill="#232323"/>
<path d="M8.05711 34.2852H0V82.6359H8.05711C12.4993 82.6359 16.1142 79.021 16.1142 74.5788V63.8319C16.1142 61.7698 15.3358 59.8869 14.0561 58.4605C15.3358 57.0341 16.1142 55.1513 16.1142 53.0891V42.3463C16.1183 37.9 12.5034 34.2852 8.05711 34.2852ZM10.7428 74.5788C10.7428 76.0582 9.53648 77.2645 8.05711 77.2645H5.3714V61.1462H8.05711C9.53648 61.1462 10.7428 62.3525 10.7428 63.8319V74.5788ZM10.7428 53.0891C10.7428 54.5685 9.53648 55.7748 8.05711 55.7748H5.3714V39.6566H8.05711C9.53648 39.6566 10.7428 40.8629 10.7428 42.3423V53.0891Z" fill="#232323"/>
<path d="M65.6872 24.5748C65.8951 24.6074 66.107 24.6277 66.3189 24.64C67.2074 28.4586 70.5981 31.181 74.5676 31.181C79.238 31.181 83.0404 27.3786 83.0404 22.7082C83.0404 21.0903 82.5839 19.5212 81.7159 18.1601C81.1698 17.3042 80.4851 16.5625 79.6782 15.9512C79.7067 15.6455 79.723 15.3399 79.723 15.0383C79.723 9.65873 75.3582 5.27766 69.9868 5.25321C67.9817 2.0051 64.4483 0 60.6826 0C56.0244 0 51.8227 3.02396 50.3148 7.40503C45.1472 7.66178 41.0188 11.9532 41.0188 17.1779C41.0188 22.3374 44.9393 26.535 50.0254 26.9304C50.9179 29.9054 53.6363 31.9472 56.7825 31.9472H60.0184C61.5344 31.9472 62.7937 33.0679 63.0138 34.5269V74.5801C63.0138 81.9811 56.9985 88.0005 49.6016 88.0127C42.2047 88.0045 36.1894 81.9811 36.1894 74.5801C36.1894 72.518 35.411 70.6351 34.1313 69.2087C35.411 67.7823 36.1894 65.8995 36.1894 63.8373V42.3476C36.1894 37.9054 32.5745 34.2906 28.1323 34.2906H20.0752V82.6413H25.4466V71.8944H28.1323C29.6117 71.8944 30.818 73.1007 30.818 74.5801C30.818 84.9357 39.2337 93.3637 49.5853 93.3841C49.5934 93.3841 49.5975 93.3841 49.6016 93.3841C49.6057 93.3841 49.6138 93.3841 49.6179 93.3841C59.9694 93.3637 68.3852 84.9357 68.3852 74.5801V39.6579H71.0709C72.5503 39.6579 73.7566 40.8642 73.7566 42.3436V82.6372H79.128V42.3436C79.128 37.9014 75.5131 34.2865 71.0709 34.2865H67.2441C66.8936 30.6064 63.7881 27.7169 60.0184 27.7169H56.7784C55.2216 27.7169 53.9501 26.4494 53.9501 24.8886C53.9501 23.3277 55.2175 22.0602 56.7784 22.0602C57.944 22.0602 58.8935 21.1107 58.8935 19.9451C58.8935 18.7795 57.944 17.8299 56.7784 17.8299C53.7055 17.8299 51.0198 19.7984 50.0743 22.6797C47.3316 22.3251 45.245 19.9899 45.245 17.1738C45.245 14.5003 47.1767 12.2181 49.7483 11.7209C49.7605 11.9247 49.7809 12.1284 49.8054 12.3281C49.948 13.4693 50.9954 14.3088 52.1691 14.1621C52.7315 14.0928 53.2287 13.8075 53.5751 13.3592C53.9215 12.9109 54.0723 12.3567 54.003 11.7983C53.9664 11.5212 53.9501 11.2359 53.9501 10.9506C53.9501 7.24201 56.9699 4.22213 60.6786 4.22213C63.3113 4.22213 65.728 5.82377 66.8447 8.33422C66.8651 8.37498 66.8854 8.41981 66.9099 8.46056L66.9466 8.5217C66.9669 8.55838 66.9873 8.59098 67.0199 8.63581L67.0647 8.70102C67.0851 8.72954 67.1096 8.75807 67.134 8.7866C67.1544 8.81105 67.1748 8.8355 67.1952 8.85996L67.2685 8.93331C67.293 8.95776 67.3174 8.98222 67.3419 9.00667L67.4152 9.0678C67.4438 9.09225 67.4723 9.11263 67.4967 9.13301C67.5171 9.14931 67.5416 9.16561 67.5782 9.19007C67.6068 9.21044 67.6353 9.23081 67.6638 9.24304C67.6924 9.25934 67.7209 9.27565 67.7698 9.30418C67.7942 9.3164 67.8187 9.32863 67.8391 9.34085C67.8717 9.35715 67.9043 9.36938 67.9654 9.39791L68.0265 9.42236C68.0632 9.43459 68.104 9.44681 68.161 9.46719L68.2181 9.4835C68.2588 9.49572 68.2955 9.50387 68.3526 9.5161L68.4219 9.52833C68.4545 9.5324 68.4871 9.53647 68.5482 9.54462L68.7234 9.55685C68.7642 9.55685 68.805 9.55685 68.8416 9.55685L68.9231 9.55278C68.968 9.5487 69.0128 9.54463 69.0291 9.54055L69.0862 9.5324C69.3674 9.48757 69.6526 9.46719 69.9379 9.46719C73.0026 9.46719 75.4927 11.9573 75.4927 15.022C75.4927 16.0653 75.2033 17.0801 74.6532 17.9563C74.3557 18.4372 74.2579 19.0037 74.3883 19.5538C74.5187 20.104 74.8488 20.5727 75.3297 20.8702C75.6679 21.0821 76.051 21.1922 76.4464 21.1922C77.1106 21.1922 77.722 20.8865 78.1213 20.3689C78.5656 21.0495 78.806 21.8524 78.806 22.6919C78.806 25.0312 76.9028 26.9344 74.5635 26.9344C72.5217 26.9344 70.753 25.4306 70.3903 23.4499C70.431 23.4214 70.4677 23.3929 70.5085 23.3644C72.5217 21.8809 73.4917 19.4316 73.0434 16.97C72.8355 15.8248 71.7311 15.0587 70.5818 15.2706C69.4366 15.4784 68.6705 16.5829 68.8824 17.7321C69.0373 18.592 68.699 19.4438 67.998 19.9614C67.513 20.32 66.914 20.4667 66.3189 20.3771C65.7199 20.2874 65.1941 19.9695 64.8355 19.4846C64.5013 19.0281 64.0082 18.7347 63.4498 18.6491C62.8915 18.5635 62.3332 18.7021 61.8808 19.0363C61.4244 19.3705 61.1269 19.8636 61.0454 20.4219C60.9598 20.9802 61.0983 21.5386 61.4325 21.995C62.4636 23.4051 63.9715 24.318 65.6872 24.5748ZM30.8058 63.8373C30.8058 65.3167 29.5994 66.523 28.1201 66.523H25.4344V39.6619H28.1201C29.5994 39.6619 30.8058 40.8683 30.8058 42.3476V63.8373Z" fill="#232323"/>
<path d="M65.4468 17.8628C66.4819 17.8628 67.3826 17.0885 67.5374 16.0656C67.7983 14.3498 67.3744 12.6381 66.3433 11.2403C65.3123 9.84648 63.8044 8.93358 62.0886 8.67276C59.6148 8.29782 57.1981 9.3452 55.7758 11.4033C55.4538 11.8679 55.3316 12.4303 55.4335 12.9845C55.5353 13.5388 55.8451 14.0238 56.3097 14.3457C57.2674 15.01 58.5878 14.7696 59.2521 13.8078C59.7493 13.0905 60.5929 12.7278 61.4528 12.8541C62.0519 12.9438 62.5777 13.2617 62.9363 13.7466C63.2949 14.2316 63.4417 14.8307 63.352 15.4257C63.1768 16.5791 63.9755 17.659 65.1289 17.8343C65.2348 17.8547 65.3408 17.8628 65.4468 17.8628Z" fill="#232323"/>
</svg>
