<svg width="94" height="88" viewBox="0 0 94 88" fill="none" xmlns="http://www.w3.org/2000/svg">
<path d="M93.2921 47.4986V32.3096H78.1031V77.8765H93.2921V62.6876H88.2304V72.8148H83.1687V57.6259H90.7613V52.5603H83.1687V37.3752H88.2304V47.4986H93.2921Z" fill="white"/>
<path d="M43.6121 67.7492H48.6738V77.8765H53.7356V39.906C53.7356 35.7199 50.3291 32.3134 46.143 32.3134C41.9569 32.3134 38.5504 35.7199 38.5504 39.906V77.8765H43.6121V67.7492ZM43.6121 39.906C43.6121 38.5119 44.7489 37.3752 46.143 37.3752C47.5371 37.3752 48.6738 38.5119 48.6738 39.906V62.6875H43.6121V39.906Z" fill="white"/>
<path d="M7.59257 32.3096H0V77.8727H7.59257C11.7787 77.8727 15.1851 74.4662 15.1851 70.2801V60.1529C15.1851 58.2096 14.4516 56.4353 13.2457 55.0912C14.4516 53.747 15.1851 51.9727 15.1851 50.0295V39.906C15.189 35.7161 11.7825 32.3096 7.59257 32.3096ZM10.1234 70.2801C10.1234 71.6742 8.98665 72.811 7.59257 72.811H5.06171V57.622H7.59257C8.98665 57.622 10.1234 58.7588 10.1234 60.1529V70.2801ZM10.1234 50.0295C10.1234 51.4235 8.98665 52.5603 7.59257 52.5603H5.06171V37.3713H7.59257C8.98665 37.3713 10.1234 38.5081 10.1234 39.9022V50.0295Z" fill="white"/>
<path d="M61.9003 23.1579C62.0962 23.1886 62.2959 23.2078 62.4956 23.2193C63.3328 26.8178 66.5281 29.3833 70.2687 29.3833C74.6698 29.3833 78.253 25.8001 78.253 21.399C78.253 19.8743 77.8228 18.3957 77.0048 17.113C76.4902 16.3065 75.845 15.6076 75.0846 15.0315C75.1115 14.7435 75.1268 14.4554 75.1268 14.1712C75.1268 9.10186 71.0137 4.97338 65.952 4.95034C64.0625 1.8895 60.7328 0 57.1843 0C52.7946 0 48.8351 2.84961 47.4142 6.97809C42.5445 7.22004 38.6541 11.264 38.6541 16.1875C38.6541 21.0495 42.3486 25.0051 47.1415 25.3777C47.9825 28.1812 50.5441 30.1053 53.509 30.1053H56.5583C57.9869 30.1053 59.1736 31.1614 59.381 32.5363V70.2802C59.381 77.2544 53.7125 82.9268 46.7421 82.9383C39.7717 82.9306 34.1032 77.2544 34.1032 70.2802C34.1032 68.3369 33.3696 66.5626 32.1637 65.2185C33.3696 63.8743 34.1032 62.1 34.1032 60.1568V39.9061C34.1032 35.72 30.6967 32.3135 26.5106 32.3135H18.918V77.8766H23.9797V67.7493H26.5106C27.9047 67.7493 29.0415 68.8861 29.0415 70.2802C29.0415 80.0387 36.972 87.9808 46.7267 88C46.7344 88 46.7382 88 46.7421 88C46.7459 88 46.7536 88 46.7574 88C56.5122 87.9808 64.4427 80.0387 64.4427 70.2802V37.3714H66.9736C68.3676 37.3714 69.5044 38.5082 69.5044 39.9022V77.8727H74.5661V39.9022C74.5661 35.7162 71.1596 32.3097 66.9736 32.3097H63.3674C63.0371 28.8418 60.1107 26.1189 56.5583 26.1189H53.5051C52.0381 26.1189 50.8398 24.9245 50.8398 23.4536C50.8398 21.9827 52.0342 20.7883 53.5051 20.7883C54.6035 20.7883 55.4983 19.8935 55.4983 18.7951C55.4983 17.6968 54.6035 16.802 53.5051 16.802C50.6094 16.802 48.0786 18.6569 47.1876 21.3721C44.6029 21.038 42.6366 18.8374 42.6366 16.1836C42.6366 13.6643 44.457 11.5137 46.8803 11.0451C46.8919 11.2371 46.9111 11.4292 46.9341 11.6174C47.0685 12.6927 48.0555 13.4838 49.1616 13.3456C49.6915 13.2803 50.1601 13.0114 50.4865 12.589C50.813 12.1665 50.9551 11.6442 50.8898 11.1181C50.8552 10.8569 50.8398 10.5881 50.8398 10.3193C50.8398 6.82447 53.6856 3.9787 57.1804 3.9787C59.6613 3.9787 61.9387 5.488 62.991 7.85371C63.0102 7.89212 63.0294 7.93436 63.0525 7.97277L63.087 8.03038C63.1062 8.06494 63.1254 8.09566 63.1562 8.13791L63.1984 8.19936C63.2176 8.22624 63.2406 8.25312 63.2637 8.28C63.2829 8.30305 63.3021 8.32609 63.3213 8.34913L63.3904 8.41826C63.4135 8.4413 63.4365 8.46435 63.4596 8.48739L63.5287 8.54499C63.5556 8.56804 63.5824 8.58724 63.6055 8.60644C63.6247 8.6218 63.6477 8.63717 63.6823 8.66021C63.7092 8.67941 63.7361 8.69861 63.7629 8.71013C63.7898 8.72549 63.8167 8.74086 63.8628 8.76774C63.8858 8.77926 63.9089 8.79078 63.9281 8.8023C63.9588 8.81767 63.9895 8.82919 64.0471 8.85607L64.1047 8.87911C64.1393 8.89063 64.1777 8.90215 64.2315 8.92136L64.2852 8.93672C64.3237 8.94824 64.3582 8.95592 64.412 8.96745L64.4773 8.97897C64.508 8.98281 64.5387 8.98664 64.5963 8.99433L64.7615 9.00585C64.7999 9.00585 64.8383 9.00585 64.8728 9.00585L64.9496 9.00201C64.9919 8.99817 65.0341 8.99433 65.0495 8.99049L65.1033 8.9828C65.3683 8.94056 65.6371 8.92136 65.9059 8.92136C68.7939 8.92136 71.1404 11.2679 71.1404 14.1559C71.1404 15.139 70.8678 16.0953 70.3493 16.921C70.069 17.3742 69.9768 17.908 70.0997 18.4265C70.2226 18.9449 70.5336 19.3866 70.9868 19.6669C71.3056 19.8666 71.6666 19.9703 72.0391 19.9703C72.6651 19.9703 73.2412 19.6823 73.6175 19.1946C74.0361 19.8359 74.2627 20.5925 74.2627 21.3836C74.2627 23.588 72.4692 25.3815 70.2648 25.3815C68.3408 25.3815 66.674 23.9644 66.3322 22.0979C66.3706 22.071 66.4052 22.0442 66.4436 22.0173C68.3408 20.6194 69.2548 18.3113 68.8323 15.9916C68.6365 14.9125 67.5957 14.1905 66.5127 14.3902C65.4335 14.586 64.7115 15.6268 64.9112 16.7098C65.0572 17.5201 64.7384 18.3228 64.0779 18.8105C63.6208 19.1485 63.0563 19.2867 62.4956 19.2022C61.9311 19.1177 61.4356 18.8182 61.0977 18.3612C60.7828 17.931 60.3181 17.6545 59.7919 17.5739C59.2658 17.4932 58.7396 17.6238 58.3133 17.9387C57.8832 18.2536 57.6029 18.7183 57.5261 19.2445C57.4454 19.7706 57.576 20.2968 57.8909 20.7269C58.8625 22.0557 60.2835 22.9159 61.9003 23.1579ZM29.0299 60.1568C29.0299 61.5508 27.8932 62.6876 26.4991 62.6876H23.9682V37.3752H26.4991C27.8932 37.3752 29.0299 38.512 29.0299 39.9061V60.1568Z" fill="white"/>
<path d="M61.6738 16.8325C62.6493 16.8325 63.498 16.1028 63.6439 15.1389C63.8897 13.522 63.4903 11.9091 62.5187 10.5918C61.5471 9.27835 60.1261 8.41809 58.5093 8.1723C56.1781 7.81898 53.9007 8.80597 52.5604 10.7454C52.257 11.1832 52.1418 11.7132 52.2378 12.2355C52.3338 12.7578 52.6257 13.2148 53.0635 13.5182C53.966 14.1442 55.2103 13.9176 55.8363 13.0113C56.3048 12.3353 57.0998 11.9935 57.9102 12.1126C58.4747 12.1971 58.9701 12.4966 59.3081 12.9537C59.646 13.4107 59.7843 13.9752 59.6998 14.5359C59.5347 15.6228 60.2874 16.6405 61.3742 16.8056C61.4741 16.8248 61.5739 16.8325 61.6738 16.8325Z" fill="white"/>
</svg>
