<svg width="62" height="64" viewBox="0 0 62 64" fill="none" xmlns="http://www.w3.org/2000/svg">
<g clip-path="url(#clip0_1805_822)">
<path d="M61.8936 9.30217C61.5668 6.72353 60.3086 4.35413 58.3568 2.64171C56.405 0.929287 53.8948 -0.00752965 51.3005 0.00827458C40.6306 -0.00731548 29.9653 -0.00731548 19.3043 0.00827458C18.4292 0.00541642 17.5571 0.112596 16.7086 0.32731C11.8421 1.56505 8.61783 5.74597 8.6145 10.8506C8.6056 24.8705 8.6056 38.8899 8.6145 52.9087C8.6145 53.034 8.6145 53.1593 8.6145 53.2845C8.64725 53.7871 8.85778 54.2614 9.20828 54.6224C9.55877 54.9833 10.0263 55.2073 10.5267 55.2539C11.8805 55.3558 12.8608 54.3886 12.8608 52.9488C12.8608 38.9712 12.8608 24.9958 12.8608 11.0227C12.8608 6.99708 15.5749 4.26603 19.5811 4.26436C30.0375 4.26436 40.4945 4.26436 50.952 4.26436C54.8965 4.26436 57.6373 6.98705 57.639 10.9258C57.6457 24.9869 57.6457 39.048 57.639 53.1091C57.639 57.0094 54.8899 59.7472 50.992 59.7488C37.6548 59.7488 24.3225 59.7488 10.9952 59.7488C10.4118 59.757 9.82961 59.6942 9.26135 59.5618C6.27714 58.8251 4.35658 56.3446 4.34824 53.1693C4.3349 47.8575 4.34824 42.5441 4.34824 37.2323C4.34824 28.4429 4.34824 19.6523 4.34824 10.8606C4.34824 9.45585 3.43963 8.49706 2.15425 8.50207C0.902215 8.50207 0.00195312 9.47088 0.00195312 10.8306C0.00195312 25.0164 0.00195312 39.2023 0.00195312 53.3881C0.0138738 55.7402 0.802147 58.0223 2.24391 59.8787C3.68567 61.735 5.69991 63.0613 7.97264 63.6508C8.35776 63.7527 8.79289 63.7093 9.12132 63.9999H52.6208C53.2427 63.8529 53.8896 63.8796 54.5114 63.6892C56.7387 63.0077 58.5126 61.6848 59.938 59.8741C61.1412 58.3754 61.8589 56.5443 61.9953 54.6258V9.50262C61.9069 9.46754 61.9053 9.38903 61.8936 9.30217Z" fill="#171717"/>
<path d="M34.2548 27.8767C34.2365 25.3361 32.4209 23.5037 29.8935 23.4953C27.1038 23.4853 24.3146 23.4853 21.526 23.4953C18.9986 23.4953 17.1481 25.3327 17.1381 27.8583C17.1258 31.3349 17.1258 34.8109 17.1381 38.2864C17.1381 40.7452 18.8586 42.5926 21.321 42.651C24.253 42.7223 27.1872 42.7223 30.1236 42.651C32.5526 42.5909 34.2415 40.7452 34.2531 38.3081C34.2631 36.5809 34.2531 34.8538 34.2531 33.13V28.0103C34.2565 27.9602 34.2565 27.9184 34.2548 27.8767ZM30.0002 33.0765C30.0002 34.6984 29.9869 36.322 30.0119 37.9439C30.0119 38.3398 29.8985 38.42 29.5251 38.4167C26.9877 38.4 24.4497 38.4 21.9112 38.4167C21.5227 38.4167 21.3777 38.3432 21.381 37.9156C21.401 34.6918 21.401 31.468 21.381 28.2442C21.381 27.8082 21.5277 27.743 21.9112 27.743C24.4286 27.7581 26.9443 27.7631 29.4617 27.743C29.8868 27.743 30.0219 27.8266 30.0136 28.2776C29.9819 29.8727 30.0002 31.4746 30.0002 33.0765Z" fill="#171717"/>
<path d="M51.3882 12.7917C40.6428 12.7917 29.898 12.7917 19.1537 12.7917C17.8667 12.7917 16.883 13.7572 16.9097 14.9632C16.9364 16.1692 17.8967 17.0729 19.1637 17.0729H35.2185H51.3399C52.6469 17.0729 53.6172 16.1642 53.6139 14.9348C53.6072 13.7322 52.6486 12.7917 51.3882 12.7917Z" fill="#171717"/>
<path d="M19.5776 51.2283H51.3636C52.6474 51.2283 53.631 50.2695 53.611 49.0568C53.591 47.8442 52.644 46.9655 51.3653 46.9639H35.5023C30.2157 46.9639 24.9275 46.9639 19.6393 46.9639C18.7723 46.9639 18.0905 47.2579 17.6387 47.9945C17.4336 48.3118 17.3223 48.6808 17.3175 49.0588C17.3128 49.4369 17.4149 49.8085 17.612 50.1309C18.0404 50.8876 18.7156 51.2283 19.5776 51.2283Z" fill="#171717"/>
<path d="M51.365 25.6233C47.1838 25.6233 43.0031 25.6233 38.823 25.6233C37.5159 25.6233 36.5423 26.5387 36.5439 27.7513C36.5456 28.964 37.5176 29.876 38.8246 29.8794C40.9252 29.8794 43.0259 29.8794 45.1265 29.8794C47.2071 29.8794 49.2872 29.8794 51.3667 29.8794C52.6387 29.8794 53.5907 28.979 53.6107 27.7797C53.6307 26.5804 52.6604 25.625 51.365 25.6233Z" fill="#171717"/>
<path d="M51.3886 36.2686C47.2074 36.2686 43.0267 36.2686 38.8465 36.2686C37.5295 36.2686 36.5625 37.1639 36.5442 38.3799C36.5259 39.5959 37.5028 40.523 38.8632 40.5246C40.9222 40.5246 42.9828 40.5246 45.0417 40.5246C47.164 40.5246 49.2846 40.5246 51.4069 40.5246C52.6723 40.5246 53.6176 39.5942 53.6109 38.3916C53.6042 37.1889 52.6356 36.2686 51.3886 36.2686Z" fill="#171717"/>
</g>
<defs>
<clipPath id="clip0_1805_822">
<rect width="62" height="64" fill="white"/>
</clipPath>
</defs>
</svg>
