<svg width="373" height="218" viewBox="0 0 373 218" fill="none" xmlns="http://www.w3.org/2000/svg">
<g clip-path="url(#clip0_108_297)">
<path d="M373 217.746C373 217.877 289.491 217.982 186.513 217.982C83.535 217.982 0 217.895 0 217.746C0 217.597 83.4913 217.501 186.513 217.501C289.535 217.501 373 217.632 373 217.746Z" fill="#263238"/>
<path d="M92.3181 162.1L65.9602 135.526L79.2133 111.098C92.4665 94.0657 120.527 95.1609 120.527 95.1609C134.37 94.2166 148.277 95.0736 161.901 97.7105C184.191 102.091 182.392 116.864 182.392 116.864L185.378 171.686L188.582 216.327L106.383 217.991L92.3181 162.135" fill="#FFBB18"/>
<path d="M136.6 215.38L62.9744 216.256C58.9185 216.304 54.9171 215.316 51.3462 213.385C47.7753 211.455 44.7519 208.645 42.5601 205.22C40.3683 201.794 39.0799 197.866 38.8161 193.804C38.5522 189.742 39.3215 185.68 41.0517 181.998L72.5344 123.409L101.215 142.86L81.6492 183.575L141.245 184.644L136.6 215.38Z" fill="#FFBB18"/>
<path d="M179.791 107.927L238.871 199.469L204.402 201.73C204.402 201.73 183.815 169.18 184.278 169.846C185.099 171.072 179.791 107.927 179.791 107.927Z" fill="#FFBB18"/>
<path d="M99.7303 148.125C99.7324 147.965 99.7589 147.805 99.8089 147.652C99.8962 147.302 99.9922 146.864 100.123 146.321C100.394 145.173 100.795 143.508 101.206 141.44C101.616 139.372 102.079 136.884 102.367 134.115C102.722 131.115 102.722 128.083 102.367 125.082C101.893 122.107 100.859 119.249 99.32 116.662C98.0829 114.532 96.6193 112.543 94.9546 110.73C93.8326 109.491 92.6372 108.321 91.3751 107.226C90.8939 106.848 90.4334 106.444 89.9956 106.017C90.1377 106.087 90.2723 106.173 90.3972 106.271C90.6417 106.455 91.0346 106.709 91.4886 107.086C92.8014 108.126 94.0385 109.259 95.1904 110.476C96.9112 112.276 98.4226 114.266 99.6954 116.408C101.289 119.035 102.356 121.949 102.838 124.986C103.184 128.023 103.161 131.092 102.769 134.124C102.474 136.591 102.054 139.042 101.511 141.467C101.057 143.543 100.638 145.199 100.28 146.338C100.123 146.908 99.9835 147.346 99.8874 147.644C99.8507 147.809 99.798 147.97 99.7303 148.125Z" fill="#263238"/>
<path d="M97.3557 151.28C97.2296 151.736 97.06 152.179 96.8493 152.603C96.5001 153.479 95.9762 154.653 95.3039 156.107C93.9682 159.078 92.0736 163.16 89.8909 167.629C87.7083 172.097 85.6478 176.102 84.12 179.019C83.3517 180.456 82.7231 181.648 82.2778 182.41C82.0652 182.834 81.82 183.242 81.5444 183.628C81.7012 183.181 81.8939 182.747 82.1207 182.331C82.5659 181.455 83.1421 180.281 83.8668 178.87L89.5155 167.48C91.6545 163.038 93.6015 159.025 95.0508 156.02C95.7318 154.609 96.2905 153.435 96.727 152.515C96.9018 152.086 97.1121 151.673 97.3557 151.28Z" fill="#263238"/>
<path d="M136.6 215.38C136.6 215.38 136.6 215.328 136.6 215.231C136.6 215.135 136.6 214.96 136.6 214.776C136.644 214.355 136.705 213.768 136.775 213.023C136.949 211.464 137.194 209.247 137.499 206.452C138.145 200.783 139.071 192.81 140.118 183.409L140.328 183.637H118.58L80.5928 183.575L69.0684 183.505L65.934 183.461H65.1134H64.834C64.9268 183.45 65.0206 183.45 65.1134 183.461H65.934L69.0684 183.418L80.5928 183.347L118.641 183.286H140.389H140.625V183.514C139.472 192.906 138.503 200.88 137.805 206.54C137.456 209.326 137.168 211.543 136.932 213.102C136.839 213.838 136.76 214.422 136.696 214.855L136.626 215.301C136.617 215.328 136.609 215.38 136.6 215.38Z" fill="#263238"/>
<path d="M82.1644 184.224C81.6371 183.639 81.1472 183.022 80.6977 182.375C78.3447 179.41 75.431 176.942 72.1242 175.111C71.4179 174.768 70.7301 174.388 70.0637 173.972C70.8387 174.155 71.5829 174.45 72.2726 174.849C75.7167 176.556 78.6951 179.079 80.9508 182.2C81.4465 182.815 81.8549 183.496 82.1644 184.224Z" fill="#263238"/>
<path d="M186.6 190.024C186.536 189.774 186.495 189.519 186.478 189.262C186.417 188.727 186.338 188 186.234 187.08C186.033 185.187 185.762 182.445 185.474 179.054C184.872 172.264 184.182 162.871 183.571 152.497C182.96 142.124 182.532 132.714 182.287 125.906C182.165 122.497 182.078 119.773 182.043 117.836C182.043 116.916 182.043 116.189 181.999 115.646C181.986 115.392 181.986 115.137 181.999 114.883C182.048 115.135 182.074 115.39 182.078 115.646C182.078 116.18 182.148 116.916 182.2 117.836C182.296 119.781 182.427 122.524 182.593 125.888C182.916 132.696 183.396 142.089 184.007 152.471C184.618 162.854 185.264 172.229 185.753 179.028C186.015 182.384 186.225 185.161 186.373 187.071C186.443 187.947 186.496 188.718 186.539 189.253C186.583 189.507 186.603 189.766 186.6 190.024Z" fill="#263238"/>
<path d="M120.876 140.214C120.88 139.812 120.912 139.411 120.972 139.013C121.077 138.181 121.208 137.068 121.374 135.701C121.758 132.81 122.247 128.85 122.893 124.259L123.225 124.469L117.576 128.438L111.831 132.451L111.421 132.74L111.491 132.24C112.189 127.693 112.783 123.768 113.237 120.85C113.464 119.51 113.638 118.406 113.778 117.582C113.825 117.187 113.907 116.797 114.023 116.417C114.023 116.816 113.988 117.215 113.918 117.608C113.813 118.432 113.682 119.536 113.508 120.894C113.115 123.768 112.565 127.702 111.936 132.284L111.604 132.074L117.34 128.044L122.998 124.092L123.408 123.803L123.338 124.302C122.666 128.876 122.081 132.836 121.662 135.693C121.444 137.051 121.269 138.163 121.138 138.987C121.088 139.403 121 139.813 120.876 140.214Z" fill="#E0E0E0"/>
<path d="M153.738 143.762C153.424 143.511 153.132 143.232 152.865 142.93C152.298 142.316 151.53 141.502 150.587 140.503L142.79 132.021L143.166 131.89C142.982 134.037 142.79 136.367 142.589 138.785C142.389 141.204 142.179 143.604 141.996 145.795L141.952 146.303L141.62 145.926L134.033 137.34L131.868 134.834C131.593 134.547 131.347 134.233 131.135 133.896C131.449 134.164 131.741 134.457 132.008 134.773L134.26 137.191L141.961 145.663L141.585 145.795C141.769 143.613 141.961 141.247 142.17 138.785C142.38 136.323 142.572 134.037 142.755 131.89L142.799 131.391L143.131 131.759L150.814 140.354L153.005 142.868C153.272 143.147 153.518 143.445 153.738 143.762Z" fill="#E0E0E0"/>
<path d="M170.274 142.588C170.111 142.957 169.913 143.31 169.68 143.639L167.934 146.461L161.701 156.169L161.491 155.836L168.266 154.662L175.163 153.496L175.661 153.409L175.425 153.785L169.052 163.301L167.131 166.052C166.918 166.389 166.678 166.708 166.415 167.007C166.587 166.648 166.786 166.303 167.009 165.973L168.755 163.169L174.997 153.531L175.216 153.864L168.318 155.065L161.517 156.221L161.02 156.3L161.299 155.888L167.664 146.25L169.532 143.49C169.761 143.175 170.009 142.874 170.274 142.588Z" fill="#E0E0E0"/>
<path d="M148.281 159.568C148.117 159.934 147.918 160.283 147.688 160.611L145.942 163.441L139.717 173.14L139.498 172.807L146.291 171.633L153.197 170.459L153.694 170.38L153.406 170.792L147.033 180.316L145.156 183.05C144.947 183.387 144.708 183.704 144.44 183.996C144.615 183.638 144.813 183.293 145.034 182.962C145.488 182.261 146.081 181.324 146.78 180.167L153.022 170.529L153.24 170.862L146.343 172.062L139.542 173.21L139.044 173.298L139.324 172.877L145.688 163.239C146.457 162.1 147.085 161.172 147.566 160.479C147.782 160.159 148.021 159.854 148.281 159.568Z" fill="#E0E0E0"/>
<path d="M195.803 142.395C195.629 142.756 195.431 143.105 195.209 143.438L193.463 146.268L187.238 155.967L187.02 155.634L193.812 154.46L200.718 153.286L201.216 153.207L200.936 153.619L194.554 163.143C193.786 164.264 193.157 165.184 192.677 165.868C192.47 166.209 192.231 166.529 191.961 166.823C192.137 166.464 192.339 166.119 192.564 165.789L194.31 162.994L200.552 153.356L200.77 153.689L193.873 154.881L187.072 156.037L186.583 156.125L186.854 155.704L193.218 146.066L195.095 143.306C195.301 142.98 195.538 142.675 195.803 142.395Z" fill="#E0E0E0"/>
<path d="M84.5306 128.324C84.3598 128.686 84.1613 129.035 83.9369 129.367L82.1908 132.197L75.9658 141.905L75.7476 141.572L82.54 140.389L89.446 139.224L89.9436 139.136L89.6642 139.556L83.2821 149.072L81.4138 151.805C81.2017 152.14 80.9622 152.457 80.6979 152.752C80.8652 152.393 81.0638 152.05 81.2915 151.726L83.0377 148.923C84.6179 146.496 86.7831 143.166 89.2801 139.285L89.4984 139.618L82.6011 140.818L75.7999 141.975L75.311 142.054L75.5817 141.642C78.1398 137.787 80.3399 134.457 81.9463 132.004L83.8234 129.244C84.0347 128.919 84.2711 128.611 84.5306 128.324Z" fill="#E0E0E0"/>
<path d="M50.0093 193.844C50.3034 194.11 50.5723 194.404 50.8125 194.72L52.9428 197.287L60.1805 206.251L59.7963 206.356C60.1107 204.227 60.4424 201.914 60.8004 199.504C61.1583 197.095 61.5076 194.72 61.8306 192.556L61.9004 192.057L62.2147 192.46L69.2517 201.502L71.251 204.13C71.505 204.434 71.7328 204.76 71.932 205.103C71.6453 204.831 71.3797 204.539 71.1375 204.227L69.0421 201.668L61.9266 192.722L62.3108 192.626C61.9965 194.79 61.656 197.138 61.298 199.574C60.9401 202.01 60.5996 204.288 60.2765 206.417L60.2067 206.916L59.8924 206.522L52.7682 197.463L50.7339 194.834C50.4705 194.521 50.2284 194.19 50.0093 193.844Z" fill="#E0E0E0"/>
<path d="M128.847 151.42C128.456 151.504 128.059 151.557 127.66 151.578L124.342 151.867L112.87 152.743L113.01 152.375L118.039 157.106L123.129 161.925L123.495 162.276H122.989L111.578 162.906L108.278 163.047C107.883 163.081 107.485 163.081 107.09 163.047C107.479 162.968 107.873 162.919 108.269 162.898L111.56 162.635L122.963 161.846L122.832 162.214L117.724 157.413L112.713 152.664L112.346 152.314H112.844L124.325 151.621L127.642 151.455C128.042 151.413 128.445 151.401 128.847 151.42Z" fill="#E0E0E0"/>
<path d="M109.5 195.579C109.791 195.854 110.065 196.146 110.321 196.455L112.495 198.978L119.924 207.793L119.54 207.898C119.811 205.76 120.108 203.447 120.413 201.037C120.719 198.628 121.033 196.236 121.286 194.072L121.356 193.564L121.671 193.958L128.9 202.851L130.951 205.48C131.206 205.785 131.439 206.107 131.65 206.443C131.355 206.174 131.084 205.881 130.838 205.567L128.69 203.053L121.356 194.291L121.732 194.177C121.461 196.35 121.164 198.698 120.859 201.142C120.553 203.587 120.247 205.874 119.986 208.012L119.916 208.511L119.601 208.126L112.294 199.206L110.216 196.578C109.945 196.269 109.705 195.935 109.5 195.579Z" fill="#E0E0E0"/>
<path d="M74.9179 163.196C74.5273 163.282 74.1301 163.334 73.7306 163.353L70.4216 163.634L58.9495 164.51L59.0805 164.133L64.1181 168.873L69.2081 173.692L69.5748 174.043H69.0684L57.6574 174.673L54.3572 174.814C53.9709 174.846 53.5824 174.846 53.196 174.814C53.5839 174.73 53.9782 174.68 54.3747 174.665L57.6661 174.402L69.0684 173.604L68.9374 173.981L63.83 169.18L58.8099 164.431L58.4519 164.08H58.9495L70.4304 163.38L73.748 163.222C74.1368 163.184 74.5278 163.175 74.9179 163.196Z" fill="#E0E0E0"/>
<path d="M104.628 194.589C104.237 194.672 103.84 194.722 103.441 194.738L100.123 195.027L88.6513 195.903L88.791 195.526L93.8198 200.266L98.9098 205.085L99.2765 205.436H98.7788L87.3591 206.058L84.059 206.207C83.6639 206.241 83.2666 206.241 82.8716 206.207C83.2594 206.123 83.6538 206.073 84.0502 206.058L87.3417 205.795L98.7439 204.998L98.613 205.374L93.5055 200.573L88.4941 195.842L88.1274 195.5H88.6251L100.106 194.799L103.432 194.641C103.829 194.588 104.229 194.57 104.628 194.589Z" fill="#E0E0E0"/>
<path d="M171.688 114.717C171.297 114.801 170.9 114.854 170.501 114.875L167.183 115.155L155.72 116.031L155.851 115.663L160.88 120.395L165.97 125.214L166.337 125.564H165.839L154.419 126.195L151.119 126.335C150.724 126.369 150.327 126.369 149.932 126.335C150.319 126.251 150.714 126.201 151.11 126.186L154.402 125.923L165.813 125.135L165.673 125.503L160.583 120.71L155.572 115.961L155.205 115.611H155.703L167.183 114.91L170.51 114.752C170.901 114.711 171.295 114.699 171.688 114.717Z" fill="#E0E0E0"/>
<path d="M139.071 194.589C139.071 194.589 153.756 190.339 158.619 189.095C160.513 188.613 168.624 192.906 174.229 196.481C174.229 196.481 181.947 201.072 181.327 202.483C180.638 204.043 177.835 203.727 173.251 201.607C173.251 201.607 174.84 206.224 171.724 206.119C171.724 206.119 173.269 211.113 170.353 211.63C167.437 212.147 166.756 205.777 164.189 205.436C161.622 205.094 156.331 204.744 156.331 204.744C156.331 204.744 151.905 212.103 148.474 212.629C145.043 213.155 137.124 212.217 137.124 212.217L139.071 194.589Z" fill="#FFBE9D"/>
<path d="M164.137 195.605C165.574 196.248 166.948 197.025 168.24 197.927C169.611 198.705 170.903 199.615 172.099 200.643C169.287 199.229 166.62 197.542 164.137 195.605Z" fill="#EB996E"/>
<path d="M163.272 198.47C164.949 199 166.579 199.671 168.144 200.477C169.761 201.136 171.32 201.93 172.806 202.851C171.128 202.327 169.498 201.659 167.934 200.853C166.314 200.197 164.754 199.4 163.272 198.47Z" fill="#EB996E"/>
<path d="M164.844 205.313C167.062 205.305 169.27 205.6 171.409 206.189C169.191 206.196 166.983 205.901 164.844 205.313Z" fill="#EB996E"/>
<path d="M119.96 42.5118C120.132 43.0796 120.135 43.6859 119.967 44.255C119.798 44.8242 119.467 45.331 119.013 45.7123C118.56 46.0936 118.005 46.3324 117.417 46.3989C116.829 46.4655 116.234 46.3569 115.708 46.0866C113.717 45.079 113.464 42.3191 113.857 40.1199C114.25 37.9207 114.992 35.5638 114.075 33.5223C113.368 31.9627 111.84 30.9726 110.653 29.746C109.605 28.6798 108.818 27.3844 108.353 25.9615C107.887 24.5386 107.757 23.0269 107.972 21.5451C108.224 20.0676 108.877 18.6886 109.86 17.56C110.843 16.4314 112.117 15.5971 113.543 15.149C116.467 14.3342 120.073 15.2366 122.273 13.1075C123.853 11.5655 123.949 9.05086 125.172 7.2109C127.066 4.35458 131.074 3.89897 134.461 4.36335C137.849 4.82772 141.289 5.92292 144.606 5.09056C147.374 4.39838 149.644 2.46204 152.246 1.27045C155.081 -0.0303345 158.251 -0.40925 161.312 0.186682C164.372 0.782614 167.171 2.3236 169.316 4.59415C171.461 6.8647 172.846 9.75129 173.276 12.8502C173.706 15.9492 173.16 19.1056 171.715 21.878C170.751 23.9069 169.111 25.534 167.079 26.4779" fill="#263238"/>
<path d="M136.81 114.892C139.036 114.888 141.24 114.44 143.292 113.575C145.345 112.709 147.206 111.444 148.768 109.851C150.329 108.259 151.56 106.371 152.39 104.298C153.219 102.224 153.63 100.006 153.599 97.7719L153.381 81.6679C153.381 81.6679 166.861 80.3098 167.751 66.9044C168.642 53.499 168.004 22.5614 168.004 22.5614C160.587 18.8686 152.323 17.228 144.063 17.8086C135.804 18.3893 127.848 21.1701 121.016 25.8646L118.956 27.2927L119.96 98.21C120.012 102.657 121.812 106.904 124.967 110.028C128.122 113.151 132.378 114.899 136.81 114.892Z" fill="#FFBE9D"/>
<path d="M164.477 46.8927C163.989 46.8364 163.54 46.6022 163.213 46.2346C162.887 45.867 162.706 45.3918 162.706 44.8994C162.706 44.4069 162.887 43.9317 163.213 43.5641C163.54 43.1966 163.989 42.9624 164.477 42.9061C164.583 42.8797 164.694 42.8797 164.8 42.9061C165.287 42.9624 165.737 43.1966 166.064 43.5641C166.39 43.9317 166.571 44.4069 166.571 44.8994C166.571 45.3918 166.39 45.867 166.064 46.2346C165.737 46.6022 165.287 46.8364 164.8 46.8927C164.693 46.9102 164.584 46.9102 164.477 46.8927Z" fill="#263238"/>
<path d="M167.096 42.5644C166.878 42.7922 165.621 41.6882 163.779 41.5918C161.937 41.4955 160.548 42.3629 160.365 42.1175C160.182 41.8722 160.496 41.6006 161.107 41.1888C161.924 40.6629 162.887 40.414 163.855 40.4787C164.823 40.5433 165.745 40.9182 166.485 41.548C167.035 42.0387 167.21 42.5118 167.096 42.5644Z" fill="#263238"/>
<path d="M145.802 43.02C146.119 43.2401 146.364 43.5495 146.505 43.9091C146.646 44.2688 146.678 44.6624 146.597 45.0403C146.515 45.4181 146.324 45.7632 146.047 46.0318C145.77 46.3004 145.419 46.4804 145.04 46.5492C144.661 46.6179 144.27 46.5722 143.917 46.4179C143.564 46.2635 143.264 46.0075 143.056 45.6822C142.848 45.3569 142.74 44.9769 142.747 44.5903C142.755 44.2038 142.876 43.828 143.096 43.5106C143.39 43.0859 143.841 42.7957 144.348 42.7037C144.855 42.6117 145.378 42.7255 145.802 43.02Z" fill="#263238"/>
<path d="M147.016 43.0988C146.789 43.3266 145.531 42.2227 143.698 42.1263C141.865 42.0299 140.468 42.8973 140.276 42.652C140.18 42.5381 140.415 42.1351 141.018 41.7233C141.834 41.1974 142.798 40.9485 143.766 41.0131C144.734 41.0778 145.656 41.4526 146.396 42.0825C146.946 42.5731 147.12 43.0025 147.016 43.0988Z" fill="#263238"/>
<path d="M153.599 58.7473C153.599 58.6071 154.742 58.4318 156.611 58.2741C157.091 58.2741 157.484 58.1602 157.527 57.9061C157.563 57.423 157.469 56.9392 157.257 56.5043C156.846 55.2513 156.436 53.9896 156 52.6666C154.253 47.2081 153.11 42.7133 153.38 42.6257C153.651 42.5381 155.275 46.8927 156.995 52.3512C157.397 53.683 157.789 54.9797 158.165 56.2064C158.442 56.8442 158.497 57.5571 158.322 58.2303C158.244 58.4121 158.124 58.5728 157.973 58.6992C157.821 58.8256 157.641 58.9141 157.449 58.9575C157.177 59.0185 156.897 59.0392 156.619 59.0189C154.734 58.9838 153.599 58.8962 153.599 58.7473Z" fill="#263238"/>
<path d="M147.487 60.4645C150.293 61.9102 153.284 62.9626 156.375 63.5925C155.697 64.5267 154.724 65.2033 153.614 65.5119C152.505 65.8206 151.324 65.7431 150.263 65.2922C146.326 63.6012 147.487 60.4645 147.487 60.4645Z" fill="white"/>
<path d="M153.433 81.4751C147.252 81.2539 141.277 79.1921 136.268 75.5522C136.268 75.5522 139.865 85.4266 153.267 84.9535L153.433 81.4751Z" fill="#EB996E"/>
<path d="M168.118 25.9522C168.118 25.9522 160.042 30.0702 149.347 24.9709C142.363 21.6239 134.182 20.0731 132.418 21.5188C130.655 22.9644 130.419 30.149 123.574 32.3833C123.574 32.3833 124.316 46.1041 118.851 45.7186C113.385 45.3331 116.389 24.0158 116.389 24.0158L129.598 17.2168L144.1 14.1765L157.851 15.8499L168.52 18.5573L168.118 25.9522Z" fill="#263238"/>
<path d="M119.846 41.3114C119.627 41.1975 110.81 38.0784 110.609 47.2694C110.408 56.4604 119.636 54.7694 119.654 54.5066C119.671 54.2437 119.846 41.3114 119.846 41.3114Z" fill="#FFBE9D"/>
<path d="M116.93 50.9581C116.93 50.9581 116.764 51.072 116.493 51.1859C116.11 51.3422 115.681 51.3422 115.297 51.1859C114.337 50.8091 113.551 49.2496 113.551 47.5936C113.55 46.8041 113.72 46.0239 114.049 45.3068C114.143 45.0222 114.304 44.7645 114.518 44.5555C114.732 44.3466 114.993 44.1926 115.28 44.1064C115.464 44.0727 115.655 44.0997 115.823 44.1833C115.992 44.267 116.129 44.4029 116.214 44.5708C116.327 44.8249 116.266 45.0089 116.31 45.0264C116.353 45.0439 116.511 44.8775 116.45 44.5007C116.402 44.2714 116.279 44.0648 116.1 43.9137C115.853 43.7187 115.54 43.6276 115.227 43.6596C114.849 43.725 114.494 43.8867 114.196 44.129C113.898 44.3714 113.667 44.6864 113.525 45.0439C113.122 45.8328 112.912 46.707 112.914 47.5936C112.914 49.4423 113.839 51.2034 115.149 51.6152C115.394 51.6902 115.652 51.7103 115.905 51.6739C116.159 51.6376 116.401 51.5458 116.615 51.4049C116.93 51.1859 116.93 50.9756 116.93 50.9581Z" fill="#EB996E"/>
<path d="M115.184 12.5468C116.228 12.2392 117.344 12.2796 118.364 12.6618C119.384 13.0441 120.253 13.7476 120.841 14.6671C120.027 14.0484 119.149 13.5196 118.222 13.09C117.231 12.8035 116.212 12.6214 115.184 12.5468Z" fill="#263238"/>
<path d="M120.693 7.04443C120.859 7.04443 120.605 8.98077 120.92 11.2763C121.191 12.6565 121.622 14.0002 122.203 15.2804C122.203 15.2804 121.819 14.9563 121.435 14.2728C120.942 13.3633 120.617 12.3719 120.474 11.3464C120.22 9.91443 120.295 8.44309 120.693 7.04443Z" fill="#263238"/>
<path d="M158.313 38.131C158.261 38.0258 158.654 37.7016 159.396 37.4037C161.366 36.6392 163.553 36.6611 165.507 37.4651C166.241 37.7805 166.634 38.1047 166.581 38.2098C166.468 38.4551 164.704 37.763 162.443 37.763C160.182 37.763 158.418 38.4026 158.313 38.131Z" fill="#263238"/>
<path d="M137.884 36.2209C137.831 36.1158 138.224 35.8003 138.966 35.4937C139.943 35.1147 140.983 34.9273 142.031 34.9417C143.082 34.9415 144.124 35.1499 145.095 35.555C145.828 35.8704 146.213 36.1946 146.169 36.3085C146.125 36.4224 144.292 35.8617 142.022 35.8529C139.752 35.8441 138.006 36.4662 137.884 36.2209Z" fill="#263238"/>
<path d="M156.733 39.6029C156.753 39.7834 156.753 39.9656 156.733 40.1461C156.733 40.5317 156.733 41.0223 156.777 41.6269C156.82 42.2314 156.777 43.0463 156.829 43.9224C156.796 44.9336 156.944 45.9425 157.266 46.9014C157.687 48.1452 158.415 49.2615 159.383 50.1457C160.352 51.0299 161.527 51.6531 162.801 51.9569C163.532 52.1361 164.285 52.2011 165.036 52.1497C165.817 52.1145 166.586 51.9517 167.315 51.6678C168.868 51.0838 170.191 50.0111 171.086 48.61C171.934 47.2719 172.36 45.7086 172.309 44.1239C172.309 42.5556 172.309 41.0486 172.309 39.6029L172.518 39.8132L161.168 39.7081L157.877 39.6467H157.004H156.681C157.055 39.605 157.431 39.5875 157.807 39.5941L161.046 39.5328L172.518 39.4277H172.806V39.6467C172.806 41.0924 172.806 42.5994 172.806 44.1678C172.865 45.8388 172.417 47.4884 171.523 48.8991C170.574 50.3825 169.17 51.5169 167.524 52.1321C166.751 52.4303 165.934 52.5991 165.106 52.6316C164.316 52.6786 163.524 52.6048 162.757 52.4125C161.422 52.0886 160.192 51.4252 159.185 50.486C158.179 49.5469 157.431 48.3637 157.012 47.0504C156.699 46.0482 156.569 44.9974 156.628 43.9487C156.628 43.0725 156.628 42.2577 156.672 41.5918C156.716 40.9259 156.672 40.5141 156.716 40.1286C156.707 39.9532 156.713 39.7774 156.733 39.6029Z" fill="#263238"/>
<path d="M135.334 39.1473C135.334 39.1473 135.334 39.3488 135.334 39.6905V41.1713C135.334 41.8196 135.334 42.5907 135.378 43.4756C135.355 44.4862 135.503 45.4934 135.814 46.4546C136.217 47.6083 136.877 48.6543 137.744 49.5124C138.745 50.4892 139.991 51.1764 141.35 51.5013C142.852 51.8645 144.428 51.7637 145.872 51.2122C147.421 50.6288 148.741 49.5595 149.635 48.1631C150.486 46.8261 150.915 45.2627 150.866 43.6771C150.866 42.1088 150.866 40.593 150.866 39.1473L151.076 39.3576L139.726 39.2524L136.443 39.1999H135.57H135.247C135.618 39.1584 135.991 39.1408 136.364 39.1473L139.604 39.0947L151.076 38.9896H151.285V39.1999C151.285 40.6456 151.285 42.1613 151.285 43.7297C151.338 45.4012 150.888 47.05 149.993 48.461C149.044 49.9393 147.645 51.0702 146.003 51.6853C145.229 51.9827 144.413 52.1514 143.585 52.1847C142.792 52.2316 141.998 52.1577 141.227 51.9657C139.801 51.6131 138.497 50.877 137.456 49.8366C136.555 48.9286 135.879 47.8212 135.483 46.6035C135.169 45.6014 135.039 44.5506 135.099 43.5019C135.099 42.6257 135.099 41.8109 135.151 41.145C135.203 40.4791 135.151 40.0673 135.151 39.6818C135.183 39.4948 135.245 39.3143 135.334 39.1473Z" fill="#263238"/>
<path d="M156.925 40.2425C154.928 40.5465 152.898 40.5465 150.901 40.2425C152.897 39.9271 154.929 39.9271 156.925 40.2425Z" fill="#263238"/>
<path d="M118.676 40.3564C121.452 40.1241 124.238 40.0393 127.022 40.1023C129.809 40.023 132.598 40.0903 135.378 40.3038C132.602 40.5469 129.816 40.6318 127.031 40.5579C124.244 40.6473 121.455 40.58 118.676 40.3564Z" fill="#263238"/>
<path d="M286.383 51.2733L260.392 41.8983L234.654 51.1419C231.371 52.7015 228.49 53.6302 228.49 56.7056V71.9948C228.439 82.7347 231.375 93.2758 236.967 102.433C242.531 111.707 250.795 119.047 260.645 123.461C271.165 120.026 279.023 110.888 283.825 103.073C289.412 93.9133 292.348 83.3736 292.302 72.6344V58.8785C292.302 54.4363 289.989 52.2985 286.383 51.2733Z" fill="#FFBB18"/>
<g opacity="0.3">
<path d="M260.645 114.524C252.845 110.99 246.308 105.148 241.909 97.7808C237.488 90.5363 235.166 82.1987 235.204 73.7037V62.9706C235.204 60.5436 236.662 58.2655 239.569 56.9075L260.4 49.092V41.8724L234.663 51.116C231.965 52.2988 228.499 53.6043 228.499 56.6797V71.9688C228.448 82.7087 231.384 93.2498 236.976 102.407C242.54 111.681 250.804 119.021 260.654 123.435L260.645 114.524Z" fill="black"/>
</g>
<g opacity="0.4">
<path d="M260.645 123.4C262.408 122.819 264.117 122.083 265.752 121.201C269.76 118.918 273.404 116.044 276.561 112.676C279.423 109.58 281.94 106.181 284.069 102.538C289.738 93.3162 292.599 82.6336 292.302 71.8022V59.159C292.302 52.8769 289.08 52.4125 286.374 51.2297L260.383 41.8547V49.0743L281.459 57.0124C284.357 58.3705 285.824 60.6485 285.824 63.0843V73.8086C285.862 82.3064 283.54 90.6468 279.119 97.8945C274.819 105.226 268.363 111.042 260.636 114.542L260.645 123.4Z" fill="black"/>
</g>
<path opacity="0.5" d="M267.289 73.0113V70.9435C267.226 69.1906 266.488 67.5305 265.23 66.3127C263.972 65.0948 262.293 64.4143 260.545 64.4143C258.797 64.4143 257.117 65.0948 255.859 66.3127C254.601 67.5305 253.863 69.1906 253.8 70.9435V73.0464C252.905 73.1807 252.087 73.633 251.496 74.3212C250.905 75.0094 250.579 75.8877 250.579 76.7964V88.9488C250.579 89.955 250.977 90.92 251.686 91.6315C252.395 92.343 253.356 92.7427 254.359 92.7427H266.949C267.951 92.7427 268.913 92.343 269.622 91.6315C270.331 90.92 270.729 89.955 270.729 88.9488V76.7876C270.728 75.8409 270.375 74.9287 269.739 74.23C269.102 73.5312 268.229 73.0966 267.289 73.0113ZM262.374 85.926H259.074L259.589 83.5429C259.293 83.3589 259.049 83.1009 258.882 82.7941C258.716 82.4872 258.631 82.1422 258.638 81.7928C258.644 81.4433 258.741 81.1016 258.919 80.801C259.096 80.5005 259.349 80.2514 259.651 80.0784C259.954 79.9054 260.296 79.8143 260.644 79.8141C260.993 79.8139 261.335 79.9046 261.638 80.0773C261.94 80.25 262.193 80.4987 262.371 80.7991C262.549 81.0995 262.646 81.4411 262.653 81.7905C262.656 82.1201 262.578 82.4454 262.426 82.7374C262.274 83.0294 262.052 83.279 261.78 83.464L262.374 85.926ZM265.866 72.9938H255.25V70.9435C255.305 69.5715 255.887 68.2742 256.874 67.3232C257.861 66.3721 259.176 65.841 260.545 65.841C261.913 65.841 263.228 66.3721 264.215 67.3232C265.202 68.2742 265.784 69.5715 265.84 70.9435L265.866 72.9938Z" fill="white"/>
<path d="M239.412 72.8624C239.195 72.1747 239.066 71.4623 239.028 70.742C238.834 69.0204 238.763 67.2869 238.818 65.5551C238.818 64.5387 238.914 63.5662 239.002 62.6988C239.044 61.8967 239.243 61.1108 239.587 60.3857C239.835 59.8929 240.233 59.4913 240.722 59.2379C241.071 59.0714 241.298 59.0802 241.298 59.1065C240.668 59.3988 240.161 59.9045 239.866 60.5346C239.592 61.2365 239.442 61.9805 239.421 62.7338C239.351 63.61 239.299 64.5563 239.272 65.5639C239.211 67.579 239.272 69.4015 239.342 70.7157C239.427 71.4279 239.45 72.1461 239.412 72.8624Z" fill="white"/>
<path d="M239.796 79.5213C239.674 79.5213 239.56 78.8992 239.543 78.1194C239.525 77.3396 239.613 76.7087 239.744 76.7087C239.875 76.7087 239.979 77.3308 239.997 78.1106C240.014 78.8904 239.927 79.5213 239.796 79.5213Z" fill="white"/>
<path d="M212.373 142.588L183.396 214.513H131.143V217.763H286.785L318.625 142.588H212.373Z" fill="#263238"/>
<path d="M256.672 185.056C255.625 188.675 252.569 190.961 249.845 190.173C247.121 189.384 245.768 185.792 246.815 182.173C247.863 178.555 250.928 176.268 253.651 177.057C256.375 177.845 257.729 181.437 256.672 185.056Z" fill="#FAFAFA"/>
</g>
<defs>
<clipPath id="clip0_108_297">
<rect width="373" height="218" fill="white"/>
</clipPath>
</defs>
</svg>
