<svg width="290" height="250" viewBox="0 0 290 250" fill="none" xmlns="http://www.w3.org/2000/svg">
<g clip-path="url(#clip0_110_673)">
<path d="M237.1 35.95H59.7C57.0239 35.95 54.4575 37.013 52.5653 38.9053C50.673 40.7975 49.61 43.364 49.61 46.04V111.44H45.18C43.1237 111.419 41.0992 110.93 39.26 110.01C35.1434 108.029 30.5945 107.115 26.0321 107.353C21.4698 107.591 17.0406 108.973 13.1525 111.372C9.26448 113.771 6.04252 117.109 3.78328 121.08C1.52405 125.051 0.300194 129.527 0.224447 134.094C0.1487 138.662 1.22348 143.176 3.34981 147.22C5.47615 151.263 8.58572 154.707 12.3921 157.233C16.1985 159.76 20.5793 161.288 25.1313 161.677C29.6833 162.066 34.26 161.304 38.44 159.46C40.1664 158.681 42.0359 158.269 43.93 158.25H49.61V222.03C49.61 223.355 49.8711 224.666 50.3783 225.89C50.8854 227.113 51.6288 228.225 52.5659 229.161C53.5029 230.097 54.6153 230.84 55.8394 231.346C57.0636 231.852 58.3754 232.111 59.7 232.11H237.1C238.179 232.111 239.247 231.9 240.243 231.488C241.24 231.076 242.146 230.471 242.908 229.708C243.671 228.946 244.276 228.04 244.688 227.043C245.1 226.047 245.311 224.979 245.31 223.9V44.16C245.31 41.9826 244.445 39.8943 242.905 38.3546C241.366 36.815 239.277 35.95 237.1 35.95Z" fill="#E0E0E0"/>
<path d="M237.1 35.95H237.66C237.888 35.9539 238.115 35.974 238.34 36.01C238.658 36.0501 238.973 36.117 239.28 36.21C240.329 36.4878 241.311 36.9723 242.17 37.6352C243.028 38.2981 243.746 39.1259 244.28 40.07C245.07 41.4667 245.451 43.0571 245.38 44.66C245.38 46.41 245.38 48.33 245.38 50.4C245.38 54.55 245.38 59.34 245.38 64.73C245.38 86.3 245.38 117.49 245.46 156.04C245.46 175.32 245.46 196.43 245.46 219.1V223.36C245.481 224.09 245.427 224.821 245.3 225.54C245.148 226.264 244.906 226.966 244.58 227.63C243.911 228.972 242.897 230.112 241.643 230.932C240.388 231.753 238.937 232.225 237.44 232.3H219.59H182.42H102.42H60.1199C58.2752 232.361 56.4459 231.945 54.8099 231.09C53.1764 230.215 51.8067 228.92 50.843 227.337C49.8794 225.754 49.357 223.943 49.33 222.09V158.25L49.59 158.51H45.27C44.55 158.51 43.8199 158.51 43.1299 158.51C42.4257 158.554 41.7266 158.657 41.04 158.82C40.3576 158.981 39.6889 159.195 39.04 159.46C38.4 159.72 37.72 160.02 37.04 160.27C35.6918 160.78 34.3037 161.178 32.89 161.46C31.4795 161.748 30.0483 161.921 28.61 161.98C27.894 162.025 27.1759 162.025 26.46 161.98C25.75 161.98 25.0299 161.92 24.3199 161.85C21.4867 161.484 18.7194 160.72 16.1 159.58C10.9226 157.227 6.60121 153.329 3.72998 148.42C2.34877 145.987 1.31857 143.371 0.669983 140.65C0.499983 139.98 0.429937 139.29 0.309937 138.65L0.139954 137.65C0.139954 137.3 0.139956 136.95 0.0799561 136.65L-0.0200195 134.58L0.0899658 132.51C0.503546 127.027 2.56739 121.798 6.00995 117.51C9.77878 112.784 15.0047 109.437 20.874 107.99C26.7432 106.543 32.9262 107.077 38.46 109.51C39.5954 110.095 40.7885 110.561 42.02 110.9C43.2398 111.22 44.4995 111.361 45.7599 111.32H49.59L49.35 111.56C49.35 92.56 49.35 74.24 49.35 56.76V47.02C49.3114 45.9354 49.4088 44.8503 49.64 43.79C50.1391 41.6666 51.3021 39.7575 52.96 38.34C54.5904 36.9398 56.6189 36.0864 58.7599 35.9C67.0999 35.82 75.16 35.9 83.0099 35.9L164.79 35.96L218.04 36.02H232.19H235.83H237.06H235.83H232.19H218.04L164.79 36.09H83.0099C75.1799 36.09 67.07 36.09 58.8 36.15C57.77 36.2411 56.7591 36.4837 55.8 36.87C54.8574 37.2774 53.981 37.8234 53.2 38.49C51.6122 39.8479 50.4983 41.6763 50.02 43.71C49.7987 44.7378 49.7079 45.7894 49.7499 46.84V56.61C49.7499 74.09 49.7499 92.39 49.7499 111.41V111.65H45.6799C44.3761 111.691 43.0731 111.546 41.8099 111.22C40.5577 110.872 39.3446 110.396 38.1899 109.8C37.0099 109.29 35.7972 108.859 34.5599 108.51C30.727 107.443 26.7052 107.239 22.7841 107.913C18.863 108.588 15.1401 110.123 11.8836 112.409C8.6271 114.694 5.91799 117.674 3.95129 121.132C1.9846 124.591 0.809254 128.443 0.509949 132.41L0.399963 134.41L0.509949 136.41C0.509949 136.75 0.509946 137.09 0.569946 137.41L0.72998 138.41C0.84998 139.08 0.919956 139.76 1.07996 140.41C1.71945 143.078 2.72925 145.642 4.07996 148.03C6.89236 152.867 11.138 156.711 16.23 159.03C18.7992 160.144 21.5125 160.892 24.29 161.25C24.98 161.31 25.69 161.33 26.39 161.37C27.0926 161.415 27.7973 161.415 28.4999 161.37C29.9078 161.31 31.3088 161.139 32.6899 160.86C34.0789 160.584 35.4434 160.196 36.77 159.7C37.44 159.45 38.07 159.17 38.77 158.88C39.4466 158.611 40.1418 158.39 40.85 158.22C41.5642 158.059 42.2896 157.952 43.02 157.9C43.76 157.9 44.4799 157.9 45.2 157.9H49.78V216.59C49.78 218.41 49.78 220.22 49.78 222.03C49.7932 223.796 50.2875 225.524 51.21 227.03C52.1282 228.533 53.4292 229.765 54.98 230.6C56.542 231.417 58.2883 231.816 60.05 231.76H182.42H219.66H237.49C238.908 231.689 240.281 231.242 241.469 230.466C242.657 229.689 243.617 228.61 244.25 227.34C244.573 226.709 244.805 226.036 244.94 225.34C245.059 224.647 245.113 223.943 245.1 223.24V218.98C245.1 196.31 245.1 175.2 245.1 155.92C245.1 117.37 245.16 86.18 245.18 64.61C245.18 59.22 245.18 54.43 245.18 50.28C245.18 48.21 245.18 46.28 245.18 44.54C245.259 42.9573 244.892 41.3842 244.12 40C243.595 39.0637 242.89 38.2405 242.046 37.578C241.202 36.9155 240.234 36.4268 239.2 36.14C238.892 36.0489 238.578 35.9787 238.26 35.93C238.035 35.8876 237.808 35.8609 237.58 35.85L237.1 35.95Z" fill="#263238"/>
<path d="M193.85 145.14C193.41 133.06 192.97 120.93 190.65 109.07C188.33 97.21 185.41 85.65 177.94 76.07L108.05 79.78C105.35 90.49 102.64 101.46 103.76 112.43C104.84 123.09 109.52 133.43 108.76 144.07C108.23 151.62 105.01 158.68 102.65 165.87C100.29 173.06 98.7597 181.05 101.57 188.08C102.194 189.901 103.364 191.486 104.92 192.62C106.92 193.89 109.39 193.94 111.74 193.95C139.68 193.99 167.61 193.353 195.53 192.04C194.963 176.42 194.403 160.787 193.85 145.14Z" fill="#263238"/>
<path d="M183.2 106.12C183.358 113.589 181.924 121.005 178.993 127.876C176.061 134.747 171.701 140.915 166.2 145.97L158.62 124.16" fill="#263238"/>
<path d="M126.09 62.73C132.59 59.19 140.44 58.73 147.71 60.13C154.98 61.53 161.71 64.85 168.16 68.54C171.76 70.61 175.35 72.88 177.94 76.12C182.66 82.02 187.33 91.72 187.78 99.25C188.15 105.34 185.78 120.58 183.22 126.11C180.84 131.19 169.72 135.05 164.22 136.3L113.86 78.09C114.775 74.8453 116.328 71.8158 118.428 69.1784C120.528 66.541 123.133 64.3488 126.09 62.73Z" fill="#263238"/>
<path d="M117.4 70.61L129.48 68.46C122.88 84.09 121.09 119.81 117.31 136.33C112.86 129.91 102.53 110.33 103.08 102.59C103.63 94.85 103.06 69.25 117.4 70.61Z" fill="#263238"/>
<path d="M174.64 96.53C174.406 92.1686 172.788 87.9954 170.02 84.6165C167.253 81.2376 163.48 78.8288 159.25 77.74L131.33 70.66C119.33 69.37 111.33 84.06 110.5 96.05C109.63 109.37 109.09 123.42 110.65 133.36C113.8 153.36 129.2 155.93 129.2 155.93C129.2 155.93 129.2 160.54 129.2 166.38L129.51 167.11C136.66 183.86 160.25 184.63 168.51 168.39L174.71 96.8299C174.72 96.4699 174.67 97.08 174.64 96.53Z" fill="#FFBF9D"/>
<path d="M114.35 111.03C114.345 111.702 114.602 112.35 115.067 112.836C115.532 113.322 116.168 113.607 116.84 113.63C117.167 113.656 117.496 113.616 117.807 113.514C118.119 113.411 118.407 113.248 118.654 113.033C118.902 112.818 119.104 112.555 119.25 112.261C119.395 111.967 119.48 111.647 119.5 111.32C119.506 110.65 119.25 110.005 118.787 109.521C118.323 109.037 117.69 108.753 117.02 108.73C116.693 108.703 116.364 108.741 116.052 108.842C115.74 108.943 115.451 109.106 115.203 109.32C114.954 109.534 114.751 109.796 114.604 110.089C114.458 110.383 114.372 110.703 114.35 111.03Z" fill="#263238"/>
<path d="M113.52 103.88C113.84 104.21 115.79 102.78 118.57 102.79C121.35 102.8 123.37 104.19 123.68 103.85C123.82 103.7 123.5 103.1 122.61 102.46C121.413 101.628 119.988 101.184 118.53 101.19C117.096 101.189 115.697 101.636 114.53 102.47C113.65 103.12 113.36 103.73 113.52 103.88Z" fill="#263238"/>
<path d="M139.61 110.69C139.604 111.36 139.86 112.005 140.324 112.489C140.787 112.973 141.421 113.257 142.09 113.28C142.417 113.306 142.747 113.266 143.059 113.164C143.371 113.061 143.659 112.898 143.908 112.683C144.156 112.468 144.359 112.206 144.506 111.912C144.652 111.618 144.738 111.298 144.76 110.97C144.766 110.3 144.51 109.655 144.046 109.171C143.583 108.687 142.949 108.403 142.28 108.38C141.952 108.351 141.622 108.389 141.308 108.49C140.995 108.592 140.705 108.755 140.456 108.97C140.207 109.186 140.004 109.449 139.859 109.744C139.713 110.04 139.629 110.361 139.61 110.69Z" fill="#263238"/>
<path d="M139.87 103.88C140.19 104.21 142.15 102.78 144.92 102.79C147.69 102.8 149.72 104.19 150.03 103.85C150.17 103.7 149.85 103.1 148.96 102.46C147.762 101.628 146.338 101.184 144.88 101.19C143.446 101.189 142.047 101.636 140.88 102.47C139.96 103.12 139.71 103.73 139.87 103.88Z" fill="#263238"/>
<path d="M131.19 125.54C131.19 125.38 129.48 125.08 126.69 124.72C125.98 124.64 125.31 124.5 125.19 124.02C125.133 123.294 125.3 122.568 125.67 121.94L127.78 116.58C130.7 108.95 132.78 102.68 132.51 102.58C132.24 102.48 129.58 108.58 126.65 116.19C125.95 118.07 125.28 119.86 124.65 121.58C124.2 122.426 124.069 123.405 124.28 124.34C124.386 124.583 124.545 124.8 124.746 124.973C124.946 125.146 125.184 125.271 125.44 125.34C125.834 125.448 126.241 125.505 126.65 125.51C129.44 125.68 131.18 125.69 131.19 125.54Z" fill="#263238"/>
<path d="M155.87 148.82C155.87 148.82 149.33 162.54 129.21 160.63V155.93C138.581 156.055 147.805 153.595 155.87 148.82Z" fill="#FF9A6C"/>
<path d="M140.74 93.91C141.01 94.66 143.74 94.31 147.04 94.71C150.34 95.11 152.92 95.99 153.35 95.32C153.55 95 153.09 94.32 152.03 93.57C150.613 92.6774 149.013 92.1166 147.349 91.9296C145.685 91.7425 144 91.9341 142.42 92.49C141.22 92.97 140.62 93.55 140.74 93.91Z" fill="#263238"/>
<path d="M114.42 95.44C114.91 96.07 116.82 95.44 119.12 95.44C121.42 95.44 123.37 95.87 123.81 95.21C124.01 94.89 123.71 94.27 122.81 93.67C121.666 92.9596 120.338 92.6017 118.992 92.6408C117.646 92.6799 116.341 93.1144 115.24 93.8901C114.48 94.4901 114.21 95.13 114.42 95.44Z" fill="#263238"/>
<path d="M115.96 77.8C117.19 74.8 120.51 72.98 123.77 72.8C127.057 72.7905 130.278 73.724 133.05 75.49C145.05 82.37 151.17 98.98 163 106.1C165.91 107.85 169.7 106.25 172.18 108.57C174.66 110.89 176.26 114.57 174.89 117.68C176.586 115.592 177.967 113.267 178.99 110.78C179.498 109.534 179.731 108.193 179.674 106.849C179.617 105.505 179.271 104.189 178.66 102.99C177.66 101.23 175.83 99.88 175.33 97.91C174.9 96.17 175.59 94.36 175.51 92.57C175.306 90.749 174.676 89.0016 173.67 87.47C169.03 79.32 162.67 71.95 154.45 67.37C149.088 64.2929 142.991 62.7273 136.81 62.84C130.604 62.9764 124.65 65.3239 120.02 69.46C117.37 71.91 114.59 74.46 115.96 77.78" fill="#263238"/>
<path d="M171.89 111.06C172.1 110.49 182.59 106.73 182.73 117.81C182.86 128.57 171.93 126.45 171.91 126.14C171.89 125.83 171.89 111.06 171.89 111.06Z" fill="#FFBF9D"/>
<path d="M175.21 122.03C175.21 122.03 175.4 122.16 175.72 122.31C176.173 122.489 176.677 122.489 177.13 122.31C178.27 121.88 179.22 120.07 179.26 118.13C179.274 117.206 179.083 116.291 178.7 115.45C178.596 115.114 178.411 114.807 178.162 114.558C177.913 114.309 177.607 114.124 177.27 114.02C177.052 113.972 176.825 113.998 176.624 114.094C176.423 114.19 176.26 114.351 176.16 114.55C176.02 114.85 176.09 115.06 176.03 115.08C175.97 115.1 175.8 114.9 175.88 114.46C175.937 114.191 176.085 113.951 176.3 113.78C176.587 113.566 176.944 113.466 177.3 113.5C177.748 113.579 178.167 113.772 178.517 114.061C178.868 114.351 179.138 114.726 179.3 115.15C179.772 116.078 180.006 117.109 179.98 118.15C179.98 120.32 178.83 122.36 177.27 122.83C176.98 122.916 176.674 122.936 176.375 122.889C176.076 122.842 175.791 122.73 175.54 122.56C175.24 122.29 175.18 122.05 175.21 122.03Z" fill="#FF9A6C"/>
<path d="M176.2 105.53C175.97 105.428 175.75 105.308 175.54 105.17C175.13 104.91 174.49 104.56 173.73 104.02C171.596 102.471 169.635 100.698 167.88 98.73C165.323 95.792 162.936 92.7103 160.73 89.5C158.064 85.5701 155.074 81.8705 151.79 78.44C150.04 76.7258 148.108 75.2069 146.03 73.91C144.074 72.7263 141.982 71.7828 139.8 71.1C136.096 69.9129 132.201 69.4379 128.32 69.7C125.704 69.8516 123.121 70.3562 120.64 71.2C119.75 71.46 119.09 71.76 118.64 71.93C118.415 72.0362 118.181 72.1199 117.94 72.18C118.151 72.0501 118.372 71.9365 118.6 71.84C119.251 71.5267 119.919 71.2497 120.6 71.01C123.082 70.0956 125.681 69.5367 128.32 69.35C132.249 69.0423 136.2 69.4904 139.96 70.67C142.186 71.3459 144.319 72.2965 146.31 73.5C148.425 74.8109 150.391 76.3501 152.17 78.09C155.491 81.5353 158.503 85.2664 161.17 89.24C163.341 92.4462 165.677 95.537 168.17 98.5C169.892 100.47 171.801 102.268 173.87 103.87C174.61 104.42 175.23 104.8 175.62 105.08C175.823 105.217 176.017 105.367 176.2 105.53Z" fill="#455A64"/>
<path d="M173.47 108.61C173.64 111.55 173.78 114.61 172.41 117.26C171.04 119.91 167.6 121.65 165.03 120.19C162.93 119 162.3 116.33 161.95 113.95C160.95 107.1 160.45 100.17 159.36 93.32L173.47 108.61Z" fill="#263238"/>
<path d="M118.63 72.68C118.63 72.74 119.63 72.5 121.32 72.44C123.772 72.3963 126.209 72.8381 128.49 73.74C130.063 74.3462 131.569 75.1172 132.98 76.04C134.592 77.1196 136.138 78.2951 137.61 79.56C141.013 82.4197 144.058 85.68 146.68 89.27C148.05 91.19 149.27 93.17 150.59 94.99C151.837 96.7778 153.294 98.4094 154.93 99.85C157.738 102.219 160.808 104.259 164.08 105.93C166.85 107.39 169.17 108.41 170.77 109.11L172.62 109.9C172.83 110.002 173.052 110.079 173.28 110.13C173.093 109.99 172.887 109.876 172.67 109.79L170.87 108.9C169.3 108.13 167.02 107.05 164.29 105.56C161.076 103.85 158.058 101.795 155.29 99.43C153.699 98.0095 152.282 96.4049 151.07 94.65C149.77 92.84 148.55 90.86 147.16 88.92C144.511 85.2879 141.42 81.9994 137.96 79.13C136.459 77.8652 134.883 76.693 133.24 75.62C131.792 74.6931 130.246 73.9285 128.63 73.34C126.291 72.4586 123.795 72.0737 121.3 72.21C120.627 72.2454 119.958 72.3357 119.3 72.48C119.068 72.5137 118.842 72.5811 118.63 72.68Z" fill="#455A64"/>
<path d="M205.09 201.83L237.23 236.07C242.54 241.72 246.38 246.88 253.9 248.85C259.17 250.23 267.43 249.51 270.16 246.04C273.9 241.28 275.68 231.51 271.59 225.22C267.5 218.93 238.71 190.93 238.71 190.93L205.09 201.83Z" fill="#FFBF9D"/>
<path d="M249.61 198.85C249.61 198.85 216.21 159.23 203.51 159.23C203.51 159.23 195.51 173.23 195.22 180.94C194.93 188.65 220.96 224.47 220.96 224.47L249.61 198.85Z" fill="#FFBE21"/>
<path d="M214.04 211.74L203.42 159.15L169.08 158.79C156.43 173.1 143.5 183.35 128.78 166.89L92.6099 181.11L102.01 232.18L211.09 232.11C215.34 218.12 214.04 211.74 214.04 211.74Z" fill="#FFBE21"/>
<path d="M68.2798 232.11C68.2798 230 80.3898 186.11 92.6098 181.11L102.05 195.61L104.71 232.18L68.2798 232.11Z" fill="#FFBE21"/>
<path d="M220.96 224.47C220.634 224.164 220.336 223.829 220.07 223.47C219.52 222.82 218.75 221.85 217.81 220.64C215.93 218.23 213.42 214.83 210.62 211.1C207.82 207.37 205.24 204.03 203.3 201.68C202.3 200.5 201.54 199.55 200.98 198.9C200.675 198.596 200.404 198.261 200.17 197.9C200.533 198.169 200.868 198.474 201.17 198.81C201.78 199.42 202.61 200.34 203.62 201.49C205.62 203.79 208.28 207.1 211.08 210.83C213.88 214.56 216.34 218 218.15 220.47L220.27 223.4C220.537 223.732 220.768 224.09 220.96 224.47Z" fill="#263238"/>
<path d="M97.6198 232.61C97.4411 232.202 97.307 231.776 97.2198 231.34C96.9998 230.52 96.7298 229.34 96.4398 227.83C94.9446 220.016 94.7453 212.009 95.8498 204.13C96.0598 202.62 96.2798 201.41 96.4598 200.58C96.5292 200.144 96.6397 199.715 96.7898 199.3C96.7963 199.74 96.7526 200.18 96.6598 200.61C96.5398 201.45 96.3798 202.67 96.2098 204.18C95.3188 212.03 95.5174 219.965 96.7998 227.76C97.0398 229.26 97.2598 230.47 97.4198 231.3C97.5272 231.729 97.5942 232.168 97.6198 232.61Z" fill="#263238"/>
<path d="M96.5901 168.7C96.5901 168.84 96.9702 168.94 97.6602 168.92C98.6828 168.864 99.6848 168.609 100.61 168.17C102.083 167.469 103.404 166.487 104.5 165.28C105.952 163.678 107.056 161.791 107.74 159.74C108.548 157.324 109.01 154.806 109.11 152.26C109.26 149.57 109.21 146.78 109.11 143.82C108.88 137.92 108.18 131.5 107.4 124.82C106.62 118.14 105.9 111.82 105.61 106.1C105.313 101.035 105.376 95.9557 105.8 90.9C106.56 82.27 108.37 77.11 107.8 76.9C107.67 76.9 107.43 77.12 107.08 77.69C106.907 77.9767 106.707 78.3366 106.48 78.77C106.27 79.21 106.05 79.77 105.8 80.3C104.484 83.5964 103.531 87.0267 102.96 90.53C102.101 95.7204 101.736 100.981 101.87 106.24C101.96 112.16 102.58 118.61 103.36 125.3C104.14 131.99 104.94 138.3 105.36 144.04C105.56 146.91 105.74 149.66 105.74 152.15C105.776 154.419 105.527 156.683 105 158.89C104.263 162.049 102.436 164.846 99.8401 166.79C97.9601 168.13 96.5401 168.38 96.5901 168.7Z" fill="#263238"/>
<path d="M132.82 130.82C133.323 130.145 133.988 129.608 134.753 129.258C135.519 128.908 136.361 128.758 137.2 128.82C137.81 128.851 138.408 129.004 138.957 129.27C139.507 129.537 139.998 129.911 140.4 130.37C140.785 130.812 141.025 131.363 141.086 131.946C141.146 132.53 141.026 133.118 140.74 133.63C140.309 134.132 139.739 134.494 139.101 134.672C138.464 134.85 137.789 134.835 137.16 134.63C135.84 134.206 134.617 133.527 133.56 132.63C133.24 132.423 132.962 132.159 132.74 131.85C132.642 131.702 132.59 131.528 132.59 131.35C132.59 131.172 132.642 130.998 132.74 130.85" fill="#FF9A6C"/>
<path d="M139.58 125.84C139.13 125.84 139.24 128.84 136.76 131.01C134.28 133.18 131.08 133.01 131.08 133.44C131.08 133.63 131.81 133.99 133.16 133.97C134.912 133.93 136.593 133.275 137.91 132.12C139.172 131.012 139.95 129.454 140.08 127.78C140.15 126.54 139.79 125.81 139.58 125.84Z" fill="#263238"/>
<path d="M191.43 113.5C195.22 127.25 192 145.63 195.75 156.68C199.5 167.73 202.22 179.98 197.98 190.84C196.04 186.56 194.097 182.28 192.15 178C193.305 180.54 193.795 183.332 193.574 186.113C193.354 188.894 192.43 191.574 190.89 193.9C187.77 198.51 172.05 202.44 166.47 202.18C160.81 172.36 162.38 149.56 172.14 126.51L179.67 134.84L186.46 131.94L191.43 113.5Z" fill="#263238"/>
<path d="M131.96 109.99C132.04 108.936 132.2 107.89 132.44 106.86C132.751 105.664 133.24 104.521 133.89 103.47C134.831 101.915 136.089 100.577 137.583 99.543C139.078 98.5089 140.773 97.8025 142.56 97.47C144.81 97.0585 147.129 97.2517 149.28 98.03C150.435 98.4404 151.52 99.0237 152.5 99.76C153.01 100.137 153.495 100.548 153.95 100.99C154.401 101.45 154.818 101.941 155.2 102.46C156.812 104.628 157.683 107.258 157.683 109.96C157.683 112.662 156.812 115.292 155.2 117.46C154.816 117.98 154.398 118.474 153.95 118.94C153.495 119.379 153.01 119.787 152.5 120.16C151.523 120.9 150.436 121.484 149.28 121.89C147.129 122.668 144.811 122.864 142.56 122.46C140.776 122.121 139.083 121.412 137.589 120.378C136.096 119.345 134.836 118.01 133.89 116.46C133.242 115.404 132.753 114.259 132.44 113.06C132.201 112.034 132.04 110.991 131.96 109.94C131.949 110.01 131.949 110.08 131.96 110.15C131.96 110.31 131.96 110.51 131.96 110.76C131.961 111.095 131.988 111.429 132.04 111.76C132.093 112.212 132.177 112.659 132.29 113.1C132.574 114.322 133.046 115.493 133.69 116.57C134.636 118.167 135.91 119.546 137.429 120.613C138.948 121.68 140.676 122.412 142.5 122.76C144.807 123.193 147.188 123.007 149.4 122.22C150.598 121.801 151.724 121.201 152.74 120.44C153.81 119.67 154.752 118.735 155.53 117.67C157.195 115.435 158.094 112.722 158.094 109.935C158.094 107.148 157.195 104.435 155.53 102.2C155.138 101.665 154.707 101.161 154.24 100.69C153.772 100.237 153.274 99.8163 152.75 99.43C151.734 98.6721 150.608 98.0751 149.41 97.66C147.345 96.9183 145.128 96.7082 142.961 97.049C140.794 97.3897 138.747 98.2705 137.01 99.61C135.681 100.623 134.563 101.887 133.72 103.33C133.069 104.405 132.593 105.576 132.31 106.8C132.197 107.244 132.113 107.695 132.06 108.15C132.008 108.481 131.981 108.815 131.98 109.15C131.98 109.4 131.98 109.61 131.98 109.77C131.961 109.842 131.954 109.916 131.96 109.99Z" fill="#455A64"/>
<path d="M102.9 109.43C102.974 108.375 103.134 107.328 103.38 106.3C103.689 105.103 104.177 103.96 104.83 102.91C106.372 100.369 108.748 98.4412 111.553 97.4564C114.358 96.4716 117.417 96.4906 120.21 97.51C121.369 97.9179 122.458 98.5014 123.44 99.24C123.951 99.6129 124.435 100.021 124.89 100.46C125.335 100.925 125.753 101.416 126.14 101.93C127.75 104.099 128.62 106.729 128.62 109.43C128.62 112.131 127.75 114.761 126.14 116.93C125.756 117.447 125.338 117.938 124.89 118.4C124.432 118.837 123.948 119.244 123.44 119.62C122.459 120.36 121.369 120.944 120.21 121.35C117.418 122.371 114.357 122.391 111.552 121.406C108.747 120.421 106.371 118.493 104.83 115.95C104.177 114.9 103.689 113.757 103.38 112.56C103.134 111.532 102.974 110.485 102.9 109.43C102.889 109.5 102.889 109.57 102.9 109.64C102.9 109.8 102.9 110 102.9 110.25C102.896 110.585 102.923 110.92 102.98 111.25C103.025 111.702 103.105 112.15 103.22 112.59C103.508 113.816 103.983 114.99 104.63 116.07C105.573 117.666 106.846 119.043 108.364 120.109C109.881 121.174 111.608 121.904 113.43 122.25C115.74 122.688 118.126 122.502 120.34 121.71C121.533 121.293 122.656 120.696 123.67 119.94C124.197 119.553 124.698 119.132 125.17 118.68C125.634 118.203 126.065 117.696 126.46 117.16C128.128 114.928 129.03 112.217 129.03 109.43C129.03 106.643 128.128 103.932 126.46 101.7C126.065 101.164 125.634 100.657 125.17 100.18C124.698 99.7276 124.197 99.3067 123.67 98.92C122.655 98.166 121.532 97.5693 120.34 97.15C118.126 96.3581 115.74 96.1718 113.43 96.61C111.608 96.9558 109.881 97.6858 108.364 98.7515C106.846 99.8171 105.573 101.194 104.63 102.79C103.985 103.868 103.51 105.038 103.22 106.26C103.099 106.703 103.012 107.154 102.96 107.61C102.903 107.94 102.876 108.275 102.88 108.61C102.88 108.86 102.88 109.06 102.88 109.22C102.875 109.291 102.882 109.361 102.9 109.43Z" fill="#455A64"/>
<path d="M128.57 107.83C128.63 107.83 128.78 107.66 129.08 107.43C129.463 107.128 129.927 106.948 130.413 106.91C130.899 106.873 131.385 106.981 131.81 107.22C132.14 107.4 132.32 107.57 132.37 107.53C132.42 107.49 132.3 107.25 131.97 106.98C131.518 106.628 130.951 106.457 130.38 106.5C129.807 106.542 129.271 106.799 128.88 107.22C128.6 107.54 128.53 107.81 128.57 107.83Z" fill="#455A64"/>
<path d="M157.48 106.7C160.063 107.45 162.683 108.068 165.33 108.55C167.95 109.171 170.6 109.658 173.27 110.01C168.068 108.634 162.797 107.529 157.48 106.7Z" fill="#455A64"/>
<path d="M151.52 119.02C151.797 118.966 152.06 118.853 152.29 118.69C152.942 118.28 153.517 117.758 153.99 117.15C154.713 116.269 155.294 115.281 155.71 114.22C156.201 112.915 156.455 111.534 156.46 110.14C156.464 107.597 155.693 105.114 154.25 103.02C153.822 102.385 153.322 101.801 152.76 101.28C152.565 101.08 152.343 100.908 152.1 100.77C152.797 101.523 153.436 102.329 154.01 103.18C155.33 105.275 156.024 107.704 156.01 110.18C156.031 112.65 155.229 115.056 153.73 117.02C153.286 117.62 152.757 118.152 152.16 118.6C151.77 118.87 151.5 118.98 151.52 119.02Z" fill="white"/>
<path d="M145.82 121.04C146.613 121.117 147.412 121 148.15 120.7C148.925 120.517 149.643 120.146 150.24 119.62C149.478 119.772 148.734 120.003 148.02 120.31C147.264 120.478 146.527 120.723 145.82 121.04Z" fill="white"/>
<path d="M115.53 98.18C115.53 98.25 116.41 98.25 117.78 98.55C119.559 98.9226 121.238 99.6712 122.704 100.746C124.17 101.82 125.389 103.196 126.28 104.78C126.97 106 127.23 106.83 127.28 106.78C127.33 106.73 127.28 106.55 127.15 106.17C126.986 105.636 126.775 105.117 126.52 104.62C125.669 102.953 124.439 101.507 122.93 100.4C121.417 99.2913 119.668 98.5486 117.82 98.23C117.261 98.1356 116.696 98.0887 116.13 98.09C115.926 98.0782 115.721 98.1089 115.53 98.18Z" fill="white"/>
<path d="M126.65 112.93C127.132 112.366 127.429 111.668 127.5 110.93C127.698 110.208 127.663 109.441 127.4 108.74C127.259 109.44 127.159 110.148 127.1 110.86C126.909 111.541 126.759 112.232 126.65 112.93Z" fill="white"/>
<path d="M155.8 205.61C156.02 205.75 156.86 204.96 158.02 203.27C159.616 200.845 160.9 198.227 161.84 195.48C163.24 191.436 164.212 187.257 164.74 183.01C165.38 177.9 165.754 172.759 165.86 167.61C166.03 162.17 166.18 157.05 166.58 152.43C166.886 148.358 167.491 144.313 168.39 140.33C169.94 133.55 172.04 129.65 171.47 129.33C171.24 129.2 170.47 130 169.29 131.71C167.744 134.164 166.502 136.797 165.59 139.55C164.244 143.608 163.316 147.793 162.82 152.04C162.2 156.81 161.93 162.04 161.76 167.49C161.59 172.94 161.41 178.03 160.99 182.64C160.647 186.706 160.001 190.74 159.06 194.71C157.42 201.43 155.24 205.28 155.8 205.61Z" fill="#263238"/>
<path d="M179.96 125.61C179.96 125.61 180.21 125.82 180.57 126.26C181.061 126.894 181.366 127.652 181.45 128.45C181.513 129.03 181.441 129.618 181.24 130.166C181.039 130.714 180.713 131.208 180.29 131.61C179.785 132.117 179.158 132.485 178.47 132.678C177.781 132.871 177.054 132.882 176.36 132.71C175.663 132.542 175.016 132.209 174.475 131.739C173.934 131.27 173.514 130.676 173.25 130.01C172.833 128.901 172.833 127.679 173.25 126.57C173.492 125.808 174.009 125.163 174.7 124.76C174.97 124.641 175.256 124.563 175.55 124.53C175.55 124.53 175.47 124.53 175.32 124.53C175.087 124.52 174.855 124.561 174.64 124.65C173.865 125.025 173.269 125.689 172.98 126.5C172.493 127.673 172.464 128.987 172.9 130.18C173.172 130.917 173.62 131.576 174.206 132.099C174.792 132.622 175.497 132.993 176.26 133.18C177.051 133.378 177.881 133.353 178.66 133.11C179.377 132.881 180.028 132.483 180.56 131.95C181.038 131.466 181.398 130.877 181.61 130.23C181.779 129.663 181.824 129.066 181.74 128.48C181.628 127.64 181.261 126.855 180.69 126.23C180.503 125.965 180.252 125.751 179.96 125.61Z" fill="#E0E0E0"/>
<path d="M248.53 155.23L247.53 142.23L244.86 125.76L240.72 112.28C240.72 112.28 239.88 111 238.24 112.21C236.6 113.42 238.93 120.77 238.93 120.77L239.82 126.39C239.82 126.39 239.26 130.86 238.9 130.53C238.54 130.2 236.6 122.69 236.6 122.69L231.6 106.69C231.313 106.208 230.854 105.854 230.316 105.698C229.777 105.542 229.2 105.596 228.7 105.85C227.61 106.32 227.05 108.03 227.46 110.44C227.87 112.85 229.37 116.84 229.63 118.21C229.89 119.58 231.63 127.44 231.63 127.44L224.14 109.61C224.14 109.61 222.46 103.76 220.06 104.89C217.66 106.02 219.78 110.11 220.06 111.95C220.34 113.79 225.34 125.87 225.41 129.38C225.48 132.89 224.74 131.22 224.74 131.22L221.04 121.22C219.41 116.81 217.4 114.38 215.39 114.22C213.38 114.06 217.17 124.3 217.17 124.3L222.1 138.6L221.77 143.36L218.07 139.61C218.07 139.61 217.38 134.12 213.67 132.2C209.96 130.28 209.35 132.95 209.35 132.95L218.11 153.55C220.01 156.86 230.62 162.55 230.62 162.55L234.7 183.71L256.87 180.02L248.53 155.23Z" fill="#FFBF9D"/>
<path d="M239.96 148.38C238.839 147.752 237.769 147.036 236.76 146.24C234.85 144.99 231.85 143.24 228.38 143.81C226.936 143.982 225.593 144.638 224.57 145.67L224.23 146.02L223.96 145.61C222.35 143.91 220.67 142.47 219.64 141.4C218.61 140.33 217.96 139.61 218.07 139.61C218.749 140.026 219.386 140.508 219.97 141.05C221.13 142.05 222.77 143.25 224.63 145.11H223.93C225.077 143.895 226.612 143.117 228.27 142.91C230.052 142.659 231.87 142.894 233.53 143.59C234.846 144.139 236.081 144.866 237.2 145.75C238.263 146.463 239.196 147.352 239.96 148.38Z" fill="#FF9A6C"/>
<path d="M243.21 231L231.35 165.07L249.3 157.29L273.53 229.96L243.21 231Z" fill="#FFBF9D"/>
<path d="M244.88 231.61C244.542 230.746 244.275 229.857 244.08 228.95C243.63 227.22 243 224.71 242.27 221.6C240.81 215.39 238.93 206.77 236.99 197.23C235.05 187.69 233.42 179.02 232.28 172.74L230.98 165.29C230.783 164.385 230.663 163.465 230.62 162.54C230.922 163.417 231.153 164.316 231.31 165.23L232.88 172.62C234.17 179.01 235.88 187.62 237.88 197.06C239.88 206.5 241.59 215.06 242.88 221.47C243.5 224.47 244.02 226.98 244.42 228.87C244.638 229.771 244.792 230.687 244.88 231.61Z" fill="#FF9A6C"/>
<path d="M200.28 69.23L214.45 71.76C221.582 79.8064 231.466 84.8939 242.16 86.0225C252.853 87.1511 263.581 84.2392 272.236 77.8591C280.891 71.4789 286.847 62.0921 288.932 51.5438C291.018 40.9954 289.082 30.0485 283.506 20.8548C277.93 11.6611 269.117 4.88575 258.799 1.86041C248.48 -1.16494 237.404 -0.22137 227.746 4.50561C218.088 9.23259 210.548 17.401 206.607 27.4054C202.666 37.4097 202.61 48.5264 206.45 58.57L200.28 69.23Z" fill="#FAFAFA"/>
<path d="M200.28 69.23L200.66 68.55L201.81 66.5C202.81 64.67 204.39 61.98 206.37 58.5C206.388 58.4817 206.414 58.4714 206.44 58.4714C206.466 58.4714 206.491 58.4817 206.51 58.5L206.32 58.6C203.766 51.9695 202.887 44.8115 203.76 37.76C204.045 35.5418 204.5 33.3488 205.12 31.2C205.45 30.08 205.89 28.98 206.28 27.85C206.679 26.6924 207.164 25.566 207.73 24.48C210.003 19.704 213.147 15.3937 217 11.77C221.446 7.59378 226.721 4.40003 232.482 2.39633C238.243 0.392628 244.362 -0.376102 250.44 0.140042C257.182 0.810538 263.68 3.02435 269.43 6.61001C270.912 7.51868 272.335 8.52071 273.69 9.61001C274.389 10.1478 275.057 10.7254 275.69 11.34C276.32 11.95 277.02 12.5 277.6 13.16C278.828 14.4392 279.974 15.7953 281.03 17.22C281.56 17.94 282.1 18.65 282.61 19.38L283.96 21.61C287.319 27.4598 289.263 34.0145 289.636 40.75C290.01 47.4854 288.802 54.2147 286.11 60.4C283.72 65.8715 280.222 70.7882 275.836 74.8399C271.451 78.8915 266.273 81.9901 260.63 83.94C255.708 85.6469 250.516 86.4399 245.31 86.28C242.934 86.2052 240.567 85.9512 238.23 85.52C236.062 85.0385 233.922 84.4376 231.82 83.72C225.095 81.2683 219.095 77.166 214.37 71.79H214.43L203.86 69.79L201.17 69.29C200.57 69.18 200.28 69.11 200.28 69.11L201.22 69.26L203.95 69.72L214.47 71.52H214.54C219.257 76.8865 225.247 80.9819 231.96 83.43C234.044 84.1387 236.168 84.7264 238.32 85.19C240.631 85.6134 242.971 85.8608 245.32 85.93C256.252 86.218 266.878 82.3024 275.01 74.99C279.57 70.888 283.201 65.8591 285.66 60.24C288.313 54.1254 289.5 47.4752 289.127 40.8202C288.754 34.1652 286.83 27.6896 283.51 21.91C283.05 21.15 282.6 20.39 282.15 19.63C281.7 18.87 281.1 18.2 280.59 17.49C279.541 16.0898 278.409 14.754 277.2 13.49C276.62 12.83 275.93 12.29 275.31 11.69C274.675 11.084 274.007 10.5132 273.31 9.98001C271.974 8.89356 270.571 7.89161 269.11 6.98001C263.455 3.4582 257.068 1.2791 250.44 0.610013C244.429 0.0922939 238.377 0.843134 232.674 2.81387C226.972 4.78461 221.748 7.93128 217.34 12.05C213.523 15.6381 210.401 19.8994 208.13 24.62C207.57 25.6952 207.086 26.8079 206.68 27.95C206.29 29.08 205.85 30.17 205.52 31.27C202.897 40.2156 203.265 49.773 206.57 58.49C206.576 58.503 206.58 58.5172 206.58 58.5317C206.581 58.5462 206.578 58.5606 206.572 58.5739C206.566 58.5872 206.558 58.5991 206.547 58.6088C206.536 58.6185 206.524 58.6257 206.51 58.63C206.492 58.643 206.471 58.65 206.45 58.65C206.428 58.65 206.407 58.643 206.39 58.63H206.57L201.96 66.48L200.75 68.48L200.28 69.23Z" fill="#263238"/>
<path d="M259.74 44.45C259.74 43.5853 259.996 42.74 260.477 42.0211C260.957 41.3022 261.641 40.7421 262.44 40.4117C263.239 40.0812 264.118 39.9952 264.966 40.1647C265.814 40.3341 266.593 40.7513 267.203 41.3634C267.814 41.9756 268.229 42.7552 268.397 43.6036C268.564 44.4519 268.476 45.3309 268.144 46.1293C267.812 46.9276 267.25 47.6094 266.53 48.0884C265.81 48.5673 264.964 48.822 264.1 48.82C262.942 48.8173 261.833 48.3557 261.016 47.5365C260.199 46.7172 259.74 45.6073 259.74 44.45Z" fill="#263238"/>
<path d="M242.27 44.45C242.27 43.5857 242.526 42.7408 243.006 42.0221C243.486 41.3035 244.169 40.7434 244.967 40.4126C245.766 40.0819 246.644 39.9953 247.492 40.1639C248.34 40.3325 249.118 40.7487 249.73 41.3599C250.341 41.9711 250.757 42.7497 250.926 43.5974C251.094 44.4451 251.008 45.3238 250.677 46.1223C250.346 46.9208 249.786 47.6033 249.067 48.0835C248.349 48.5637 247.504 48.82 246.64 48.82C245.481 48.82 244.369 48.3595 243.549 47.54C242.73 46.7205 242.27 45.609 242.27 44.45Z" fill="#263238"/>
<path d="M224.85 46.61C224.424 45.8629 224.229 45.0068 224.289 44.1492C224.349 43.2916 224.661 42.4708 225.186 41.79C225.711 41.1092 226.425 40.5988 227.239 40.3229C228.053 40.0471 228.931 40.018 229.762 40.2396C230.592 40.4611 231.339 40.9232 231.908 41.5679C232.477 42.2125 232.842 43.0109 232.958 43.8627C233.075 44.7145 232.936 45.5817 232.561 46.3552C232.186 47.1287 231.591 47.7739 230.85 48.21C230.352 48.503 229.8 48.6941 229.228 48.7723C228.655 48.8504 228.073 48.814 227.515 48.6652C226.957 48.5163 226.434 48.2579 225.976 47.9051C225.518 47.5523 225.136 47.1121 224.85 46.61Z" fill="#263238"/>
</g>
<defs>
<clipPath id="clip0_110_673">
<rect width="289.72" height="249.51" fill="white"/>
</clipPath>
</defs>
</svg>
