<?xml version="1.0" encoding="UTF-8"?>
<!DOCTYPE svg PUBLIC "-//W3C//DTD SVG 1.1//EN" "http://www.w3.org/Graphics/SVG/1.1/DTD/svg11.dtd">
<svg width="132pt" height="132pt" viewBox="0 0 132 132" version="1.1" xmlns="http://www.w3.org/2000/svg">
<g id="#9e9e9eff">
<path fill="#9e9e9e" opacity="1.00" d=" M 64.28 0.00 L 67.73 0.00 C 77.45 0.81 86.23 8.42 87.72 18.17 C 89.57 27.60 84.33 37.66 75.68 41.76 C 67.06 46.16 55.74 43.89 49.45 36.54 C 42.49 29.03 42.08 16.52 48.50 8.56 C 52.21 3.56 58.16 0.65 64.28 0.00 Z"/>
<path fill="#9e9e9e" opacity="1.00" d=" M 96.41 47.56 C 91.22 43.62 93.58 33.99 100.17 33.19 C 104.30 32.05 107.47 35.41 109.48 38.55 C 113.23 44.33 119.06 48.44 122.50 54.44 C 126.41 60.90 126.20 69.37 132.00 74.76 L 132.00 76.71 C 127.99 87.77 124.16 98.91 119.68 109.80 C 115.67 109.97 111.65 110.10 107.64 110.18 C 108.42 103.22 110.46 96.28 109.70 89.23 C 108.70 81.76 101.22 76.77 93.97 77.10 C 75.27 77.09 56.57 77.09 37.88 77.11 C 30.64 76.76 23.33 81.85 22.30 89.24 C 21.54 96.29 23.61 103.23 24.38 110.20 C 20.36 110.10 16.34 109.96 12.32 109.77 C 7.86 98.71 3.72 87.51 0.00 76.18 L 0.00 72.93 C 7.23 71.28 14.67 71.37 22.03 71.52 C 24.40 60.06 34.01 50.17 46.06 49.69 C 59.71 49.41 73.40 49.24 87.04 49.80 C 98.98 50.61 107.31 60.90 110.45 71.69 C 113.60 71.57 116.74 71.44 119.89 71.26 C 118.21 64.19 115.71 56.87 110.21 51.82 C 106.45 48.30 100.72 49.86 96.41 47.56 Z"/>
<path fill="#9e9e9e" opacity="1.00" d=" M 34.10 89.09 C 37.22 87.89 40.63 87.97 43.92 87.93 C 58.98 88.16 74.04 88.12 89.10 88.01 C 92.05 88.06 95.09 88.05 97.89 89.10 C 99.70 92.90 98.32 97.19 97.87 101.15 C 95.82 111.41 95.50 122.05 92.00 132.00 L 40.45 132.00 C 36.30 123.80 36.83 114.27 34.85 105.46 C 34.30 100.09 31.90 94.33 34.10 89.09 Z"/>
</g>
</svg>