<?xml version="1.0" encoding="UTF-8"?>
<!DOCTYPE svg PUBLIC "-//W3C//DTD SVG 1.1//EN" "http://www.w3.org/Graphics/SVG/1.1/DTD/svg11.dtd">
<svg width="116pt" height="126pt" viewBox="0 0 116 126" version="1.1" xmlns="http://www.w3.org/2000/svg">
<g id="#ffffffff">
</g>
<g id="#9e9e9eff">
<path fill="#9e9e9e" opacity="1.00" d=" M 14.43 0.00 L 51.59 0.00 C 46.45 2.16 41.15 4.27 36.72 7.73 C 30.83 12.37 29.97 22.27 35.33 27.63 C 37.24 29.71 39.65 31.34 41.21 33.72 C 42.98 38.57 42.21 44.25 45.32 48.63 C 49.60 54.77 56.77 57.91 63.50 60.59 C 73.51 64.53 84.54 63.31 94.79 61.05 C 94.80 72.73 94.76 84.42 94.90 96.10 C 94.75 99.25 94.94 104.29 90.71 104.67 C 81.59 105.91 72.34 104.68 63.17 105.16 C 63.39 112.11 63.21 119.08 62.40 126.00 L 57.81 126.00 C 54.29 123.01 50.94 119.83 47.31 116.96 C 43.99 120.01 40.77 123.18 37.24 126.00 L 33.23 126.00 C 31.67 119.15 31.76 112.09 31.97 105.11 C 25.70 105.05 19.37 105.57 13.14 104.64 C 6.20 103.57 0.17 97.31 0.55 90.06 C 0.69 65.04 0.47 39.99 0.65 14.97 C 0.47 7.15 7.13 1.25 14.43 0.00 M 14.43 84.45 C 9.80 85.34 9.38 93.23 14.20 94.07 C 20.10 94.95 26.09 94.28 32.02 94.18 C 32.02 90.81 32.01 87.44 31.98 84.08 C 26.14 84.05 20.20 83.25 14.43 84.45 M 63.15 84.09 C 63.15 87.45 63.14 90.81 63.12 94.17 C 70.15 94.52 77.20 94.49 84.24 94.19 C 84.28 90.80 84.28 87.41 84.24 84.02 C 77.21 83.85 70.18 83.84 63.15 84.09 Z"/>
<path fill="#9e9e9e" opacity="1.00" d=" M 77.47 0.00 L 79.72 0.00 C 88.40 3.65 96.86 7.84 105.56 11.44 C 108.79 12.89 112.26 14.10 114.90 16.54 C 116.27 18.88 114.74 21.46 112.44 22.38 C 105.07 26.27 97.17 29.03 89.65 32.61 C 85.02 34.57 79.80 37.87 74.73 35.25 C 65.94 31.37 57.08 27.62 48.29 23.73 C 45.75 22.37 41.89 20.92 42.23 17.40 C 44.63 14.83 47.98 13.50 51.12 12.08 C 60.02 8.31 68.86 4.40 77.47 0.00 Z"/>
<path fill="#9e9e9e" opacity="1.00" d=" M 52.87 34.73 C 61.91 37.28 69.71 43.44 79.08 44.77 C 88.48 43.60 96.20 37.17 105.27 34.72 C 104.95 38.04 105.34 42.10 102.43 44.44 C 89.31 54.76 69.45 54.97 56.16 44.82 C 52.98 42.49 53.18 38.24 52.87 34.73 Z"/>
</g>
</svg>