<?xml version="1.0" encoding="UTF-8"?>
<!DOCTYPE svg PUBLIC "-//W3C//DTD SVG 1.1//EN" "http://www.w3.org/Graphics/SVG/1.1/DTD/svg11.dtd">
<svg width="117pt" height="118pt" viewBox="0 0 117 118" version="1.1" xmlns="http://www.w3.org/2000/svg">
<g id="#ffffffff">
</g>
<g id="#9e9e9eff">
<path fill="#9e9e9e" opacity="1.00" d=" M 113.62 0.00 L 117.00 0.00 L 117.00 3.47 C 110.36 35.45 102.71 67.22 96.23 99.24 C 95.54 101.67 95.08 104.47 93.09 106.22 C 90.51 108.10 87.31 106.44 84.92 105.08 C 78.79 101.31 73.25 96.62 66.90 93.18 C 56.24 100.77 46.91 110.06 36.52 118.00 L 33.80 118.00 C 32.48 102.26 31.77 86.46 30.24 70.75 C 20.36 66.39 8.82 65.71 0.00 59.16 L 0.00 55.09 C 4.95 49.67 12.28 47.79 18.63 44.59 C 50.25 29.64 82.25 15.46 113.62 0.00 M 37.86 67.82 C 36.19 69.07 34.63 70.72 35.01 72.99 C 35.48 84.06 36.49 95.11 37.33 106.16 C 42.58 96.77 45.12 86.04 51.02 77.02 C 66.27 58.35 82.06 40.11 97.12 21.28 C 77.42 36.86 57.70 52.42 37.86 67.82 M 52.24 83.77 C 48.42 91.63 45.00 99.70 41.89 107.87 C 48.98 102.19 56.09 96.49 62.74 90.30 C 59.48 87.75 56.06 85.39 52.24 83.77 Z"/>
</g>
</svg>