<?xml version="1.0" encoding="UTF-8"?>
<!DOCTYPE svg PUBLIC "-//W3C//DTD SVG 1.1//EN" "http://www.w3.org/Graphics/SVG/1.1/DTD/svg11.dtd">
<svg width="126pt" height="126pt" viewBox="0 0 126 126" version="1.1" xmlns="http://www.w3.org/2000/svg">
<g id="#ffffffff">
</g>
<g id="#a6a6a6ff">
<path fill="#a6a6a6" opacity="1.00" d=" M 58.76 0.00 L 60.82 0.00 C 51.39 8.73 41.84 17.55 35.78 29.08 C 27.43 29.60 19.06 29.56 10.71 29.07 C 20.59 12.26 39.57 1.73 58.76 0.00 Z"/>
<path fill="#a6a6a6" opacity="1.00" d=" M 66.36 0.00 L 69.30 0.00 C 88.42 1.98 106.91 12.59 117.04 29.12 C 109.68 29.36 102.31 29.70 94.95 29.32 C 90.95 29.51 89.38 25.24 87.42 22.53 C 82.19 13.50 73.85 7.02 66.36 0.00 Z"/>
<path fill="#a6a6a6" opacity="1.00" d=" M 67.25 11.05 C 73.57 16.02 79.03 22.08 82.99 29.10 C 77.77 29.55 72.51 29.58 67.30 29.01 C 67.32 23.02 67.28 17.03 67.25 11.05 Z"/>
<path fill="#a6a6a6" opacity="1.00" d=" M 44.66 29.08 C 48.15 22.12 53.46 16.14 59.81 11.66 C 60.17 17.48 60.10 23.31 59.90 29.13 C 54.83 29.50 49.73 29.54 44.66 29.08 Z"/>
<path fill="#a6a6a6" opacity="1.00" d=" M 6.11 37.02 C 14.80 36.46 23.52 36.59 32.21 36.95 C 30.59 44.16 28.56 51.34 28.55 58.80 C 19.31 59.07 10.07 59.02 0.82 58.86 C 1.24 51.33 2.86 43.85 6.11 37.02 Z"/>
<path fill="#a6a6a6" opacity="1.00" d=" M 40.31 37.17 C 46.82 36.40 53.39 36.56 59.92 36.93 C 60.09 44.25 60.09 51.58 59.91 58.90 C 51.85 59.01 43.78 59.01 35.72 58.89 C 35.76 51.41 37.85 44.17 40.31 37.17 Z"/>
<path fill="#a6a6a6" opacity="1.00" d=" M 67.30 37.08 C 73.82 36.48 80.38 36.49 86.91 37.01 C 89.43 44.03 91.74 51.25 91.95 58.78 C 83.74 59.08 75.51 59.06 67.29 58.79 C 67.31 51.56 67.31 44.32 67.30 37.08 Z"/>
<path fill="#a6a6a6" opacity="1.00" d=" M 95.13 36.94 C 103.97 36.60 112.84 36.32 121.66 37.20 C 123.38 41.89 125.10 46.61 126.00 51.54 L 126.00 58.99 C 117.10 58.83 108.20 59.18 99.30 58.79 C 98.66 51.38 97.18 44.08 95.13 36.94 Z"/>
<path fill="#a6a6a6" opacity="1.00" d=" M 0.94 66.29 C 9.91 66.34 18.88 66.26 27.85 66.36 C 28.66 74.07 30.51 81.60 32.06 89.19 C 23.40 89.44 14.73 89.54 6.07 89.14 C 2.85 81.97 0.97 74.17 0.94 66.29 Z"/>
<path fill="#a6a6a6" opacity="1.00" d=" M 35.86 66.29 C 43.85 66.31 51.83 66.33 59.82 66.28 C 60.15 73.89 60.09 81.51 59.91 89.13 C 53.47 89.16 46.82 90.26 40.50 88.70 C 37.31 81.74 35.91 73.93 35.86 66.29 Z"/>
<path fill="#a6a6a6" opacity="1.00" d=" M 67.30 66.30 C 75.50 66.33 83.69 66.27 91.88 66.34 C 91.51 74.11 89.97 81.87 86.92 89.04 C 80.39 89.56 73.82 89.63 67.30 89.01 C 67.31 81.44 67.32 73.87 67.30 66.30 Z"/>
<path fill="#a6a6a6" opacity="1.00" d=" M 99.36 66.33 C 108.24 66.19 117.12 66.47 126.00 66.22 L 126.00 73.45 C 125.23 78.77 123.52 83.89 121.68 88.93 C 112.87 89.72 104.02 89.47 95.20 89.13 C 97.18 81.65 98.71 74.05 99.36 66.33 Z"/>
<path fill="#a6a6a6" opacity="1.00" d=" M 10.64 97.01 C 18.07 96.66 25.55 96.23 32.98 96.84 C 36.63 96.86 37.94 100.81 39.77 103.30 C 44.94 112.39 53.35 118.83 60.73 126.00 L 55.67 126.00 C 37.56 123.27 19.95 113.07 10.64 97.01 Z"/>
<path fill="#a6a6a6" opacity="1.00" d=" M 44.67 96.97 C 49.74 96.51 54.84 96.54 59.92 96.91 C 60.10 102.94 60.11 108.99 59.87 115.03 C 53.76 110.01 48.15 104.15 44.67 96.97 Z"/>
<path fill="#a6a6a6" opacity="1.00" d=" M 67.31 97.07 C 72.55 96.52 77.83 96.47 83.08 96.96 C 79.25 104.04 73.73 110.09 67.42 115.05 C 67.24 109.06 67.28 103.06 67.31 97.07 Z"/>
<path fill="#a6a6a6" opacity="1.00" d=" M 87.53 103.58 C 89.46 100.87 90.99 96.63 94.96 96.77 C 102.32 96.30 109.71 96.69 117.07 96.92 C 107.41 113.01 89.74 123.53 71.31 126.00 L 66.34 126.00 C 74.06 119.21 82.30 112.60 87.53 103.58 Z"/>
</g>
</svg>