<svg width="44" height="30" viewBox="0 0 44 30" fill="none" xmlns="http://www.w3.org/2000/svg">
<g clip-path="url(#clip0_1805_847)">
<path d="M43.9915 18.6277C43.9865 16.9058 43.3532 15.249 42.2179 13.9879C41.3937 13.067 40.352 12.3831 39.1949 12.003C42.0153 9.04168 41.2886 5.33887 39.2977 3.3601C38.2822 2.32668 36.9263 1.72727 35.5013 1.68173C34.0763 1.63619 32.6872 2.14787 31.6118 3.11446C30.4962 4.06696 29.7815 5.42898 29.618 6.91431C29.3948 8.90218 30.0834 10.5762 31.4767 11.9954C30.2129 12.3939 29.0847 13.1548 28.2232 14.1895L26.5524 13.583C30.2493 10.3199 30.0937 5.40862 27.3203 2.37754C26.0231 0.94315 24.2327 0.0918713 22.334 0.00680209C20.4354 -0.0782671 18.5803 0.60967 17.1678 1.92265C15.6908 3.26609 14.8187 4.96587 14.663 6.99771C14.4634 9.67853 15.5058 11.8408 17.4761 13.5936L15.8611 14.1653C15.3134 13.6998 14.8495 13.2342 14.318 12.8749C13.7865 12.5155 13.1816 12.2562 12.6076 11.9515C15.3179 9.0993 14.7511 5.46473 12.6869 3.38133C11.6516 2.32591 10.2637 1.72102 8.80931 1.6914C7.35493 1.66178 5.94499 2.20968 4.87026 3.22212C2.76635 5.16602 1.93389 8.99316 4.81153 12.0045C4.68967 12.0576 4.57515 12.1107 4.45917 12.1562C1.96325 13.1781 0.449556 15.0477 0.103065 17.7907C-0.0643084 19.1129 0.0193784 20.4715 0.0414011 21.8135C0.0602398 21.9497 0.107891 22.0799 0.18097 22.195C0.254049 22.31 0.350762 22.407 0.464239 22.4791C2.25542 23.4587 4.14938 24.1471 6.16813 24.3957C6.33373 24.399 6.49808 24.3655 6.65005 24.2974C6.80203 24.2294 6.93809 24.1285 7.04904 24.0015C7.4895 23.4389 7.06519 22.8006 6.28706 22.5883C4.89669 22.2077 3.5254 21.7452 2.14531 21.3192C1.85167 21.2297 1.76064 21.0432 1.77092 20.7278C1.79588 19.9909 1.77092 19.2524 1.7856 18.514C1.85461 15.8741 3.92034 13.6618 6.46764 13.5739C7.94855 13.5193 9.43093 13.5193 10.9148 13.5739C11.5421 13.5932 12.1592 13.7431 12.7291 14.0146C13.299 14.2861 13.81 14.6736 14.2314 15.1539C14.1272 15.2524 14.0508 15.3328 13.9686 15.4041C12.0306 17.072 10.9074 19.1948 10.7738 21.8135C10.696 23.3404 10.6931 24.8749 10.7357 26.4033C10.7357 26.6975 11.0542 27.1099 11.3229 27.2524C18.4172 30.9148 25.5242 30.9295 32.6439 27.2964C33.1196 27.0538 33.3075 26.7051 33.2972 26.1728C33.2752 25.0568 33.2591 23.9408 33.2796 22.8249C33.3266 20.3533 32.6072 18.1744 30.9922 16.3366C30.6251 15.9196 30.2052 15.5542 29.7839 15.1387C30.5664 14.3032 31.4958 13.7013 32.6057 13.6467C34.3749 13.5603 36.1631 13.486 37.9235 13.6467C39.9921 13.8393 41.3708 15.1493 41.9845 17.1888C42.2062 17.9287 42.2047 18.7536 42.2194 19.5405C42.2517 21.2327 42.2414 21.2722 40.6881 21.8013C39.6838 22.1425 38.6399 22.3578 37.6049 22.6156C37.044 22.7566 36.746 23.1251 36.8077 23.6527C36.8693 24.1804 37.2555 24.4609 37.8354 24.42C37.9264 24.42 38.0174 24.4018 38.1085 24.3866C39.9506 24.0613 41.7349 23.4515 43.4013 22.5777C43.588 22.4976 43.7454 22.3586 43.8509 22.1804C43.9564 22.0023 44.0046 21.7942 43.9885 21.586C43.9812 20.5959 44.0047 19.6118 43.9915 18.6277ZM8.68019 11.6997C7.89738 11.6941 7.13372 11.4491 6.48551 10.9958C5.8373 10.5425 5.33356 9.90116 5.0378 9.15259C4.74204 8.40402 4.6675 7.58178 4.82359 6.78953C4.97969 5.99727 5.35941 5.27049 5.9149 4.70081C6.47038 4.13113 7.17675 3.74406 7.94493 3.58841C8.71312 3.43277 9.50874 3.51551 10.2315 3.82621C10.9542 4.1369 11.5716 4.66164 12.006 5.33426C12.4404 6.00688 12.6722 6.79725 12.6722 7.60574C12.6683 8.6953 12.2456 9.73866 11.497 10.5064C10.7484 11.2741 9.73518 11.7034 8.68019 11.6997ZM16.3984 7.58452C16.4072 4.45336 18.978 1.81196 22.0142 1.82258C25.0504 1.83319 27.6139 4.47155 27.6154 7.60726C27.6154 10.7687 25.0416 13.4162 21.9717 13.4041C18.9428 13.3813 16.3896 10.7233 16.3984 7.58452ZM31.4884 22.3032C31.4958 23.3237 31.5031 24.3442 31.5266 25.3631C31.5339 25.68 31.4605 25.8787 31.1537 26.0227C25.0509 28.8997 18.9526 28.8921 12.8586 26C12.7118 25.9272 12.5107 25.7179 12.5136 25.5769C12.5386 24.0121 12.4358 22.4185 12.6854 20.8885C13.2125 17.6618 16.0916 15.2782 19.2687 15.2236C20.1834 15.2085 21.0996 15.2236 22.0142 15.2236C22.0142 15.1918 22.0142 15.1615 22.0142 15.1311C23.3987 15.2267 24.8126 15.163 26.1589 15.448C29.317 16.1107 31.4664 18.9916 31.4884 22.3032ZM35.3057 11.6997C34.5224 11.6938 33.7584 11.4482 33.1101 10.9941C32.4618 10.54 31.9583 9.89776 31.6631 9.14838C31.368 8.399 31.2944 7.5761 31.4518 6.78358C31.6091 5.99107 31.9903 5.26446 32.5471 4.69548C33.104 4.1265 33.8116 3.74066 34.5806 3.58668C35.3496 3.4327 36.1455 3.51748 36.8679 3.83031C37.5903 4.14313 38.2068 4.66999 38.6395 5.34437C39.0722 6.01874 39.3018 6.81039 39.2992 7.61939C39.2906 8.70647 38.8658 9.74587 38.1175 10.5104C37.3692 11.275 36.3583 11.7026 35.3057 11.6997Z" fill="white"/>
</g>
<defs>
<clipPath id="clip0_1805_847">
<rect width="44" height="30" fill="white"/>
</clipPath>
</defs>
</svg>
