<svg width="30" height="30" viewBox="0 0 30 30" fill="none" xmlns="http://www.w3.org/2000/svg">
<g clip-path="url(#clip0_31_64)">
<path d="M29.9756 1.3283C29.7696 0.292517 28.8072 -0.238692 27.7633 0.108396C22.1056 1.99662 16.4474 3.88536 10.7887 5.77463C7.59414 6.83914 4.39906 7.90181 1.20347 8.96267C0.660779 9.14209 0.263733 9.46802 0.0765711 10.0188C0.0616921 10.0619 0.0632583 10.1183 -0.0017395 10.1277V10.8329C0.20735 11.5991 0.737512 11.9744 1.48616 12.1836C5.62409 13.3455 9.75342 14.5341 13.8882 15.7093C13.9859 15.7275 14.076 15.7745 14.1468 15.8443C14.2176 15.9141 14.2658 16.0036 14.2852 16.1011C15.4552 20.2317 16.6455 24.356 17.8037 28.4889C18.016 29.2458 18.3832 29.7895 19.1609 30.0034H19.7474C20.5031 29.8107 20.8735 29.2889 21.11 28.5673C22.2494 25.0799 23.4217 21.602 24.5823 18.1209L29.873 2.2489C29.9716 1.94647 30.0382 1.64169 29.9756 1.3283ZM14.3542 14.1776C10.1813 12.9762 6.00626 11.7817 1.82917 10.5939C1.8013 10.5916 1.77454 10.5819 1.75168 10.5658C1.72882 10.5497 1.7107 10.5277 1.69918 10.5022L26.6528 2.18152C26.5322 2.30845 26.4704 2.37818 26.4046 2.44321C22.5366 6.3121 18.6709 10.1815 14.8076 14.0515C14.6674 14.1917 14.5546 14.234 14.3542 14.1776ZM19.4655 28.3761C19.3543 28.0031 19.2611 27.7007 19.1742 27.3959C18.059 23.4936 16.9429 19.5905 15.8256 15.6866C15.7583 15.4516 15.806 15.3207 15.9689 15.1578C19.8249 11.3092 23.6776 7.45705 27.5268 3.60122C27.5963 3.52098 27.6834 3.45795 27.7813 3.41709C25.0169 11.7112 22.2541 20.0052 19.4655 28.3745V28.3761Z" fill="white"/>
</g>
<defs>
<clipPath id="clip0_31_64">
<rect width="30" height="30" fill="white"/>
</clipPath>
</defs>
</svg>
