<svg width="79" height="75" viewBox="0 0 79 75" fill="none" xmlns="http://www.w3.org/2000/svg">
<path d="M79 40.2219V27.3599H66.1379V65.946H79V53.084H74.7137V61.6598H70.4275V48.7977H76.8569V44.5082H70.4275V31.6494H74.7137V40.2219H79Z" fill="#232323"/>
<path d="M36.9309 57.3704H41.2171V65.9462H45.5034V33.7927C45.5034 30.2479 42.6188 27.3633 39.074 27.3633C35.5292 27.3633 32.6446 30.2479 32.6446 33.7927V65.9462H36.9309V57.3704V57.3704ZM36.9309 33.7927C36.9309 32.6122 37.8935 31.6495 39.074 31.6495C40.2545 31.6495 41.2171 32.6122 41.2171 33.7927V53.0841H36.9309V33.7927V33.7927Z" fill="#232323"/>
<path d="M6.42941 27.3599H0V65.9428H6.42941C9.9742 65.9428 12.8588 63.0582 12.8588 59.5134V50.9376C12.8588 49.292 12.2377 47.7896 11.2165 46.6513C12.2377 45.5131 12.8588 44.0106 12.8588 42.3651V33.7925C12.8621 30.2445 9.97745 27.3599 6.42941 27.3599ZM8.57254 59.5134C8.57254 60.6939 7.60992 61.6565 6.42941 61.6565H4.28627V48.7945H6.42941C7.60992 48.7945 8.57254 49.7571 8.57254 50.9376V59.5134ZM8.57254 42.3651C8.57254 43.5456 7.60992 44.5082 6.42941 44.5082H4.28627V31.6461H6.42941C7.60992 31.6461 8.57254 32.6088 8.57254 33.7893V42.3651Z" fill="#232323"/>
<path d="M52.4173 19.6102C52.5832 19.6362 52.7523 19.6524 52.9214 19.6622C53.6304 22.7094 56.3361 24.8818 59.5037 24.8818C63.2306 24.8818 66.2648 21.8476 66.2648 18.1207C66.2648 16.8296 65.9005 15.5776 65.2078 14.4914C64.7721 13.8084 64.2257 13.2165 63.5818 12.7287C63.6046 12.4848 63.6176 12.2409 63.6176 12.0002C63.6176 7.70747 60.1346 4.21147 55.8483 4.19196C54.2483 1.60003 51.4287 0 48.4238 0C44.7066 0 41.3537 2.41306 40.1504 5.90906C36.0268 6.11395 32.7324 9.53841 32.7324 13.7076C32.7324 17.8248 35.8609 21.1744 39.9195 21.4899C40.6317 23.8639 42.8009 25.4932 45.3115 25.4932H47.8937C49.1035 25.4932 50.1083 26.3875 50.284 27.5518V59.5134C50.284 65.4192 45.4839 70.2226 39.5813 70.2323C33.6787 70.2258 28.8786 65.4192 28.8786 59.5134C28.8786 57.8679 28.2575 56.3654 27.2363 55.2272C28.2575 54.0889 28.8786 52.5865 28.8786 50.9409V33.7926C28.8786 30.2478 25.994 27.3632 22.4492 27.3632H16.0198V65.9461H20.3061V57.3703H22.4492C23.6297 57.3703 24.5924 58.3329 24.5924 59.5134C24.5924 67.777 31.308 74.5024 39.5683 74.5186C39.5748 74.5186 39.5781 74.5186 39.5813 74.5186C39.5846 74.5186 39.5911 74.5186 39.5943 74.5186C47.8546 74.5024 54.5702 67.777 54.5702 59.5134V31.6462H56.7134C57.8939 31.6462 58.8565 32.6088 58.8565 33.7893V65.9428H63.1428V33.7893C63.1428 30.2445 60.2582 27.3599 56.7134 27.3599H53.6596C53.38 24.4233 50.9019 22.1175 47.8937 22.1175H45.3082C44.0659 22.1175 43.0513 21.1061 43.0513 19.8606C43.0513 18.615 44.0627 17.6036 45.3082 17.6036C46.2383 17.6036 46.9961 16.8459 46.9961 15.9158C46.9961 14.9857 46.2383 14.2279 45.3082 14.2279C42.8562 14.2279 40.713 15.7987 39.9585 18.0979C37.7699 17.815 36.1048 15.9515 36.1048 13.7043C36.1048 11.571 37.6463 9.74979 39.6984 9.35304C39.7081 9.51564 39.7244 9.67825 39.7439 9.8376C39.8577 10.7482 40.6935 11.4181 41.6301 11.301C42.0789 11.2458 42.4757 11.0181 42.7521 10.6604C43.0285 10.3027 43.1489 9.86037 43.0936 9.41483C43.0643 9.19369 43.0513 8.96604 43.0513 8.73839C43.0513 5.77898 45.4611 3.36918 48.4205 3.36918C50.5214 3.36918 52.4499 4.64725 53.3409 6.65054C53.3572 6.68306 53.3735 6.71884 53.393 6.75136L53.4222 6.80014C53.4385 6.82941 53.4548 6.85543 53.4808 6.8912L53.5165 6.94323C53.5328 6.966 53.5523 6.98876 53.5718 7.01153C53.5881 7.03104 53.6044 7.05055 53.6206 7.07007L53.6792 7.1286C53.6987 7.14811 53.7182 7.16763 53.7377 7.18714L53.7962 7.23592C53.819 7.25543 53.8418 7.2717 53.8613 7.28796C53.8775 7.30097 53.897 7.31397 53.9263 7.33349C53.9491 7.34975 53.9718 7.366 53.9946 7.37576C54.0174 7.38877 54.0401 7.40178 54.0792 7.42454C54.0987 7.4343 54.1182 7.44406 54.1345 7.45381C54.1605 7.46682 54.1865 7.47658 54.2353 7.49934L54.284 7.51885C54.3133 7.52861 54.3458 7.53837 54.3914 7.55463L54.4369 7.56764C54.4694 7.57739 54.4987 7.5839 54.5442 7.59365L54.5995 7.60341C54.6255 7.60666 54.6515 7.60991 54.7003 7.61642L54.8402 7.62617C54.8727 7.62617 54.9052 7.62617 54.9345 7.62617L54.9995 7.62292C55.0353 7.61967 55.0711 7.61642 55.0841 7.61317L55.1296 7.60666C55.354 7.57089 55.5816 7.55463 55.8093 7.55463C58.2549 7.55463 60.2419 9.54166 60.2419 11.9872C60.2419 12.8198 60.011 13.6295 59.572 14.3288C59.3346 14.7125 59.2565 15.1645 59.3606 15.6036C59.4646 16.0426 59.7281 16.4166 60.1118 16.654C60.3817 16.8231 60.6874 16.9109 61.0029 16.9109C61.533 16.9109 62.0208 16.667 62.3395 16.254C62.694 16.7971 62.8858 17.4378 62.8858 18.1077C62.8858 19.9744 61.3671 21.4931 59.5004 21.4931C57.8711 21.4931 56.4597 20.2931 56.1703 18.7126C56.2028 18.6898 56.2321 18.6671 56.2646 18.6443C57.8711 17.4605 58.6451 15.506 58.2874 13.5417C58.1215 12.6279 57.2402 12.0165 56.3231 12.1856C55.4093 12.3515 54.7979 13.2328 54.967 14.1499C55.0906 14.8361 54.8206 15.5158 54.2613 15.9288C53.8743 16.215 53.3962 16.332 52.9214 16.2605C52.4434 16.189 52.0238 15.9353 51.7376 15.5483C51.471 15.1841 51.0775 14.9499 50.6319 14.8816C50.1864 14.8133 49.7409 14.9239 49.3799 15.1906C49.0156 15.4572 48.7782 15.8507 48.7132 16.2963C48.6449 16.7418 48.7555 17.1873 49.0222 17.5516C49.8449 18.6768 51.0482 19.4053 52.4173 19.6102ZM24.5826 50.9409C24.5826 52.1214 23.62 53.084 22.4395 53.084H20.2963V31.6494H22.4395C23.62 31.6494 24.5826 32.6121 24.5826 33.7926V50.9409Z" fill="#232323"/>
<path d="M52.2255 14.2538C53.0515 14.2538 53.7703 13.6359 53.8938 12.8196C54.102 11.4505 53.7638 10.0846 52.941 8.9691C52.1182 7.85688 50.9149 7.12841 49.5458 6.92028C47.5718 6.62109 45.6433 7.45687 44.5083 9.09918C44.2514 9.46992 44.1538 9.91872 44.2351 10.361C44.3164 10.8033 44.5636 11.1903 44.9343 11.4472C45.6985 11.9773 46.7522 11.7854 47.2823 11.0179C47.6791 10.4456 48.3523 10.1561 49.0385 10.2569C49.5165 10.3285 49.936 10.5821 50.2222 10.9691C50.5084 11.3561 50.6255 11.8342 50.5539 12.309C50.4141 13.2294 51.0515 14.0912 51.9718 14.231C52.0564 14.2473 52.141 14.2538 52.2255 14.2538Z" fill="#232323"/>
</svg>