<svg width="30" height="30" viewBox="0 0 30 30" fill="none" xmlns="http://www.w3.org/2000/svg">
<g clip-path="url(#clip0_31_60)">
<path d="M29.8355 9.78163C29.4417 7.43064 28.3391 5.25583 26.6751 3.54799C25.0111 1.84015 22.865 0.680687 20.5239 0.224616C20.0924 0.138524 19.6554 0.0766933 19.2208 0.00390625H17.2864C17.2582 0.0821719 17.1916 0.0563427 17.1376 0.0610386C16.536 0.119725 15.9399 0.224386 15.3544 0.374101C9.24582 1.93237 5.47731 8.10518 6.85252 14.2858C8.21206 20.3952 14.2556 24.3876 20.4088 23.2394C26.6959 22.0607 30.8998 16.0593 29.8355 9.78163ZM18.3139 2.3464C23.4826 2.3644 27.6842 6.59231 27.6584 11.7531C27.6325 16.914 23.42 21.0973 18.2669 21.0855C13.0981 21.073 8.89261 16.8537 8.90749 11.6937C8.92237 6.53361 13.1467 2.32448 18.3139 2.3464Z" fill="white"/>
<path d="M10.1386 24.8141C8.71877 26.237 7.32869 27.692 5.8642 29.0671C3.87579 30.9337 0.665679 29.8498 0.0634395 27.1449C0.0516923 27.0917 0.0743989 27.0236 0 26.997V25.8848C0.127653 25.7283 0.116693 25.5271 0.180128 25.3495C0.370386 24.8155 0.679077 24.3315 1.08309 23.9337C2.42384 22.5969 3.76328 21.2591 5.10142 19.9202C5.62456 19.3989 6.34349 19.3817 6.82434 19.8701C7.30519 20.3585 7.2723 21.0597 6.76561 21.5677C5.42851 22.9086 4.08959 24.247 2.74884 25.5827C2.43558 25.8958 2.27896 26.2581 2.37294 26.6941C2.40846 26.9024 2.50224 27.0965 2.64345 27.2538C2.78467 27.4111 2.96755 27.5253 3.17096 27.5832C3.62284 27.7272 4.02302 27.6129 4.35508 27.2881C4.95497 26.7011 5.54468 26.104 6.1383 25.5107C6.91205 24.738 7.68554 23.9655 8.45877 23.1933C8.80884 22.845 9.22939 22.7401 9.69458 22.9037C10.1598 23.0673 10.4072 23.4038 10.466 23.8796C10.4893 24.0502 10.4717 24.2238 10.4148 24.3863C10.3579 24.5487 10.2633 24.6954 10.1386 24.8141Z" fill="white"/>
<path d="M23.7599 12.82C23.2814 12.6548 22.9924 12.2204 22.9689 11.671C22.8835 9.67055 21.9234 8.24533 20.112 7.40241C19.5317 7.13239 18.9059 7.03456 18.2638 7.02438C18.1096 7.02277 17.9573 6.99059 17.8156 6.92971C17.674 6.86884 17.5458 6.78048 17.4386 6.66976C17.3314 6.55903 17.2472 6.42815 17.191 6.28468C17.1347 6.14121 17.1075 5.98801 17.111 5.83396C17.1179 5.52845 17.2438 5.23768 17.4618 5.02343C17.6798 4.80919 17.9729 4.68835 18.2786 4.68659C18.8846 4.68385 19.4881 4.76282 20.0728 4.92139C23.0856 5.70405 25.2628 8.46134 25.3121 11.5466C25.4045 12.4787 24.5391 13.0892 23.7599 12.82Z" fill="white"/>
</g>
<defs>
<clipPath id="clip0_31_60">
<rect width="30" height="30" fill="white"/>
</clipPath>
</defs>
</svg>
